<?xml version="1.0" standalone="no"?>
 <!DOCTYPE svg PUBLIC "-//W3C//DTD SVG 1.1//EN" 
 "http://www.w3.org/Graphics/SVG/1.1/DTD/svg11.dtd"> 
<svg xmlns="http://www.w3.org/2000/svg" version="1.1" 
    width="4.17068cm" height="2.7051cm" viewBox="0 0 16420 10650 ">
<title>SVG Picture created as amplifier_board-brd.svg date 2017/12/13 15:05:06 </title>
  <desc>Picture generated by PCBNEW </desc>
<g style="fill:#000000; fill-opacity:1;stroke:#000000; stroke-opacity:1;
stroke-linecap:round; stroke-linejoin:round; "
 transform="translate(0 0) scale(1 1)">
</g>
<g style="fill:#000000; fill-opacity:0.0; 
stroke:#000000; stroke-width:-0.000393701; stroke-opacity:1; 
stroke-linecap:round; stroke-linejoin:round;">
</g>
<g style="fill:#000000; fill-opacity:0.0; 
stroke:#000000; stroke-width:118.11; stroke-opacity:1; 
stroke-linecap:round; stroke-linejoin:round;">
<path d="M13835 9259
L13779 9231
L13751 9202
L13723 9146
L13723 9118
L13751 9062
L13779 9034
L13835 9006
L13948 9006
L14004 9034
L14032 9062
L14060 9118
L14060 9146
L14032 9202
L14004 9231
L13948 9259
L13835 9259
L13779 9287
L13751 9315
L13723 9371
L13723 9484
L13751 9540
L13779 9568
L13835 9596
L13948 9596
L14004 9568
L14032 9540
L14060 9484
L14060 9371
L14032 9315
L14004 9287
L13948 9259
" />
<path d="M14285 9596
L14426 9596
L14426 9484
L14370 9456
L14313 9399
L14285 9315
L14285 9174
L14313 9090
L14370 9034
L14454 9006
L14566 9006
L14651 9034
L14707 9090
L14735 9174
L14735 9315
L14707 9399
L14651 9456
L14595 9484
L14595 9596
L14735 9596
" />
<path d="M879 7034
L823 7006
L738 7006
L654 7034
L598 7090
L570 7146
L542 7259
L542 7343
L570 7456
L598 7512
L654 7568
L738 7596
L795 7596
L879 7568
L907 7540
L907 7343
L795 7343
" />
<path d="M1160 7596
L1160 7006
L1498 7596
L1498 7006
" />
<path d="M1779 7596
L1779 7006
L1920 7006
L2004 7034
L2060 7090
L2088 7146
L2116 7259
L2116 7343
L2088 7456
L2060 7512
L2004 7568
L1920 7596
L1779 7596
" />
<path d="M724 5468
L809 5496
L949 5496
L1006 5468
L1034 5440
L1062 5384
L1062 5327
L1034 5271
L1006 5243
L949 5215
L837 5187
L781 5159
L753 5131
L724 5074
L724 5018
L753 4962
L781 4934
L837 4906
L978 4906
L1062 4934
" />
<path d="M1315 5496
L1315 4906
" />
<path d="M1906 4934
L1849 4906
L1765 4906
L1681 4934
L1624 4990
L1596 5046
L1568 5159
L1568 5243
L1596 5356
L1624 5412
L1681 5468
L1765 5496
L1821 5496
L1906 5468
L1934 5440
L1934 5243
L1821 5243
" />
<path d="M979 2834
L923 2806
L838 2806
L754 2834
L698 2890
L670 2946
L642 3059
L642 3143
L670 3256
L698 3312
L754 3368
L838 3396
L895 3396
L979 3368
L1007 3340
L1007 3143
L895 3143
" />
<path d="M1260 3396
L1260 2806
L1598 3396
L1598 2806
" />
<path d="M1879 3396
L1879 2806
L2020 2806
L2104 2834
L2160 2890
L2188 2946
L2216 3059
L2216 3143
L2188 3256
L2160 3312
L2104 3368
L2020 3396
L1879 3396
" />
<path d="M670 2071
L1120 2071
" />
<path d="M895 2296
L895 1846
" />
<path d="M1682 1706
L1401 1706
L1373 1987
L1401 1959
L1457 1931
L1598 1931
L1654 1959
L1682 1987
L1710 2043
L1710 2184
L1682 2240
L1654 2268
L1598 2296
L1457 2296
L1401 2268
L1373 2240
" />
<path d="M1879 1706
L2076 2296
L2273 1706
" />
</g>
<g style="fill:#000000; fill-opacity:0.0; 
stroke:#000000; stroke-width:0; stroke-opacity:1; 
stroke-linecap:round; stroke-linejoin:round;">
</g>
<g style="fill:#000000; fill-opacity:1.0; 
stroke:#000000; stroke-width:0; stroke-opacity:1; 
stroke-linecap:round; stroke-linejoin:round;">
<polyline style="fill-rule:evenodd;"
points="6975,1664
7683,1664
7683,2293
6975,2293
6975,1664
" /> 
<polyline style="fill-rule:evenodd;"
points="6975,2766
7683,2766
7683,3395
6975,3395
6975,2766
" /> 
<polyline style="fill-rule:evenodd;"
points="11195,4775
11195,5483
10566,5483
10566,4775
11195,4775
" /> 
<polyline style="fill-rule:evenodd;"
points="10093,4775
10093,5483
9464,5483
9464,4775
10093,4775
" /> 
<polyline style="fill-rule:evenodd;"
points="5383,5595
4675,5595
4675,4966
5383,4966
5383,5595
" /> 
<polyline style="fill-rule:evenodd;"
points="5383,4493
4675,4493
4675,3864
5383,3864
5383,4493
" /> 
<polyline style="fill-rule:evenodd;"
points="12083,8095
11375,8095
11375,7466
12083,7466
12083,8095
" /> 
<polyline style="fill-rule:evenodd;"
points="12083,6993
11375,6993
11375,6364
12083,6364
12083,6993
" /> 
<polyline style="fill-rule:evenodd;"
points="8995,4775
8995,5483
8366,5483
8366,4775
8995,4775
" /> 
<polyline style="fill-rule:evenodd;"
points="7893,4775
7893,5483
7264,5483
7264,4775
7893,4775
" /> 
<polyline style="fill-rule:evenodd;"
points="12277,1783
10781,1783
10781,995
12277,995
12277,1783
" /> 
<polyline style="fill-rule:evenodd;"
points="11824,4263
11234,4263
11234,3475
11824,3475
11824,4263
" /> 
<polyline style="fill-rule:evenodd;"
points="12730,4263
12139,4263
12139,3475
12730,3475
12730,4263
" /> 
<polyline style="fill-rule:evenodd;"
points="10919,4263
10328,4263
10328,3475
10919,3475
10919,4263
" /> 
<circle cx="14129.5" cy="7937.53" r="429.5" /> 
</g>
<g style="fill:#000000; fill-opacity:1.0; 
stroke:#000000; stroke-width:39.3701; stroke-opacity:1; 
stroke-linecap:round; stroke-linejoin:round;">
</g>
<g style="fill:#000000; fill-opacity:1.0; 
stroke:#000000; stroke-width:0; stroke-opacity:1; 
stroke-linecap:round; stroke-linejoin:round;">
<circle cx="14129.5" cy="6560.53" r="429.5" /> 
</g>
<g style="fill:#000000; fill-opacity:1.0; 
stroke:#000000; stroke-width:39.3701; stroke-opacity:1; 
stroke-linecap:round; stroke-linejoin:round;">
</g>
<g style="fill:#000000; fill-opacity:1.0; 
stroke:#000000; stroke-width:0; stroke-opacity:1; 
stroke-linecap:round; stroke-linejoin:round;">
<polyline style="fill-rule:evenodd;"
points="2929,2279
2929,1779
3929,1779
3929,2279
2929,2279
" /> 
<polyline style="fill-rule:evenodd;"
points="5078,2279
5078,1779
6078,1779
6078,2279
5078,2279
" /> 
<polyline style="fill-rule:evenodd;"
points="2929,3279
2929,2779
3929,2779
3929,3279
2929,3279
" /> 
<polyline style="fill-rule:evenodd;"
points="5078,3279
5078,2779
6078,2779
6078,3279
5078,3279
" /> 
<polyline style="fill-rule:evenodd;"
points="3079,7829
2579,7829
2579,6829
3079,6829
3079,7829
" /> 
<polyline style="fill-rule:evenodd;"
points="3079,5680
2579,5680
2579,4680
3079,4680
3079,5680
" /> 
<polyline style="fill-rule:evenodd;"
points="4079,7829
3579,7829
3579,6829
4079,6829
4079,7829
" /> 
<polyline style="fill-rule:evenodd;"
points="4079,5680
3579,5680
3579,4680
4079,4680
4079,5680
" /> 
<polyline style="fill-rule:evenodd;"
points="10103,8975
10103,9684
9474,9684
9474,8975
10103,8975
" /> 
<polyline style="fill-rule:evenodd;"
points="8985,8975
8985,9684
8356,9684
8356,8975
8985,8975
" /> 
<polyline style="fill-rule:evenodd;"
points="7861,6597
7861,6361
8471,6361
8471,6597
7861,6597
" /> 
<polyline style="fill-rule:evenodd;"
points="7861,7097
7861,6861
8471,6861
8471,7097
7861,7097
" /> 
<polyline style="fill-rule:evenodd;"
points="7861,7597
7861,7361
8471,7361
8471,7597
7861,7597
" /> 
<polyline style="fill-rule:evenodd;"
points="7861,8097
7861,7861
8471,7861
8471,8097
7861,8097
" /> 
<polyline style="fill-rule:evenodd;"
points="9987,8097
9987,7861
10597,7861
10597,8097
9987,8097
" /> 
<polyline style="fill-rule:evenodd;"
points="9987,7597
9987,7361
10597,7361
10597,7597
9987,7597
" /> 
<polyline style="fill-rule:evenodd;"
points="9987,7097
9987,6861
10597,6861
10597,7097
9987,7097
" /> 
<polyline style="fill-rule:evenodd;"
points="9987,6597
9987,6361
10597,6361
10597,6597
9987,6597
" /> 
<polyline style="fill-rule:evenodd;"
points="5691,6738
5691,7014
5455,7014
5455,6738
5691,6738
" /> 
<polyline style="fill-rule:evenodd;"
points="6203,6738
6203,7014
5967,7014
5967,6738
6203,6738
" /> 
<polyline style="fill-rule:evenodd;"
points="6006,7664
6006,7939
5652,7939
5652,7664
6006,7664
" /> 
<polyline style="fill-rule:evenodd;"
points="6584,5603
5875,5603
5875,4974
6584,4974
6584,5603
" /> 
<polyline style="fill-rule:evenodd;"
points="6584,4485
5875,4485
5875,3856
6584,3856
6584,4485
" /> 
</g>
<g style="fill:#000000; fill-opacity:1.0; 
stroke:#000000; stroke-width:78.7402; stroke-opacity:1; 
stroke-linecap:round; stroke-linejoin:round;">
</g>
<g style="fill:#000000; fill-opacity:0.0; 
stroke:#000000; stroke-width:78.7402; stroke-opacity:1; 
stroke-linecap:round; stroke-linejoin:round;">
<path d="M3829 5180
L4929 5180
" />
<path d="M4929 5180
L5029 5280
" />
</g>
<g style="fill:#000000; fill-opacity:0.0; 
stroke:#000000; stroke-width:98.4252; stroke-opacity:1; 
stroke-linecap:round; stroke-linejoin:round;">
<path d="M2829 5180
L3829 5180
" />
</g>
<g style="fill:#000000; fill-opacity:0.0; 
stroke:#000000; stroke-width:78.7402; stroke-opacity:1; 
stroke-linecap:round; stroke-linejoin:round;">
<path d="M11529 3869
L11529 4480
" />
<path d="M11529 4480
L10880 5129
" />
</g>
<g style="fill:#000000; fill-opacity:0.0; 
stroke:#000000; stroke-width:98.4252; stroke-opacity:1; 
stroke-linecap:round; stroke-linejoin:round;">
<path d="M10880 5129
L14329 5129
" />
<path d="M12478 7780
L11729 7780
" />
<path d="M13029 7229
L12478 7780
" />
<path d="M14729 7229
L13029 7229
" />
<path d="M15129 6829
L14729 7229
" />
<path d="M15129 5929
L15129 6829
" />
<path d="M14329 5129
L15129 5929
" />
<path d="M10292 7479
L11428 7479
" />
<path d="M11428 7479
L11729 7780
" />
</g>
<g style="fill:#000000; fill-opacity:0.0; 
stroke:#000000; stroke-width:78.7402; stroke-opacity:1; 
stroke-linecap:round; stroke-linejoin:round;">
<path d="M7329 3080
L9834 3080
" />
<path d="M9834 3080
L10624 3869
" />
<path d="M9778 5129
L9778 4715
" />
<path d="M9778 4715
L10624 3869
" />
<path d="M10464 4029
L8229 4029
" />
</g>
<g style="fill:#000000; fill-opacity:0.0; 
stroke:#000000; stroke-width:98.4252; stroke-opacity:1; 
stroke-linecap:round; stroke-linejoin:round;">
<path d="M7578 4680
L8229 4029
" />
<path d="M7578 4680
L7578 5129
" />
</g>
<g style="fill:#000000; fill-opacity:0.0; 
stroke:#000000; stroke-width:78.7402; stroke-opacity:1; 
stroke-linecap:round; stroke-linejoin:round;">
<path d="M10464 4029
L10624 3869
" />
</g>
<g style="fill:#000000; fill-opacity:0.0; 
stroke:#000000; stroke-width:98.4252; stroke-opacity:1; 
stroke-linecap:round; stroke-linejoin:round;">
<path d="M5578 3029
L7278 3029
" />
<path d="M3429 3029
L5578 3029
" />
<path d="M5573 6876
L5573 7173
" />
<path d="M7579 6479
L8166 6479
" />
<path d="M6729 7329
L7579 6479
" />
<path d="M5729 7329
L6729 7329
" />
<path d="M5573 7173
L5729 7329
" />
<path d="M3829 7329
L5120 7329
" />
<path d="M5120 7329
L5573 6876
" />
<path d="M10292 6979
L11428 6979
" />
<path d="M11428 6979
L11729 6678
" />
<path d="M10292 6979
L9779 6979
" />
<path d="M9529 6729
L9529 5378
" />
<path d="M9779 6979
L9529 6729
" />
<path d="M9529 5378
L9778 5129
" />
<path d="M7578 5129
L7578 5891
" />
<path d="M7578 5891
L8166 6479
" />
<path d="M2829 7329
L3829 7329
" />
<path d="M7278 3029
L7329 3080
" />
<path d="M8166 7979
L6007 7979
" />
<path d="M6007 7979
L5829 7801
" />
<path d="M8166 7979
L8166 8825
" />
<path d="M8166 8825
L8670 9329
" />
</g>
<g style="fill:#000000; fill-opacity:0.0; 
stroke:#000000; stroke-width:393.701; stroke-opacity:1; 
stroke-linecap:round; stroke-linejoin:round;">
<path d="M10292 7979
L10292 7992
" />
<path d="M10292 7992
L11029 8729
" />
<path d="M13337 8729
L14129 7937
" />
<path d="M11029 8729
L13337 8729
" />
</g>
<g style="fill:#000000; fill-opacity:0.0; 
stroke:#000000; stroke-width:98.4252; stroke-opacity:1; 
stroke-linecap:round; stroke-linejoin:round;">
<path d="M10292 7979
L10379 7979
" />
<path d="M10292 7979
L10292 8825
" />
<path d="M10292 8825
L9788 9329
" />
<path d="M8166 6979
L8679 6979
" />
<path d="M8829 6829
L8829 5278
" />
<path d="M8679 6979
L8829 6829
" />
<path d="M8829 5278
L8680 5129
" />
<path d="M8166 7479
L8166 6979
" />
</g>
<g style="fill:#000000; fill-opacity:0.0; 
stroke:#000000; stroke-width:393.701; stroke-opacity:1; 
stroke-linecap:round; stroke-linejoin:round;">
<path d="M10292 6479
L10379 6479
" />
<path d="M10379 6479
L10929 5929
" />
<path d="M10929 5929
L13498 5929
" />
<path d="M13498 5929
L14129 6560
" />
</g>
<g style="fill:#000000; fill-opacity:0.0; 
stroke:#000000; stroke-width:78.7402; stroke-opacity:1; 
stroke-linecap:round; stroke-linejoin:round;">
<path d="M7329 1978
L9578 1978
" />
<path d="M12435 2835
L12435 3869
" />
<path d="M12129 2529
L12435 2835
" />
<path d="M10129 2529
L12129 2529
" />
<path d="M9578 1978
L10129 2529
" />
</g>
<g style="fill:#000000; fill-opacity:0.0; 
stroke:#000000; stroke-width:98.4252; stroke-opacity:1; 
stroke-linecap:round; stroke-linejoin:round;">
<path d="M5578 2029
L7278 2029
" />
<path d="M3429 2029
L5578 2029
" />
<path d="M7278 2029
L7329 1978
" />
</g>
<g style="fill:#000000; fill-opacity:0.0; 
stroke:#000000; stroke-width:78.7402; stroke-opacity:1; 
stroke-linecap:round; stroke-linejoin:round;">
<path d="M5029 4178
L6221 4178
" />
<path d="M6221 4178
L6229 4170
" />
<path d="M6229 5288
L6229 6732
" />
<path d="M6229 6732
L6085 6876
" />
</g>
<g style="fill:#FFFFFF; fill-opacity:0.0; 
stroke:#FFFFFF; stroke-width:78.7402; stroke-opacity:1; 
stroke-linecap:round; stroke-linejoin:round;">
</g>
<g style="fill:#FFFFFF; fill-opacity:1.0; 
stroke:#FFFFFF; stroke-width:0; stroke-opacity:1; 
stroke-linecap:round; stroke-linejoin:round;">
<circle cx="14129.5" cy="7937.53" r="236" /> 
</g>
<g style="fill:#FFFFFF; fill-opacity:1.0; 
stroke:#FFFFFF; stroke-width:39.3701; stroke-opacity:1; 
stroke-linecap:round; stroke-linejoin:round;">
</g>
<g style="fill:#FFFFFF; fill-opacity:1.0; 
stroke:#FFFFFF; stroke-width:0; stroke-opacity:1; 
stroke-linecap:round; stroke-linejoin:round;">
<circle cx="14129.5" cy="6560.53" r="236" /> 
</g>
<g style="fill:#FFFFFF; fill-opacity:1.0; 
stroke:#FFFFFF; stroke-width:39.3701; stroke-opacity:1; 
stroke-linecap:round; stroke-linejoin:round;">
</g>
<g style="fill:#000000; fill-opacity:1.0; 
stroke:#000000; stroke-width:39.3701; stroke-opacity:1; 
stroke-linecap:round; stroke-linejoin:round;">
</g>
<g style="fill:#000000; fill-opacity:1.0; 
stroke:#000000; stroke-width:59.0551; stroke-opacity:1; 
stroke-linecap:round; stroke-linejoin:round;">
</g>
<g style="fill:#000000; fill-opacity:0.0; 
stroke:#000000; stroke-width:59.0551; stroke-opacity:1; 
stroke-linecap:round; stroke-linejoin:round;">
<path d="M29 29
L29 10329
" />
<path d="M16029 29
L29 29
" />
<path d="M16029 10329
L16029 29
" />
<path d="M16029 10329
L29 10329
" />
</g> 
</svg>
