0
SECTION
2
HEADER
9
$INSUNITS
70
1
9
$ACADVER
1
AC1014
9
$HANDSEED
5
FFFF
0
ENDSEC
0
SECTION
2
TABLES
0
TABLE
2
VPORT
5
8
100
AcDbSymbolTable
0
ENDTAB
0
TABLE
2
LTYPE
5
5
100
AcDbSymbolTable
0
LTYPE
5
14
100
AcDbSymbolTableRecord
100
AcDbLinetypeTableRecord
2
BYBLOCK
70
0
0
LTYPE
5
15
100
AcDbSymbolTableRecord
100
AcDbLinetypeTableRecord
2
BYLAYER
70
0
0
ENDTAB
0
TABLE
2
LAYER
5
2
100
AcDbSymbolTable
70
2
0
LAYER
5
50
100
AcDbSymbolTableRecord
100
AcDbLayerTableRecord
2
0
70
0
6
CONTINUOUS
0
ENDTAB
0
TABLE
2
STYLE
5
3
100
AcDbSymbolTable
70
1
0
STYLE
5
11
100
AcDbSymbolTableRecord
100
AcDbTextStyleTableRecord
2
STANDARD
70
0
0
ENDTAB
0
TABLE
2
VIEW
5
6
100
AcDbSymbolTable
70
0
0
ENDTAB
0
TABLE
2
UCS
5
7
100
AcDbSymbolTable
70
0
0
ENDTAB
0
TABLE
2
APPID
5
9
100
AcDbSymbolTable
70
2
0
APPID
5
12
100
AcDbSymbolTableRecord
100
AcDbRegAppTableRecord
2
ACAD
70
0
0
ENDTAB
0
TABLE
2
DIMSTYLE
5
A
100
AcDbSymbolTable
70
1
0
ENDTAB
0
TABLE
2
BLOCK_RECORD
5
1
100
AcDbSymbolTable
70
1
0
BLOCK_RECORD
5
1F
100
AcDbSymbolTableRecord
100
AcDbBlockTableRecord
2
*MODEL_SPACE
0
BLOCK_RECORD
5
1B
100
AcDbSymbolTableRecord
100
AcDbBlockTableRecord
2
*PAPER_SPACE
0
ENDTAB
0
ENDSEC
0
SECTION
2
BLOCKS
0
BLOCK
5
20
100
AcDbEntity
100
AcDbBlockBegin
2
*MODEL_SPACE
0
ENDBLK
5
21
100
AcDbEntity
100
AcDbBlockEnd
0
BLOCK
5
1C
100
AcDbEntity
100
AcDbBlockBegin
2
*PAPER_SPACE
0
ENDBLK
5
1D
100
AcDbEntity
100
AcDbBlockEnd
0
ENDSEC
0
SECTION
2
ENTITIES
0
ARC
5
100
100
AcDbEntity
8
0
100
AcDbCircle
10
98.83207655136286
20
-11.882743929094293
30
-2.7974123455122048e-15
40
0.12499999999996832
100
AcDbArc
50
135.00005733794319
51
315.00005733794774
0
LINE
5
101
100
AcDbEntity
8
0
100
AcDbLine
10
98.743688115261222
20
-11.794355669899439
30
-2.797412343618676e-15
11
98.743686842878375
21
-10.522909060493316
31
-1.3987061727561016e-15
0
ARC
5
102
100
AcDbEntity
8
0
100
AcDbCircle
10
98.832075102073233
20
-10.434520624391638
30
-1.3987061727561026e-15
40
0.12499999999998204
100
AcDbArc
50
72.968808879798274
51
225.00005733795464
0
LINE
5
103
100
AcDbEntity
8
0
100
AcDbLine
10
98.86868663481863
20
-10.315002443054954
30
-1.3987061522846022e-15
11
98.868685216681726
21
-8.8979089354020946
31
-1.3987061727561022e-15
0
ARC
5
104
100
AcDbEntity
8
0
100
AcDbCircle
10
98.95707347587657
20
-8.8095204993004277
30
-1.3987061727561026e-15
40
0.12499999999997032
100
AcDbArc
50
45.000057337973111
51
225.00005733795584
0
LINE
5
105
100
AcDbEntity
8
0
100
AcDbLine
10
99.045461735071385
20
-8.7211320631987359
30
-1.3987061708456444e-15
11
99.399935039774334
21
-8.7211317084644602
31
-1.398706172722135e-15
0
LINE
5
106
100
AcDbEntity
8
0
100
AcDbLine
10
99.399935039774334
20
-8.7211317084644602
30
-1.398706172722135e-15
11
99.399929024625166
21
-2.710408403829129
31
-1.3987061727560997e-15
0
ARC
5
107
100
AcDbEntity
8
0
100
AcDbCircle
10
99.488317283787453
20
-2.6220199676949072
30
-2.7974123455122048e-15
40
0.12499999999996894
100
AcDbArc
50
45.000057274698499
51
225.00005727470295
0
LINE
5
108
100
AcDbEntity
8
0
100
AcDbLine
10
99.576705543079882
20
-2.5336315316908244
30
-2.7974123303626222e-15
11
99.649928846981723
21
-2.5336314584675637
31
-4.1961185078471342e-15
0
LINE
5
109
100
AcDbEntity
8
0
100
AcDbLine
10
99.649928846981723
20
-2.5336314584675637
30
-4.1961185078471342e-15
11
99.649927846981711
21
-1.5336314584680526
31
-2.797412345512204e-15
0
LINE
5
110
100
AcDbEntity
8
0
100
AcDbLine
10
99.649927846981711
20
-1.5336314584680526
30
-2.797412345512204e-15
11
99.576704542213349
21
-1.5336315316913605
31
-2.7974123559333788e-15
0
ARC
5
111
100
AcDbEntity
8
0
100
AcDbCircle
10
99.488316106209339
20
-1.4452432723988713
30
-1.3987061727561022e-15
40
0.12499999999996467
100
AcDbArc
50
135.00005735903088
51
315.00005735903545
0
LINE
5
112
100
AcDbEntity
8
0
100
AcDbLine
10
99.399927670075172
20
-1.3568550132365511
30
-1.3987061708498717e-15
11
99.399921654925947
21
4.6538682915288252
31
-2.7974123455122036e-15
0
LINE
5
113
100
AcDbEntity
8
0
100
AcDbLine
10
99.399921654925947
20
4.6538682915288252
30
-2.7974123455122036e-15
11
99.399915672861979
21
10.664591127861538
31
-2.7974123455122064e-15
0
ARC
5
114
100
AcDbEntity
8
0
100
AcDbCircle
10
99.488303932754036
20
10.752979563266001
30
-1.3987061727561026e-15
40
0.12499999999996754
100
AcDbArc
50
45.000057432403423
51
225.00005743240339
0
LINE
5
115
100
AcDbEntity
8
0
100
AcDbLine
10
99.576692191803176
20
10.841367999513366
30
-1.3987061709363709e-15
11
99.649915501695858
21
10.84136807273663
31
-1.3987061623349288e-15
0
LINE
5
116
100
AcDbEntity
8
0
100
AcDbLine
10
99.649915501695858
20
10.84136807273663
30
-1.3987061623349288e-15
11
99.649914501695847
21
11.841368072736129
31
-1.3987061727561014e-15
0
LINE
5
117
100
AcDbEntity
8
0
100
AcDbLine
10
99.649914501695847
20
11.841368072736129
30
-1.3987061727561014e-15
11
99.576691197413993
21
11.841367999512823
31
-1.3987061831772768e-15
0
ARC
5
118
100
AcDbEntity
8
0
100
AcDbCircle
10
99.488302761166736
20
11.929756258562062
30
-1.3987061727561026e-15
40
0.12499999999996735
100
AcDbArc
50
135.00005688597773
51
315.00005688597713
0
LINE
5
119
100
AcDbEntity
8
0
100
AcDbLine
10
99.399914325762325
20
12.018144518454154
30
-1.3987061708815267e-15
11
99.399908343698314
21
18.028867353943902
31
-1.3987061727560991e-15
0
LINE
5
120
100
AcDbEntity
8
0
100
AcDbLine
10
99.399908343698314
20
18.028867353943902
30
-1.3987061727560991e-15
11
98.920434965375591
21
18.028866874117487
31
-1.3987060894326618e-15
0
ARC
5
121
100
AcDbEntity
8
0
100
AcDbCircle
10
98.832046529273953
20
18.117255133312351
30
-1.3987061727561024e-15
40
0.12499999999996832
100
AcDbArc
50
135.00005733793972
51
315.00005733793972
0
LINE
5
122
100
AcDbEntity
8
0
100
AcDbLine
10
98.743658093172314
20
18.205643392507216
30
-1.3987061708625761e-15
11
98.743656820789496
21
19.477090001913297
31
-2.7974123455122044e-15
0
ARC
5
123
100
AcDbEntity
8
0
100
AcDbCircle
10
98.832045079984368
20
19.565478438014974
30
-2.7974123455122052e-15
40
0.12499999999998024
100
AcDbArc
50
72.968808879817928
51
225.0000573379501
0
LINE
5
124
100
AcDbEntity
8
0
100
AcDbLine
10
98.868656612729723
20
19.684996619351665
30
-2.797412325040705e-15
11
98.868655194592804
21
21.102090127004516
31
-2.7974123455122044e-15
0
ARC
5
125
100
AcDbEntity
8
0
100
AcDbCircle
10
98.957043453787634
20
21.1904785631062
30
-1.3987061727561024e-15
40
0.12499999999996832
100
AcDbArc
50
45.000057338004204
51
225.00005733796618
0
LINE
5
126
100
AcDbEntity
8
0
100
AcDbLine
10
99.045431712982392
20
21.278866999207931
30
-1.3987061708456432e-15
11
99.399905017685398
21
21.278867353942196
31
-2.7974123037935467e-15
0
LINE
5
127
100
AcDbEntity
8
0
100
AcDbLine
10
99.399905017685398
20
21.278867353942196
30
-2.7974123037935467e-15
11
99.399899159457746
21
27.289591129674356
31
-1.3987061727560862e-15
0
ARC
5
128
100
AcDbEntity
8
0
100
AcDbCircle
10
99.48828742208137
20
27.377979562347242
30
-1.3987061727561026e-15
40
0.12499999999996587
100
AcDbArc
50
45.000058022640779
51
225.00005494431346
0
LINE
5
129
100
AcDbEntity
8
0
100
AcDbLine
10
99.576675680219964
20
27.466367999505142
30
-1.3987061712918151e-15
11
99.649899012536437
21
27.466368072728429
31
-1.3987061623349288e-15
0
LINE
5
130
100
AcDbEntity
8
0
100
AcDbLine
10
99.649899012536437
20
27.466368072728429
30
-1.3987061623349288e-15
11
99.649898012536426
21
28.466368072727921
31
-1.3987061727561014e-15
0
LINE
5
131
100
AcDbEntity
8
0
100
AcDbLine
10
99.649898012536426
20
28.466368072727921
30
-1.3987061727561014e-15
11
99.576674710075594
21
28.466367999504623
31
-2.7974123559333788e-15
0
ARC
5
132
100
AcDbEntity
8
0
100
AcDbCircle
10
99.488286272917804
20
28.554756257643323
30
-1.3987061727561026e-15
40
0.12499999999996356
100
AcDbArc
50
135.00005511529736
51
315.00005794694221
0
LINE
5
133
100
AcDbEntity
8
0
100
AcDbLine
10
99.399897840244961
20
28.64314452026699
30
-1.3987061577651203e-15
11
99.399891982017223
21
34.653868291514122
31
-1.3987061727560716e-15
0
LINE
5
134
100
AcDbEntity
8
0
100
AcDbLine
10
99.399891982017223
20
34.653868291514122
30
-1.3987061727560716e-15
11
94.399891982022254
21
34.653863291514078
31
-1.3339102034312682e-21
0
LINE
5
135
100
AcDbEntity
8
0
100
AcDbLine
10
94.399891982022254
20
34.653863291514078
30
-1.3339102034312682e-21
11
94.399894997022272
21
31.638863291515587
31
-1.3987061727561014e-15
0
LINE
5
136
100
AcDbEntity
8
0
100
AcDbLine
10
94.399894997022272
20
31.638863291515587
30
-1.3987061727561014e-15
11
96.223118301723829
21
31.638865114738909
31
-1.398705839278546e-15
0
ARC
5
137
100
AcDbEntity
8
0
100
AcDbCircle
10
96.311506737760411
20
31.550476855478991
30
-1.398706172756103e-15
40
0.12499999999997219
100
AcDbArc
50
-44.999942704286333
51
135.00005729576895
0
LINE
5
138
100
AcDbEntity
8
0
100
AcDbLine
10
96.399895173796907
20
31.462088596218987
30
-1.3987061746580938e-15
11
96.399895508993581
21
31.126891986812545
31
-1.3987061727561026e-15
0
ARC
5
139
100
AcDbEntity
8
0
100
AcDbCircle
10
96.311507249733722
20
31.038503550775886
30
-1.3987061727561026e-15
40
0.12499999999996823
100
AcDbArc
50
-134.99994270416659
51
45.000057295813832
0
LINE
5
140
100
AcDbEntity
8
0
100
AcDbLine
10
96.223118990473907
20
30.950115114739209
30
-1.3987061614232113e-15
11
94.399895685772279
21
30.950113291515933
31
-2.797412678989762e-15
0
LINE
5
141
100
AcDbEntity
8
0
100
AcDbLine
10
94.399895685772279
20
30.950113291515933
30
-2.797412678989762e-15
11
94.399948278272745
21
-21.642386708457696
31
-2.7974123455122115e-15
0
LINE
5
142
100
AcDbEntity
8
0
100
AcDbLine
10
94.399948278272745
20
-21.642386708457696
30
-2.7974123455122115e-15
11
96.22317158297426
21
-21.642384885234371
31
-1.398705839278546e-15
0
ARC
5
143
100
AcDbEntity
8
0
100
AcDbCircle
10
96.311560019010898
20
-21.730773144494243
30
2.2792557786613248e-37
40
0.12499999999996625
100
AcDbArc
50
-44.999942704295542
51
135.00005729580232
0
LINE
5
144
100
AcDbEntity
8
0
100
AcDbLine
10
96.39994845504738
20
-21.819161403754261
30
-1.9019837003162432e-24
11
96.399948790244025
21
-22.154358013160682
31
-1.398706172756103e-15
0
ARC
5
145
100
AcDbEntity
8
0
100
AcDbCircle
10
96.31156053098421
20
-22.24274644919738
30
-7.1282063477737949e-38
40
0.1249999999999702
100
AcDbArc
50
-134.99994270413782
51
45.000057295840321
0
LINE
5
146
100
AcDbEntity
8
0
100
AcDbLine
10
96.223172271724437
20
-22.331134885234103
30
-1.9020002694511638e-24
11
94.399948967022752
21
-22.331136708457368
31
-1.3987065062336592e-15
0
LINE
5
147
100
AcDbEntity
8
0
100
AcDbLine
10
94.399948967022752
20
-22.331136708457368
30
-1.3987065062336592e-15
11
94.39995198202277
21
-25.346136708455852
31
-1.398706172756103e-15
0
LINE
5
148
100
AcDbEntity
8
0
100
AcDbLine
10
94.39995198202277
20
-25.346136708455852
30
-1.398706172756103e-15
11
99.399951677015792
21
-25.34613170845611
31
-1.3987048388458992e-15
0
LINE
5
149
100
AcDbEntity
8
0
100
AcDbLine
10
99.399951677015792
20
-25.34613170845611
30
-1.3987048388458992e-15
11
99.39994566186661
21
-19.335408403820743
31
-1.3987061727560961e-15
0
ARC
5
150
100
AcDbEntity
8
0
100
AcDbCircle
10
99.488333921028911
20
-19.247019967686541
30
-1.3987061727561026e-15
40
0.12499999999996819
100
AcDbArc
50
45.000057274689858
51
225.00005727469446
0
LINE
5
151
100
AcDbEntity
8
0
100
AcDbLine
10
99.576722180321354
20
-19.15863153168247
30
-1.3987061840762998e-15
11
99.649945484223196
21
-19.158631458459201
31
-1.3987061623349288e-15
0
LINE
5
152
100
AcDbEntity
8
0
100
AcDbLine
10
99.649945484223196
20
-19.158631458459201
30
-1.3987061623349288e-15
11
99.649944484223184
21
-18.158631458459713
31
1.1064240058463994e-30
0
LINE
5
153
100
AcDbEntity
8
0
100
AcDbLine
10
99.649944484223184
20
-18.158631458459713
30
1.1064240058463994e-30
11
99.576721179454779
21
-18.158631531683021
31
-1.3987061831772762e-15
0
ARC
5
154
100
AcDbEntity
8
0
100
AcDbCircle
10
99.488332743450812
20
-18.070243272390503
30
-1.3987061727561026e-15
40
0.12499999999996837
100
AcDbArc
50
135.00005735904182
51
315.00005735903721
0
LINE
5
155
100
AcDbEntity
8
0
100
AcDbLine
10
99.399944307316616
20
-17.981855013228188
30
-1.3987061840847585e-15
11
99.399938292167406
21
-11.971131708462812
31
-2.7974123455122009e-15
0
LINE
5
156
100
AcDbEntity
8
0
100
AcDbLine
10
99.399938292167406
20
-11.971131708462812
30
-2.7974123455122009e-15
11
98.920464987464513
21
-11.971132188289147
31
-2.7974123474057337e-15
0
LWPOLYLINE
5
157
100
AcDbEntity
8
0
100
AcDbPolyline
90
121
70
1
43
0.0
10
-11.281249999999936
20
0.60069372568860901
42
-0.41420879890988721
10
-11.281249999999936
20
0.42391846790248483
10
-11.281249999999947
20
-1.1426684679036556
42
-0.41420879890969714
10
-11.281249999999959
20
-1.3194437256897225
10
-11.281249999999961
20
-1.3194444444444411
10
-11.281250718748714
20
-1.3194444444445284
42
-0.41421356237703155
10
-11.458027414046683
20
-1.3194444444444311
10
-11.999999999999931
20
-1.3194444444444453
10
-11.999999999999961
20
-3.2395833333333219
10
-11.45802741404553
20
-3.2395833333333219
42
-0.41421356236987494
10
-11.281250718749932
20
-3.2395833333333197
10
-11.281249999999952
20
-3.2395833333333246
10
-11.281249999999831
20
-3.2395840520890506
42
-0.4142087989093981
10
-11.281249999999936
20
-3.4163593098752383
10
-11.281249999999938
20
-4.9829462456813989
42
-0.41420879890973994
10
-11.281249999999936
20
-5.1597215034674786
10
-11.281249999999938
20
-5.1597222222221957
10
-11.281250718748709
20
-5.159722222222304
42
-0.4142135623769258
10
-11.458027414046647
20
-5.1597222222222028
10
-11.999999999999945
20
-5.1597222222221966
10
-11.99999999999994
20
-7.0798611111110752
10
-11.458027414045533
20
-7.0798611111110716
42
-0.41421356236992707
10
-11.281250718749918
20
-7.0798611111110814
10
-11.281249999999943
20
-7.0798611111110796
10
-11.281249999999842
20
-7.0798618298667888
42
-0.41420879890950585
10
-11.281249999999959
20
-7.2566370876530071
10
-11.281249999999961
20
-8.9999999999999591
10
11.281249999999929
20
-8.9999999999999591
10
11.281250000000792
20
-7.2566385251527912
42
-1.0000040658550178
10
11.458025976546596
20
-7.0798611111110867
10
11.999999999999959
20
-7.0798611111110796
10
11.99999999999995
20
-5.1597222222222019
10
11.458025976548678
20
-5.1597222222212356
42
-1.0000040658618443
10
11.281249999999961
20
-4.9829448081824408
10
11.28125000000083
20
-3.4163607473750699
42
-1.0000040658550178
10
11.458025976546582
20
-3.2395833333333144
10
11.999999999999961
20
-3.2395833333333184
10
11.99999999999995
20
-1.3194444444444433
10
11.458025976548655
20
-1.3194444444434945
42
-1.0000040658618443
10
11.281249999999961
20
-1.1426670304046789
10
11.281250000000815
20
0.42391703040267165
42
-1.0000040658550178
10
11.458025976546551
20
0.60069444444444542
10
11.999999999999959
20
0.60069444444444453
10
11.99999999999995
20
2.520833333333325
10
11.458025976548658
20
2.5208333333342514
42
-1.0000040658618443
10
11.281249999999961
20
2.6976107473730675
10
11.281250000000837
20
4.2641948081804069
42
-1.0000040658550178
10
11.45802597654655
20
4.4409722222222046
10
11.999999999999948
20
4.4409722222222019
10
11.99999999999995
20
6.3611111111110832
10
11.458025976548633
20
6.3611111111119794
42
-1.0000040658618443
10
11.281249999999961
20
6.5378885251508194
10
11.281249999999961
20
8.2812499999999627
10
9.99495779473048
20
8.2812500000008633
42
-1.0000040658618443
10
9.8181818181817828
20
8.4580274140396803
10
9.8181818181817935
20
8.9999999999999627
10
7.6363636363636243
20
8.9999999999999662
10
7.6363636363636225
20
8.4580259765406307
42
-0.41420879890920231
10
7.6363636363636207
20
8.2812507187547109
10
7.6363636363636171
20
8.281249999999968
10
7.6363629176148171
20
8.2812499999998579
42
-0.41421356237727108
10
7.4595862223167764
20
8.2812499999999627
10
5.631321431092954
20
8.2812499999996732
42
-1.0000040658550178
10
5.4545454545454328
20
8.4580274140396643
10
5.4545454545454506
20
8.9999999999999627
10
3.2727272727272765
20
8.9999999999999662
10
3.2727272727272809
20
8.4580259765406414
42
-0.4142087989092938
10
3.2727272727272729
20
8.2812507187547038
10
3.2727272727272725
20
8.2812499999999645
10
3.2727265539784907
20
8.2812499999998561
42
-0.41421356237726825
10
3.0959498586804437
20
8.281249999999968
10
1.267685067456702
20
8.281249999999714
42
-1.0000040658550178
10
1.0909090909090875
20
8.4580274140396128
10
1.0909090909090833
20
8.9999999999999627
10
-1.0909090909090888
20
8.9999999999999662
10
-1.0909090909090935
20
8.458025976540636
42
-0.41420879890923706
10
-1.0909090909090966
20
8.2812507187547126
10
-1.0909090909090833
20
8.281249999999968
10
-1.0909098096578889
20
8.2812499999998632
42
-0.41421356237726126
10
-1.2676865049559287
20
8.2812499999999627
10
-3.0959512961784217
20
8.2812500000009361
42
-1.0000040658618443
10
-3.2727272727272498
20
8.4580274140396199
10
-3.2727272727272725
20
8.9999999999999574
10
-5.4545454545454435
20
8.9999999999999591
10
-5.4545454545454364
20
8.4580259765406751
42
-0.41420879890944334
10
-5.4545454545454346
20
8.2812507187546895
10
-5.454545454545439
20
8.2812499999999645
10
-5.4545461732942089
20
8.2812499999998543
42
-0.41421356237721663
10
-5.631322868592239
20
8.281249999999968
10
-7.4595876598147068
20
8.2812500000009504
42
-1.0000040658618443
10
-7.6363636363635861
20
8.4580274140395826
10
-7.6363636363636056
20
8.9999999999999662
10
-9.8181818181817757
20
8.9999999999999591
10
-9.8181818181817757
20
8.4580259765406751
42
-0.41420879890949197
10
-9.8181818181817793
20
8.2812507187546736
10
-9.8181818181817722
20
8.2812499999999645
10
-9.818182536930534
20
8.2812499999998632
42
-0.41421356237725254
10
-9.9949592322285721
20
8.2812499999999627
10
-11.281249999999963
20
8.2812499999999645
10
-11.281249999999934
20
6.5378870876518471
42
-0.41420879890974921
10
-11.28124999999994
20
6.3611118298657665
10
-11.281249999999938
20
6.3611111111110832
10
-11.281250718748671
20
6.3611111111109793
42
-0.41421356237717383
10
-11.458027414046684
20
6.3611111111110858
10
-11.99999999999995
20
6.3611111111110858
10
-11.99999999999994
20
4.4409722222222063
10
-11.458027414045509
20
4.440972222222209
42
-0.41421356236961082
10
-11.281250718749989
20
4.440972222222201
10
-11.281249999999963
20
4.4409722222222019
10
-11.281249999999856
20
4.4409715034664359
42
-0.4142087989094132
10
-11.281249999999963
20
4.2641962456802451
10
-11.281249999999963
20
2.6976093098740934
42
-0.41420879890974577
10
-11.281249999999959
20
2.5208340520880124
10
-11.281249999999961
20
2.5208333333333175
10
-11.281250718748707
20
2.5208333333332122
42
-0.41421356237709323
10
-11.458027414046695
20
2.5208333333333166
10
-11.999999999999964
20
2.5208333333333233
10
-11.999999999999961
20
0.60069444444444242
10
-11.458027414045404
20
0.60069444444432163
42
-0.41421356236947116
10
-11.281250718749924
20
0.6006944444444392
10
-11.281249999999961
20
0.60069444444444453
0
LWPOLYLINE
5
158
100
AcDbEntity
8
0
100
AcDbPolyline
90
100
70
1
43
0.0
10
11.246966623474014
20
14.790440944818787
42
-0.41420879890609225
10
11.42374188125881
20
14.790441121593856
10
11.42374260001413
20
14.790441121594665
10
11.423742600014865
20
14.790440402845126
42
-0.41421356237665002
10
11.423742776791263
20
14.613663707547619
10
11.423743318763359
20
14.071691121595386
10
13.023743318761754
20
14.071692721595277
10
13.023742776789744
20
14.61366530754845
42
-0.41421356237103707
10
13.023742600013316
20
14.790442002844225
10
13.023742600012522
20
14.790442721594559
10
13.023743318768588
20
14.790442721595477
42
-0.41420879890570989
10
13.200518576553661
20
14.790442898370431
10
14.623742600010921
20
14.790444321594446
10
14.623740659874104
20
16.730583210481399
10
14.081768073915963
20
16.730582668508944
42
-1.0000040658550178
10
13.90499048309913
20
16.907358468277661
10
13.904988956515183
20
18.433943966572347
42
-0.41421356237104173
10
13.904988779738762
20
18.610720661868118
10
13.904988779737952
20
18.610721380618447
10
13.904989498494022
20
18.610721380619363
42
-0.41420879890572843
10
14.081764756279101
20
18.610721557394324
10
14.623738779737227
20
18.610722099368399
10
14.62373681960042
20
20.57086098825533
10
14.081764233642287
20
20.570860446282879
42
-1.0000040658550178
10
13.90498664282546
20
20.747636246051588
10
13.904985116241511
20
22.274221744346271
42
-0.41421356237106499
10
13.904984939465082
20
22.450998439642049
10
13.904984939464281
20
22.450999158392381
10
13.904985658220349
20
22.450999158393302
42
-0.41420879890567747
10
14.081760916005415
20
22.450999335168262
10
14.623734939463555
20
22.450999877142337
10
14.623732979326752
20
24.411138766029261
10
14.081760393368551
20
24.411138224056792
42
-1.0000040658550178
10
13.904982802551768
20
24.587914023825547
10
13.90498127596782
20
26.114499522120187
42
-0.41421356237118551
10
13.904981099191401
20
26.291276217416002
10
13.904981099190589
20
26.291276936166312
10
13.90498181794664
20
26.291276936167229
42
-0.41420879890568674
10
14.081757075731712
20
26.291277112942193
10
14.623731099189875
20
26.291277654916264
10
14.62372913905307
20
28.251416543803199
10
14.081756553093673
20
28.251416001829508
42
-1.0000040658481912
10
13.904978962278099
20
28.428191801599471
10
13.904977435694152
20
29.954777299894111
42
-0.41421356237119478
10
13.904977258917731
20
30.131553995189925
10
13.90497725891692
20
30.131554713940247
10
13.904977977672976
20
30.131554713941171
42
-0.41420879890564039
10
14.081753235458036
20
30.131554890716124
10
14.62372725891621
20
30.131555432690199
10
14.62372531877938
20
32.071694321577148
10
6.6237253187874154
20
32.071686321577694
10
6.6237272589242338
20
30.131547432690745
10
7.1657012823833188
20
30.131547974664738
42
-0.41420879890630546
10
7.3424765401681773
20
30.131548151439894
10
7.3424772589235134
20
30.131548151440697
10
7.3424772589242489
20
30.13154743269115
42
-0.41421356237664075
10
7.3424774357006459
20
29.954770737393645
10
7.3424789622827795
20
28.428185239102508
42
-1.0000040658686709
10
7.1657017250201243
20
28.25140908577638
10
6.6237291390611146
20
28.251408543803745
10
6.6237310991979053
20
26.291269654916817
10
7.1657051226570019
20
26.291270196890803
42
-0.41420879890634255
10
7.3424803804418728
20
26.291270373665956
10
7.3424810991971796
20
26.291270373666762
10
7.3424810991979292
20
26.29126965491723
42
-0.41421356237670559
10
7.3424812759743272
20
26.114492959619703
10
7.3424828025588775
20
24.587907461326147
42
-1.0000040658550178
10
7.1657055652938038
20
24.411131308002449
10
6.6237329793347897
20
24.411130766029807
10
6.623734939471575
20
22.450991877142883
10
7.165708962930684
20
22.450992419116872
42
-0.41420879890637036
10
7.3424842207155656
20
22.450992595892025
10
7.342484939470868
20
22.450992595892835
10
7.3424849394716034
20
22.450991877143309
42
-0.41421356237679596
10
7.3424851162479898
20
22.274215181845758
10
7.3424866428325508
20
20.747629683552226
42
-1.0000040658550178
10
7.1657094055674921
20
20.570853530228515
10
6.6237368196084594
20
20.570852988255872
10
6.6237387797452554
20
18.610714099368948
10
7.1657128032043538
20
18.610714641342934
42
-0.41420879890635648
10
7.3424880609892282
20
18.610714818118094
10
7.3424887797445253
20
18.6107148181189
10
7.3424887797452705
20
18.610714099369382
42
-0.41421356237679369
10
7.3424889565216658
20
18.433937404071827
10
7.3424904831062152
20
16.907351905778299
42
-1.0000040658550178
10
7.1657132458411672
20
16.73057575245458
10
6.6237406598821442
20
16.730575210481948
10
6.623742600018959
20
14.790436321594997
10
8.0469666234771591
20
14.790437744818929
42
-0.41420879890638196
10
8.2237418812620415
20
14.790437921594078
10
8.2237426000173492
20
14.79043792159489
10
8.2237426000180829
20
14.790437202845368
42
-0.41421356237675655
10
8.2237427767944737
20
14.613660507547824
10
8.2237433187665765
20
14.071687921595608
10
9.8237433187649721
20
14.071689521595497
10
9.8237427767929635
20
14.613662107548691
42
-0.414213562370912
10
9.8237426000165406
20
14.790438802844429
10
9.8237426000157377
20
14.790439521594779
10
9.8237433187718235
20
14.790439521595696
42
-0.41420879890572382
10
10.000518576556903
20
14.790439698370653
0
LWPOLYLINE
5
159
100
AcDbEntity
8
0
100
AcDbPolyline
90
100
70
1
43
0.0
10
-0.75303337651391544
20
14.790428944819597
42
-0.41420879890610141
10
-0.57625811872911969
20
14.790429121594682
10
-0.57625739997380265
20
14.790429121595482
10
-0.57625739997305714
20
14.790428402845953
42
-0.41421356237664347
10
-0.57625722319664985
20
14.613651707548442
10
-0.57625668122456197
20
14.071679121596198
10
1.0237433187738343
20
14.071680721596088
10
1.0237427768018303
20
14.613653307549271
42
-0.41421356237106027
10
1.0237426000254155
20
14.790430002845047
10
1.0237426000245891
20
14.790430721595371
10
1.0237433187806628
20
14.790430721596286
42
-0.4142087989057609
10
1.2005185765657573
20
14.790430898371241
10
2.6237426000230109
20
14.790432321595263
10
2.6237406598861943
20
16.730571210482214
10
2.0817680739280116
20
16.730570668509774
42
-1.0000040658550178
10
1.904990483111169
20
16.907346468278472
10
1.9049889565272198
20
18.433931966573155
42
-0.41421356237102319
10
1.9049887797507907
20
18.61070866186893
10
1.9049887797499969
20
18.610709380619266
10
1.9049894985060651
20
18.610709380620179
42
-0.41420879890567219
10
2.081764756291125
20
18.61070955739515
10
2.6237387797492961
20
18.610710099369214
10
2.6237368196125002
20
20.570848988256145
10
2.0817642336555435
20
20.570848446284892
42
-1.0000040658618443
10
1.9049866428375257
20
20.747624246052418
10
1.9049851162535658
20
22.274209744347086
42
-0.41421356237109508
10
1.904984939477147
20
22.450986439642875
10
1.9049849394763385
20
22.450987158393197
10
1.9049856582324063
20
22.450987158394121
42
-0.41420879890570012
10
2.0817609160174766
20
22.450987335169071
10
2.6237349394756224
20
22.450987877143149
10
2.6237329793388304
20
24.41112676603008
10
2.0817603933806272
20
24.411126224057618
42
-1.0000040658550178
10
1.9049828025638287
20
24.587902023826356
10
1.9049812759798779
20
26.114487522120989
42
-0.41421356237118251
10
1.9049810992034497
20
26.291264217416806
10
1.9049810992026577
20
26.291264936167131
10
1.9049818179587013
20
26.291264936168062
42
-0.41420879890560452
10
2.0817570757437576
20
26.291265112943019
10
2.6237310992019416
20
26.291265654917083
10
2.6237291390651496
20
28.251404543804011
10
2.0817565531069353
20
28.251404001831524
42
-1.0000040658550178
10
1.9049789622901629
20
28.428179801600297
10
1.9049774357062135
20
29.954765299894937
42
-0.41421356237119994
10
1.9049772589298073
20
30.131541995190751
10
1.9049772589289768
20
30.131542713941062
10
1.904977977685038
20
30.131542713941986
42
-0.41420879890567691
10
2.0817532354701092
20
30.13154289071694
10
2.6237272589282665
20
30.131543432691014
10
2.62372531879147
20
32.071682321577967
10
-5.3762746812005053
20
32.071674321578513
10
-5.3762727410637101
20
30.131535432691567
10
-4.834298717604625
20
30.131535974665546
42
-0.4142087989063194
10
-4.657523459819763
20
30.131536151440717
10
-4.657522741064442
20
30.131536151441519
10
-4.6575227410636906
20
30.131535432691976
42
-0.41421356237661755
10
-4.6575225642872784
20
29.954758737394474
10
-4.6575210377039618
20
28.428173239102101
42
-1.0000040658618443
10
-4.8342982749678383
20
28.251397085777199
10
-5.3762708609268408
20
28.251396543804564
10
-5.3762689007900502
20
26.291257654917636
10
-4.8342948773309047
20
26.291258196891633
42
-0.41420879890632745
10
-4.6575196195460409
20
26.291258373666771
10
-4.6575189007907305
20
26.291258373667581
10
-4.6575189007899933
20
26.291257654918045
42
-0.41421356237673695
10
-4.6575187240136025
20
26.114480959620515
10
-4.6575171974302787
20
24.587895461328191
42
-1.0000040658618443
10
-4.8342944346941135
20
24.411119308003254
10
-5.3762670206531542
20
24.411118766030629
10
-5.3762650605163245
20
22.450979877143702
10
-4.834291037057235
20
22.450980419117684
42
-0.41420879890636458
10
-4.657515779272356
20
22.450980595892837
10
-4.6575150605170643
20
22.45098059589365
10
-4.6575150605163289
20
22.450979877144132
42
-0.41421356237683199
10
-4.6575148837399327
20
22.274203181846573
10
-4.657513357154146
20
20.747617683551823
42
-1.0000040658481912
10
-4.834290594420426
20
20.570841530229334
10
-5.3762631803794623
20
20.570840988256688
10
-5.3762612202426654
20
18.610702099369767
10
-4.8342871967835652
20
18.610702641343767
42
-0.41420879890627771
10
-4.6575119389987121
20
18.610702818118916
10
-4.6575112202434079
20
18.610702818119716
10
-4.6575112202426707
20
18.610702099370201
42
-0.41421356237678209
10
-4.6575110434662577
20
18.433925404072649
10
-4.6575095168829233
20
16.907339905780336
42
-1.0000040658618443
10
-4.8342867541467465
20
16.730563752455389
10
-5.3762593401058103
20
16.73056321048276
10
-5.3762573999689636
20
14.790424321595809
10
-3.9530333765107679
20
14.790425744819737
42
-0.41420879890637846
10
-3.7762581187258886
20
14.790425921594901
10
-3.7762573999705937
20
14.790425921595698
10
-3.7762573999698468
20
14.79042520284619
42
-0.41421356237675894
10
-3.7762572231934386
20
14.613648507548646
10
-3.7762566812213558
20
14.071675921596416
10
-2.1762566812229598
20
14.07167752159631
10
-2.1762572231949608
20
14.613650107549514
42
-0.41421356237091378
10
-2.1762573999713735
20
14.790426802845252
10
-2.1762573999722048
20
14.790427521595593
10
-2.1762566812161102
20
14.790427521596497
42
-0.41420879890580092
10
-1.9994814234310117
20
14.790427698371461
0
ARC
5
160
100
AcDbEntity
8
0
100
AcDbCircle
10
-13.300648545271669
20
11.651447523959719
30
-3.4709478862862817e-39
40
0.12499999999996725
100
AcDbArc
50
-44.999942704296146
51
135.00005729570333
0
LINE
5
161
100
AcDbEntity
8
0
100
AcDbLine
10
-13.212260109235187
20
11.563059264699699
30
-1.9020244283118837e-24
11
-13.212259567261876
21
11.021085959996931
31
-1.3987061727561026e-15
0
LINE
5
162
100
AcDbEntity
8
0
100
AcDbLine
10
-13.212259567261876
20
11.021085959996931
30
-1.3987061727561026e-15
11
-11.58225956726351
21
11.021087589996819
31
-1.3987058392785644e-15
0
LINE
5
163
100
AcDbEntity
8
0
100
AcDbLine
10
-11.58225956726351
20
11.021087589996819
30
-1.3987058392785644e-15
11
-11.582260109236806
21
11.563060894699722
31
-1.3987061727561026e-15
0
ARC
5
164
100
AcDbEntity
8
0
100
AcDbCircle
10
-11.493871849976863
20
11.651449330736284
30
-1.3987061727561026e-15
40
0.12499999999996823
100
AcDbArc
50
45.000057295979651
51
225.00005729575454
0
LINE
5
165
100
AcDbEntity
8
0
100
AcDbLine
10
-11.405483590717267
20
11.739837766773192
30
-1.3987061708541164e-15
11
-10.189036981311222
21
11.739838983219672
31
-1.3987061727561026e-15
0
ARC
5
166
100
AcDbEntity
8
0
100
AcDbCircle
10
-10.100648545274874
20
11.651450723959496
30
-1.3987061727561026e-15
40
0.12499999999996823
100
AcDbArc
50
-44.999942704293254
51
135.00005729561005
0
LINE
5
167
100
AcDbEntity
8
0
100
AcDbLine
10
-10.012260109238387
20
11.563062464699479
30
-1.3987061614232375e-15
11
-10.012259567265081
21
11.021089159996714
31
-1.3987061727561026e-15
0
LINE
5
168
100
AcDbEntity
8
0
100
AcDbLine
10
-10.012259567265081
20
11.021089159996714
30
-1.3987061727561026e-15
11
-8.3972595672667012
21
11.021090774996603
31
-1.3987065062336408e-15
0
LINE
5
169
100
AcDbEntity
8
0
100
AcDbLine
10
-8.3972595672667012
20
11.021090774996603
30
-1.3987065062336408e-15
11
-8.3972617640847478
21
13.217908956813703
31
-1.3987061727561024e-15
0
LINE
5
170
100
AcDbEntity
8
0
100
AcDbLine
10
-8.3972617640847478
20
13.217908956813703
30
-1.3987061727561024e-15
11
-8.9392350687872888
21
13.217908414840442
31
-1.3987060893867176e-15
0
ARC
5
171
100
AcDbEntity
8
0
100
AcDbCircle
10
-9.0276235048240707
20
13.306296674100142
30
-1.3987061727561024e-15
40
0.12499999999996725
100
AcDbArc
50
135.00005729576375
51
315.00005729590481
0
LINE
5
172
100
AcDbEntity
8
0
100
AcDbLine
10
-9.1160119408606448
20
13.39468493336007
30
-1.3987061708541396e-15
11
-9.1160137391253553
21
15.192949724584174
31
-1.3987061727561026e-15
0
ARC
5
173
100
AcDbEntity
8
0
100
AcDbCircle
10
-9.0276254798654172
20
15.28133816062074
30
-1.3987061727561026e-15
40
0.12499999999996725
100
AcDbArc
50
45.000057295957198
51
225.00005729575739
0
LINE
5
174
100
AcDbEntity
8
0
100
AcDbLine
10
-8.9392372206057882
20
15.369726596657612
30
-1.3987061708541162e-15
11
-8.3972639159027676
21
15.369727138630832
31
-1.3987062561254873e-15
0
LINE
5
175
100
AcDbEntity
8
0
100
AcDbLine
10
-8.3972639159027676
20
15.369727138630832
30
-1.3987062561254873e-15
11
-8.3972661277208047
21
17.581545320447926
31
-1.3987061727561024e-15
0
LINE
5
176
100
AcDbEntity
8
0
100
AcDbLine
10
-8.3972661277208047
20
17.581545320447926
30
-1.3987061727561024e-15
11
-8.9392394324234132
21
17.581544778474662
31
-2.797412262142821e-15
0
ARC
5
177
100
AcDbEntity
8
0
100
AcDbCircle
10
-9.0276278684601436
20
17.66993303773441
30
-1.3987061727561024e-15
40
0.12499999999996625
100
AcDbArc
50
135.00005729576719
51
315.00005729587252
0
LINE
5
178
100
AcDbEntity
8
0
100
AcDbLine
10
-9.1160163044967231
20
17.758321296994332
30
-1.3987061708541331e-15
11
-9.1160181027614282
21
19.556586088218417
31
-1.3987061727561026e-15
0
ARC
5
179
100
AcDbEntity
8
0
100
AcDbCircle
10
-9.027629843501515
20
19.644974524255002
30
-2.7974123455122052e-15
40
0.12499999999996823
100
AcDbArc
50
45.000057295930134
51
225.0000572957718
0
LINE
5
180
100
AcDbEntity
8
0
100
AcDbLine
10
-8.9392415842418416
20
19.733362960291835
30
-2.797412356845106e-15
11
-8.3972682795388387
21
19.733363502265053
31
-2.7974123455122052e-15
0
LINE
5
181
100
AcDbEntity
8
0
100
AcDbLine
10
-8.3972682795388387
20
19.733363502265053
30
-2.7974123455122052e-15
11
-8.3972704913569007
21
21.945181684082151
31
-2.7974123455122048e-15
0
LINE
5
182
100
AcDbEntity
8
0
100
AcDbLine
10
-8.3972704913569007
20
21.945181684082151
30
-2.7974123455122048e-15
11
-8.9392437960595483
21
21.945181142108883
31
-1.398706089386718e-15
0
ARC
5
183
100
AcDbEntity
8
0
100
AcDbCircle
10
-9.0276322320962397
20
22.033569401368673
30
-1.3987061727561026e-15
40
0.12499999999996725
100
AcDbArc
50
135.00005729574937
51
315.00005729584609
0
LINE
5
184
100
AcDbEntity
8
0
100
AcDbLine
10
-9.1160206681327924
20
22.121957660628624
30
-1.398706170854128e-15
11
-9.1160224663975011
21
23.920222451852684
31
-1.3987061727561026e-15
0
ARC
5
185
100
AcDbEntity
8
0
100
AcDbCircle
10
-9.0276342071375897
20
24.008610887889272
30
-1.3987061727561026e-15
40
0.12499999999996922
100
AcDbArc
50
45.000057295900781
51
225.0000572957735
0
LINE
5
186
100
AcDbEntity
8
0
100
AcDbLine
10
-8.9392459478778719
20
24.09699932392606
30
-1.3987061708541134e-15
11
-8.3972726431748903
21
24.096999865899281
31
-1.3987061727561026e-15
0
LINE
5
187
100
AcDbEntity
8
0
100
AcDbLine
10
-8.3972726431748903
20
24.096999865899281
30
-1.3987061727561026e-15
11
-8.3972748549929523
21
26.308818047716375
31
-1.3987061727561024e-15
0
LINE
5
188
100
AcDbEntity
8
0
100
AcDbLine
10
-8.3972748549929523
20
26.308818047716375
30
-1.3987061727561024e-15
11
-8.9392481596956639
21
26.308817505743107
31
-2.7974123455122052e-15
0
ARC
5
189
100
AcDbEntity
8
0
100
AcDbCircle
10
-9.0276365957323126
20
26.397205765002944
30
-1.3987061727561026e-15
40
0.12499999999996625
100
AcDbArc
50
135.0000572957488
51
315.00005729581727
0
LINE
5
190
100
AcDbEntity
8
0
100
AcDbLine
10
-9.1160250317688636
20
26.485594024262895
30
-1.3987061576192327e-15
11
-9.1160268300335758
21
28.283858815486944
31
-2.7974123455122052e-15
0
ARC
5
191
100
AcDbEntity
8
0
100
AcDbCircle
10
-9.0276385707736644
20
28.372247251523543
30
-1.3987061727561026e-15
40
0.12499999999996329
100
AcDbArc
50
45.000057295871414
51
225.00005729577697
0
LINE
5
192
100
AcDbEntity
8
0
100
AcDbLine
10
-8.9392503115139057
20
28.460635687560281
30
-1.3987061708541134e-15
11
-8.397277006810981
21
28.460636229533502
31
-1.3987061727561026e-15
0
LINE
5
193
100
AcDbEntity
8
0
100
AcDbLine
10
-8.397277006810981
20
28.460636229533502
30
-1.3987061727561026e-15
11
-8.3972792186290253
21
30.6724544113506
31
-1.3987061727561024e-15
0
LINE
5
194
100
AcDbEntity
8
0
100
AcDbLine
10
-8.3972792186290253
20
30.6724544113506
30
-1.3987061727561024e-15
11
-8.9392525233317581
21
30.672453869377328
31
-2.7974122621428206e-15
0
ARC
5
195
100
AcDbEntity
8
0
100
AcDbCircle
10
-9.0276409593683624
20
30.760842128637208
30
-1.3987061727561024e-15
40
0.1249999999999702
100
AcDbArc
50
135.00005729574764
51
315.00005850316529
0
LINE
5
196
100
AcDbEntity
8
0
100
AcDbLine
10
-9.1160293954049134
20
30.849230387897162
30
-1.398706170854117e-15
11
-9.1160311936696274
21
32.647495179121222
31
-2.7974123455122052e-15
0
ARC
5
197
100
AcDbEntity
8
0
100
AcDbCircle
10
-9.0276429344097142
20
32.735883615157803
30
-1.3987061727561026e-15
40
0.12499999999996329
100
AcDbArc
50
45.000057295843774
51
225.00005729577069
0
LINE
5
198
100
AcDbEntity
8
0
100
AcDbLine
10
-8.9392546751499129
20
32.824272051194498
30
-1.3987061708541134e-15
11
-8.3972813704470326
21
32.824272593167727
31
-1.3987061727561026e-15
0
LINE
5
199
100
AcDbEntity
8
0
100
AcDbLine
10
-8.3972813704470326
20
32.824272593167727
30
-1.3987061727561026e-15
11
-8.3972835672650774
21
35.021090774984827
31
-1.3987061727561022e-15
0
LINE
5
200
100
AcDbEntity
8
0
100
AcDbLine
10
-8.3972835672650774
20
35.021090774984827
30
-1.3987061727561022e-15
11
-10.012283567263461
21
35.021089159984939
31
-1.3987058392785644e-15
0
LINE
5
201
100
AcDbEntity
8
0
100
AcDbLine
10
-10.012283567263461
20
35.021089159984939
30
-1.3987058392785644e-15
11
-10.012283025290177
21
34.479115855281833
31
-1.3987061727561026e-15
0
ARC
5
202
100
AcDbEntity
8
0
100
AcDbCircle
10
-10.100671284550053
20
34.390727419245202
30
-1.3987061727561026e-15
40
0.12499999999996922
100
AcDbArc
50
-134.99994270419424
51
45.000057295798875
0
LINE
5
203
100
AcDbEntity
8
0
100
AcDbLine
10
-10.189059543809915
20
34.302338983208564
30
-1.3987061746580977e-15
11
-11.405506153215454
21
34.302337766762079
31
7.0295100332069998e-32
0
ARC
5
204
100
AcDbEntity
8
0
100
AcDbCircle
10
-11.493894589252042
20
34.390726026021994
30
-1.398706172756103e-15
40
0.12499999999996625
100
AcDbArc
50
135.00005729575284
51
315.00005729577242
0
LINE
5
205
100
AcDbEntity
8
0
100
AcDbLine
10
-11.582283025288598
20
34.479114285281938
30
-1.3987061576192226e-15
11
-11.582283567261902
21
35.021087589985051
31
-1.3987061727561026e-15
0
LINE
5
206
100
AcDbEntity
8
0
100
AcDbLine
10
-11.582283567261902
20
35.021087589985051
30
-1.3987061727561026e-15
11
-13.212283567260267
21
35.021085959985157
31
-1.3987065062336408e-15
0
LINE
5
207
100
AcDbEntity
8
0
100
AcDbLine
10
-13.212283567260267
20
35.021085959985157
30
-1.3987065062336408e-15
11
-13.212283025286972
21
34.479112655282059
31
-2.7974123455122052e-15
0
ARC
5
208
100
AcDbEntity
8
0
100
AcDbCircle
10
-13.300671284546846
20
34.390724219245421
30
-1.145412802474473e-37
40
0.12499999999996823
100
AcDbArc
50
-134.99994270419594
51
45.000058503222888
0
LINE
5
209
100
AcDbEntity
8
0
100
AcDbLine
10
-13.389059543806713
20
34.302335783208783
30
-1.9019958613814512e-24
11
-14.605506153212248
21
34.302334566762298
31
-1.3987061727561026e-15
0
ARC
5
210
100
AcDbEntity
8
0
100
AcDbCircle
10
-14.693894589248835
20
34.390722826022213
30
-1.3987061727561026e-15
40
0.12499999999996625
100
AcDbArc
50
135.00005729575685
51
315.0000572957718
0
LINE
5
211
100
AcDbEntity
8
0
100
AcDbLine
10
-14.782283025285397
20
34.479111085282149
30
-1.3987061708541124e-15
11
-14.782283567258672
21
35.021084389985269
31
-1.3987061727561026e-15
0
LINE
5
212
100
AcDbEntity
8
0
100
AcDbLine
10
-14.782283567258672
20
35.021084389985269
30
-1.3987061727561026e-15
11
-15.678533567257773
21
35.021083493735325
31
-1.3987060060173333e-15
0
LINE
5
213
100
AcDbEntity
8
0
100
AcDbLine
10
-15.678533567257773
20
35.021083493735325
30
-1.3987060060173333e-15
11
-15.678509567259432
21
11.021083493747096
31
-1.3987061727561052e-15
0
LINE
5
214
100
AcDbEntity
8
0
100
AcDbLine
10
-15.678509567259432
20
11.021083493747096
30
-1.3987061727561052e-15
11
-14.782259567260335
21
11.021084389997037
31
-5.1791819867332256e-32
0
LINE
5
215
100
AcDbEntity
8
0
100
AcDbLine
10
-14.782259567260335
20
11.021084389997037
30
-5.1791819867332256e-32
11
-14.782260109233576
21
11.563057694699927
31
-1.3987061727561026e-15
0
ARC
5
216
100
AcDbEntity
8
0
100
AcDbCircle
10
-14.693871849973679
20
11.651446130736506
30
-3.8404774633287503e-39
40
0.12499999999996823
100
AcDbArc
50
45.00005729598081
51
225.00005729577524
0
LINE
5
217
100
AcDbEntity
8
0
100
AcDbLine
10
-14.605483590714085
20
11.739834566773416
30
1.9019884457879061e-24
11
-13.38903698130815
21
11.739835783219741
31
1.9020244283118771e-24
0
ARC
5
218
100
AcDbEntity
8
0
100
AcDbCircle
10
-12.757998766607386
20
20.649532556590717
30
-2.7974123455122052e-15
40
0.062499999999984117
100
AcDbArc
50
-134.99994270439802
51
45.000057295600811
0
LINE
5
219
100
AcDbEntity
8
0
100
AcDbLine
10
-12.802192896237475
20
20.605338338572555
30
-2.7974123398457617e-15
11
-13.258487058082958
21
20.605337882278434
31
-1.398706089386718e-15
0
ARC
5
220
100
AcDbEntity
8
0
100
AcDbCircle
10
-13.302681276101366
20
20.649532011908242
30
-1.398706172756103e-15
40
0.062499999999984117
100
AcDbArc
50
135.0000572957459
51
315.00005729594278
0
LINE
5
221
100
AcDbEntity
8
0
100
AcDbLine
10
-13.34687549411964
20
20.693726141538221
30
-1.3987061718051263e-15
11
-13.346875605731306
21
20.80533779388999
31
-1.3987061727561018e-15
0
LINE
5
222
100
AcDbEntity
8
0
100
AcDbLine
10
-13.346875605731306
20
20.80533779388999
30
-1.3987061727561018e-15
11
-13.979946462873514
21
20.805337160819178
31
-1.3987062561254873e-15
0
LINE
5
223
100
AcDbEntity
8
0
100
AcDbLine
10
-13.979946462873514
20
20.805337160819178
30
-1.3987062561254873e-15
11
-13.97994635126188
21
20.693725508467445
31
-1.3987061727561048e-15
0
ARC
5
224
100
AcDbEntity
8
0
100
AcDbCircle
10
-14.024140480891788
20
20.649531290449083
30
-1.3987061727561026e-15
40
0.062499999999984117
100
AcDbArc
50
-134.99994270438194
51
45.000057295848379
0
LINE
5
225
100
AcDbEntity
8
0
100
AcDbLine
10
-14.068334610521863
20
20.60533707243091
30
-1.3987061737071058e-15
11
-14.524628772367375
21
20.605336616136803
31
2.6367983304703381e-32
0
ARC
5
226
100
AcDbEntity
8
0
100
AcDbCircle
10
-14.56882299038581
20
20.649530745766612
30
2.3949540415375342e-37
40
0.062499999999986094
100
AcDbArc
50
135.00005729576549
51
315.00005729596006
0
LINE
5
227
100
AcDbEntity
8
0
100
AcDbLine
10
-14.6130172084041
20
20.693724875396576
30
-5.6664688821660181e-24
11
-14.613017320015775
21
20.805336527748356
31
-1.3987061727561022e-15
0
LINE
5
228
100
AcDbEntity
8
0
100
AcDbLine
10
-14.613017320015775
20
20.805336527748356
30
-1.3987061727561022e-15
11
-14.724629035359269
21
20.805336416136651
31
-2.7974123455122052e-15
0
ARC
5
229
100
AcDbEntity
8
0
100
AcDbCircle
10
-14.768823253377743
20
20.849530545766466
30
-1.398706172756103e-15
40
0.062499999999984117
100
AcDbArc
50
135.00005729577239
51
315.00005729598075
0
LINE
5
230
100
AcDbEntity
8
0
100
AcDbLine
10
-14.813017471396037
20
20.893724675396424
30
-1.3987061718051263e-15
11
-14.813017927690172
21
21.350018837242459
31
-6.0756265584197017e-30
0
ARC
5
231
100
AcDbEntity
8
0
100
AcDbCircle
10
-14.768823798060202
20
21.394213055260739
30
-1.3987061727561026e-15
40
0.062499999999982139
100
AcDbArc
50
45.000057296007292
51
225.00005729575508
0
LINE
5
232
100
AcDbEntity
8
0
100
AcDbLine
10
-14.724629668430426
20
21.438407273279214
30
-1.3987061718051103e-15
11
-14.613018016078714
21
21.438407384890837
31
-1.3987061935984487e-15
0
LINE
5
233
100
AcDbEntity
8
0
100
AcDbLine
10
-14.613018016078714
20
21.438407384890837
30
-1.3987061935984487e-15
11
-14.613018649149522
21
22.071478242033379
31
-1.3987061727561026e-15
0
LINE
5
234
100
AcDbEntity
8
0
100
AcDbLine
10
-14.613018649149522
20
22.071478242033379
30
-1.3987061727561026e-15
11
-14.724630301500923
21
22.071478130421731
31
-1.3987061727561024e-15
0
ARC
5
235
100
AcDbEntity
8
0
100
AcDbCircle
10
-14.768824519519359
20
22.115672260051557
30
-1.3987061727561026e-15
40
0.062499999999984117
100
AcDbArc
50
135.00005729577586
51
315.00005729594966
0
LINE
5
236
100
AcDbEntity
8
0
100
AcDbLine
10
-14.813018737537655
20
22.159866389681511
30
-1.3987061718051247e-15
11
-14.813019193831785
21
22.616160551527553
31
9.7442956304367106e-30
0
ARC
5
237
100
AcDbEntity
8
0
100
AcDbCircle
10
-14.768825064201838
20
22.660354769545826
30
-1.3987061727561026e-15
40
0.062499999999984117
100
AcDbArc
50
45.000057295993464
51
225.00005729576543
0
LINE
5
238
100
AcDbEntity
8
0
100
AcDbLine
10
-14.724630934572051
20
22.704548987564291
30
-1.3987061718051103e-15
11
-14.613019282220337
21
22.704549099175921
31
-1.3987061727561026e-15
0
LINE
5
239
100
AcDbEntity
8
0
100
AcDbLine
10
-14.613019282220337
20
22.704549099175921
30
-1.3987061727561026e-15
11
-14.613019915291158
21
23.337619956318456
31
-2.7974123455122052e-15
0
LINE
5
240
100
AcDbEntity
8
0
100
AcDbLine
10
-14.613019915291158
20
23.337619956318456
30
-2.7974123455122052e-15
11
-14.724631567642572
21
23.337619844706808
31
-2.7974123455122052e-15
0
ARC
5
241
100
AcDbEntity
8
0
100
AcDbCircle
10
-14.768825785660992
20
23.381813974336648
30
-1.3987061727561026e-15
40
0.062499999999986094
100
AcDbArc
50
135.00005729577009
51
315.00005729593016
0
LINE
5
242
100
AcDbEntity
8
0
100
AcDbLine
10
-14.813020003679286
20
23.426008103966609
30
-1.3987061718051231e-15
11
-14.813020459973421
21
23.882302265812644
31
-6.2697360331295963e-30
0
ARC
5
243
100
AcDbEntity
8
0
100
AcDbCircle
10
-14.768826330343449
20
23.926496483830913
30
-1.3987061727561026e-15
40
0.062499999999984117
100
AcDbArc
50
45.000057295983105
51
225.0000560885625
0
LINE
5
244
100
AcDbEntity
8
0
100
AcDbLine
10
-14.724632200713653
20
23.970690701849371
30
-1.3987061718051103e-15
11
-14.613020548361987
21
23.970690813460998
31
-1.3987061727561026e-15
0
LINE
5
245
100
AcDbEntity
8
0
100
AcDbLine
10
-14.613020548361987
20
23.970690813460998
30
-1.3987061727561026e-15
11
-14.613021181432794
21
24.603761670603536
31
-2.7974123455122052e-15
0
LINE
5
246
100
AcDbEntity
8
0
100
AcDbLine
10
-14.613021181432794
20
24.603761670603536
30
-2.7974123455122052e-15
11
-14.724632833784202
21
24.603761558991888
31
-2.7974123455122052e-15
0
ARC
5
247
100
AcDbEntity
8
0
100
AcDbCircle
10
-14.768827051802605
20
24.647955688621746
30
-2.7974123455122048e-15
40
0.062499999999984117
100
AcDbArc
50
135.00005729576779
51
315.00005729590708
0
LINE
5
248
100
AcDbEntity
8
0
100
AcDbLine
10
-14.813021269820895
20
24.692149818251707
30
-2.7974123445612235e-15
11
-14.813021726115034
21
25.148443980097735
31
-1.3987061727561054e-15
0
ARC
5
249
100
AcDbEntity
8
0
100
AcDbCircle
10
-14.768827596485087
20
25.192638198116008
30
-1.3987061727561026e-15
40
0.062499999999984117
100
AcDbArc
50
45.000057295956616
51
225.00005729576543
0
LINE
5
250
100
AcDbEntity
8
0
100
AcDbLine
10
-14.724633466855272
20
25.236832416134444
30
-1.3987061718051103e-15
11
-14.613021751511466
21
25.236832527746138
31
-1.3987061727561024e-15
0
LINE
5
251
100
AcDbEntity
8
0
100
AcDbLine
10
-14.613021751511466
20
25.236832527746138
30
-1.3987061727561024e-15
11
-14.613021863123105
21
25.34844418009768
31
-2.7974123455122064e-15
0
ARC
5
252
100
AcDbEntity
8
0
100
AcDbCircle
10
-14.568827733493153
20
25.39263839811596
30
-1.3987061727561026e-15
40
0.062499999999984117
100
AcDbArc
50
45.000057295956616
51
225.00005729576662
0
LINE
5
253
100
AcDbEntity
8
0
100
AcDbLine
10
-14.524633603863338
20
25.436832616134396
30
-1.3987061718051099e-15
11
-14.068339442017322
21
25.436833072428506
31
-1.3987062561254873e-15
0
ARC
5
254
100
AcDbEntity
8
0
100
AcDbCircle
10
-14.024145223999149
20
25.392638942798428
30
-1.3987061727561026e-15
40
0.062499999999980162
100
AcDbArc
50
-44.999942704310548
51
135.00005608826544
0
LINE
5
255
100
AcDbEntity
8
0
100
AcDbLine
10
-13.979951005980922
20
25.34844481316841
30
-1.3987061737071135e-15
11
-13.979950894369255
21
25.236833160816946
31
-1.3987061727561018e-15
0
LINE
5
256
100
AcDbEntity
8
0
100
AcDbLine
10
-13.979950894369255
20
25.236833160816946
30
-1.3987061727561018e-15
11
-13.346880037227002
21
25.236833793887765
31
-2.7974122621428206e-15
0
LINE
5
257
100
AcDbEntity
8
0
100
AcDbLine
10
-13.346880037227002
20
25.236833793887765
30
-2.7974122621428206e-15
11
-13.346880148838636
21
25.348445446239296
31
-1.3987061727561016e-15
0
ARC
5
258
100
AcDbEntity
8
0
100
AcDbCircle
10
-13.302686019208688
20
25.39263966425759
30
-2.7974123455122052e-15
40
0.062499999999982139
100
AcDbArc
50
45.000057295957774
51
225.00005729577813
0
LINE
5
259
100
AcDbEntity
8
0
100
AcDbLine
10
-13.258491889578874
20
25.436833882276026
30
-2.7974123511786558e-15
11
-12.80219772773283
21
25.436834338570133
31
-2.7974124288815899e-15
0
ARC
5
260
100
AcDbEntity
8
0
100
AcDbCircle
10
-12.758003509714705
20
25.392640208940065
30
-2.7974123455122048e-15
40
0.062499999999986094
100
AcDbArc
50
-44.999942704312836
51
135.00005729559163
0
LINE
5
261
100
AcDbEntity
8
0
100
AcDbLine
10
-12.713809291696474
20
25.34844607931004
30
-2.7974123464632157e-15
11
-12.713809180084786
21
25.23683442695858
31
-1.3987061727561022e-15
0
LINE
5
262
100
AcDbEntity
8
0
100
AcDbLine
10
-12.713809180084786
20
25.23683442695858
30
-1.3987061727561022e-15
11
-12.080738322942555
21
25.236835060029389
31
-1.3987061727561026e-15
0
LINE
5
263
100
AcDbEntity
8
0
100
AcDbLine
10
-12.080738322942555
20
25.236835060029389
30
-1.3987061727561026e-15
11
-12.080738434554211
21
25.34844671238093
31
-1.3987061727561022e-15
0
ARC
5
264
100
AcDbEntity
8
0
100
AcDbCircle
10
-12.036544304924259
20
25.392640930399214
30
-1.3987061727561026e-15
40
0.062499999999985102
100
AcDbArc
50
45.000057295972745
51
225.0000572957689
0
LINE
5
265
100
AcDbEntity
8
0
100
AcDbLine
10
-11.992350175294455
20
25.436835148417664
30
-1.3987061718051093e-15
11
-11.536056013448407
21
25.43683560471176
31
-1.3987062561254875e-15
0
ARC
5
266
100
AcDbEntity
8
0
100
AcDbCircle
10
-11.491861795430212
20
25.392641475081689
30
-2.797412345512206e-15
40
0.062499999999985102
100
AcDbArc
50
-44.999942704323168
51
135.00005729563421
0
LINE
5
267
100
AcDbEntity
8
0
100
AcDbLine
10
-11.447667577411991
20
25.348447345451657
30
-2.7974123398457708e-15
11
-11.447667465800317
21
25.236835693100204
31
-1.3987061727561022e-15
0
LINE
5
268
100
AcDbEntity
8
0
100
AcDbLine
10
-11.447667465800317
20
25.236835693100204
30
-1.3987061727561022e-15
11
-10.814596608658086
21
25.236836326171019
31
-1.3987061727561026e-15
0
LINE
5
269
100
AcDbEntity
8
0
100
AcDbLine
10
-10.814596608658086
20
25.236836326171019
30
-1.3987061727561026e-15
11
-10.814596720269742
21
25.348447978522564
31
-1.3987061727561026e-15
0
ARC
5
270
100
AcDbEntity
8
0
100
AcDbCircle
10
-10.77040259063979
20
25.392642196540844
30
-2.7974123455122052e-15
40
0.062499999999983125
100
AcDbArc
50
45.000057295957774
51
225.00005729576662
0
LINE
5
271
100
AcDbEntity
8
0
100
AcDbLine
10
-10.726208461009977
20
25.436836414559281
30
-2.7974123445612129e-15
11
-10.269914299163936
21
25.436836870853391
31
-2.7974123455122052e-15
0
ARC
5
272
100
AcDbEntity
8
0
100
AcDbCircle
10
-10.225720081145807
20
25.39264274122332
30
-2.7974123455122052e-15
40
0.062499999999982139
100
AcDbArc
50
-44.999942704317426
51
135.00005729559163
0
LINE
5
273
100
AcDbEntity
8
0
100
AcDbLine
10
-10.181525863127584
20
25.348448611593295
30
-2.7974123464632161e-15
11
-10.181525751515915
21
25.236836959241835
31
-2.7974123455122052e-15
0
LINE
5
274
100
AcDbEntity
8
0
100
AcDbLine
10
-10.181525751515915
20
25.236836959241835
30
-2.7974123455122052e-15
11
-10.069914099164178
21
25.236837070853479
31
-2.7974123663545513e-15
0
ARC
5
275
100
AcDbEntity
8
0
100
AcDbCircle
10
-10.025719881146008
20
25.192642941223397
30
-1.3987061727561024e-15
40
0.062499999999983125
100
AcDbArc
50
-44.999942704330088
51
135.00005729561119
0
LINE
5
276
100
AcDbEntity
8
0
100
AcDbLine
10
-9.981525663127794
20
25.148448811593362
30
-1.3987061803245586e-15
11
-9.9815252068336253
21
24.692154649747486
31
-2.7974123455122088e-15
0
ARC
5
277
100
AcDbEntity
8
0
100
AcDbCircle
10
-10.02571933646353
20
24.647960431729132
30
-1.3987061727561026e-15
40
0.062499999999983125
100
AcDbArc
50
-134.99994270432433
51
45.000057295846084
0
LINE
5
278
100
AcDbEntity
8
0
100
AcDbLine
10
-10.069913466093562
20
24.603766213710912
30
-1.3987061737071048e-15
11
-10.181525118445078
21
24.603766102099293
31
-1.3987061727561026e-15
0
LINE
5
279
100
AcDbEntity
8
0
100
AcDbLine
10
-10.181525118445078
20
24.603766102099293
30
-1.3987061727561026e-15
11
-10.181524485374277
21
23.970695244956758
31
-2.7974123455122052e-15
0
LINE
5
280
100
AcDbEntity
8
0
100
AcDbLine
10
-10.181524485374277
20
23.970695244956758
30
-2.7974123455122052e-15
11
-10.069912833022553
21
23.970695356568402
31
-2.7974123663545513e-15
0
ARC
5
281
100
AcDbEntity
8
0
100
AcDbCircle
10
-10.025718615004372
20
23.92650122693831
30
-1.3987061727561026e-15
40
0.062499999999984117
100
AcDbArc
50
-44.999942704326635
51
135.00005729561119
0
LINE
5
282
100
AcDbEntity
8
0
100
AcDbLine
10
-9.9815243969861527
20
23.882307097308274
30
-1.3987061737071155e-15
11
-9.9815239406919893
21
23.426012935462392
31
-1.3987061727561101e-15
0
ARC
5
283
100
AcDbEntity
8
0
100
AcDbCircle
10
-10.025718070321917
20
23.381818717444041
30
-1.3987061727561026e-15
40
0.062499999999983125
100
AcDbArc
50
-134.99994270433817
51
45.000057295828803
0
LINE
5
284
100
AcDbEntity
8
0
100
AcDbLine
10
-10.069912199951959
20
23.337624499425832
30
-1.3987061737071048e-15
11
-10.181523852303474
21
23.337624387814213
31
-1.3987061727561026e-15
0
LINE
5
285
100
AcDbEntity
8
0
100
AcDbLine
10
-10.181523852303474
20
23.337624387814213
30
-1.3987061727561026e-15
11
-10.181523219232664
21
22.704553530671674
31
-1.3987061727561026e-15
0
LINE
5
286
100
AcDbEntity
8
0
100
AcDbLine
10
-10.181523219232664
20
22.704553530671674
30
-1.3987061727561026e-15
11
-10.06991156688091
21
22.704553642283322
31
-1.398706172756103e-15
0
ARC
5
287
100
AcDbEntity
8
0
100
AcDbCircle
10
-10.025717348862759
20
22.660359512653226
30
-1.3987061727561026e-15
40
0.062499999999986094
100
AcDbArc
50
-44.999942704335844
51
135.0000572955893
0
LINE
5
288
100
AcDbEntity
8
0
100
AcDbLine
10
-9.9815231308445469
20
22.616165383023183
30
-1.3987061737071164e-15
11
-9.9815226745503765
21
22.159871221177301
31
-1.3987061727561066e-15
0
ARC
5
289
100
AcDbEntity
8
0
100
AcDbCircle
10
-10.025716804180281
20
22.11567700315895
30
-1.3987061727561024e-15
40
0.062499999999984117
100
AcDbArc
50
-134.99994270435545
51
45.000057295843774
0
LINE
5
290
100
AcDbEntity
8
0
100
AcDbLine
10
-10.069910933810336
20
22.071482785140756
30
-1.3987061737071048e-15
11
-10.181522586161828
21
22.071482673529136
31
1.8845675302385806e-31
0
LINE
5
291
100
AcDbEntity
8
0
100
AcDbLine
10
-10.181522586161828
20
22.071482673529136
30
1.8845675302385806e-31
11
-10.181521953091028
21
21.438411816386601
31
-1.3987061727561026e-15
0
LINE
5
292
100
AcDbEntity
8
0
100
AcDbLine
10
-10.181521953091028
20
21.438411816386601
30
-1.3987061727561026e-15
11
-10.069910300739259
21
21.438411927998242
31
-1.3987061727561026e-15
0
ARC
5
293
100
AcDbEntity
8
0
100
AcDbCircle
10
-10.025716082721123
20
21.394217798368132
30
-1.3987061727561026e-15
40
0.062499999999983125
100
AcDbArc
50
-44.999942704324347
51
135.00005729557085
0
LINE
5
294
100
AcDbEntity
8
0
100
AcDbLine
10
-9.9815218647029038
20
21.3500236687381
30
-1.3987061737071182e-15
11
-9.9815214084087405
21
20.89372950689221
31
-1.3987061727560951e-15
0
ARC
5
295
100
AcDbEntity
8
0
100
AcDbCircle
10
-10.025715538038666
20
20.849535288873859
30
-1.3987061727561026e-15
40
0.062499999999984117
100
AcDbArc
50
-134.99994270437617
51
45.000057295829961
0
LINE
5
296
100
AcDbEntity
8
0
100
AcDbLine
10
-10.069909667668739
20
20.805341070855679
30
-1.3987061670896601e-15
11
-10.181521320020199
21
20.805340959244059
31
2.0842346149518141e-23
0
LINE
5
297
100
AcDbEntity
8
0
100
AcDbLine
10
-10.181521320020199
20
20.805340959244059
30
2.0842346149518141e-23
11
-10.18152120840854
21
20.69372930689233
31
-2.7974123455122052e-15
0
ARC
5
298
100
AcDbEntity
8
0
100
AcDbCircle
10
-10.225715338038471
20
20.649535088873968
30
-1.3987061727561026e-15
40
0.062499999999983125
100
AcDbArc
50
-134.99994270438307
51
45.000057295833408
0
LINE
5
299
100
AcDbEntity
8
0
100
AcDbLine
10
-10.269909467668548
20
20.605340870855795
30
-1.3987061670896611e-15
11
-10.726203629514035
21
20.605340414561688
31
-1.398706089386718e-15
0
ARC
5
300
100
AcDbEntity
8
0
100
AcDbCircle
10
-10.77039784753245
20
20.649534544191496
30
-1.3987061727561026e-15
40
0.062499999999984117
100
AcDbArc
50
135.00005729576549
51
315.00005729594739
0
LINE
5
301
100
AcDbEntity
8
0
100
AcDbLine
10
-10.814592065550737
20
20.693728673821457
30
-1.3987061784225715e-15
11
-10.814592177162414
21
20.805340326173241
31
4.1005626532465237e-31
0
LINE
5
302
100
AcDbEntity
8
0
100
AcDbLine
10
-10.814592177162414
20
20.805340326173241
30
4.1005626532465237e-31
11
-11.447663034304622
21
20.805339693102429
31
-1.3987061727561026e-15
0
LINE
5
303
100
AcDbEntity
8
0
100
AcDbLine
10
-11.447663034304622
20
20.805339693102429
30
-1.3987061727561026e-15
11
-11.447662922692963
21
20.693728040750695
31
-1.3987061727561032e-15
0
ARC
5
304
100
AcDbEntity
8
0
100
AcDbCircle
10
-11.491857052322871
20
20.649533822732341
30
-1.3987061727561026e-15
40
0.062499999999985102
100
AcDbArc
50
-134.99994270437961
51
45.000057295843774
0
LINE
5
305
100
AcDbEntity
8
0
100
AcDbLine
10
-11.536051181952946
20
20.605339604714164
30
-1.3987061737071048e-15
11
-11.992345343798464
21
20.605339148420061
31
8.3369384598641632e-23
0
ARC
5
306
100
AcDbEntity
8
0
100
AcDbCircle
10
-12.03653956181692
20
20.649533278049873
30
-2.4643729992632599e-37
40
0.062499999999984117
100
AcDbArc
50
135.00005729575511
51
315.0000572959716
0
LINE
5
307
100
AcDbEntity
8
0
100
AcDbLine
10
-12.080733779835201
20
20.693727407679845
30
-5.6664685401672671e-24
11
-12.080733891446883
21
20.805339060031617
31
-1.3987061727561018e-15
0
LINE
5
308
100
AcDbEntity
8
0
100
AcDbLine
10
-12.080733891446883
20
20.805339060031617
30
-1.3987061727561018e-15
11
-12.713804748589089
21
20.805338426960805
31
-1.3987061727561026e-15
0
LINE
5
309
100
AcDbEntity
8
0
100
AcDbLine
10
-12.713804748589089
20
20.805338426960805
30
-1.3987061727561026e-15
11
-12.713804636977295
21
20.69372677460888
31
-2.7974123511786491e-15
0
CIRCLE
5
310
100
AcDbEntity
8
0
100
AcDbCircle
10
-10.774268055497647
20
24.64409333276592
30
-2.7974123455122052e-15
40
0.10236220472440999
0
CIRCLE
5
311
100
AcDbEntity
8
0
100
AcDbCircle
10
-10.774268055497647
20
24.64409333276592
30
-2.7974123455122052e-15
40
0.14763779527559123
0
CIRCLE
5
312
100
AcDbEntity
8
0
100
AcDbCircle
10
-14.020277925035794
20
24.644090086756268
30
-2.7974123455122052e-15
40
0.10236220472441034
0
CIRCLE
5
313
100
AcDbEntity
8
0
100
AcDbCircle
10
-14.020277925035794
20
24.644090086756268
30
-2.7974123455122052e-15
40
0.14763779527559123
0
CIRCLE
5
314
100
AcDbEntity
8
0
100
AcDbCircle
10
-14.020274679026153
20
21.398080217216467
30
-1.3987061727561026e-15
40
0.10236220472441034
0
CIRCLE
5
315
100
AcDbEntity
8
0
100
AcDbCircle
10
-14.020274679026153
20
21.398080217216467
30
-1.3987061727561026e-15
40
0.14763779527559123
0
CIRCLE
5
316
100
AcDbEntity
8
0
100
AcDbCircle
10
-10.774264809488006
20
21.398083463226108
30
-2.7974123455122052e-15
40
0.10236220472440999
0
CIRCLE
5
317
100
AcDbEntity
8
0
100
AcDbCircle
10
-10.774264809488006
20
21.398083463226108
30
-2.7974123455122052e-15
40
0.14763779527559123
0
CIRCLE
5
318
100
AcDbEntity
8
0
100
AcDbCircle
10
-12.397271267261917
20
23.021086774991289
30
-1.3987061727561026e-15
40
2.0157480314955691
0
ARC
5
319
100
AcDbEntity
8
0
100
AcDbCircle
10
-56.8260862787454
20
25.047569366781637
30
-1.398706172756103e-15
40
0.12499999999994885
100
AcDbArc
50
-44.999476788643278
51
44.999591380207633
0
LINE
5
320
100
AcDbEntity
8
0
100
AcDbLine
10
-56.737697123959549
20
24.959181826278293
30
-1.3987061540389898e-15
11
-56.737697123958817
21
24.959181107522525
31
-1.3987061727561026e-15
0
LINE
5
321
100
AcDbEntity
8
0
100
AcDbLine
10
-56.737697123958817
20
24.959181107522525
30
-1.3987061727561026e-15
11
-56.737697842708748
21
24.959181107521808
31
-1.3987061727561026e-15
0
ARC
5
322
100
AcDbEntity
8
0
100
AcDbCircle
10
-56.8260862787454
20
25.047569366781637
30
-1.398706172756103e-15
40
0.12500000000010866
100
AcDbArc
50
225.0000572956699
51
315.00005729582074
0
LINE
5
323
100
AcDbEntity
8
0
100
AcDbLine
10
-56.914474538005571
20
24.959180930745109
30
-1.3987061914730633e-15
11
-57.456447123958462
21
24.959180388772516
31
-2.7974122621428265e-15
0
LINE
5
324
100
AcDbEntity
8
0
100
AcDbLine
10
-57.456447123958462
20
24.959180388772516
30
-2.7974122621428265e-15
11
-57.456445203819563
21
23.039041499884572
31
-1.3987061727561026e-15
0
LINE
5
325
100
AcDbEntity
8
0
100
AcDbLine
10
-57.456445203819563
20
23.039041499884572
30
-1.3987061727561026e-15
11
-56.914472617866515
21
23.039042041857165
31
-1.3987061727560969e-15
0
ARC
5
326
100
AcDbEntity
8
0
100
AcDbCircle
10
-56.826084181829955
20
22.950653782597232
30
-1.398706172756103e-15
40
0.12499999999996428
100
AcDbArc
50
45.000057295798875
51
135.00005729575744
0
LINE
5
327
100
AcDbEntity
8
0
100
AcDbLine
10
-56.737695922570083
20
23.03904221863386
30
-1.3987061540391421e-15
11
-56.737695203819932
21
23.039042218634581
31
-1.3987061727561026e-15
0
LINE
5
328
100
AcDbEntity
8
0
100
AcDbLine
10
-56.737695203819932
20
23.039042218634581
30
-1.3987061727561026e-15
11
-56.737695203819214
21
23.039041499878568
31
-1.3987061727561026e-15
0
ARC
5
329
100
AcDbEntity
8
0
100
AcDbCircle
10
-56.826084181829955
20
22.950653782597232
30
-1.398706172756103e-15
40
0.12500000000011305
100
AcDbArc
50
-44.999476788607602
51
44.999591380108612
0
LINE
5
330
100
AcDbEntity
8
0
100
AcDbLine
10
-56.737695027043934
20
22.862266242093828
30
-1.3987061540389898e-15
11
-56.737693460457002
21
21.295679306287184
31
-1.3987061727561026e-15
0
ARC
5
331
100
AcDbEntity
8
0
100
AcDbCircle
10
-56.826082438467623
20
21.207291589005717
30
-1.398706172756103e-15
40
0.12499999999995084
100
AcDbArc
50
-44.999476788629487
51
44.99959138019036
0
LINE
5
332
100
AcDbEntity
8
0
100
AcDbLine
10
-56.73769328368175
20
21.118904048502394
30
-1.3987061540389898e-15
11
-56.737693283681018
21
21.118903329746637
31
-1.3987061727561026e-15
0
LINE
5
333
100
AcDbEntity
8
0
100
AcDbLine
10
-56.737693283681018
20
21.118903329746637
30
-1.3987061727561026e-15
11
-56.737694002430942
21
21.118903329745919
31
-1.3987061727561026e-15
0
ARC
5
334
100
AcDbEntity
8
0
100
AcDbCircle
10
-56.826082438467623
20
21.207291589005717
30
-1.398706172756103e-15
40
0.12500000000011063
100
AcDbArc
50
225.00005729564799
51
315.00005729584035
0
LINE
5
335
100
AcDbEntity
8
0
100
AcDbLine
10
-56.914470697727829
20
21.118903152969221
30
-1.3987061914730633e-15
11
-57.456443283680649
21
21.118902610996631
31
-2.7974123455122107e-15
0
LINE
5
336
100
AcDbEntity
8
0
100
AcDbLine
10
-57.456443283680649
20
21.118902610996631
30
-2.7974123455122107e-15
11
-57.456441363541764
21
19.198763722108687
31
-1.3987061727561026e-15
0
LINE
5
337
100
AcDbEntity
8
0
100
AcDbLine
10
-57.456441363541764
20
19.198763722108687
30
-1.3987061727561026e-15
11
-56.914468777588702
21
19.198764264081277
31
-2.7974123455121993e-15
0
ARC
5
338
100
AcDbEntity
8
0
100
AcDbCircle
10
-56.826080341552142
20
19.110376004821322
30
-1.398706172756103e-15
40
0.12499999999995044
100
AcDbArc
50
45.000057295823048
51
135.00005729575051
0
LINE
5
339
100
AcDbEntity
8
0
100
AcDbLine
10
-56.73769208229232
20
19.198764440857975
30
-1.3987061540391421e-15
11
-56.737691363542119
21
19.198764440858692
31
-2.7974123455120463e-15
0
LINE
5
340
100
AcDbEntity
8
0
100
AcDbLine
10
-56.737691363542119
20
19.198764440858692
30
-2.7974123455120463e-15
11
-56.737691363541416
21
19.198763722102626
31
-2.7974123455122052e-15
0
ARC
5
341
100
AcDbEntity
8
0
100
AcDbCircle
10
-56.826080341552142
20
19.110376004821322
30
-1.398706172756103e-15
40
0.12500000000010908
100
AcDbArc
50
-44.999476788600681
51
44.999591380102842
0
LINE
5
342
100
AcDbEntity
8
0
100
AcDbLine
10
-56.737691186766114
20
19.021988464317932
30
-1.3987061540389898e-15
11
-56.737689443403198
21
17.278625551970752
31
-2.7974123455122052e-15
0
LINE
5
343
100
AcDbEntity
8
0
100
AcDbLine
10
-56.737689443403198
20
17.278625551970752
30
-2.7974123455122052e-15
11
-55.451398675632319
21
17.278626838261534
31
-2.7974125122509607e-15
0
ARC
5
344
100
AcDbEntity
8
0
100
AcDbCircle
10
-55.363010239595845
20
17.190238579001576
30
-1.398706172756103e-15
40
0.12499999999995834
100
AcDbArc
50
45.000057295824199
51
135.00005729572175
0
LINE
5
345
100
AcDbEntity
8
0
100
AcDbLine
10
-55.274621980336015
20
17.278627015038239
30
-1.3987061540391421e-15
11
-55.274621261585786
21
17.278627015038953
31
-2.7974123455122052e-15
0
LINE
5
346
100
AcDbEntity
8
0
100
AcDbLine
10
-55.274621261585786
20
17.278627015038953
30
-2.7974123455122052e-15
11
-55.274621261585054
21
17.278626296282866
31
-2.7974123455122052e-15
0
ARC
5
347
100
AcDbEntity
8
0
100
AcDbCircle
10
-55.363010239595845
20
17.190238579001576
30
-1.398706172756103e-15
40
0.12500000000011502
100
AcDbArc
50
-44.99947678858684
51
44.999591380077511
0
LINE
5
348
100
AcDbEntity
8
0
100
AcDbLine
10
-55.274621084809787
20
17.1018510384982
30
-1.3987061540389898e-15
11
-55.274620542835763
21
16.559877015039305
31
-2.7974123455122052e-15
0
LINE
5
349
100
AcDbEntity
8
0
100
AcDbLine
10
-55.274620542835763
20
16.559877015039305
30
-2.7974123455122052e-15
11
-53.092802361018691
21
16.559879196857519
31
-2.7974126789897206e-15
0
LINE
5
350
100
AcDbEntity
8
0
100
AcDbLine
10
-53.092802361018691
20
16.559879196857519
30
-2.7974126789897206e-15
11
-53.092802902991266
21
17.101851782816208
31
-2.7974123455122052e-15
0
ARC
5
351
100
AcDbEntity
8
0
100
AcDbCircle
10
-53.004415362482113
20
17.190240937596386
30
-2.7974123455122052e-15
40
0.12500000000003547
100
AcDbArc
50
45.000057295854141
51
225.00052320763513
0
LINE
5
352
100
AcDbEntity
8
0
100
AcDbLine
10
-52.916027103222277
20
17.278629373633148
30
-2.7974123267952445e-15
11
-52.660189443405258
21
17.27862962947081
31
-1.3987061727560998e-15
0
LINE
5
353
100
AcDbEntity
8
0
100
AcDbLine
10
-52.660189443405258
20
17.27862962947081
30
-1.3987061727560998e-15
11
-52.660192266628584
21
20.10185293417258
31
-1.3987061727561024e-15
0
ARC
5
354
100
AcDbEntity
8
0
100
AcDbCircle
10
-52.571804007368804
20
20.190241370209268
30
-2.797412345512204e-15
40
0.12499999999994846
100
AcDbArc
50
135.00005729569065
51
225.00005729584836
0
ARC
5
355
100
AcDbEntity
8
0
100
AcDbCircle
10
-52.571804007368804
20
20.190241370209268
30
-2.797412345512204e-15
40
0.12500000000011066
100
AcDbArc
50
45.00005729581499
51
135.00005729569065
0
LINE
5
356
100
AcDbEntity
8
0
100
AcDbLine
10
-52.483415748108854
20
20.278629806246023
30
-2.7974123267952445e-15
11
-52.148219138702217
21
20.278630141442637
31
-2.7974123455122017e-15
0
ARC
5
357
100
AcDbEntity
8
0
100
AcDbCircle
10
-52.059830702665671
20
20.190241882182601
30
-1.3987061727561026e-15
40
0.12500000000003747
100
AcDbArc
50
-44.999942704153909
51
135.00005729571942
0
LINE
5
358
100
AcDbEntity
8
0
100
AcDbLine
10
-51.97144226662892
20
20.10185362292275
30
-1.3987061540391421e-15
11
-51.9714394434056
21
17.278630318220813
31
-2.7974123455122052e-15
0
LINE
5
359
100
AcDbEntity
8
0
100
AcDbLine
10
-51.9714394434056
20
17.278630318220813
30
-2.7974123455122052e-15
11
-51.087762311998127
21
17.278631201897955
31
-1.3987061727560933e-15
0
ARC
5
360
100
AcDbEntity
8
0
100
AcDbCircle
10
-50.999373875961659
20
17.190242942637997
30
-2.7974123455122048e-15
40
0.12499999999995834
100
AcDbArc
50
45.000057295824199
51
135.00005729571942
0
LINE
5
361
100
AcDbEntity
8
0
100
AcDbLine
10
-50.910985616701829
20
17.27863137867466
30
-2.7974123267952445e-15
11
-50.9109848979516
21
17.278631378675378
31
-1.3987061727559437e-15
0
LINE
5
362
100
AcDbEntity
8
0
100
AcDbLine
10
-50.9109848979516
20
17.278631378675378
30
-1.3987061727559437e-15
11
-50.910984897950868
21
17.278630659919308
31
-1.3987061727561026e-15
0
ARC
5
363
100
AcDbEntity
8
0
100
AcDbCircle
10
-50.999373875961659
20
17.190242942637997
30
-2.7974123455122048e-15
40
0.12500000000011305
100
AcDbArc
50
-44.999476788599516
51
44.999591380084425
0
LINE
5
364
100
AcDbEntity
8
0
100
AcDbLine
10
-50.910984721175623
20
17.101855402134603
30
-2.7974123267950922e-15
11
-50.910984179201598
21
16.559881378675726
31
-1.3987061727561026e-15
0
LINE
5
365
100
AcDbEntity
8
0
100
AcDbLine
10
-50.910984179201598
20
16.559881378675726
30
-1.3987061727561026e-15
11
-48.729165997384506
21
16.55988356049394
31
-1.3987061727560795e-15
0
LINE
5
366
100
AcDbEntity
8
0
100
AcDbLine
10
-48.729165997384506
20
16.55988356049394
30
-1.3987061727560795e-15
11
-48.729166539357081
21
17.101856146452665
31
-1.3987061727561026e-15
0
ARC
5
367
100
AcDbEntity
8
0
100
AcDbCircle
10
-48.640778998847907
20
17.190245301232814
30
-1.3987061727561026e-15
40
0.12500000000002956
100
AcDbArc
50
45.000057295850688
51
225.00052320761898
0
LINE
5
368
100
AcDbEntity
8
0
100
AcDbLine
10
-48.55239073958807
20
17.278633737269566
30
-1.3987061540391421e-15
11
-46.724125948363984
21
17.278635565534383
31
-2.7974123455121855e-15
0
ARC
5
369
100
AcDbEntity
8
0
100
AcDbCircle
10
-46.635737512327502
20
17.190247306274411
30
-1.398706172756103e-15
40
0.12499999999995637
100
AcDbArc
50
45.000057295831105
51
135.00005729571942
0
LINE
5
370
100
AcDbEntity
8
0
100
AcDbLine
10
-46.547349253067686
20
17.278635742311081
30
-1.3987061540391421e-15
11
-46.547348534317422
21
17.278635742311803
31
-1.3987061727561026e-15
0
LINE
5
371
100
AcDbEntity
8
0
100
AcDbLine
10
-46.547348534317422
20
17.278635742311803
30
-1.3987061727561026e-15
11
-46.547348534316711
21
17.278635023555701
31
-2.7974123455122052e-15
0
ARC
5
372
100
AcDbEntity
8
0
100
AcDbCircle
10
-46.635737512327502
20
17.190247306274411
30
-1.398706172756103e-15
40
0.1250000000000992
100
AcDbArc
50
-44.999476788579976
51
44.999591380077511
0
LINE
5
373
100
AcDbEntity
8
0
100
AcDbLine
10
-46.547348357541445
20
17.101859765771056
30
-1.3987061540389898e-15
11
-46.547347815567413
21
16.559885742312151
31
-2.7974123455122052e-15
0
LINE
5
374
100
AcDbEntity
8
0
100
AcDbLine
10
-46.547347815567413
20
16.559885742312151
30
-2.7974123455122052e-15
11
-44.365529633750327
21
16.559887924130368
31
-2.7974123455121819e-15
0
LINE
5
375
100
AcDbEntity
8
0
100
AcDbLine
10
-44.365529633750327
20
16.559887924130368
30
-2.7974123455121819e-15
11
-44.365530175722895
21
17.10186051008904
31
-1.3987061727561026e-15
0
ARC
5
376
100
AcDbEntity
8
0
100
AcDbCircle
10
-44.277142635213771
20
17.190249664869238
30
-1.3987061727561026e-15
40
0.12500000000002956
100
AcDbArc
50
45.000057295850688
51
225.00052320765124
0
LINE
5
377
100
AcDbEntity
8
0
100
AcDbLine
10
-44.188754375953934
20
17.27863810090599
30
-1.3987061540391421e-15
11
-42.360489584729812
21
17.278639929170808
31
-2.7974123455121855e-15
0
ARC
5
378
100
AcDbEntity
8
0
100
AcDbCircle
10
-42.272101148693295
20
17.19025166991084
30
-1.398706172756103e-15
40
0.12499999999994647
100
AcDbArc
50
45.00005729582881
51
135.00005729573209
0
LINE
5
379
100
AcDbEntity
8
0
100
AcDbLine
10
-42.18371288943348
20
17.278640105947503
30
-1.3987061540391421e-15
11
-42.183712170683243
21
17.27864010594822
31
-1.3987061727561026e-15
0
LINE
5
380
100
AcDbEntity
8
0
100
AcDbLine
10
-42.183712170683243
20
17.27864010594822
30
-1.3987061727561026e-15
11
-42.183712170682526
21
17.278639387192129
31
-1.3987061727561026e-15
0
ARC
5
381
100
AcDbEntity
8
0
100
AcDbCircle
10
-42.272101148693295
20
17.19025166991084
30
-1.398706172756103e-15
40
0.12500000000010711
100
AcDbArc
50
-44.999476788596048
51
44.999591380084425
0
LINE
5
382
100
AcDbEntity
8
0
100
AcDbLine
10
-42.183711993907259
20
17.101864129407456
30
-1.3987061540389898e-15
11
-42.183711451933227
21
16.559890105948568
31
-1.3987061727561026e-15
0
LINE
5
383
100
AcDbEntity
8
0
100
AcDbLine
10
-42.183711451933227
20
16.559890105948568
30
-1.3987061727561026e-15
11
-40.001893270116142
21
16.559892287766786
31
-1.3987065062336176e-15
0
LINE
5
384
100
AcDbEntity
8
0
100
AcDbLine
10
-40.001893270116142
20
16.559892287766786
30
-1.3987065062336176e-15
11
-40.00189381208871
21
17.101864873725475
31
-2.7974123455122052e-15
0
ARC
5
385
100
AcDbEntity
8
0
100
AcDbCircle
10
-39.913506271579585
20
17.190254028505663
30
-2.7974123455122052e-15
40
0.12500000000003353
100
AcDbArc
50
45.000057295848379
51
225.0005232076478
0
LINE
5
386
100
AcDbEntity
8
0
100
AcDbLine
10
-39.825118012319741
20
17.278642464542415
30
-2.7974123267952445e-15
11
-38.941439443412129
21
17.278643348220996
31
-1.3987061727560933e-15
0
LINE
5
387
100
AcDbEntity
8
0
100
AcDbLine
10
-38.941439443412129
20
17.278643348220996
30
-1.3987061727560933e-15
11
-38.941442266635455
21
20.101866652922766
31
-2.7974123455122052e-15
0
ARC
5
388
100
AcDbEntity
8
0
100
AcDbCircle
10
-38.853054007375682
20
20.190255088959457
30
-2.797412345512204e-15
40
0.12499999999995043
100
AcDbArc
50
135.00005729568832
51
225.00005729585186
0
ARC
5
389
100
AcDbEntity
8
0
100
AcDbCircle
10
-38.853054007375682
20
20.190255088959457
30
-2.797412345512204e-15
40
0.12500000000011263
100
AcDbArc
50
45.000057295811537
51
135.00005729568832
0
LINE
5
390
100
AcDbEntity
8
0
100
AcDbLine
10
-38.764665748115725
20
20.278643524996209
30
-2.7974123267952445e-15
11
-38.429469138709102
21
20.278643860192823
31
-2.7974123455122017e-15
0
ARC
5
391
100
AcDbEntity
8
0
100
AcDbCircle
10
-38.341080702672514
20
20.190255600932797
30
-1.3987061727561026e-15
40
0.12500000000002759
100
AcDbArc
50
-44.999942704172341
51
135.0000572957367
0
LINE
5
392
100
AcDbEntity
8
0
100
AcDbLine
10
-38.252692266635798
20
20.101867341672925
30
-1.3987061540391421e-15
11
-38.252689443412486
21
17.278644036971009
31
-2.7974123455122052e-15
0
LINE
5
393
100
AcDbEntity
8
0
100
AcDbLine
10
-38.252689443412486
20
17.278644036971009
30
-2.7974123455122052e-15
11
-37.99685322109562
21
17.278644292807236
31
-2.7974123455122025e-15
0
ARC
5
394
100
AcDbEntity
8
0
100
AcDbCircle
10
-37.908464785059131
20
17.190256033547261
30
-2.7974123455122048e-15
40
0.12499999999995241
100
AcDbArc
50
45.000057295829954
51
135.00005729572055
0
LINE
5
395
100
AcDbEntity
8
0
100
AcDbLine
10
-37.820076525799315
20
17.278644469583927
30
-2.7974123267952445e-15
11
-37.820075807049058
21
17.278644469584648
31
-1.3987061727561026e-15
0
LINE
5
396
100
AcDbEntity
8
0
100
AcDbLine
10
-37.820075807049058
20
17.278644469584648
30
-1.3987061727561026e-15
11
-37.82007580704834
21
17.278643750828547
31
-1.3987061727561026e-15
0
ARC
5
397
100
AcDbEntity
8
0
100
AcDbCircle
10
-37.908464785059131
20
17.190256033547261
30
-2.7974123455122048e-15
40
0.12500000000010314
100
AcDbArc
50
-44.999476788585731
51
44.999591380076367
0
LINE
5
398
100
AcDbEntity
8
0
100
AcDbLine
10
-37.820075630273081
20
17.101868493043895
30
-2.7974123267950922e-15
11
-37.820075088299042
21
16.559894469584993
31
-1.3987061727561026e-15
0
LINE
5
399
100
AcDbEntity
8
0
100
AcDbLine
10
-37.820075088299042
20
16.559894469584993
30
-1.3987061727561026e-15
11
-35.638256906481985
21
16.559896651403211
31
-1.3987065062336176e-15
0
LINE
5
400
100
AcDbEntity
8
0
100
AcDbLine
10
-35.638256906481985
20
16.559896651403211
30
-1.3987065062336176e-15
11
-35.638257448454546
21
17.101869237361893
31
-1.3987061727561026e-15
0
ARC
5
401
100
AcDbEntity
8
0
100
AcDbCircle
10
-35.5498699079454
20
17.190258392142084
30
-2.7974123455122052e-15
40
0.12500000000003353
100
AcDbArc
50
45.000057295849537
51
225.000523207642
0
LINE
5
402
100
AcDbEntity
8
0
100
AcDbLine
10
-35.461481648685556
20
17.278646828178839
30
-2.7974123267952445e-15
11
-34.175189443414517
21
17.278648114471057
31
-2.7974123455121914e-15
0
LINE
5
403
100
AcDbEntity
8
0
100
AcDbLine
10
-34.175189443414517
20
17.278648114471057
30
-2.7974123455121914e-15
11
-34.175191186776004
21
19.022009589318106
31
-1.3987061727561024e-15
0
ARC
5
404
100
AcDbEntity
8
0
100
AcDbCircle
10
-34.086803646266844
20
19.110398744098248
30
-2.7974123455122052e-15
40
0.12500000000003353
100
AcDbArc
50
45.00005729583917
51
225.00052320762131
0
LINE
5
405
100
AcDbEntity
8
0
100
AcDbLine
10
-33.998415387006986
20
19.198787180134985
30
-2.7974123267952445e-15
11
-33.456441363553786
21
19.198787722109014
31
-4.1961185182683023e-15
0
LINE
5
406
100
AcDbEntity
8
0
100
AcDbLine
10
-33.456441363553786
20
19.198787722109014
30
-4.1961185182683023e-15
11
-33.456443283692685
21
21.118926610996958
31
-2.7974123455122052e-15
0
LINE
5
407
100
AcDbEntity
8
0
100
AcDbLine
10
-33.456443283692685
20
21.118926610996958
30
-2.7974123455122052e-15
11
-33.998417307145615
21
21.11892606902293
31
-2.7974123455122107e-15
0
ARC
5
408
100
AcDbEntity
8
0
100
AcDbCircle
10
-34.086805743182424
20
21.20731432828271
30
-1.398706172756103e-15
40
0.12500000000003042
100
AcDbArc
50
134.9995913839557
51
315.00005729588753
0
LINE
5
409
100
AcDbEntity
8
0
100
AcDbLine
10
-34.17519346046975
20
21.295703306287571
30
-1.3987061914729111e-15
11
-34.175195027053825
21
22.862287367094023
31
-1.3987061727561026e-15
0
ARC
5
410
100
AcDbEntity
8
0
100
AcDbCircle
10
-34.08680748654465
20
22.950676521874161
30
-1.3987061727561026e-15
40
0.12500000000003153
100
AcDbArc
50
45.000057295824199
51
225.00052320761552
0
LINE
5
411
100
AcDbEntity
8
0
100
AcDbLine
10
-33.998419227284771
20
23.039064957910874
30
-1.3987061540391421e-15
11
-33.456445203831592
21
23.039065499884902
31
-1.3987061727560969e-15
0
LINE
5
412
100
AcDbEntity
8
0
100
AcDbLine
10
-33.456445203831592
20
23.039065499884902
30
-1.3987061727560969e-15
11
-33.456447123970506
21
24.959204388772847
31
-1.3987061727561026e-15
0
LINE
5
413
100
AcDbEntity
8
0
100
AcDbLine
10
-33.456447123970506
20
24.959204388772847
30
-1.3987061727561026e-15
11
-33.998421147423421
21
24.959203846798815
31
-2.7974122621428265e-15
0
ARC
5
414
100
AcDbEntity
8
0
100
AcDbCircle
10
-34.086809583460202
20
25.04759210605863
30
-1.398706172756103e-15
40
0.12500000000003042
100
AcDbArc
50
134.99959138396954
51
315.00005729586678
0
LINE
5
415
100
AcDbEntity
8
0
100
AcDbLine
10
-34.175197300747548
20
25.13598108406347
30
-1.3987061914729111e-15
11
-34.175198867331623
21
26.702565144869965
31
-1.3987061727561026e-15
0
ARC
5
416
100
AcDbEntity
8
0
100
AcDbCircle
10
-34.086811326822428
20
26.790954299650075
30
-1.3987061727561026e-15
40
0.12500000000002759
100
AcDbArc
50
45.000057295803479
51
225.0005232075994
0
LINE
5
417
100
AcDbEntity
8
0
100
AcDbLine
10
-33.99842306756252
20
26.879342735686752
30
-1.3987061540391421e-15
11
-33.456449044109398
21
26.879343277660784
31
-2.7974124288815844e-15
0
LINE
5
418
100
AcDbEntity
8
0
100
AcDbLine
10
-33.456449044109398
20
26.879343277660784
30
-2.7974124288815844e-15
11
-33.456450964248305
21
28.799482166548728
31
-2.7974123455122052e-15
0
LINE
5
419
100
AcDbEntity
8
0
100
AcDbLine
10
-33.456450964248305
20
28.799482166548728
30
-2.7974123455122052e-15
11
-33.998424987701227
21
28.799481624574703
31
-2.7974122621428265e-15
0
ARC
5
420
100
AcDbEntity
8
0
100
AcDbCircle
10
-34.086813423737979
20
28.88786988383454
30
-2.7974123455122048e-15
40
0.12500000000003042
100
AcDbArc
50
134.99959138398336
51
315.0000572958507
0
LINE
5
421
100
AcDbEntity
8
0
100
AcDbLine
10
-34.175201141025347
20
28.976258861839359
30
-2.7974123642290133e-15
11
-34.175202707609444
21
30.542842922645921
31
-1.3987061727561026e-15
0
ARC
5
422
100
AcDbEntity
8
0
100
AcDbCircle
10
-34.086815167100184
20
30.631232077425992
30
-2.7974123455122052e-15
40
0.12500000000003153
100
AcDbArc
50
45.000057295782746
51
225.00052320756606
0
LINE
5
423
100
AcDbEntity
8
0
100
AcDbLine
10
-33.998426907840241
20
30.71962051346264
30
-2.7974123267952445e-15
11
-33.456452884387204
21
30.719621055436672
31
-2.7974124288815844e-15
0
LINE
5
424
100
AcDbEntity
8
0
100
AcDbLine
10
-33.456452884387204
20
30.719621055436672
30
-2.7974124288815844e-15
11
-33.456454804526103
21
32.639759944324616
31
-2.7974123455122052e-15
0
LINE
5
425
100
AcDbEntity
8
0
100
AcDbLine
10
-33.456454804526103
20
32.639759944324616
30
-2.7974123455122052e-15
11
-33.998428827979033
21
32.639759402350577
31
-2.7974123455122107e-15
0
ARC
5
426
100
AcDbEntity
8
0
100
AcDbCircle
10
-34.086817264015778
20
32.728147661610464
30
-1.398706172756103e-15
40
0.12500000000002645
100
AcDbArc
50
134.99959138400061
51
315.00005729583228
0
LINE
5
427
100
AcDbEntity
8
0
100
AcDbLine
10
-34.175204981303168
20
32.816536639615251
30
-1.3987061914729111e-15
11
-34.175206724664655
21
34.559898114462555
31
-1.3987061727561024e-15
0
LINE
5
428
100
AcDbEntity
8
0
100
AcDbLine
10
-34.175206724664655
20
34.559898114462555
30
-1.3987061727561024e-15
11
-56.737706724653371
21
34.559875551962236
31
-2.3986294014932326e-28
0
LINE
5
429
100
AcDbEntity
8
0
100
AcDbLine
10
-56.737706724653371
20
34.559875551962236
30
-2.3986294014932326e-28
11
-56.73770498129042
21
32.816512639614999
31
-1.3987061727561026e-15
0
ARC
5
430
100
AcDbEntity
8
0
100
AcDbCircle
10
-56.82609395930097
20
32.728124922333464
30
2.2251089916352589e-35
40
0.12499999999994689
100
AcDbArc
50
-44.999476788672084
51
44.999591380235259
0
LINE
5
431
100
AcDbEntity
8
0
100
AcDbLine
10
-56.737704804515168
20
32.639737381830081
30
1.8717112854109992e-23
11
-56.737704804514436
21
32.639736663074295
31
-1.3987061727561026e-15
0
LINE
5
432
100
AcDbEntity
8
0
100
AcDbLine
10
-56.737704804514436
20
32.639736663074295
30
-1.3987061727561026e-15
11
-56.73770552326436
21
32.639736663073577
31
-1.3987061727561024e-15
0
ARC
5
433
100
AcDbEntity
8
0
100
AcDbCircle
10
-56.82609395930097
20
32.728124922333464
30
2.2251089916352589e-35
40
0.12500000000011066
100
AcDbArc
50
225.0000572957033
51
315.00005729578845
0
LINE
5
434
100
AcDbEntity
8
0
100
AcDbLine
10
-56.914482218561091
20
32.639736486296883
30
-1.8716960652886959e-23
11
-57.456454804514081
21
32.639735944324286
31
-2.7974122621428265e-15
0
LINE
5
435
100
AcDbEntity
8
0
100
AcDbLine
10
-57.456454804514081
20
32.639735944324286
30
-2.7974122621428265e-15
11
-57.45645288437516
21
30.719597055436342
31
-1.3987061727561026e-15
0
LINE
5
436
100
AcDbEntity
8
0
100
AcDbLine
10
-57.45645288437516
20
30.719597055436342
30
-1.3987061727561026e-15
11
-56.914480298422113
21
30.719597597408935
31
-2.7974123455121993e-15
0
ARC
5
437
100
AcDbEntity
8
0
100
AcDbCircle
10
-56.826091862385482
20
30.631209338149073
30
-1.398706172756103e-15
40
0.12499999999994846
100
AcDbArc
50
45.000057295763163
51
135.00005729580349
0
LINE
5
438
100
AcDbEntity
8
0
100
AcDbLine
10
-56.737703603125567
20
30.719597774185633
30
-1.3987061540391421e-15
11
-56.737702884375516
21
30.719597774186351
31
-2.7974123455122052e-15
0
LINE
5
439
100
AcDbEntity
8
0
100
AcDbLine
10
-56.737702884375516
20
30.719597774186351
30
-2.7974123455122052e-15
11
-56.737702884374812
21
30.719597055430469
31
-2.7974123455122052e-15
0
ARC
5
440
100
AcDbEntity
8
0
100
AcDbCircle
10
-56.826091862385482
20
30.631209338149073
30
-1.398706172756103e-15
40
0.12500000000010117
100
AcDbArc
50
-44.999476788661703
51
44.999591380151209
0
LINE
5
441
100
AcDbEntity
8
0
100
AcDbLine
10
-56.737702707599553
20
30.542821797645594
30
-1.3987061540389898e-15
11
-56.7377011410126
21
28.97623486183906
31
-2.7974123455122052e-15
0
ARC
5
442
100
AcDbEntity
8
0
100
AcDbCircle
10
-56.826090119023171
20
28.887847144557554
30
-1.398706172756103e-15
40
0.12499999999995084
100
AcDbArc
50
-44.999476788659408
51
44.999591380219158
0
LINE
5
443
100
AcDbEntity
8
0
100
AcDbLine
10
-56.737700964237348
20
28.799459604054189
30
-1.3987061540389898e-15
11
-56.737700964236616
21
28.79945888529841
31
-2.7974123455122052e-15
0
LINE
5
444
100
AcDbEntity
8
0
100
AcDbLine
10
-56.737700964236616
20
28.79945888529841
30
-2.7974123455122052e-15
11
-56.737701682986547
21
28.799458885297696
31
-2.7974123455122052e-15
0
ARC
5
445
100
AcDbEntity
8
0
100
AcDbCircle
10
-56.826090119023171
20
28.887847144557554
30
-1.398706172756103e-15
40
0.12500000000011063
100
AcDbArc
50
225.00005729569062
51
315.00005729580232
0
LINE
5
446
100
AcDbEntity
8
0
100
AcDbLine
10
-56.914478378283313
20
28.799458708520991
30
-1.3987061914730633e-15
11
-57.456450964236268
21
28.799458166548405
31
-2.7974122621428265e-15
0
LINE
5
447
100
AcDbEntity
8
0
100
AcDbLine
10
-57.456450964236268
20
28.799458166548405
30
-2.7974122621428265e-15
11
-57.456449044097361
21
26.879319277660461
31
-2.7974123455122052e-15
0
LINE
5
448
100
AcDbEntity
8
0
100
AcDbLine
10
-57.456449044097361
20
26.879319277660461
30
-2.7974123455122052e-15
11
-56.914476458144321
21
26.879319819633054
31
-2.7974124288815844e-15
0
ARC
5
449
100
AcDbEntity
8
0
100
AcDbCircle
10
-56.826088022107733
20
26.790931560373153
30
-1.398706172756103e-15
40
0.12499999999995637
100
AcDbArc
50
45.000057295786206
51
135.000057295777
0
LINE
5
450
100
AcDbEntity
8
0
100
AcDbLine
10
-56.737699762847846
20
26.879319996409755
30
-1.3987061540391421e-15
11
-56.737699044097738
21
26.879319996410462
31
-1.3987061727561026e-15
0
LINE
5
451
100
AcDbEntity
8
0
100
AcDbLine
10
-56.737699044097738
20
26.879319996410462
30
-1.3987061727561026e-15
11
-56.737699044097013
21
26.879319277654513
31
-1.3987061727561026e-15
0
ARC
5
452
100
AcDbEntity
8
0
100
AcDbCircle
10
-56.826088022107733
20
26.790931560373153
30
-1.398706172756103e-15
40
0.12500000000009326
100
AcDbArc
50
-44.999476788627149
51
44.999591380123576
0
LINE
5
453
100
AcDbEntity
8
0
100
AcDbLine
10
-56.737698867321754
20
26.70254401986973
30
-1.3987061540389898e-15
11
-56.737697300734816
21
25.135957084063122
31
-1.3987061540389898e-15
0
ARC
5
454
100
AcDbEntity
8
0
100
AcDbCircle
10
-58.916250132324393
20
-0.64838048614781985
30
-1.3987061727561026e-15
40
0.12499999999996725
100
AcDbArc
50
-44.999942704668051
51
135.0000572953343
0
LINE
5
455
100
AcDbEntity
8
0
100
AcDbLine
10
-58.827861696288487
20
-0.73676874540841153
30
-1.3987061746580863e-15
11
-58.827859868023758
21
-2.5650335366311419
31
-1.3987061727561026e-15
0
ARC
5
456
100
AcDbEntity
8
0
100
AcDbCircle
10
-58.916248127283055
20
-2.6534219726683652
30
-2.7974123455122052e-15
40
0.12499999999996922
100
AcDbArc
50
-134.99994270413418
51
45.000058503285793
0
LINE
5
457
100
AcDbEntity
8
0
100
AcDbLine
10
-59.004636386542828
20
-2.7418104087050996
30
-2.7974123474142782e-15
11
-59.546609691246367
21
-2.7418109506783179
31
-1.398706089386718e-15
0
LINE
5
458
100
AcDbEntity
8
0
100
AcDbLine
10
-59.546609691246367
20
-2.7418109506783179
30
-1.398706089386718e-15
11
-59.546607509428341
21
-4.9236291324953996
31
-1.3987061727561026e-15
0
LINE
5
459
100
AcDbEntity
8
0
100
AcDbLine
10
-59.546607509428341
20
-4.9236291324953996
30
-1.3987061727561026e-15
11
-59.004634204724979
21
-4.9236285905221324
31
-1.3987062561254873e-15
0
ARC
5
460
100
AcDbEntity
8
0
100
AcDbCircle
10
-58.916245768688334
20
-5.0120168497819888
30
-2.7974123455122052e-15
40
0.12499999999997269
100
AcDbArc
50
-44.999942704660008
51
135.00005729580982
0
LINE
5
461
100
AcDbEntity
8
0
100
AcDbLine
10
-58.827857332652407
20
-5.100405109042577
30
-2.7974123606490781e-15
11
-58.827855504387706
21
-6.9286699002653105
31
-1.3987061727561026e-15
0
ARC
5
462
100
AcDbEntity
8
0
100
AcDbCircle
10
-58.91624376364696
20
-7.0170583363025267
30
-1.398706172756103e-15
40
0.12499999999997516
100
AcDbArc
50
-134.99994270413148
51
45.000058503288237
0
LINE
5
463
100
AcDbEntity
8
0
100
AcDbLine
10
-59.004632022906733
20
-7.1054467723392696
30
-1.3987061746581754e-15
11
-59.546605327610301
21
-7.1054473143124914
31
-1.398706089386718e-15
0
LINE
5
464
100
AcDbEntity
8
0
100
AcDbLine
10
-59.546605327610301
20
-7.1054473143124914
30
-1.398706089386718e-15
11
-59.546603145792261
21
-9.2872654961295726
31
-1.3987061727561026e-15
0
LINE
5
465
100
AcDbEntity
8
0
100
AcDbLine
10
-59.546603145792261
20
-9.2872654961295726
30
-1.3987061727561026e-15
11
-32.905978145819006
21
-9.2872388555063843
31
-1.3987061727561024e-15
0
LINE
5
466
100
AcDbEntity
8
0
100
AcDbLine
10
-32.905978145819006
20
-9.2872388555063843
30
-1.3987061727561024e-15
11
-32.905980969042098
21
-6.4640155508038273
31
0
0
ARC
5
467
100
AcDbEntity
8
0
100
AcDbCircle
10
-32.817592709781707
20
-6.3756271147677541
30
-1.3987061727561026e-15
40
0.1249999999999707
100
AcDbArc
50
45.000057295764904
51
225.00005729545111
0
LINE
5
468
100
AcDbEntity
8
0
100
AcDbLine
10
-32.729204450521777
20
-6.2872386787311747
30
-1.3987061708541795e-15
11
-32.187231145819531
21
-6.2872381367579422
31
-2.7974123455122052e-15
0
LINE
5
469
100
AcDbEntity
8
0
100
AcDbLine
10
-32.187231145819531
20
-6.2872381367579422
30
-2.7974123455122052e-15
11
-32.187234145819325
21
-3.2872381367594476
31
-1.3987061727561026e-15
0
LINE
5
470
100
AcDbEntity
8
0
100
AcDbLine
10
-32.187234145819325
20
-3.2872381367594476
30
-1.3987061727561026e-15
11
-32.729207450521663
21
-3.2872386787327237
31
-2.7974123455122052e-15
0
ARC
5
471
100
AcDbEntity
8
0
100
AcDbCircle
10
-32.817595886558166
20
-3.1988504194727185
30
-1.3987061727561026e-15
40
0.1249999999999655
100
AcDbArc
50
135.00005729608168
51
315.00005729571552
0
LINE
5
472
100
AcDbEntity
8
0
100
AcDbLine
10
-32.905984322595231
20
-3.1104621602132818
30
-1.398706170854101e-15
11
-32.905986969041678
21
-0.46401555080686829
31
-1.3987061727561026e-15
0
ARC
5
473
100
AcDbEntity
8
0
100
AcDbCircle
10
-32.817598709781286
20
-0.37562711477076877
30
-1.3987061727561026e-15
40
0.12499999999996793
100
AcDbArc
50
45.000057295771967
51
225.00005729545964
0
LINE
5
474
100
AcDbEntity
8
0
100
AcDbLine
10
-32.729210450521371
20
-0.28723867873418174
30
-1.3987061708541765e-15
11
-32.187237145819118
21
-0.28723813676095489
31
-1.3987062561254873e-15
0
LINE
5
475
100
AcDbEntity
8
0
100
AcDbLine
10
-32.187237145819118
20
-0.28723813676095489
30
-1.3987062561254873e-15
11
-32.187240145818912
21
2.712761863237541
31
-1.3987061727561026e-15
0
LINE
5
476
100
AcDbEntity
8
0
100
AcDbLine
10
-32.187240145818912
20
2.712761863237541
30
-1.3987061727561026e-15
11
-32.729213450521272
21
2.7127613212642694
31
-2.7974123455122052e-15
0
ARC
5
477
100
AcDbEntity
8
0
100
AcDbCircle
10
-32.817601886557775
20
2.8011495805242661
30
-1.3987061727561024e-15
40
0.12499999999997145
100
AcDbArc
50
135.00005729606659
51
315.00005729571825
0
LINE
5
478
100
AcDbEntity
8
0
100
AcDbLine
10
-32.905990322594818
20
2.8895378397837281
30
-1.3987061708541022e-15
11
-32.905992969041293
21
5.5359844491901056
31
-1.3987061727561026e-15
0
ARC
5
479
100
AcDbEntity
8
0
100
AcDbCircle
10
-32.817604709780881
20
5.6243728852262089
30
-1.3987061727561026e-15
40
0.1249999999999707
100
AcDbArc
50
45.000057295781303
51
225.00005729545401
0
LINE
5
480
100
AcDbEntity
8
0
100
AcDbLine
10
-32.72921645052098
20
5.7127613212628106
30
-1.3987061708541767e-15
11
-32.187243145818691
21
5.7127618632360324
31
-2.7974123455122052e-15
0
LINE
5
481
100
AcDbEntity
8
0
100
AcDbLine
10
-32.187243145818691
20
5.7127618632360324
30
-2.7974123455122052e-15
11
-32.187246145818477
21
8.7127618632345278
31
-1.3987061727561026e-15
0
LINE
5
482
100
AcDbEntity
8
0
100
AcDbLine
10
-32.187246145818477
20
8.7127618632345278
30
-1.3987061727561026e-15
11
-32.729219450520851
21
8.7127613212612633
31
-2.7974123455122052e-15
0
ARC
5
483
100
AcDbEntity
8
0
100
AcDbCircle
10
-32.81760788655739
20
8.8011495805212441
30
-2.7974123455122052e-15
40
0.12499999999996725
100
AcDbArc
50
135.00005729606258
51
315.00005729573496
0
LINE
5
484
100
AcDbEntity
8
0
100
AcDbLine
10
-32.905996322594426
20
8.8895378397807114
30
-2.7974123436102056e-15
11
-32.90599896904088
21
11.535984449187081
31
-1.3987061727561024e-15
0
ARC
5
485
100
AcDbEntity
8
0
100
AcDbCircle
10
-32.817610709780489
20
11.624372885223181
30
-1.3987061727561026e-15
40
0.12499999999996625
100
AcDbArc
50
45.000057295789667
51
225.00005729545973
0
LINE
5
486
100
AcDbEntity
8
0
100
AcDbLine
10
-32.729222450520602
20
11.712761321259794
30
-1.3987061840890663e-15
11
-32.187249145818292
21
11.712761863233023
31
-1.3987061727561026e-15
0
LINE
5
487
100
AcDbEntity
8
0
100
AcDbLine
10
-32.187249145818292
20
11.712761863233023
30
-1.3987061727561026e-15
11
-32.187252145818071
21
14.712761863231515
31
-1.3987061727561026e-15
0
LINE
5
488
100
AcDbEntity
8
0
100
AcDbLine
10
-32.187252145818071
20
14.712761863231515
30
-1.3987061727561026e-15
11
-59.546627145790616
21
14.712734503858373
31
-2.7974123455122052e-15
0
LINE
5
489
100
AcDbEntity
8
0
100
AcDbLine
10
-59.546627145790616
20
14.712734503858373
30
-2.7974123455122052e-15
11
-59.546624963972612
21
12.530916322041286
31
-1.3987061727561026e-15
0
LINE
5
490
100
AcDbEntity
8
0
100
AcDbLine
10
-59.546624963972612
20
12.530916322041286
30
-1.3987061727561026e-15
11
-59.004651659269243
21
12.530916864014557
31
2.5792604776677894e-33
0
ARC
5
491
100
AcDbEntity
8
0
100
AcDbCircle
10
-58.916263223232612
20
12.442528604754662
30
-1.3987061727561026e-15
40
0.12499999999996625
100
AcDbArc
50
-44.999942704645044
51
135.00005729579254
0
LINE
5
492
100
AcDbEntity
8
0
100
AcDbLine
10
-58.82787478719667
20
12.354140345494105
30
-1.39870617465809e-15
11
-58.827872958931977
21
10.525875554271336
31
-7.7643789883957848e-32
0
ARC
5
493
100
AcDbEntity
8
0
100
AcDbCircle
10
-58.916261218191252
20
10.437487118234129
30
-1.3987061727561024e-15
40
0.12499999999996922
100
AcDbArc
50
-134.99994270414817
51
45.000058503271255
0
LINE
5
494
100
AcDbEntity
8
0
100
AcDbLine
10
-59.004649477451046
20
10.349098682197416
30
-1.3987061614232827e-15
11
-59.546622782154564
21
10.349098140224198
31
8.336938456969439e-23
0
LINE
5
495
100
AcDbEntity
8
0
100
AcDbLine
10
-59.546622782154564
20
10.349098140224198
30
8.336938456969439e-23
11
-59.546620600336539
21
8.1672799584071143
31
-1.3987061727561026e-15
0
LINE
5
496
100
AcDbEntity
8
0
100
AcDbLine
10
-59.546620600336539
20
8.1672799584071143
30
-1.3987061727561026e-15
11
-59.004647295633177
21
8.1672805003803823
31
-2.7974124288815899e-15
0
ARC
5
497
100
AcDbEntity
8
0
100
AcDbCircle
10
-58.916258859596553
20
8.0788922411204993
30
-2.7974123455122048e-15
40
0.12499999999997219
100
AcDbArc
50
-44.999942704647893
51
135.00005729579428
0
LINE
5
498
100
AcDbEntity
8
0
100
AcDbLine
10
-58.827870423560611
20
7.9905039818599342
30
-2.7974123474141911e-15
11
-58.827868595295904
21
6.1622391906371634
31
-1.3987061727561026e-15
0
ARC
5
499
100
AcDbEntity
8
0
100
AcDbCircle
10
-58.916256854555201
20
6.073850754599972
30
-2.7974123455122052e-15
40
0.12499999999997614
100
AcDbArc
50
-134.99994270414527
51
45.00005850327701
0
LINE
5
500
100
AcDbEntity
8
0
100
AcDbLine
10
-59.004645113814995
20
5.9854623185632505
30
-2.7974123474142751e-15
11
-59.546618418518499
21
5.9854617765900242
31
-1.398706089386718e-15
0
LINE
5
501
100
AcDbEntity
8
0
100
AcDbLine
10
-59.546618418518499
20
5.9854617765900242
30
-1.398706089386718e-15
11
-59.546616236700466
21
3.8036435947729412
31
-1.3987061727561026e-15
0
LINE
5
502
100
AcDbEntity
8
0
100
AcDbLine
10
-59.546616236700466
20
3.8036435947729412
30
-1.3987061727561026e-15
11
-59.004642931997083
21
3.8036441367462093
31
-1.3987061727561026e-15
0
ARC
5
503
100
AcDbEntity
8
0
100
AcDbCircle
10
-58.916254495960466
20
3.7152558774863409
30
-1.3987061727561024e-15
40
0.12499999999996526
100
AcDbArc
50
-44.999942704673089
51
135.00005729579672
0
LINE
5
504
100
AcDbEntity
8
0
100
AcDbLine
10
-58.827866059924567
20
3.6268676182257407
30
-1.3987061746580875e-15
11
-58.827864231659831
21
1.7986028270030248
31
-1.3987061727561026e-15
0
ARC
5
505
100
AcDbEntity
8
0
100
AcDbCircle
10
-58.916252490919106
20
1.7102143909658063
30
-1.398706172756103e-15
40
0.12499999999997367
100
AcDbArc
50
-134.99994270413816
51
45.00005729618389
0
LINE
5
506
100
AcDbEntity
8
0
100
AcDbLine
10
-59.004640750178886
20
1.621825954929077
30
-1.3987061746581754e-15
11
-59.546614054882426
21
1.6218254129558558
31
-1.3987061727561026e-15
0
LINE
5
507
100
AcDbEntity
8
0
100
AcDbLine
10
-59.546614054882426
20
1.6218254129558558
30
-1.3987061727561026e-15
11
-59.546611873064393
21
-0.5599927688612254
31
-3.8821894941978924e-32
0
LINE
5
508
100
AcDbEntity
8
0
100
AcDbLine
10
-59.546611873064393
20
-0.5599927688612254
30
-3.8821894941978924e-32
11
-59.004638568360306
21
-0.55999222688722816
31
-1.3987061708541189e-15
0
LWPOLYLINE
5
509
100
AcDbEntity
8
0
100
AcDbPolyline
90
12
70
1
43
0.0
10
-38.734108177023373
20
-3.7872446836329239
42
-0.41421356237583312
10
-38.734108000246906
20
-3.9640213789302567
10
-38.734107635050442
20
-4.3292179883356656
42
-0.41421356237619572
10
-38.734107458273392
20
-4.5059946836331042
42
-0.41421356237198614
10
-38.910884153569548
20
-4.5059948604095617
10
-39.557330762975916
20
-4.5059955068562658
42
-0.41421356237318424
10
-39.734107458272447
20
-4.505995683632535
42
-0.41421356237078333
10
-39.734107635049384
20
-4.3292189883367342
10
-39.734108000246017
20
-3.9640223789291591
42
-0.41421356237049489
10
-39.734108177022463
20
-3.7872456836334401
42
-0.41421356237429896
10
-39.557331481725605
20
-3.7872455068565651
10
-38.910884872319706
20
-3.7872448604100364
42
-0.41421356237250523
0
ARC
5
510
100
AcDbEntity
8
0
100
AcDbCircle
10
-55.447495894292956
20
-4.4176230493717945
30
-1.3987061727561026e-15
40
0.12499999999996378
100
AcDbArc
50
-134.99994270413666
51
45.00005729586335
0
LINE
5
511
100
AcDbEntity
8
0
100
AcDbLine
10
-55.535884153552729
20
-4.5060114854085214
30
-1.3987061746581744e-15
11
-56.182330762959261
21
-4.5060121318550435
31
-2.7974124288815903e-15
0
ARC
5
512
100
AcDbEntity
8
0
100
AcDbCircle
10
-56.270719198995593
20
-4.4176238725950423
30
-1.3987061727561022e-15
40
0.12499999999995934
100
AcDbArc
50
135.00005729606198
51
315.00005729566158
0
LINE
5
513
100
AcDbEntity
8
0
100
AcDbLine
10
-56.359107635032622
20
-4.3292356133355803
30
-1.3987061708541002e-15
11
-56.359108000229412
21
-3.9640390039280358
31
-2.7974123455122052e-15
0
ARC
5
514
100
AcDbEntity
8
0
100
AcDbCircle
10
-56.270719740968843
20
-3.8756505678919435
30
-1.3987061727561026e-15
40
0.12499999999997367
100
AcDbArc
50
45.000057295768627
51
225.00005729539973
0
LINE
5
515
100
AcDbEntity
8
0
100
AcDbLine
10
-56.182331481708921
20
-3.7872621318553596
30
-1.3987061708541773e-15
11
-55.535884872303029
21
-3.7872614854088313
31
-1.3987061727561022e-15
0
ARC
5
516
100
AcDbEntity
8
0
100
AcDbCircle
10
-55.447496436266221
20
-3.875649744668697
30
-1.3987061727561026e-15
40
0.12499999999996823
100
AcDbArc
50
-44.999942704660256
51
135.00005729585976
0
LINE
5
517
100
AcDbEntity
8
0
100
AcDbLine
10
-55.3591080002303
20
-3.9640380039292791
30
-1.3987061746580857e-15
11
-55.359107635033183
21
-4.3292346133350676
31
-1.3987061708540308e-15
0
LWPOLYLINE
5
518
100
AcDbEntity
8
0
100
AcDbPolyline
90
12
70
1
43
0.0
10
-39.73412189577148
20
9.9315043163597441
42
-0.41421356237392465
10
-39.557345200474714
20
9.9315044931365559
10
-38.91089859106868
20
9.9315051395831553
42
-0.41421356237247631
10
-38.734121895772361
20
9.9315053163600862
42
-0.41421356237546347
10
-38.734121718995965
20
9.7547286210628634
10
-38.734121353799445
20
9.3895320116573142
42
-0.41421356237577406
10
-38.734121177022466
20
9.212755316360008
42
-0.4142135623721287
10
-38.910897872318678
20
9.212755139583555
10
-39.557344481724918
20
9.2127544931369396
42
-0.41421356237356777
10
-39.734121177021557
20
9.2127543163605559
42
-0.41421356237085405
10
-39.734121353798471
20
9.3895310116563806
10
-39.73412171899502
20
9.7547276210638518
42
-0.41421356237106727
0
ARC
5
519
100
AcDbEntity
8
0
100
AcDbCircle
10
-56.270732917744681
20
9.3011261273980548
30
-1.3987061727561026e-15
40
0.12499999999996032
100
AcDbArc
50
135.00005729605337
51
315.00005729605562
0
LINE
5
520
100
AcDbEntity
8
0
100
AcDbLine
10
-56.359121353781696
20
9.3895143866575292
30
-1.3987061840889934e-15
11
-56.359121718978322
21
9.7547109960650324
31
-2.7974123455122052e-15
0
ARC
5
521
100
AcDbEntity
8
0
100
AcDbCircle
10
-56.270733459717931
20
9.8430994321011429
30
-1.3987061727561026e-15
40
0.12499999999996922
100
AcDbArc
50
45.000057295786782
51
225.00005729546319
0
LINE
5
522
100
AcDbEntity
8
0
100
AcDbLine
10
-56.182345200458037
20
9.9314878681377543
30
-1.3987061840890642e-15
11
-55.535898591051946
21
9.9314885145842844
31
-1.3987061727561024e-15
0
ARC
5
523
100
AcDbEntity
8
0
100
AcDbCircle
10
-55.44751015501533
20
9.8431002553243978
30
-1.3987061727561026e-15
40
0.12499999999996131
100
AcDbArc
50
-44.999942704649065
51
135.00005729579081
0
LINE
5
524
100
AcDbEntity
8
0
100
AcDbLine
10
-55.359121718979395
20
9.7547119960638362
30
-1.398706174658089e-15
11
-55.359121353782754
21
9.3895153866584984
31
-9.705473735494731e-33
0
ARC
5
525
100
AcDbEntity
8
0
100
AcDbCircle
10
-55.447509613042065
20
9.301126950621299
30
-2.797412345512206e-15
40
0.12499999999996131
100
AcDbArc
50
-134.99994270415164
51
45.000057296166197
0
LINE
5
526
100
AcDbEntity
8
0
100
AcDbLine
10
-55.535897872301859
20
9.212738514584597
30
-2.7974123474142743e-15
11
-56.182344481707659
21
9.2127378681385803
31
-1.3987061614232119e-15
0
ENDSEC
0
SECTION
2
OBJECTS
0
DICTIONARY
5
C
100
AcDbDictionary
3
ACAD_GROUP
350
D
3
ACAD_MLINESTYLE
350
17
0
DICTIONARY
5
D
100
AcDbDictionary
0
DICTIONARY
5
1A
330
C
100
AcDbDictionary
0
DICTIONARY
5
17
100
AcDbDictionary
0
ENDSEC
0
EOF
