0
SECTION
2
HEADER
9
$INSUNITS
70
1
9
$ACADVER
1
AC1014
9
$HANDSEED
5
FFFF
0
ENDSEC
0
SECTION
2
TABLES
0
TABLE
2
VPORT
5
8
100
AcDbSymbolTable
0
ENDTAB
0
TABLE
2
LTYPE
5
5
100
AcDbSymbolTable
0
LTYPE
5
14
100
AcDbSymbolTableRecord
100
AcDbLinetypeTableRecord
2
BYBLOCK
70
0
0
LTYPE
5
15
100
AcDbSymbolTableRecord
100
AcDbLinetypeTableRecord
2
BYLAYER
70
0
0
ENDTAB
0
TABLE
2
LAYER
5
2
100
AcDbSymbolTable
70
2
0
LAYER
5
50
100
AcDbSymbolTableRecord
100
AcDbLayerTableRecord
2
0
70
0
6
CONTINUOUS
0
ENDTAB
0
TABLE
2
STYLE
5
3
100
AcDbSymbolTable
70
1
0
STYLE
5
11
100
AcDbSymbolTableRecord
100
AcDbTextStyleTableRecord
2
STANDARD
70
0
0
ENDTAB
0
TABLE
2
VIEW
5
6
100
AcDbSymbolTable
70
0
0
ENDTAB
0
TABLE
2
UCS
5
7
100
AcDbSymbolTable
70
0
0
ENDTAB
0
TABLE
2
APPID
5
9
100
AcDbSymbolTable
70
2
0
APPID
5
12
100
AcDbSymbolTableRecord
100
AcDbRegAppTableRecord
2
ACAD
70
0
0
ENDTAB
0
TABLE
2
DIMSTYLE
5
A
100
AcDbSymbolTable
70
1
0
ENDTAB
0
TABLE
2
BLOCK_RECORD
5
1
100
AcDbSymbolTable
70
1
0
BLOCK_RECORD
5
1F
100
AcDbSymbolTableRecord
100
AcDbBlockTableRecord
2
*MODEL_SPACE
0
BLOCK_RECORD
5
1B
100
AcDbSymbolTableRecord
100
AcDbBlockTableRecord
2
*PAPER_SPACE
0
ENDTAB
0
ENDSEC
0
SECTION
2
BLOCKS
0
BLOCK
5
20
100
AcDbEntity
100
AcDbBlockBegin
2
*MODEL_SPACE
0
ENDBLK
5
21
100
AcDbEntity
100
AcDbBlockEnd
0
BLOCK
5
1C
100
AcDbEntity
100
AcDbBlockBegin
2
*PAPER_SPACE
0
ENDBLK
5
1D
100
AcDbEntity
100
AcDbBlockEnd
0
ENDSEC
0
SECTION
2
ENTITIES
0
LINE
5
100
100
AcDbEntity
8
0
100
AcDbLine
10
-0.31653539707536499
20
-2.4157480314960669
30
0
11
-0.31653539707536499
21
-2.2157480314960658
31
0
0
LINE
5
101
100
AcDbEntity
8
0
100
AcDbLine
10
0.31653546006749267
20
-2.2157480314960658
30
0
11
0.31653546006749267
21
-2.4157480314960669
31
0
0
LINE
5
102
100
AcDbEntity
8
0
100
AcDbLine
10
0.31653546006749267
20
-2.4157480314960669
30
0
11
0.94960631721034994
21
-2.4157480314960669
31
0
0
LINE
5
103
100
AcDbEntity
8
0
100
AcDbLine
10
0.94960631721034994
20
-2.4157480314960669
30
0
11
0.94960631721034994
21
-2.2157480314960658
31
0
0
LINE
5
104
100
AcDbEntity
8
0
100
AcDbLine
10
2.2157480314960645
20
-0.94960631721035171
30
0
11
2.2157480314960645
21
-1.5826771743532073
31
0
0
LINE
5
105
100
AcDbEntity
8
0
100
AcDbLine
10
0.31653546006749267
20
-2.2157480314960658
30
0
11
-0.31653539707536499
21
-2.2157480314960658
31
0
0
LINE
5
106
100
AcDbEntity
8
0
100
AcDbLine
10
1.5826771743532073
20
-2.2157480314960658
30
0
11
0.94960631721034994
21
-2.2157480314960658
31
0
0
LINE
5
107
100
AcDbEntity
8
0
100
AcDbLine
10
-0.94960625421822198
20
-2.2157480314960658
30
0
11
-1.5826771113610789
21
-2.2157480314960658
31
0
0
LINE
5
108
100
AcDbEntity
8
0
100
AcDbLine
10
-2.2157479685039365
20
-2.2157480314960658
30
0
11
-2.2157479685039365
21
-2.4157480314960669
31
0
0
LINE
5
109
100
AcDbEntity
8
0
100
AcDbLine
10
-2.2157479685039365
20
-2.4157480314960669
30
0
11
-1.5826771113610789
21
-2.4157480314960669
31
0
0
LINE
5
110
100
AcDbEntity
8
0
100
AcDbLine
10
-1.5826771113610789
20
-2.4157480314960669
30
0
11
-1.5826771113610789
21
-2.2157480314960658
31
0
0
LINE
5
111
100
AcDbEntity
8
0
100
AcDbLine
10
-0.94960625421822198
20
-2.2157480314960658
30
0
11
-0.94960625421822198
21
-2.4157480314960669
31
0
0
LINE
5
112
100
AcDbEntity
8
0
100
AcDbLine
10
-0.94960625421822198
20
-2.4157480314960669
30
0
11
-0.31653539707536499
21
-2.4157480314960669
31
0
0
LINE
5
113
100
AcDbEntity
8
0
100
AcDbLine
10
-2.2157480314960627
20
-1.5826771743532073
30
0
11
-2.2157480314960627
21
-0.94960631721035171
31
0
0
LINE
5
114
100
AcDbEntity
8
0
100
AcDbLine
10
-2.2157480314960627
20
1.582677111361076
30
0
11
-2.4157480314960624
21
1.582677111361076
31
0
0
LINE
5
115
100
AcDbEntity
8
0
100
AcDbLine
10
-2.4157480314960624
20
2.2157479685039343
30
0
11
-2.2157480314960627
21
2.2157479685039343
31
0
0
LINE
5
116
100
AcDbEntity
8
0
100
AcDbLine
10
-2.4157480314960624
20
1.582677111361076
30
0
11
-2.4157480314960624
21
2.2157479685039343
31
0
0
LINE
5
117
100
AcDbEntity
8
0
100
AcDbLine
10
1.5826771743532073
20
2.2157479685039343
30
0
11
1.5826771743532073
21
2.415747968503934
31
0
0
LINE
5
118
100
AcDbEntity
8
0
100
AcDbLine
10
1.5826771743532073
20
2.415747968503934
30
0
11
2.2157480314960645
21
2.415747968503934
31
0
0
LINE
5
119
100
AcDbEntity
8
0
100
AcDbLine
10
2.2157480314960645
20
2.415747968503934
30
0
11
2.2157480314960645
21
2.2157479685039343
31
0
0
LINE
5
120
100
AcDbEntity
8
0
100
AcDbLine
10
2.2157480314960645
20
1.582677111361076
30
0
11
2.2157480314960645
21
0.94960625421822054
31
0
0
LINE
5
121
100
AcDbEntity
8
0
100
AcDbLine
10
2.2157480314960645
20
0.31653539707536216
30
0
11
2.2157480314960645
21
-0.31653546006749339
31
0
0
LINE
5
122
100
AcDbEntity
8
0
100
AcDbLine
10
2.2157480314960645
20
0.31653539707536216
30
0
11
2.2157480314960645
21
-0.31653546006749339
31
0
0
LINE
5
123
100
AcDbEntity
8
0
100
AcDbLine
10
-2.2157480314960627
20
-0.94960631721035171
30
0
11
-2.4157480314960624
21
-0.94960631721035171
31
0
0
LINE
5
124
100
AcDbEntity
8
0
100
AcDbLine
10
-2.4157480314960624
20
-0.31653546006749339
30
0
11
-2.2157480314960627
21
-0.31653546006749339
31
0
0
LINE
5
125
100
AcDbEntity
8
0
100
AcDbLine
10
2.4157480314960647
20
0.31653539707536216
30
0
11
2.4157480314960647
21
0.94960625421822054
31
0
0
LINE
5
126
100
AcDbEntity
8
0
100
AcDbLine
10
2.4157480314960647
20
0.94960625421822054
30
0
11
2.2157480314960645
21
0.94960625421822054
31
0
0
LINE
5
127
100
AcDbEntity
8
0
100
AcDbLine
10
2.2157480314960645
20
1.582677111361076
30
0
11
2.4157480314960647
21
1.582677111361076
31
0
0
LINE
5
128
100
AcDbEntity
8
0
100
AcDbLine
10
2.4157480314960647
20
1.582677111361076
30
0
11
2.4157480314960647
21
2.2157479685039343
31
0
0
LINE
5
129
100
AcDbEntity
8
0
100
AcDbLine
10
2.4157480314960647
20
2.2157479685039343
30
0
11
2.2157480314960645
21
2.2157479685039343
31
0
0
LINE
5
130
100
AcDbEntity
8
0
100
AcDbLine
10
0.94960631721034994
20
2.415747968503934
30
0
11
0.94960631721034994
21
2.2157479685039343
31
0
0
LINE
5
131
100
AcDbEntity
8
0
100
AcDbLine
10
0.31653546006749267
20
2.415747968503934
30
0
11
0.94960631721034994
21
2.415747968503934
31
0
0
LINE
5
132
100
AcDbEntity
8
0
100
AcDbLine
10
0.31653546006749267
20
2.2157479685039343
30
0
11
0.31653546006749267
21
2.415747968503934
31
0
0
LINE
5
133
100
AcDbEntity
8
0
100
AcDbLine
10
-2.2157480314960627
20
0.31653539707536216
30
0
11
-2.4157480314960624
21
0.31653539707536216
31
0
0
LINE
5
134
100
AcDbEntity
8
0
100
AcDbLine
10
-2.4157480314960624
20
0.94960625421822054
30
0
11
-2.2157480314960627
21
0.94960625421822054
31
0
0
LINE
5
135
100
AcDbEntity
8
0
100
AcDbLine
10
-2.4157480314960624
20
0.31653539707536216
30
0
11
-2.4157480314960624
21
0.94960625421822054
31
0
0
LINE
5
136
100
AcDbEntity
8
0
100
AcDbLine
10
2.4157480314960647
20
-1.5826771743532073
30
0
11
2.2157480314960645
21
-1.5826771743532073
31
0
0
LINE
5
137
100
AcDbEntity
8
0
100
AcDbLine
10
2.4157480314960647
20
-2.2157480314960658
30
0
11
2.4157480314960647
21
-1.5826771743532073
31
0
0
LINE
5
138
100
AcDbEntity
8
0
100
AcDbLine
10
2.2157480314960645
20
-2.2157480314960658
30
0
11
2.4157480314960647
21
-2.2157480314960658
31
0
0
LINE
5
139
100
AcDbEntity
8
0
100
AcDbLine
10
2.2157480314960645
20
-2.4157480314960669
30
0
11
2.2157480314960645
21
-2.2157480314960658
31
0
0
LINE
5
140
100
AcDbEntity
8
0
100
AcDbLine
10
1.5826771743532073
20
-2.4157480314960669
30
0
11
2.2157480314960645
21
-2.4157480314960669
31
0
0
LINE
5
141
100
AcDbEntity
8
0
100
AcDbLine
10
1.5826771743532073
20
-2.2157480314960658
30
0
11
1.5826771743532073
21
-2.4157480314960669
31
0
0
LINE
5
142
100
AcDbEntity
8
0
100
AcDbLine
10
-0.94960625421822198
20
2.2157479685039343
30
0
11
-0.94960625421822198
21
2.415747968503934
31
0
0
LINE
5
143
100
AcDbEntity
8
0
100
AcDbLine
10
-0.94960625421822198
20
2.415747968503934
30
0
11
-0.31653539707536499
21
2.415747968503934
31
0
0
LINE
5
144
100
AcDbEntity
8
0
100
AcDbLine
10
-2.2157480314960627
20
0.94960625421822054
30
0
11
-2.2157480314960627
21
1.582677111361076
31
0
0
LINE
5
145
100
AcDbEntity
8
0
100
AcDbLine
10
-2.2157480314960627
20
-0.31653546006749339
30
0
11
-2.2157480314960627
21
0.31653539707536216
31
0
0
LINE
5
146
100
AcDbEntity
8
0
100
AcDbLine
10
-0.31653539707536499
20
2.415747968503934
30
0
11
-0.31653539707536499
21
2.2157479685039343
31
0
0
LINE
5
147
100
AcDbEntity
8
0
100
AcDbLine
10
0.94960631721034994
20
2.2157479685039343
30
0
11
1.5826771743532073
21
2.2157479685039343
31
0
0
LINE
5
148
100
AcDbEntity
8
0
100
AcDbLine
10
-0.31653539707536499
20
2.2157479685039343
30
0
11
0.31653546006749267
21
2.2157479685039343
31
0
0
LINE
5
149
100
AcDbEntity
8
0
100
AcDbLine
10
2.2157480314960645
20
-0.94960631721035171
30
0
11
2.4157480314960647
21
-0.94960631721035171
31
0
0
LINE
5
150
100
AcDbEntity
8
0
100
AcDbLine
10
2.4157480314960647
20
-0.94960631721035171
30
0
11
2.4157480314960647
21
-0.31653546006749339
31
0
0
LINE
5
151
100
AcDbEntity
8
0
100
AcDbLine
10
2.4157480314960647
20
-0.31653546006749339
30
0
11
2.2157480314960645
21
-0.31653546006749339
31
0
0
LINE
5
152
100
AcDbEntity
8
0
100
AcDbLine
10
2.2157480314960645
20
0.31653539707536216
30
0
11
2.4157480314960647
21
0.31653539707536216
31
0
0
LINE
5
153
100
AcDbEntity
8
0
100
AcDbLine
10
-2.4157480314960624
20
-0.94960631721035171
30
0
11
-2.4157480314960624
21
-0.31653546006749339
31
0
0
LINE
5
154
100
AcDbEntity
8
0
100
AcDbLine
10
-2.4157480314960624
20
-1.5826771743532073
30
0
11
-2.2157480314960627
21
-1.5826771743532073
31
0
0
LINE
5
155
100
AcDbEntity
8
0
100
AcDbLine
10
-2.4157480314960624
20
-2.2157480314960658
30
0
11
-2.4157480314960624
21
-1.5826771743532073
31
0
0
LINE
5
156
100
AcDbEntity
8
0
100
AcDbLine
10
-2.2157480314960627
20
-2.2157480314960658
30
0
11
-2.4157480314960624
21
-2.2157480314960658
31
0
0
LINE
5
157
100
AcDbEntity
8
0
100
AcDbLine
10
-1.5826771113610789
20
2.2157479685039343
30
0
11
-0.94960625421822198
21
2.2157479685039343
31
0
0
LINE
5
158
100
AcDbEntity
8
0
100
AcDbLine
10
-2.2157479685039365
20
2.2157479685039343
30
0
11
-2.2157479685039365
21
2.415747968503934
31
0
0
LINE
5
159
100
AcDbEntity
8
0
100
AcDbLine
10
-2.2157479685039365
20
2.415747968503934
30
0
11
-1.5826771113610789
21
2.415747968503934
31
0
0
LINE
5
160
100
AcDbEntity
8
0
100
AcDbLine
10
-1.5826771113610789
20
2.415747968503934
30
0
11
-1.5826771113610789
21
2.2157479685039343
31
0
0
LWPOLYLINE
5
161
100
AcDbEntity
8
0
100
AcDbPolyline
90
4
70
1
43
0.0
10
-2.0157479685039368
20
2.015747968503935
10
-2.0157479685039368
20
1.582677111361076
10
-1.5826771113610789
20
1.582677111361076
10
-1.5826771113610789
20
2.015747968503935
0
LWPOLYLINE
5
162
100
AcDbEntity
8
0
100
AcDbPolyline
90
4
70
1
43
0.0
10
-0.94960625421822198
20
1.5826771113610758
10
-0.94960625421822198
20
2.015747968503935
10
-0.31653539707536499
20
2.015747968503935
10
-0.31653539707536504
20
1.5826771113610754
0
LWPOLYLINE
5
163
100
AcDbEntity
8
0
100
AcDbPolyline
90
4
70
1
43
0.0
10
0.31653546006749267
20
1.5826771113610754
10
0.31653546006749267
20
2.015747968503935
10
0.94960631721034994
20
2.015747968503935
10
0.94960631721034994
20
1.5826771113610751
0
LWPOLYLINE
5
164
100
AcDbEntity
8
0
100
AcDbPolyline
90
4
70
1
43
0.0
10
1.5826771743532073
20
1.5826771113610747
10
1.5826771743532073
20
2.0157479685039346
10
2.0157480314960656
20
2.0157479685039346
10
2.0157480314960656
20
1.5826771113610747
0
LWPOLYLINE
5
165
100
AcDbEntity
8
0
100
AcDbPolyline
90
4
70
1
43
0.0
10
-2.0157479685039368
20
0.94960625421822054
10
-2.0157479685039368
20
0.31653539707536216
10
-1.5826771113610789
20
0.31653539707536199
10
-1.5826771113610789
20
0.94960625421822031
0
LWPOLYLINE
5
166
100
AcDbEntity
8
0
100
AcDbPolyline
90
4
70
1
43
0.0
10
-0.94960625421822209
20
0.31653539707536194
10
-0.94960625421822198
20
0.9496062542182202
10
-0.31653539707536466
20
0.94960625421821998
10
-0.31653539707536499
20
0.31653539707536177
0
LWPOLYLINE
5
167
100
AcDbEntity
8
0
100
AcDbPolyline
90
4
70
1
43
0.0
10
0.31653546006749267
20
0.31653539707536155
10
0.31653546006749267
20
0.94960625421821998
10
0.94960631721035038
20
0.94960625421821987
10
0.94960631721035038
20
0.31653539707536138
0
LWPOLYLINE
5
168
100
AcDbEntity
8
0
100
AcDbPolyline
90
4
70
1
43
0.0
10
1.5826771743532075
20
0.31653539707536132
10
1.5826771743532069
20
0.94960625421821965
10
2.0157480314960656
20
0.94960625421821954
10
2.0157480314960652
20
0.31653539707536116
0
LWPOLYLINE
5
169
100
AcDbEntity
8
0
100
AcDbPolyline
90
4
70
1
43
0.0
10
-2.0157479685039363
20
-1.5826771743532073
10
-2.0157479685039363
20
-2.0157480314960656
10
-1.5826771113610789
20
-2.0157480314960656
10
-1.5826771113610789
20
-1.5826771743532073
0
LWPOLYLINE
5
170
100
AcDbEntity
8
0
100
AcDbPolyline
90
4
70
1
43
0.0
10
-2.0157479685039363
20
-0.31653546006749339
10
-2.0157479685039363
20
-0.94960631721035171
10
-1.5826771113610789
20
-0.94960631721035194
10
-1.5826771113610789
20
-0.3165354600674935
0
LWPOLYLINE
5
171
100
AcDbEntity
8
0
100
AcDbPolyline
90
4
70
1
43
0.0
10
-0.94960625421822209
20
-0.94960631721035205
10
-0.94960625421822209
20
-0.31653546006749361
10
-0.31653539707536466
20
-0.31653546006749383
10
-0.31653539707536482
20
-0.94960631721035227
0
LWPOLYLINE
5
172
100
AcDbEntity
8
0
100
AcDbPolyline
90
4
70
1
43
0.0
10
-0.94960625421822198
20
-2.0157480314960656
10
-0.94960625421822198
20
-1.5826771743532075
10
-0.31653539707536488
20
-1.582677174353208
10
-0.31653539707536499
20
-2.0157480314960656
0
LWPOLYLINE
5
173
100
AcDbEntity
8
0
100
AcDbPolyline
90
4
70
1
43
0.0
10
0.3165354600674925
20
-0.94960631721035238
10
0.31653546006749267
20
-0.316535460067494
10
0.94960631721035038
20
-0.31653546006749417
10
0.94960631721034983
20
-0.9496063172103526
0
LWPOLYLINE
5
174
100
AcDbEntity
8
0
100
AcDbPolyline
90
4
70
1
43
0.0
10
0.31653546006749267
20
-2.0157480314960656
10
0.31653546006749267
20
-1.582677174353208
10
0.94960631721034994
20
-1.5826771743532084
10
0.94960631721034994
20
-2.0157480314960656
0
LWPOLYLINE
5
175
100
AcDbEntity
8
0
100
AcDbPolyline
90
4
70
1
43
0.0
10
1.5826771743532073
20
-0.9496063172103526
10
1.582677174353208
20
-0.31653546006749428
10
2.0157480314960652
20
-0.31653546006749445
10
2.0157480314960647
20
-0.94960631721035282
0
LWPOLYLINE
5
176
100
AcDbEntity
8
0
100
AcDbPolyline
90
4
70
1
43
0.0
10
1.5826771743532073
20
-2.0157480314960656
10
1.5826771743532075
20
-1.5826771743532086
10
2.0157480314960647
20
-1.5826771743532086
10
2.0157480314960647
20
-2.0157480314960656
0
ENDSEC
0
SECTION
2
OBJECTS
0
DICTIONARY
5
C
100
AcDbDictionary
3
ACAD_GROUP
350
D
3
ACAD_MLINESTYLE
350
17
0
DICTIONARY
5
D
100
AcDbDictionary
0
DICTIONARY
5
1A
330
C
100
AcDbDictionary
0
DICTIONARY
5
17
100
AcDbDictionary
0
ENDSEC
0
EOF
