<svg xmlns="http://www.w3.org/2000/svg" viewBox="0 0 348.58 348.58"><defs><style>.cls-1{fill:none;stroke:#000;stroke-linecap:round;stroke-linejoin:round;stroke-width:0.71px;}</style></defs><title>grill_final</title><g id="Layer_2" data-name="Layer 2"><g id="LINE"><polygon class="cls-1" points="333.82 151.5 333.82 197.08 333.82 151.5 348.22 151.5 348.22 105.92 333.82 105.92 333.82 60.34 348.22 60.34 348.22 14.75 333.82 14.75 333.82 0.35 288.24 0.35 288.24 14.75 242.66 14.75 242.66 0.35 197.08 0.35 197.08 14.75 151.5 14.75 151.5 0.35 105.92 0.35 105.92 14.75 60.34 14.75 60.34 0.35 14.75 0.35 14.75 14.75 0.35 14.75 0.35 60.34 14.75 60.34 14.75 105.92 0.35 105.92 0.35 151.5 14.75 151.5 14.75 197.08 0.35 197.08 0.35 242.66 14.75 242.66 14.75 288.24 0.35 288.24 0.35 333.82 14.75 333.82 14.75 348.22 60.34 348.22 60.34 333.82 105.92 333.82 105.92 348.22 151.5 348.22 151.5 333.82 197.08 333.82 197.08 348.22 242.66 348.22 242.66 333.82 288.24 333.82 288.24 348.22 333.82 348.22 333.82 333.82 348.22 333.82 348.22 288.24 333.82 288.24 333.82 242.66 348.22 242.66 348.22 197.08 333.82 197.08 333.82 151.5"/></g><rect class="cls-1" x="318.31" y="386.7" width="11.58" height="11.58" transform="translate(-300.12 221.22) rotate(-45)"/><polygon class="cls-1" points="190.63 309.23 182.44 317.42 184.44 319.42 196.82 319.42 198.82 317.42 190.63 309.23"/><rect class="cls-1" x="286.41" y="418.59" width="11.58" height="11.58" transform="translate(-332.02 208) rotate(-45)"/><rect class="cls-1" x="302.36" y="402.64" width="11.58" height="11.58" transform="translate(-316.07 214.61) rotate(-45)"/><rect class="cls-1" x="334.26" y="370.75" width="11.58" height="11.58" transform="translate(-284.17 227.82) rotate(-45)"/><rect class="cls-1" x="414.01" y="322.9" width="11.58" height="11.58" transform="translate(-226.98 270.2) rotate(-45)"/><rect class="cls-1" x="398.06" y="306.95" width="11.58" height="11.58" transform="translate(-220.37 254.24) rotate(-45)"/><rect class="cls-1" x="350.21" y="354.8" width="11.58" height="11.58" transform="translate(-268.22 234.42) rotate(-45)"/><rect class="cls-1" x="366.16" y="338.85" width="11.58" height="11.58" transform="translate(-252.27 241.03) rotate(-45)"/><rect class="cls-1" x="382.11" y="322.9" width="11.58" height="11.58" transform="translate(-236.32 247.64) rotate(-45)"/><rect class="cls-1" x="270.46" y="402.64" width="11.58" height="11.58" transform="translate(-325.41 192.05) rotate(-45)"/><rect class="cls-1" x="286.41" y="259.1" width="11.58" height="11.58" transform="translate(-219.24 161.29) rotate(-45)"/><rect class="cls-1" x="270.46" y="275.05" width="11.58" height="11.58" transform="translate(-235.19 154.68) rotate(-45)"/><rect class="cls-1" x="254.51" y="291" width="11.58" height="11.58" transform="translate(-251.14 148.07) rotate(-45)"/><rect class="cls-1" x="334.26" y="211.25" width="11.58" height="11.58" transform="translate(-171.39 181.1) rotate(-45)"/><rect class="cls-1" x="302.36" y="243.15" width="11.58" height="11.58" transform="translate(-203.29 167.89) rotate(-45)"/><rect class="cls-1" x="222.61" y="354.8" width="11.58" height="11.58" transform="translate(-305.59 144.2) rotate(-45)"/><rect class="cls-1" x="254.51" y="386.7" width="11.58" height="11.58" transform="translate(-318.81 176.1) rotate(-45)"/><rect class="cls-1" x="238.56" y="370.75" width="11.58" height="11.58" transform="translate(-312.2 160.15) rotate(-45)"/><rect class="cls-1" x="238.56" y="306.95" width="11.58" height="11.58" transform="translate(-267.09 141.46) rotate(-45)"/><rect class="cls-1" x="222.61" y="322.9" width="11.58" height="11.58" transform="translate(-283.04 134.86) rotate(-45)"/><rect class="cls-1" x="318.31" y="227.2" width="11.58" height="11.58" transform="translate(-187.34 174.49) rotate(-45)"/><rect class="cls-1" x="190.71" y="322.9" width="11.58" height="11.58" transform="translate(-292.38 112.3) rotate(-45)"/><rect class="cls-1" x="206.66" y="306.95" width="11.58" height="11.58" transform="translate(-276.43 118.91) rotate(-45)"/><rect class="cls-1" x="238.56" y="275.05" width="11.58" height="11.58" transform="translate(-244.53 132.12) rotate(-45)"/><rect class="cls-1" x="222.61" y="291" width="11.58" height="11.58" transform="translate(-260.48 125.51) rotate(-45)"/><rect class="cls-1" x="190.71" y="354.8" width="11.58" height="11.58" transform="translate(-314.94 121.65) rotate(-45)"/><rect class="cls-1" x="254.51" y="259.1" width="11.58" height="11.58" transform="translate(-228.58 138.73) rotate(-45)"/><rect class="cls-1" x="254.51" y="418.59" width="11.58" height="11.58" transform="translate(-341.36 185.44) rotate(-45)"/><polygon class="cls-1" points="166.92 317.42 158.73 309.23 150.54 317.42 152.54 319.42 164.92 319.42 166.92 317.42"/><rect class="cls-1" x="206.66" y="370.75" width="11.58" height="11.58" transform="translate(-321.54 137.6) rotate(-45)"/><rect class="cls-1" x="238.56" y="402.64" width="11.58" height="11.58" transform="translate(-334.76 169.49) rotate(-45)"/><rect class="cls-1" x="222.61" y="386.7" width="11.58" height="11.58" transform="translate(-328.15 153.54) rotate(-45)"/><rect class="cls-1" x="270.46" y="243.15" width="11.58" height="11.58" transform="translate(-212.63 145.34) rotate(-45)"/><polygon class="cls-1" points="310.04 94.12 318.23 102.31 319.42 101.12 319.42 87.13 318.23 85.94 310.04 94.12"/><rect class="cls-1" x="382.11" y="195.3" width="11.58" height="11.58" transform="translate(-146.1 210.27) rotate(-45)"/><rect class="cls-1" x="350.21" y="163.4" width="11.58" height="11.58" transform="translate(-132.88 178.37) rotate(-45)"/><rect class="cls-1" x="414.01" y="195.3" width="11.58" height="11.58" transform="translate(-136.75 232.83) rotate(-45)"/><rect class="cls-1" x="398.06" y="211.25" width="11.58" height="11.58" transform="translate(-152.7 226.22) rotate(-45)"/><rect class="cls-1" x="366.16" y="179.35" width="11.58" height="11.58" transform="translate(-139.49 194.32) rotate(-45)"/><rect class="cls-1" x="286.41" y="227.2" width="11.58" height="11.58" transform="translate(-196.68 151.95) rotate(-45)"/><rect class="cls-1" x="302.36" y="211.25" width="11.58" height="11.58" transform="translate(-180.73 158.55) rotate(-45)"/><rect class="cls-1" x="318.31" y="195.3" width="11.58" height="11.58" transform="translate(-164.78 165.15) rotate(-45)"/><rect class="cls-1" x="334.26" y="179.35" width="11.58" height="11.58" transform="translate(-148.83 171.76) rotate(-45)"/><polygon class="cls-1" points="319.42 196.82 319.42 182.83 318.23 181.63 310.04 189.82 318.23 198.01 319.42 196.82"/><rect class="cls-1" x="366.16" y="275.05" width="11.58" height="11.58" transform="translate(-207.16 222.34) rotate(-45)"/><rect class="cls-1" x="286.41" y="354.8" width="11.58" height="11.58" transform="translate(-286.91 189.31) rotate(-45)"/><rect class="cls-1" x="334.26" y="306.95" width="11.58" height="11.58" transform="translate(-239.06 209.13) rotate(-45)"/><rect class="cls-1" x="318.31" y="322.9" width="11.58" height="11.58" transform="translate(-255.01 202.53) rotate(-45)"/><rect class="cls-1" x="302.36" y="338.85" width="11.58" height="11.58" transform="translate(-270.96 195.93) rotate(-45)"/><rect class="cls-1" x="350.21" y="291" width="11.58" height="11.58" transform="translate(-223.11 215.74) rotate(-45)"/><rect class="cls-1" x="334.26" y="243.15" width="11.58" height="11.58" transform="translate(-193.95 190.45) rotate(-45)"/><rect class="cls-1" x="318.31" y="259.1" width="11.58" height="11.58" transform="translate(-209.9 183.84) rotate(-45)"/><rect class="cls-1" x="366.16" y="243.15" width="11.58" height="11.58" transform="translate(-184.6 213.01) rotate(-45)"/><rect class="cls-1" x="350.21" y="227.2" width="11.58" height="11.58" transform="translate(-178 197.05) rotate(-45)"/><rect class="cls-1" x="382.11" y="259.1" width="11.58" height="11.58" transform="translate(-191.21 228.95) rotate(-45)"/><rect class="cls-1" x="350.21" y="259.1" width="11.58" height="11.58" transform="translate(-200.55 206.39) rotate(-45)"/><rect class="cls-1" x="158.81" y="354.8" width="11.58" height="11.58" transform="translate(-324.28 99.09) rotate(-45)"/><rect class="cls-1" x="174.76" y="338.85" width="11.58" height="11.58" transform="translate(-308.33 105.69) rotate(-45)"/><rect class="cls-1" x="270.46" y="338.85" width="11.58" height="11.58" transform="translate(-280.3 173.37) rotate(-45)"/><rect class="cls-1" x="350.21" y="195.3" width="11.58" height="11.58" transform="translate(-155.44 187.71) rotate(-45)"/><rect class="cls-1" x="334.26" y="275.05" width="11.58" height="11.58" transform="translate(-216.5 199.79) rotate(-45)"/><rect class="cls-1" x="158.81" y="322.9" width="11.58" height="11.58" transform="translate(-301.72 89.74) rotate(-45)"/><rect class="cls-1" x="302.36" y="306.95" width="11.58" height="11.58" transform="translate(-248.4 186.58) rotate(-45)"/><rect class="cls-1" x="286.41" y="322.9" width="11.58" height="11.58" transform="translate(-264.35 179.97) rotate(-45)"/><rect class="cls-1" x="302.36" y="275.05" width="11.58" height="11.58" transform="translate(-225.85 177.23) rotate(-45)"/><rect class="cls-1" x="318.31" y="291" width="11.58" height="11.58" transform="translate(-232.45 193.18) rotate(-45)"/><polygon class="cls-1" points="39.32 221.72 31.13 213.53 29.15 215.51 29.15 227.93 31.13 229.91 39.32 221.72"/><rect class="cls-1" x="414.01" y="291" width="11.58" height="11.58" transform="translate(-204.42 260.85) rotate(-45)"/><rect class="cls-1" x="414.01" y="259.1" width="11.58" height="11.58" transform="translate(-181.87 251.51) rotate(-45)"/><rect class="cls-1" x="286.41" y="291" width="11.58" height="11.58" transform="translate(-241.8 170.63) rotate(-45)"/><rect class="cls-1" x="398.06" y="275.05" width="11.58" height="11.58" transform="translate(-197.82 244.9) rotate(-45)"/><polygon class="cls-1" points="319.42 164.92 319.42 150.93 318.23 149.73 310.04 157.92 318.23 166.11 319.42 164.92"/><rect class="cls-1" x="382.11" y="291" width="11.58" height="11.58" transform="translate(-213.77 238.29) rotate(-45)"/><polygon class="cls-1" points="310.04 126.02 318.23 134.21 319.42 133.02 319.42 119.03 318.23 117.83 310.04 126.02"/><rect class="cls-1" x="366.16" y="211.25" width="11.58" height="11.58" transform="translate(-162.05 203.66) rotate(-45)"/><rect class="cls-1" x="382.11" y="227.2" width="11.58" height="11.58" transform="translate(-168.65 219.61) rotate(-45)"/><rect class="cls-1" x="414.01" y="227.2" width="11.58" height="11.58" transform="translate(-159.31 242.16) rotate(-45)"/><rect class="cls-1" x="398.06" y="243.15" width="11.58" height="11.58" transform="translate(-175.26 235.56) rotate(-45)"/><rect class="cls-1" x="366.16" y="306.95" width="11.58" height="11.58" transform="translate(-229.72 231.69) rotate(-45)"/><rect class="cls-1" x="238.56" y="338.85" width="11.58" height="11.58" transform="translate(-289.64 150.81) rotate(-45)"/><rect class="cls-1" x="254.51" y="354.8" width="11.58" height="11.58" transform="translate(-296.25 166.76) rotate(-45)"/><rect class="cls-1" x="270.46" y="370.75" width="11.58" height="11.58" transform="translate(-302.86 182.71) rotate(-45)"/><rect class="cls-1" x="254.51" y="322.9" width="11.58" height="11.58" transform="translate(-273.69 157.41) rotate(-45)"/><rect class="cls-1" x="270.46" y="306.95" width="11.58" height="11.58" transform="translate(-257.75 164.03) rotate(-45)"/><rect class="cls-1" x="286.41" y="386.7" width="11.58" height="11.58" transform="translate(-309.46 198.65) rotate(-45)"/><rect class="cls-1" x="350.21" y="322.9" width="11.58" height="11.58" transform="translate(-245.67 225.08) rotate(-45)"/><rect class="cls-1" x="334.26" y="338.85" width="11.58" height="11.58" transform="translate(-261.61 218.48) rotate(-45)"/><rect class="cls-1" x="318.31" y="354.8" width="11.58" height="11.58" transform="translate(-277.56 211.87) rotate(-45)"/><rect class="cls-1" x="302.36" y="370.75" width="11.58" height="11.58" transform="translate(-293.51 205.27) rotate(-45)"/><rect class="cls-1" x="206.66" y="338.85" width="11.58" height="11.58" transform="translate(-298.99 128.25) rotate(-45)"/><rect class="cls-1" x="398.06" y="402.64" width="11.58" height="11.58" transform="translate(-288.04 282.27) rotate(-45)"/><rect class="cls-1" x="414.01" y="418.59" width="11.58" height="11.58" transform="translate(-294.65 298.22) rotate(-45)"/><rect class="cls-1" x="382.11" y="418.59" width="11.58" height="11.58" transform="translate(-303.99 275.66) rotate(-45)"/><polygon class="cls-1" points="254.43 309.23 246.24 317.42 248.24 319.42 260.62 319.42 262.62 317.42 254.43 309.23"/><polygon class="cls-1" points="103.12 317.42 94.93 309.23 86.74 317.42 88.75 319.42 101.12 319.42 103.12 317.42"/><rect class="cls-1" x="238.56" y="179.35" width="11.58" height="11.58" transform="translate(-176.86 104.09) rotate(-45)"/><rect class="cls-1" x="190.71" y="418.59" width="11.58" height="11.58" transform="translate(-360.05 140.33) rotate(-45)"/><rect class="cls-1" x="222.61" y="195.3" width="11.58" height="11.58" transform="translate(-192.81 97.48) rotate(-45)"/><rect class="cls-1" x="254.51" y="163.4" width="11.58" height="11.58" transform="translate(-160.91 110.7) rotate(-45)"/><polygon class="cls-1" points="158.73 38.51 166.92 30.32 165.75 29.15 151.71 29.15 150.54 30.32 158.73 38.51"/><polygon class="cls-1" points="319.42 292.51 319.42 278.52 318.23 277.33 310.04 285.52 318.23 293.71 319.42 292.51"/><rect class="cls-1" x="174.76" y="275.05" width="11.58" height="11.58" transform="translate(-263.22 87.01) rotate(-45)"/><rect class="cls-1" x="190.71" y="259.1" width="11.58" height="11.58" transform="translate(-247.27 93.61) rotate(-45)"/><rect class="cls-1" x="206.66" y="243.15" width="11.58" height="11.58" transform="translate(-231.32 100.22) rotate(-45)"/><rect class="cls-1" x="206.66" y="211.25" width="11.58" height="11.58" transform="translate(-208.76 90.88) rotate(-45)"/><rect class="cls-1" x="238.56" y="211.25" width="11.58" height="11.58" transform="translate(-199.42 113.43) rotate(-45)"/><rect class="cls-1" x="222.61" y="227.2" width="11.58" height="11.58" transform="translate(-215.37 106.83) rotate(-45)"/><rect class="cls-1" x="174.76" y="402.64" width="11.58" height="11.58" transform="translate(-353.44 124.38) rotate(-45)"/><rect class="cls-1" x="158.81" y="259.1" width="11.58" height="11.58" transform="translate(-256.61 71.06) rotate(-45)"/><polygon class="cls-1" points="39.32 285.52 31.13 277.33 29.15 279.31 29.15 291.73 31.13 293.71 39.32 285.52"/><rect class="cls-1" x="158.81" y="418.59" width="11.58" height="11.58" transform="translate(-369.39 117.77) rotate(-45)"/><polygon class="cls-1" points="29.15 151.71 29.15 164.13 31.13 166.11 39.32 157.92 31.13 149.73 29.15 151.71"/><polygon class="cls-1" points="126.83 38.51 135.02 30.32 133.85 29.15 119.81 29.15 118.64 30.32 126.83 38.51"/><polygon class="cls-1" points="29.15 87.92 29.15 100.33 31.13 102.31 39.32 94.12 31.13 85.94 29.15 87.92"/><polygon class="cls-1" points="94.93 38.51 103.12 30.32 101.95 29.15 87.92 29.15 86.74 30.32 94.93 38.51"/><rect class="cls-1" x="190.71" y="163.4" width="11.58" height="11.58" transform="translate(-179.6 65.58) rotate(-45)"/><rect class="cls-1" x="190.71" y="195.3" width="11.58" height="11.58" transform="translate(-202.16 74.93) rotate(-45)"/><rect class="cls-1" x="158.81" y="195.3" width="11.58" height="11.58" transform="translate(-211.5 52.38) rotate(-45)"/><rect class="cls-1" x="174.76" y="211.25" width="11.58" height="11.58" transform="translate(-218.11 68.32) rotate(-45)"/><polygon class="cls-1" points="63.03 38.51 71.22 30.32 70.05 29.15 56.02 29.15 54.84 30.32 63.03 38.51"/><rect class="cls-1" x="174.76" y="179.35" width="11.58" height="11.58" transform="translate(-195.55 58.98) rotate(-45)"/><polygon class="cls-1" points="29.15 36.53 31.13 38.51 39.32 30.32 38.15 29.15 29.15 29.15 29.15 36.53"/><rect class="cls-1" x="158.81" y="163.4" width="11.58" height="11.58" transform="translate(-188.94 43.03) rotate(-45)"/><polygon class="cls-1" points="29.15 56.02 29.15 68.43 31.13 70.41 39.32 62.22 31.13 54.03 29.15 56.02"/><rect class="cls-1" x="318.31" y="418.59" width="11.58" height="11.58" transform="translate(-322.68 230.56) rotate(-45)"/><polygon class="cls-1" points="39.32 317.42 31.13 309.23 29.15 311.21 29.15 319.42 37.32 319.42 39.32 317.42"/><polygon class="cls-1" points="29.15 119.81 29.15 132.23 31.13 134.21 39.32 126.02 31.13 117.83 29.15 119.81"/><rect class="cls-1" x="158.81" y="227.2" width="11.58" height="11.58" transform="translate(-234.06 61.72) rotate(-45)"/><polygon class="cls-1" points="71.22 317.42 63.03 309.23 54.84 317.42 56.85 319.42 69.22 319.42 71.22 317.42"/><rect class="cls-1" x="190.71" y="227.2" width="11.58" height="11.58" transform="translate(-224.71 84.27) rotate(-45)"/><rect class="cls-1" x="222.61" y="163.4" width="11.58" height="11.58" transform="translate(-170.26 88.14) rotate(-45)"/><rect class="cls-1" x="254.51" y="195.3" width="11.58" height="11.58" transform="translate(-183.47 120.05) rotate(-45)"/><rect class="cls-1" x="206.66" y="179.35" width="11.58" height="11.58" transform="translate(-186.21 81.53) rotate(-45)"/><polygon class="cls-1" points="319.42 310.42 318.23 309.23 310.04 317.42 312.04 319.42 319.42 319.42 319.42 310.42"/><polygon class="cls-1" points="286.33 309.23 278.14 317.42 280.14 319.42 292.51 319.42 294.52 317.42 286.33 309.23"/><rect class="cls-1" x="174.76" y="243.15" width="11.58" height="11.58" transform="translate(-240.66 77.67) rotate(-45)"/><rect class="cls-1" x="382.11" y="163.4" width="11.58" height="11.58" transform="translate(-123.54 200.93) rotate(-45)"/><rect class="cls-1" x="286.41" y="195.3" width="11.58" height="11.58" transform="translate(-174.13 142.6) rotate(-45)"/><rect class="cls-1" x="302.36" y="179.35" width="11.58" height="11.58" transform="translate(-158.18 149.2) rotate(-45)"/><polygon class="cls-1" points="246.24 30.32 254.43 38.51 262.62 30.32 261.45 29.15 247.41 29.15 246.24 30.32"/><polygon class="cls-1" points="222.53 38.51 230.72 30.32 229.55 29.15 215.51 29.15 214.34 30.32 222.53 38.51"/><rect class="cls-1" x="318.31" y="163.4" width="11.58" height="11.58" transform="translate(-142.23 155.81) rotate(-45)"/><rect class="cls-1" x="270.46" y="211.25" width="11.58" height="11.58" transform="translate(-190.08 135.99) rotate(-45)"/><rect class="cls-1" x="222.61" y="259.1" width="11.58" height="11.58" transform="translate(-237.93 116.17) rotate(-45)"/><rect class="cls-1" x="206.66" y="275.05" width="11.58" height="11.58" transform="translate(-253.87 109.56) rotate(-45)"/><rect class="cls-1" x="238.56" y="243.15" width="11.58" height="11.58" transform="translate(-221.98 122.78) rotate(-45)"/><rect class="cls-1" x="254.51" y="227.2" width="11.58" height="11.58" transform="translate(-206.03 129.38) rotate(-45)"/><polygon class="cls-1" points="319.42 228.72 319.42 214.73 318.23 213.53 310.04 221.72 318.23 229.91 319.42 228.72"/><rect class="cls-1" x="366.16" y="370.75" width="11.58" height="11.58" transform="translate(-274.83 250.37) rotate(-45)"/><rect class="cls-1" x="382.11" y="354.8" width="11.58" height="11.58" transform="translate(-258.88 256.98) rotate(-45)"/><rect class="cls-1" x="398.06" y="338.85" width="11.58" height="11.58" transform="translate(-242.93 263.59) rotate(-45)"/><rect class="cls-1" x="350.21" y="386.7" width="11.58" height="11.58" transform="translate(-290.78 243.77) rotate(-45)"/><rect class="cls-1" x="334.26" y="402.64" width="11.58" height="11.58" transform="translate(-306.73 237.17) rotate(-45)"/><polygon class="cls-1" points="310.04 62.22 318.23 70.41 319.42 69.22 319.42 55.23 318.23 54.03 310.04 62.22"/><rect class="cls-1" x="414.01" y="163.4" width="11.58" height="11.58" transform="translate(-114.2 223.48) rotate(-45)"/><rect class="cls-1" x="398.06" y="179.35" width="11.58" height="11.58" transform="translate(-130.15 216.88) rotate(-45)"/><rect class="cls-1" x="270.46" y="179.35" width="11.58" height="11.58" transform="translate(-167.52 126.65) rotate(-45)"/><rect class="cls-1" x="190.71" y="291" width="11.58" height="11.58" transform="translate(-269.82 102.96) rotate(-45)"/><rect class="cls-1" x="414.01" y="354.8" width="11.58" height="11.58" transform="translate(-249.54 279.54) rotate(-45)"/><rect class="cls-1" x="398.06" y="370.75" width="11.58" height="11.58" transform="translate(-265.49 272.93) rotate(-45)"/><rect class="cls-1" x="414.01" y="386.7" width="11.58" height="11.58" transform="translate(-272.09 288.89) rotate(-45)"/><rect class="cls-1" x="366.16" y="402.64" width="11.58" height="11.58" transform="translate(-297.38 259.72) rotate(-45)"/><rect class="cls-1" x="382.11" y="386.7" width="11.58" height="11.58" transform="translate(-281.43 266.32) rotate(-45)"/><polygon class="cls-1" points="319.42 260.62 319.42 246.63 318.23 245.43 310.04 253.62 318.23 261.81 319.42 260.62"/><rect class="cls-1" x="174.76" y="306.95" width="11.58" height="11.58" transform="translate(-285.77 96.35) rotate(-45)"/><polygon class="cls-1" points="190.63 38.51 198.82 30.32 197.65 29.15 183.61 29.15 182.44 30.32 190.63 38.51"/><rect class="cls-1" x="286.41" y="163.4" width="11.58" height="11.58" transform="translate(-151.57 133.25) rotate(-45)"/><polygon class="cls-1" points="278.14 30.32 286.33 38.51 294.52 30.32 293.35 29.15 279.31 29.15 278.14 30.32"/><rect class="cls-1" x="350.21" y="418.59" width="11.58" height="11.58" transform="translate(-313.33 253.11) rotate(-45)"/><polygon class="cls-1" points="310.04 30.32 318.23 38.51 319.42 37.32 319.42 29.15 311.21 29.15 310.04 30.32"/><rect class="cls-1" x="174.76" y="370.75" width="11.58" height="11.58" transform="translate(-330.89 115.04) rotate(-45)"/><rect class="cls-1" x="158.81" y="386.7" width="11.58" height="11.58" transform="translate(-346.84 108.43) rotate(-45)"/><polygon class="cls-1" points="39.32 253.62 31.13 245.43 29.15 247.41 29.15 259.83 31.13 261.81 39.32 253.62"/><polygon class="cls-1" points="222.53 309.23 214.34 317.42 216.34 319.42 228.72 319.42 230.72 317.42 222.53 309.23"/><polygon class="cls-1" points="29.15 183.61 29.15 196.03 31.13 198.01 39.32 189.82 31.13 181.63 29.15 183.61"/><rect class="cls-1" x="158.81" y="291" width="11.58" height="11.58" transform="translate(-279.17 80.41) rotate(-45)"/><rect class="cls-1" x="190.71" y="386.7" width="11.58" height="11.58" transform="translate(-337.49 130.99) rotate(-45)"/><polygon class="cls-1" points="135.02 317.42 126.83 309.23 118.64 317.42 120.65 319.42 133.02 319.42 135.02 317.42"/><rect class="cls-1" x="222.61" y="418.59" width="11.58" height="11.58" transform="translate(-350.71 162.89) rotate(-45)"/><rect class="cls-1" x="206.66" y="402.64" width="11.58" height="11.58" transform="translate(-344.1 146.94) rotate(-45)"/></g></svg>