0
SECTION
2
HEADER
9
$INSUNITS
70
1
9
$ACADVER
1
AC1014
9
$HANDSEED
5
FFFF
0
ENDSEC
0
SECTION
2
TABLES
0
TABLE
2
VPORT
5
8
100
AcDbSymbolTable
0
ENDTAB
0
TABLE
2
LTYPE
5
5
100
AcDbSymbolTable
0
LTYPE
5
14
100
AcDbSymbolTableRecord
100
AcDbLinetypeTableRecord
2
BYBLOCK
70
0
0
LTYPE
5
15
100
AcDbSymbolTableRecord
100
AcDbLinetypeTableRecord
2
BYLAYER
70
0
0
ENDTAB
0
TABLE
2
LAYER
5
2
100
AcDbSymbolTable
70
2
0
LAYER
5
50
100
AcDbSymbolTableRecord
100
AcDbLayerTableRecord
2
0
70
0
6
CONTINUOUS
0
ENDTAB
0
TABLE
2
STYLE
5
3
100
AcDbSymbolTable
70
1
0
STYLE
5
11
100
AcDbSymbolTableRecord
100
AcDbTextStyleTableRecord
2
STANDARD
70
0
0
ENDTAB
0
TABLE
2
VIEW
5
6
100
AcDbSymbolTable
70
0
0
ENDTAB
0
TABLE
2
UCS
5
7
100
AcDbSymbolTable
70
0
0
ENDTAB
0
TABLE
2
APPID
5
9
100
AcDbSymbolTable
70
2
0
APPID
5
12
100
AcDbSymbolTableRecord
100
AcDbRegAppTableRecord
2
ACAD
70
0
0
ENDTAB
0
TABLE
2
DIMSTYLE
5
A
100
AcDbSymbolTable
70
1
0
ENDTAB
0
TABLE
2
BLOCK_RECORD
5
1
100
AcDbSymbolTable
70
1
0
BLOCK_RECORD
5
1F
100
AcDbSymbolTableRecord
100
AcDbBlockTableRecord
2
*MODEL_SPACE
0
BLOCK_RECORD
5
1B
100
AcDbSymbolTableRecord
100
AcDbBlockTableRecord
2
*PAPER_SPACE
0
ENDTAB
0
ENDSEC
0
SECTION
2
BLOCKS
0
BLOCK
5
20
100
AcDbEntity
100
AcDbBlockBegin
2
*MODEL_SPACE
0
ENDBLK
5
21
100
AcDbEntity
100
AcDbBlockEnd
0
BLOCK
5
1C
100
AcDbEntity
100
AcDbBlockBegin
2
*PAPER_SPACE
0
ENDBLK
5
1D
100
AcDbEntity
100
AcDbBlockEnd
0
ENDSEC
0
SECTION
2
ENTITIES
0
ARC
5
100
100
AcDbEntity
8
0
100
AcDbCircle
10
-21.511458274886479
20
35.041006768034237
30
0
40
0.12500000000000266
100
AcDbArc
50
-134.99999999996547
51
45.000000000032237
0
LINE
5
101
100
AcDbEntity
8
0
100
AcDbLine
10
-21.599846622534749
20
34.952618420385861
30
0
11
-22.141819927238132
21
34.952618420385882
31
0
0
LINE
5
102
100
AcDbEntity
8
0
100
AcDbLine
10
-22.141819927238132
20
34.952618420385882
30
0
11
-22.14181992723821
21
33.032479531496989
31
0
0
LINE
5
103
100
AcDbEntity
8
0
100
AcDbLine
10
-22.14181992723821
20
33.032479531496989
30
0
11
-21.59984662253493
21
33.032479531496968
31
0
0
ARC
5
104
100
AcDbEntity
8
0
100
AcDbCircle
10
-21.511458274886564
20
32.944091183848698
30
0
40
0.12499999999999474
100
AcDbArc
50
-44.999999999980403
51
135.00000000003109
0
LINE
5
105
100
AcDbEntity
8
0
100
AcDbLine
10
-21.42306992723822
20
32.855702836200415
30
0
11
-21.423069927238284
21
31.289117337904727
31
0
0
ARC
5
106
100
AcDbEntity
8
0
100
AcDbCircle
10
-21.511458274886632
20
31.200728990256451
30
0
40
0.1249999999999987
100
AcDbArc
50
-134.99999999996777
51
44.999999999976964
0
LINE
5
107
100
AcDbEntity
8
0
100
AcDbLine
10
-21.599846622534901
20
31.112340642608082
30
0
11
-22.141819927238288
21
31.1123406426081
31
0
0
LINE
5
108
100
AcDbEntity
8
0
100
AcDbLine
10
-22.141819927238288
20
31.1123406426081
30
0
11
-22.14181992723837
21
29.19220175371921
31
0
0
LINE
5
109
100
AcDbEntity
8
0
100
AcDbLine
10
-22.14181992723837
20
29.19220175371921
30
0
11
-21.599846622535093
21
29.192201753719189
31
0
0
ARC
5
110
100
AcDbEntity
8
0
100
AcDbCircle
10
-21.511458274886721
20
29.103813406070916
30
0
40
0.12499999999999674
100
AcDbArc
50
-44.999999999981583
51
135.00000000003226
0
LINE
5
111
100
AcDbEntity
8
0
100
AcDbLine
10
-21.423069927238377
20
29.015425058422629
30
0
11
-21.423069927238441
21
27.448839560126952
31
0
0
ARC
5
112
100
AcDbEntity
8
0
100
AcDbCircle
10
-21.511458274886795
20
27.360451212478665
30
0
40
0.1249999999999987
100
AcDbArc
50
-134.99999999996777
51
44.999999999978115
0
LINE
5
113
100
AcDbEntity
8
0
100
AcDbLine
10
-21.599846622535065
20
27.272062864830296
30
0
11
-22.141819927238448
21
27.272062864830325
31
0
0
LINE
5
114
100
AcDbEntity
8
0
100
AcDbLine
10
-22.141819927238448
20
27.272062864830325
30
0
11
-22.141819927238526
21
25.351923975941435
31
0
0
LINE
5
115
100
AcDbEntity
8
0
100
AcDbLine
10
-22.141819927238526
20
25.351923975941435
30
0
11
-21.599846622535242
21
25.351923975941407
31
0
0
ARC
5
116
100
AcDbEntity
8
0
100
AcDbCircle
10
-21.511458274886877
20
25.263535628293141
30
0
40
0.12500000000000266
100
AcDbArc
50
-44.999999999986159
51
135.00000000003226
0
LINE
5
117
100
AcDbEntity
8
0
100
AcDbLine
10
-21.423069927238537
20
25.175147280644843
30
0
11
-21.423069927238597
21
23.608561782349174
31
0
0
ARC
5
118
100
AcDbEntity
8
0
100
AcDbCircle
10
-21.511458274886945
20
23.520173434700883
30
0
40
0.1249999999999987
100
AcDbArc
50
-134.99999999997124
51
44.999999999981576
0
LINE
5
119
100
AcDbEntity
8
0
100
AcDbLine
10
-21.599846622535217
20
23.431785087052521
30
0
11
-22.141819927238604
21
23.431785087052539
31
0
0
LINE
5
120
100
AcDbEntity
8
0
100
AcDbLine
10
-22.141819927238604
20
23.431785087052539
30
0
11
-22.141819927238686
21
21.51164619816365
31
0
0
LINE
5
121
100
AcDbEntity
8
0
100
AcDbLine
10
-22.141819927238686
20
21.51164619816365
30
0
11
-21.599846622535392
21
21.511646198163632
31
0
0
ARC
5
122
100
AcDbEntity
8
0
100
AcDbCircle
10
-21.511458274887033
20
21.423257850515355
30
0
40
0.12500000000000266
100
AcDbArc
50
-44.999999999983871
51
135.00000000002649
0
LINE
5
123
100
AcDbEntity
8
0
100
AcDbLine
10
-21.423069927238689
20
21.334869502867061
30
0
11
-21.423069927238764
21
19.591507309274732
31
0
0
LINE
5
124
100
AcDbEntity
8
0
100
AcDbLine
10
-21.423069927238764
20
19.591507309274732
30
0
11
1.1394300727612072
21
19.591507309273798
31
0
0
LINE
5
125
100
AcDbEntity
8
0
100
AcDbLine
10
1.1394300727612072
20
19.591507309273798
30
0
11
1.1394300727612785
21
21.334869502866038
31
0
0
ARC
5
126
100
AcDbEntity
8
0
100
AcDbCircle
10
1.2278184204095453
20
21.42325785051441
30
0
40
0.12499999999999796
100
AcDbArc
50
44.999999999968836
51
225.00000000003422
0
LINE
5
127
100
AcDbEntity
8
0
100
AcDbLine
10
1.3162067680579108
20
21.51164619816268
30
0
11
1.8581800727612869
21
21.511646198162655
31
0
0
LINE
5
128
100
AcDbEntity
8
0
100
AcDbLine
10
1.8581800727612869
20
21.511646198162655
30
0
11
1.8581800727613651
21
23.431785087051544
31
0
0
LINE
5
129
100
AcDbEntity
8
0
100
AcDbLine
10
1.8581800727613651
20
23.431785087051544
30
0
11
1.3162067680578922
21
23.431785087051566
31
0
0
ARC
5
130
100
AcDbEntity
8
0
100
AcDbCircle
10
1.2278184204096274
20
23.520173434699942
30
0
40
0.12499999999999796
100
AcDbArc
50
134.99999999996007
51
314.99999999996396
0
LINE
5
131
100
AcDbEntity
8
0
100
AcDbLine
10
1.1394300727613711
20
23.608561782348321
30
0
11
1.1394300727614364
21
25.175147280643824
31
0
0
ARC
5
132
100
AcDbEntity
8
0
100
AcDbCircle
10
1.2278184204097007
20
25.263535628292193
30
0
40
0.12500000000000031
100
AcDbArc
50
44.999999999968765
51
225.00000000003391
0
LINE
5
133
100
AcDbEntity
8
0
100
AcDbLine
10
1.3162067680580665
20
25.351923975940462
30
0
11
1.8581800727614437
21
25.351923975940434
31
0
0
LINE
5
134
100
AcDbEntity
8
0
100
AcDbLine
10
1.8581800727614437
20
25.351923975940434
30
0
11
1.8581800727615216
21
27.272062864829323
31
0
0
LINE
5
135
100
AcDbEntity
8
0
100
AcDbLine
10
1.8581800727615216
20
27.272062864829323
30
0
11
1.3162067680580438
21
27.272062864829348
31
0
0
ARC
5
136
100
AcDbEntity
8
0
100
AcDbCircle
10
1.2278184204097828
20
27.360451212477724
30
0
40
0.12499999999999674
100
AcDbArc
50
134.9999999999595
51
314.99999999996271
0
LINE
5
137
100
AcDbEntity
8
0
100
AcDbLine
10
1.1394300727615283
20
27.448839560126103
30
0
11
1.1394300727615931
21
29.015425058421606
31
0
0
ARC
5
138
100
AcDbEntity
8
0
100
AcDbCircle
10
1.2278184204098541
20
29.103813406069978
30
0
40
0.12499999999999895
100
AcDbArc
50
44.999999999965233
51
225.00000000003615
0
LINE
5
139
100
AcDbEntity
8
0
100
AcDbLine
10
1.3162067680582237
20
29.192201753718241
30
0
11
1.8581800727616011
21
29.192201753718216
31
0
0
LINE
5
140
100
AcDbEntity
8
0
100
AcDbLine
10
1.8581800727616011
20
29.192201753718216
30
0
11
1.8581800727616784
21
31.112340642607105
31
0
0
LINE
5
141
100
AcDbEntity
8
0
100
AcDbLine
10
1.8581800727616784
20
31.112340642607105
30
0
11
1.3162067680582017
21
31.112340642607126
31
0
0
ARC
5
142
100
AcDbEntity
8
0
100
AcDbCircle
10
1.2278184204099416
20
31.200728990255506
30
0
40
0.12500000000000464
100
AcDbArc
50
134.99999999995725
51
314.99999999996123
0
LINE
5
143
100
AcDbEntity
8
0
100
AcDbLine
10
1.1394300727616868
20
31.289117337903892
30
0
11
1.1394300727617497
21
32.855702836199377
31
0
0
ARC
5
144
100
AcDbEntity
8
0
100
AcDbCircle
10
1.2278184204100087
20
32.94409118384776
30
0
40
0.12500000000000167
100
AcDbArc
50
44.999999999962149
51
225.00000000004025
0
LINE
5
145
100
AcDbEntity
8
0
100
AcDbLine
10
1.3162067680583878
20
33.032479531496023
30
0
11
1.858180072761755
21
33.032479531495994
31
0
0
LINE
5
146
100
AcDbEntity
8
0
100
AcDbLine
10
1.858180072761755
20
33.032479531495994
30
0
11
1.8581800727618349
21
34.952618420384887
31
0
0
LINE
5
147
100
AcDbEntity
8
0
100
AcDbLine
10
1.8581800727618349
20
34.952618420384887
30
0
11
1.3162067680583471
21
34.952618420384908
31
0
0
ARC
5
148
100
AcDbEntity
8
0
100
AcDbCircle
10
1.2278184204100937
20
35.041006768033292
30
0
40
0.12500000000000241
100
AcDbArc
50
134.99999999995504
51
314.99999999995799
0
LINE
5
149
100
AcDbEntity
8
0
100
AcDbLine
10
1.1394300727618423
20
35.129395115681682
30
0
11
1.1394300727619135
21
36.872757309273815
31
0
0
LINE
5
150
100
AcDbEntity
8
0
100
AcDbLine
10
1.1394300727619135
20
36.872757309273815
30
0
11
-0.14686141375974768
21
36.872757309273865
31
0
0
ARC
5
151
100
AcDbEntity
8
0
100
AcDbCircle
10
-0.23524976140800732
20
36.961145656922241
30
0
40
0.12500000000000236
100
AcDbArc
50
134.99999999995501
51
314.99999999996226
0
LINE
5
152
100
AcDbEntity
8
0
100
AcDbLine
10
-0.32363810905625867
20
37.049534004570631
30
0
11
-0.32363810905623797
21
37.591507309273872
31
0
0
LINE
5
153
100
AcDbEntity
8
0
100
AcDbLine
10
-0.32363810905623797
20
37.591507309273872
30
0
11
-2.5054562908744149
21
37.591507309273965
31
0
0
LINE
5
154
100
AcDbEntity
8
0
100
AcDbLine
10
-2.5054562908744149
20
37.591507309273965
30
0
11
-2.5054562908744376
21
37.049533984601915
31
0
0
ARC
5
155
100
AcDbEntity
8
0
100
AcDbCircle
10
-2.5938446485071611
20
36.961145646937993
30
0
40
0.12500000000000022
100
AcDbArc
50
-135.00000647209214
51
44.99999352783432
0
LINE
5
156
100
AcDbEntity
8
0
100
AcDbLine
10
-2.6822330061397643
20
36.872757309273965
30
0
11
-2.9230699272380787
21
36.872757233161941
31
0
0
LINE
5
157
100
AcDbEntity
8
0
100
AcDbLine
10
-2.9230699272380787
20
36.872757233161941
30
0
11
-2.9230699272381937
21
34.049534004570596
31
0
0
ARC
5
158
100
AcDbEntity
8
0
100
AcDbCircle
10
-3.0114582748865777
20
33.961145656922341
30
0
40
0.12500000000000094
100
AcDbArc
50
-134.99999999997669
51
44.999999999958256
0
LINE
5
159
100
AcDbEntity
8
0
100
AcDbLine
10
-3.0998466225348604
20
33.872757309273986
30
0
11
-3.4650432319416589
21
33.872757309274
31
0
0
ARC
5
160
100
AcDbEntity
8
0
100
AcDbCircle
10
-3.5534315795899372
20
33.961145656922362
30
0
40
0.1249999999999987
100
AcDbArc
50
134.99999999996157
51
314.99999999997289
0
LINE
5
161
100
AcDbEntity
8
0
100
AcDbLine
10
-3.6418199272381946
20
34.049534004570738
30
0
11
-3.6418199272380778
21
36.872757233161977
31
0
0
LINE
5
162
100
AcDbEntity
8
0
100
AcDbLine
10
-3.6418199272380778
20
36.872757233161977
30
0
11
-4.5104977694194837
21
36.872757309274043
31
0
0
ARC
5
163
100
AcDbEntity
8
0
100
AcDbCircle
10
-4.5988861210560463
20
36.961145652934114
30
0
40
0.12500000000000031
100
AcDbArc
50
135.00000258529388
51
315.00000258529155
0
LINE
5
164
100
AcDbEntity
8
0
100
AcDbLine
10
-4.6872744726926161
20
37.049533996594185
30
0
11
-4.6872744726925921
21
37.591507309274057
31
0
0
LINE
5
165
100
AcDbEntity
8
0
100
AcDbLine
10
-4.6872744726925921
20
37.591507309274057
30
0
11
-6.8690926545107729
21
37.591507309274142
31
0
0
LINE
5
166
100
AcDbEntity
8
0
100
AcDbLine
10
-6.8690926545107729
20
37.591507309274142
30
0
11
-6.8690926545107924
21
37.049534004570781
31
0
0
ARC
5
167
100
AcDbEntity
8
0
100
AcDbCircle
10
-6.9574810021591693
20
36.961145656922525
30
0
40
0.12500000000000266
100
AcDbArc
50
-134.99999999996749
51
44.999999999960565
0
LINE
5
168
100
AcDbEntity
8
0
100
AcDbLine
10
-7.0458693498074378
20
36.872757309274157
30
0
11
-8.8741341410324477
21
36.872757309274228
31
0
0
ARC
5
169
100
AcDbEntity
8
0
100
AcDbCircle
10
-8.9625224886807082
20
36.961145656922604
30
0
40
0.1249999999999987
100
AcDbArc
50
134.99999999996317
51
314.9999999999626
0
LINE
5
170
100
AcDbEntity
8
0
100
AcDbLine
10
-9.0509108363289705
20
37.04953400457098
30
0
11
-9.0509108363289474
21
37.591507309274235
31
0
0
LINE
5
171
100
AcDbEntity
8
0
100
AcDbLine
10
-9.0509108363289474
20
37.591507309274235
30
0
11
-11.232729018147127
21
37.59150730927432
31
0
0
LINE
5
172
100
AcDbEntity
8
0
100
AcDbLine
10
-11.232729018147127
20
37.59150730927432
30
0
11
-11.232729018147149
21
37.049534004570972
31
0
0
ARC
5
173
100
AcDbEntity
8
0
100
AcDbCircle
10
-11.321117365795523
20
36.96114565692271
30
0
40
0.12500000000000069
100
AcDbArc
50
-134.9999999999626
51
44.999999999963734
0
LINE
5
174
100
AcDbEntity
8
0
100
AcDbLine
10
-11.409505713443783
20
36.872757309274334
30
0
11
-13.237770504668811
21
36.872757309274405
31
0
0
ARC
5
175
100
AcDbEntity
8
0
100
AcDbCircle
10
-13.326158852317063
20
36.961145656922781
30
0
40
0.12500000000000266
100
AcDbArc
50
134.99999999996547
51
314.9999999999597
0
LINE
5
176
100
AcDbEntity
8
0
100
AcDbLine
10
-13.414547199965332
20
37.049534004571157
30
0
11
-13.414547199965309
21
37.591507309274412
31
0
0
LINE
5
177
100
AcDbEntity
8
0
100
AcDbLine
10
-13.414547199965309
20
37.591507309274412
30
0
11
-15.596365381783487
21
37.591507309274505
31
0
0
LINE
5
178
100
AcDbEntity
8
0
100
AcDbLine
10
-15.596365381783487
20
37.591507309274505
30
0
11
-15.59636538178351
21
37.049533996594533
31
0
0
ARC
5
179
100
AcDbEntity
8
0
100
AcDbCircle
10
-15.68475373342018
20
36.961145652934576
30
0
40
0.1250000000000008
100
AcDbArc
50
-135.00000258529818
51
44.999997414636759
0
LINE
5
180
100
AcDbEntity
8
0
100
AcDbLine
10
-15.773142085056756
20
36.872757309274512
30
0
11
-16.641819927238057
21
36.872757233162517
31
0
0
LINE
5
181
100
AcDbEntity
8
0
100
AcDbLine
10
-16.641819927238057
20
36.872757233162517
30
0
11
-16.641819927238174
21
34.049534004571186
31
0
0
ARC
5
182
100
AcDbEntity
8
0
100
AcDbCircle
10
-16.730208274886532
20
33.961145656922902
30
0
40
0.12499999999999278
100
AcDbArc
50
-134.99999999998158
51
44.99999999997582
0
LINE
5
183
100
AcDbEntity
8
0
100
AcDbLine
10
-16.818596622534816
20
33.872757309274562
30
0
11
-17.183793231941621
21
33.872757309274569
31
0
0
ARC
5
184
100
AcDbEntity
8
0
100
AcDbCircle
10
-17.272181579589898
20
33.96114565692293
30
0
40
0.1249999999999987
100
AcDbArc
50
134.99999999997581
51
314.99999999997237
0
LINE
5
185
100
AcDbEntity
8
0
100
AcDbLine
10
-17.360569927238178
20
34.049534004571285
30
0
11
-17.360569927238057
21
36.872757233162545
31
0
0
LINE
5
186
100
AcDbEntity
8
0
100
AcDbLine
10
-17.360569927238057
20
36.872757233162545
30
0
11
-17.601406848336474
21
36.872757309274583
31
0
0
ARC
5
187
100
AcDbEntity
8
0
100
AcDbCircle
10
-17.68979520596907
20
36.961145646938625
30
0
40
0.12499999999999752
100
AcDbArc
50
135.0000064720989
51
315.00000647208509
0
LINE
5
188
100
AcDbEntity
8
0
100
AcDbLine
10
-17.778183563601687
20
37.049533984602647
30
0
11
-17.778183563601665
21
37.591507309274597
31
0
0
LINE
5
189
100
AcDbEntity
8
0
100
AcDbLine
10
-17.778183563601665
20
37.591507309274597
30
0
11
-19.960001745419842
21
37.591507309274689
31
0
0
LINE
5
190
100
AcDbEntity
8
0
100
AcDbLine
10
-19.960001745419842
20
37.591507309274689
30
0
11
-19.960001745419866
21
37.049534004571349
31
0
0
ARC
5
191
100
AcDbEntity
8
0
100
AcDbCircle
10
-20.048390093068218
20
36.961145656923065
30
0
40
0.12500000000000069
100
AcDbArc
50
-134.99999999997124
51
44.999999999978115
0
LINE
5
192
100
AcDbEntity
8
0
100
AcDbLine
10
-20.13677844071649
20
36.872757309274704
30
0
11
-21.423069927238053
21
36.872757309274746
31
0
0
LINE
5
193
100
AcDbEntity
8
0
100
AcDbLine
10
-21.423069927238053
20
36.872757309274746
30
0
11
-21.42306992723821
21
35.129395115682605
31
0
0
ARC
5
194
100
AcDbEntity
8
0
100
AcDbCircle
10
6.1810938804382198
20
35.10060718133402
30
0
40
0.12499999999999623
100
AcDbArc
50
-135.00000000000287
51
44.999999999997115
0
LINE
5
195
100
AcDbEntity
8
0
100
AcDbLine
10
6.0927055327898989
20
35.012218833685708
30
0
11
5.5507322280865976
21
35.012218833685736
31
0
0
LINE
5
196
100
AcDbEntity
8
0
100
AcDbLine
10
5.5507322280865976
20
35.012218833685736
30
0
11
5.5507322280865132
21
33.092079944796851
31
0
0
LINE
5
197
100
AcDbEntity
8
0
100
AcDbLine
10
5.5507322280865132
20
33.092079944796851
30
0
11
6.0927055327898181
21
33.092079944796815
31
0
0
ARC
5
198
100
AcDbEntity
8
0
100
AcDbCircle
10
6.1810938804381221
20
33.003691597148489
30
0
40
0.12500000000000069
100
AcDbArc
50
-44.999999999956231
51
134.99999999999284
0
LINE
5
199
100
AcDbEntity
8
0
100
AcDbLine
10
6.2694822280865052
20
32.915303249500241
30
0
11
6.2694822280864351
21
31.348717751204493
31
0
0
ARC
5
200
100
AcDbEntity
8
0
100
AcDbCircle
10
6.1810938804380466
20
31.260329403556245
30
0
40
0.1249999999999982
100
AcDbArc
50
-135.00000000000085
51
44.999999999954511
0
LINE
5
201
100
AcDbEntity
8
0
100
AcDbLine
10
6.0927055327897284
20
31.171941055907929
30
0
11
5.5507322280864271
21
31.171941055907958
31
0
0
LINE
5
202
100
AcDbEntity
8
0
100
AcDbLine
10
5.5507322280864271
20
31.171941055907958
30
0
11
5.55073222808634
21
29.251802167019068
31
0
0
LINE
5
203
100
AcDbEntity
8
0
100
AcDbLine
10
5.55073222808634
20
29.251802167019068
30
0
11
6.0927055327896422
21
29.25180216701904
31
0
0
ARC
5
204
100
AcDbEntity
8
0
100
AcDbCircle
10
6.1810938804379552
20
29.163413819370717
30
0
40
0.12499999999999623
100
AcDbArc
50
-44.999999999960565
51
134.99999999999685
0
LINE
5
205
100
AcDbEntity
8
0
100
AcDbLine
10
6.269482228086332
20
29.075025471722462
30
0
11
6.2694822280862619
21
27.508439973426732
31
0
0
ARC
5
206
100
AcDbEntity
8
0
100
AcDbCircle
10
6.1810938804378841
20
27.420051625778466
30
0
40
0.12499999999999377
100
AcDbArc
50
-135.00000000000173
51
44.999999999963734
0
LINE
5
207
100
AcDbEntity
8
0
100
AcDbLine
10
6.0927055327895667
20
27.331663278130154
30
0
11
5.5507322280862486
21
27.331663278130183
31
0
0
LINE
5
208
100
AcDbEntity
8
0
100
AcDbLine
10
5.5507322280862486
20
27.331663278130183
30
0
11
5.5507322280861606
21
25.411524389241293
31
0
0
LINE
5
209
100
AcDbEntity
8
0
100
AcDbLine
10
5.5507322280861606
20
25.411524389241293
30
0
11
6.0927055327894744
21
25.411524389241272
31
0
0
ARC
5
210
100
AcDbEntity
8
0
100
AcDbCircle
10
6.1810938804377873
20
25.323136041592939
30
0
40
0.12499999999999474
100
AcDbArc
50
-44.999999999965141
51
134.99999999999338
0
LINE
5
211
100
AcDbEntity
8
0
100
AcDbLine
10
6.2694822280861571
20
25.234747693944676
30
0
11
6.2694822280860887
21
23.668162195648954
31
0
0
ARC
5
212
100
AcDbEntity
8
0
100
AcDbCircle
10
6.1810938804377047
20
23.579773848000691
30
0
40
0.12499999999999772
100
AcDbArc
50
-135.00000000000287
51
44.999999999960565
0
LINE
5
213
100
AcDbEntity
8
0
100
AcDbLine
10
6.0927055327893838
20
23.491385500352379
30
0
11
5.550732228086078
21
23.491385500352408
31
0
0
LINE
5
214
100
AcDbEntity
8
0
100
AcDbLine
10
5.550732228086078
20
23.491385500352408
30
0
11
5.5507322280859928
21
21.571246611463518
31
0
0
LINE
5
215
100
AcDbEntity
8
0
100
AcDbLine
10
5.5507322280859928
20
21.571246611463518
30
0
11
6.0927055327893038
21
21.571246611463486
31
0
0
ARC
5
216
100
AcDbEntity
8
0
100
AcDbCircle
10
6.1810938804376159
20
21.482858263815164
30
0
40
0.12499999999999623
100
AcDbArc
50
-44.999999999965752
51
134.99999999999656
0
LINE
5
217
100
AcDbEntity
8
0
100
AcDbLine
10
6.2694822280859839
20
21.394469916166901
30
0
11
6.2694822280859013
21
19.651107722574597
31
0
0
LINE
5
218
100
AcDbEntity
8
0
100
AcDbLine
10
6.2694822280859013
20
19.651107722574597
30
0
11
28.831982228085895
21
19.651107722573535
31
0
0
LINE
5
219
100
AcDbEntity
8
0
100
AcDbLine
10
28.831982228085895
20
19.651107722573535
30
0
11
28.83198222808598
21
21.394469916165736
31
0
0
ARC
5
220
100
AcDbEntity
8
0
100
AcDbCircle
10
28.920370575734228
20
21.482858263814109
30
0
40
0.1249999999999987
100
AcDbArc
50
44.999999999994245
51
225.00000000004027
0
LINE
5
221
100
AcDbEntity
8
0
100
AcDbLine
10
29.008758923382555
20
21.571246611462417
30
0
11
29.550732228085991
21
21.571246611462392
31
0
0
LINE
5
222
100
AcDbEntity
8
0
100
AcDbLine
10
29.550732228085991
20
21.571246611462392
30
0
11
29.550732228086069
21
23.491385500351281
31
0
0
LINE
5
223
100
AcDbEntity
8
0
100
AcDbLine
10
29.550732228086069
20
23.491385500351281
30
0
11
29.00875892338264
21
23.49138550035131
31
0
0
ARC
5
224
100
AcDbEntity
8
0
100
AcDbCircle
10
28.920370575734342
20
23.579773847999633
30
0
40
0.12500000000000069
100
AcDbArc
50
134.99999999996317
51
314.99999999999193
0
LINE
5
225
100
AcDbEntity
8
0
100
AcDbLine
10
28.83198222808608
20
23.668162195648009
30
0
11
28.831982228086154
21
25.234747693943504
31
0
0
ARC
5
226
100
AcDbEntity
8
0
100
AcDbCircle
10
28.920370575734395
20
25.323136041591887
30
0
40
0.12499999999999674
100
AcDbArc
50
44.999999999991928
51
225.00000000004607
0
LINE
5
227
100
AcDbEntity
8
0
100
AcDbLine
10
29.008758923382725
20
25.411524389240192
30
0
11
29.550732228086162
21
25.411524389240167
31
0
0
LINE
5
228
100
AcDbEntity
8
0
100
AcDbLine
10
29.550732228086162
20
25.411524389240167
30
0
11
29.55073222808625
21
27.33166327812906
31
0
0
LINE
5
229
100
AcDbEntity
8
0
100
AcDbLine
10
29.55073222808625
20
27.33166327812906
30
0
11
29.008758923382807
21
27.331663278129088
31
0
0
ARC
5
230
100
AcDbEntity
8
0
100
AcDbCircle
10
28.920370575734498
20
27.420051625777415
30
0
40
0.12499999999999278
100
AcDbArc
50
134.99999999995165
51
314.99999999999426
0
LINE
5
231
100
AcDbEntity
8
0
100
AcDbLine
10
28.831982228086261
20
27.508439973425801
30
0
11
28.831982228086332
21
29.075025471721283
31
0
0
ARC
5
232
100
AcDbEntity
8
0
100
AcDbCircle
10
28.920370575734577
20
29.163413819369666
30
0
40
0.12499999999999674
100
AcDbArc
50
44.999999999993086
51
225.00000000004488
0
LINE
5
233
100
AcDbEntity
8
0
100
AcDbLine
10
29.008758923382903
20
29.251802167017971
30
0
11
29.550732228086339
21
29.251802167017942
31
0
0
LINE
5
234
100
AcDbEntity
8
0
100
AcDbLine
10
29.550732228086339
20
29.251802167017942
30
0
11
29.550732228086428
21
31.171941055906839
31
0
0
LINE
5
235
100
AcDbEntity
8
0
100
AcDbLine
10
29.550732228086428
20
31.171941055906839
30
0
11
29.008758923382981
21
31.17194105590686
31
0
0
ARC
5
236
100
AcDbEntity
8
0
100
AcDbCircle
10
28.920370575734673
20
31.260329403555183
30
0
40
0.12499999999999674
100
AcDbArc
50
134.99999999995279
51
314.9999999999954
0
LINE
5
237
100
AcDbEntity
8
0
100
AcDbLine
10
28.831982228086428
20
31.348717751203573
30
0
11
28.831982228086499
21
32.915303249499054
31
0
0
ARC
5
238
100
AcDbEntity
8
0
100
AcDbCircle
10
28.920370575734754
20
33.00369159714743
30
0
40
0.12500000000000069
100
AcDbArc
50
44.999999999996547
51
225.00000120741828
0
LINE
5
239
100
AcDbEntity
8
0
100
AcDbLine
10
29.008758923383077
20
33.092079944795742
30
0
11
29.550732228086506
21
33.092079944795714
31
0
0
LINE
5
240
100
AcDbEntity
8
0
100
AcDbLine
10
29.550732228086506
20
33.092079944795714
30
0
11
29.550732228086595
21
35.012218833684614
31
0
0
LINE
5
241
100
AcDbEntity
8
0
100
AcDbLine
10
29.550732228086595
20
35.012218833684614
30
0
11
29.008758923383144
21
35.012218833684642
31
0
0
ARC
5
242
100
AcDbEntity
8
0
100
AcDbCircle
10
28.920370575734839
20
35.100607181332968
30
0
40
0.12500000000000069
100
AcDbArc
50
134.99999999994475
51
314.99999999999307
0
LINE
5
243
100
AcDbEntity
8
0
100
AcDbLine
10
28.831982228086606
20
35.188995528981373
30
0
11
28.831982228086684
21
36.932357722573542
31
0
0
LINE
5
244
100
AcDbEntity
8
0
100
AcDbLine
10
28.831982228086684
20
36.932357722573542
30
0
11
27.545690741565057
21
36.932357722573599
31
0
0
ARC
5
245
100
AcDbEntity
8
0
100
AcDbCircle
10
27.457302393916752
20
37.020746070221925
30
0
40
0.12500000000000069
100
AcDbArc
50
134.99999999994819
51
314.99999999999307
0
LINE
5
246
100
AcDbEntity
8
0
100
AcDbLine
10
27.368914046268515
20
37.109134417870322
30
0
11
27.368914046268529
21
37.651107722573606
31
0
0
LINE
5
247
100
AcDbEntity
8
0
100
AcDbLine
10
27.368914046268529
20
37.651107722573606
30
0
11
25.187095864450349
21
37.651107722573705
31
0
0
LINE
5
248
100
AcDbEntity
8
0
100
AcDbLine
10
25.187095864450349
20
37.651107722573705
30
0
11
25.187095864450328
21
37.109134417870251
31
0
0
ARC
5
249
100
AcDbEntity
8
0
100
AcDbCircle
10
25.098707516801923
20
37.020746070222025
30
0
40
0.12500000000000069
100
AcDbArc
50
-135.0000000000023
51
44.999998792580584
0
LINE
5
250
100
AcDbEntity
8
0
100
AcDbLine
10
25.010319169153604
20
36.932357722573713
30
0
11
23.182054377928694
21
36.932357722573798
31
0
0
ARC
5
251
100
AcDbEntity
8
0
100
AcDbCircle
10
23.093666030280382
20
37.020746070222124
30
0
40
0.1249999999999987
100
AcDbArc
50
134.99999999994705
51
314.9999999999954
0
LINE
5
252
100
AcDbEntity
8
0
100
AcDbLine
10
23.005277682632148
20
37.109134417870521
30
0
11
23.005277682632173
21
37.651107722573812
31
0
0
LINE
5
253
100
AcDbEntity
8
0
100
AcDbLine
10
23.005277682632173
20
37.651107722573812
30
0
11
20.823459500813993
21
37.651107722573904
31
0
0
LINE
5
254
100
AcDbEntity
8
0
100
AcDbLine
10
20.823459500813993
20
37.651107722573904
30
0
11
20.823459500813968
21
37.109134417870465
31
0
0
ARC
5
255
100
AcDbEntity
8
0
100
AcDbCircle
10
20.735071153165563
20
37.020746070222231
30
0
40
0.12500000000000069
100
AcDbArc
50
-135.00000000000347
51
44.999999999944727
0
LINE
5
256
100
AcDbEntity
8
0
100
AcDbLine
10
20.646682805517241
20
36.932357722573919
30
0
11
18.81841801429233
21
36.932357722573997
31
0
0
ARC
5
257
100
AcDbEntity
8
0
100
AcDbCircle
10
18.730029666644029
20
37.02074607022233
30
0
40
0.12499999999999674
100
AcDbArc
50
134.99999999995052
51
314.99999999998965
0
LINE
5
258
100
AcDbEntity
8
0
100
AcDbLine
10
18.641641318995791
20
37.10913441787072
30
0
11
18.641641318995809
21
37.651107722574011
31
0
0
LINE
5
259
100
AcDbEntity
8
0
100
AcDbLine
10
18.641641318995809
20
37.651107722574011
30
0
11
16.459823137177633
21
37.65110772257411
31
0
0
LINE
5
260
100
AcDbEntity
8
0
100
AcDbLine
10
16.459823137177633
20
37.65110772257411
30
0
11
16.459823137177604
21
37.109134417870678
31
0
0
ARC
5
261
100
AcDbEntity
8
0
100
AcDbCircle
10
16.371434789529207
20
37.020746070222437
30
0
40
0.12499999999999674
100
AcDbArc
50
-135.00000000000117
51
44.999999999949331
0
LINE
5
262
100
AcDbEntity
8
0
100
AcDbLine
10
16.283046441880892
20
36.932357722574125
30
0
11
14.454781650655969
21
36.93235772257421
31
0
0
ARC
5
263
100
AcDbEntity
8
0
100
AcDbCircle
10
14.366393303007662
20
37.020746070222536
30
0
40
0.1249999999999987
100
AcDbArc
50
134.99999999994762
51
314.99999999999369
0
LINE
5
264
100
AcDbEntity
8
0
100
AcDbLine
10
14.278004955359426
20
37.109134417870933
30
0
11
14.278004955359444
21
37.651107722574217
31
0
0
LINE
5
265
100
AcDbEntity
8
0
100
AcDbLine
10
14.278004955359444
20
37.651107722574217
30
0
11
12.096186773541266
21
37.651107722574316
31
0
0
LINE
5
266
100
AcDbEntity
8
0
100
AcDbLine
10
12.096186773541266
20
37.651107722574316
30
0
11
12.096186773541238
21
37.109134417870877
31
0
0
ARC
5
267
100
AcDbEntity
8
0
100
AcDbCircle
10
12.00779842589284
20
37.020746070222643
30
0
40
0.12499999999999772
100
AcDbArc
50
-135.00000000000347
51
44.999999999947029
0
LINE
5
268
100
AcDbEntity
8
0
100
AcDbLine
10
11.919410078244518
20
36.932357722574331
30
0
11
10.091145287019611
21
36.932357722574416
31
0
0
ARC
5
269
100
AcDbEntity
8
0
100
AcDbCircle
10
10.002756939371306
20
37.020746070222749
30
0
40
0.12499999999999573
100
AcDbArc
50
134.99999999995165
51
314.99999999999079
0
LINE
5
270
100
AcDbEntity
8
0
100
AcDbLine
10
9.9143685917230648
20
37.10913441787114
30
0
11
9.9143685917230879
21
37.651107722574423
31
0
0
LINE
5
271
100
AcDbEntity
8
0
100
AcDbLine
10
9.9143685917230879
20
37.651107722574423
30
0
11
7.7325504099049045
21
37.651107722574523
31
0
0
LINE
5
272
100
AcDbEntity
8
0
100
AcDbLine
10
7.7325504099049045
20
37.651107722574523
30
0
11
7.7325504099048823
21
37.109134417871083
31
0
0
ARC
5
273
100
AcDbEntity
8
0
100
AcDbCircle
10
7.644162062256485
20
37.020746070222842
30
0
40
0.12499999999999772
100
AcDbArc
50
-135.00000000000375
51
44.999999999949331
0
LINE
5
274
100
AcDbEntity
8
0
100
AcDbLine
10
7.5557737146081614
20
36.93235772257453
30
0
11
6.2694822280866909
21
36.932357722574594
31
0
0
LINE
5
275
100
AcDbEntity
8
0
100
AcDbLine
10
6.2694822280866909
20
36.932357722574594
30
0
11
6.2694822280865408
21
35.188995528982332
31
0
0
ARC
5
276
100
AcDbEntity
8
0
100
AcDbCircle
10
22.575674152769814
20
17.432138032732997
30
0
40
0.1249999999999987
100
AcDbArc
50
-134.99999995780041
51
45.000000042199574
0
LINE
5
277
100
AcDbEntity
8
0
100
AcDbLine
10
22.487285805186595
20
17.343749685019578
30
0
11
21.215839195779832
21
17.343749684083406
31
0
0
ARC
5
278
100
AcDbEntity
8
0
100
AcDbCircle
10
21.127450848066449
20
17.432138031666653
30
0
40
0.12499999999999747
100
AcDbArc
50
162.9687515839633
51
315.00000004217884
0
LINE
5
279
100
AcDbEntity
8
0
100
AcDbLine
10
21.007932703341378
20
17.468749683930334
30
0
11
19.590839195687803
21
17.468749682886894
31
0
0
ARC
5
280
100
AcDbEntity
8
0
100
AcDbCircle
10
19.502450847974423
20
17.557138030470146
30
0
40
0.1249999999999987
100
AcDbArc
50
135.00000004218461
51
315.00000004217651
0
LINE
5
281
100
AcDbEntity
8
0
100
AcDbLine
10
19.414062500261029
20
17.645526378053386
30
0
11
19.414062500000021
21
17.99999968275673
31
0
0
LINE
5
282
100
AcDbEntity
8
0
100
AcDbLine
10
19.414062500000021
20
17.99999968275673
30
0
11
13.403339195361708
21
17.999999678330916
31
0
0
ARC
5
283
100
AcDbEntity
8
0
100
AcDbCircle
10
13.314950847615791
20
18.088388025881631
30
0
40
0.1249999999999987
100
AcDbArc
50
134.99999997890194
51
314.99999997890308
0
LINE
5
284
100
AcDbEntity
8
0
100
AcDbLine
10
13.22656250000002
20
18.176776373562497
30
0
11
13.22656250000002
21
18.249999677464434
31
0
0
LINE
5
285
100
AcDbEntity
8
0
100
AcDbLine
10
13.22656250000002
20
18.249999677464434
30
0
11
12.226562500000016
21
18.249999677464434
31
0
0
LINE
5
286
100
AcDbEntity
8
0
100
AcDbLine
10
12.226562500000016
20
18.249999677464434
30
0
11
12.226562500000016
21
18.176776372695993
31
0
0
ARC
5
287
100
AcDbEntity
8
0
100
AcDbCircle
10
12.13817415231915
20
18.088388025080231
30
0
40
0.12499999999999968
100
AcDbArc
50
-134.99999993670642
51
45.000000063294763
0
LINE
5
288
100
AcDbEntity
8
0
100
AcDbLine
10
12.049785804768474
20
17.999999677334273
30
0
11
6.0390625000000169
21
17.999999672908455
31
0
0
LINE
5
289
100
AcDbEntity
8
0
100
AcDbLine
10
6.0390625000000169
20
17.999999672908455
30
0
11
0.028339663664340514
21
17.999999701567386
31
0
0
ARC
5
290
100
AcDbEntity
8
0
100
AcDbCircle
10
-0.060048683351806208
20
18.088388049847872
30
0
40
0.12500000000000155
100
AcDbArc
50
135.00000013658962
51
315.00000013658962
0
LINE
5
291
100
AcDbEntity
8
0
100
AcDbLine
10
-0.14843703121083868
20
18.176776397285479
30
0
11
-0.14843703121083987
21
18.249999707178215
31
0
0
LINE
5
292
100
AcDbEntity
8
0
100
AcDbLine
10
-0.14843703121083987
20
18.249999707178215
30
0
11
-1.1484370312108421
21
18.249999707178215
31
0
0
LINE
5
293
100
AcDbEntity
8
0
100
AcDbLine
10
-1.1484370312108421
20
18.249999707178215
30
0
11
-1.1484370312108394
21
18.176776402896298
31
0
0
ARC
5
294
100
AcDbEntity
8
0
100
AcDbCircle
10
-1.2368253786484429
20
18.088388055037264
30
0
40
0.12499999999999933
100
AcDbArc
50
-135.00000040976929
51
44.999999590229663
0
LINE
5
295
100
AcDbEntity
8
0
100
AcDbLine
10
-1.3252137269288997
20
17.999999708021083
30
0
11
-7.3359365624216899
21
17.999999736680007
31
0
0
LINE
5
296
100
AcDbEntity
8
0
100
AcDbLine
10
-7.3359365624216899
20
17.999999736680007
30
0
11
-7.3359365620686541
21
17.520526358356811
31
0
0
ARC
5
297
100
AcDbEntity
8
0
100
AcDbCircle
10
-7.4243249096518982
20
17.43213801064341
30
0
40
0.12500000000000069
100
AcDbArc
50
-134.99999995780504
51
45.000000042185754
0
LINE
5
298
100
AcDbEntity
8
0
100
AcDbLine
10
-7.5127132572351245
20
17.343749662929998
30
0
11
-8.7841598666418648
21
17.343749661993847
31
0
0
ARC
5
299
100
AcDbEntity
8
0
100
AcDbCircle
10
-8.8725482143552448
20
17.432138009577098
30
0
40
0.12500000000000239
100
AcDbArc
50
162.96875158397921
51
315.00000004217651
0
LINE
5
300
100
AcDbEntity
8
0
100
AcDbLine
10
-8.9920663590803294
20
17.468749661840747
30
0
11
-10.409159866733901
21
17.468749660797297
31
0
0
ARC
5
301
100
AcDbEntity
8
0
100
AcDbCircle
10
-10.497548214447288
20
17.557138008380548
30
0
40
0.12500000000000069
100
AcDbArc
50
135.00000004218575
51
315.00000004217884
0
LINE
5
302
100
AcDbEntity
8
0
100
AcDbLine
10
-10.585936562160686
20
17.645526355963788
30
0
11
-10.585936562421688
21
17.999999660667129
31
0
0
LINE
5
303
100
AcDbEntity
8
0
100
AcDbLine
10
-10.585936562421688
20
17.999999660667129
30
0
11
-16.596660338156688
21
17.999999813163289
31
0
0
ARC
5
304
100
AcDbEntity
8
0
100
AcDbCircle
10
-16.685048682441277
20
18.088388164175331
30
0
40
0.12499999999999872
100
AcDbArc
50
135.00000072681775
51
314.99999789516937
0
LINE
5
305
100
AcDbEntity
8
0
100
AcDbLine
10
-16.773437031210833
20
18.17677651070241
30
0
11
-16.773437031210833
21
18.24999984301893
31
0
0
LINE
5
306
100
AcDbEntity
8
0
100
AcDbLine
10
-16.773437031210833
20
18.24999984301893
30
0
11
-17.773437031210829
21
18.249999843018927
31
0
0
LINE
5
307
100
AcDbEntity
8
0
100
AcDbLine
10
-17.773437031210829
20
18.249999843018927
30
0
11
-17.773437031210833
21
18.176776540558038
31
0
0
ARC
5
308
100
AcDbEntity
8
0
100
AcDbCircle
10
-17.861825377737915
20
18.088388191788486
30
0
40
0.12500000000000275
100
AcDbArc
50
-135.00000218043934
51
45.000000897884448
0
LINE
5
309
100
AcDbEntity
8
0
100
AcDbLine
10
-17.950213728749929
20
17.999999847503858
30
0
11
-23.960937499999975
21
17.999999999999996
31
0
0
LINE
5
310
100
AcDbEntity
8
0
100
AcDbLine
10
-23.960937499999975
20
17.999999999999996
30
0
11
-23.960937499999975
21
12.999999999999998
31
0
0
LINE
5
311
100
AcDbEntity
8
0
100
AcDbLine
10
-23.960937499999975
20
12.999999999999998
30
0
11
-20.960937499999975
21
12.999999999999991
31
0
0
LINE
5
312
100
AcDbEntity
8
0
100
AcDbLine
10
-20.960937499999975
20
12.999999999999991
30
0
11
-20.960937499999975
21
14.823223304703376
31
0
0
ARC
5
313
100
AcDbEntity
8
0
100
AcDbCircle
10
-20.872549152351656
20
14.911611652351697
30
0
40
0.12500000000000069
100
AcDbArc
50
44.999999999985604
51
225.00000000000057
0
LINE
5
314
100
AcDbEntity
8
0
100
AcDbLine
10
-20.784160804703316
20
14.999999999999993
30
0
11
-20.418964195296631
21
14.999999999999996
31
0
0
ARC
5
315
100
AcDbEntity
8
0
100
AcDbCircle
10
-20.330575847648294
20
14.911611652351697
30
0
40
0.1249999999999987
100
AcDbArc
50
-45.000000000001165
51
135.00000000001211
0
LINE
5
316
100
AcDbEntity
8
0
100
AcDbLine
10
-20.242187499999979
20
14.823223304703378
30
0
11
-20.242187499999975
21
12.999999999999998
31
0
0
LINE
5
317
100
AcDbEntity
8
0
100
AcDbLine
10
-20.242187499999975
20
12.999999999999998
30
0
11
32.320312500000007
21
12.999999999999986
31
0
0
LINE
5
318
100
AcDbEntity
8
0
100
AcDbLine
10
32.320312500000007
20
12.999999999999986
30
0
11
32.3203125
21
14.823223304703363
31
0
0
ARC
5
319
100
AcDbEntity
8
0
100
AcDbCircle
10
32.408700847648319
20
14.911611652351692
30
0
40
0.12499999999999674
100
AcDbArc
50
44.999999999989065
51
225.0000000000029
0
LINE
5
320
100
AcDbEntity
8
0
100
AcDbLine
10
32.497089195296653
20
14.999999999999991
30
0
11
32.862285804703333
21
14.999999999999991
31
0
0
ARC
5
321
100
AcDbEntity
8
0
100
AcDbCircle
10
32.950674152351667
20
14.911611652351697
30
0
40
0.1249999999999987
100
AcDbArc
50
-44.999999999991353
51
135.00000000001268
0
LINE
5
322
100
AcDbEntity
8
0
100
AcDbLine
10
33.0390625
20
14.82322330470339
30
0
11
33.0390625
21
12.999999999999991
31
0
0
LINE
5
323
100
AcDbEntity
8
0
100
AcDbLine
10
33.0390625
20
12.999999999999991
30
0
11
36.039062500000007
21
12.999999999999986
31
0
0
LINE
5
324
100
AcDbEntity
8
0
100
AcDbLine
10
36.039062500000007
20
12.999999999999986
30
0
11
36.039062500000007
21
17.999999694998039
31
0
0
LINE
5
325
100
AcDbEntity
8
0
100
AcDbLine
10
36.039062500000007
20
17.999999694998039
30
0
11
30.028339195361692
21
17.999999690572228
31
0
0
ARC
5
326
100
AcDbEntity
8
0
100
AcDbCircle
10
29.939950847615776
20
18.08838803812294
30
0
40
0.12499999999999674
100
AcDbArc
50
134.99999997890367
51
314.99999997890365
0
LINE
5
327
100
AcDbEntity
8
0
100
AcDbLine
10
29.851562500000004
20
18.176776385803802
30
0
11
29.851562500000004
21
18.249999689705742
31
0
0
LINE
5
328
100
AcDbEntity
8
0
100
AcDbLine
10
29.851562500000004
20
18.249999689705742
30
0
11
28.851562500000007
21
18.249999689705742
31
0
0
LINE
5
329
100
AcDbEntity
8
0
100
AcDbLine
10
28.851562500000007
20
18.249999689705742
30
0
11
28.851562500000007
21
18.176776384937298
31
0
0
ARC
5
330
100
AcDbEntity
8
0
100
AcDbCircle
10
28.763174152319134
20
18.088388037321533
30
0
40
0.12500000000000069
100
AcDbArc
50
-134.99999993670755
51
45.000000063292454
0
LINE
5
331
100
AcDbEntity
8
0
100
AcDbLine
10
28.674785804768455
20
17.999999689575574
30
0
11
22.6640625
21
17.999999685149771
31
0
0
LINE
5
332
100
AcDbEntity
8
0
100
AcDbLine
10
22.6640625
20
17.999999685149771
30
0
11
22.664062500353033
21
17.520526380446416
31
0
0
ARC
5
333
100
AcDbEntity
8
0
100
AcDbCircle
10
-20.849325847648299
20
11.369638347648312
30
0
40
0.12500000000000069
100
AcDbArc
50
-135.0000000000052
51
45.000001207413085
0
LINE
5
334
100
AcDbEntity
8
0
100
AcDbLine
10
-20.937714195296625
20
11.281250000000002
30
0
11
-22.184160804703332
21
11.281250000000002
31
0
0
ARC
5
335
100
AcDbEntity
8
0
100
AcDbCircle
10
-22.272549152351658
20
11.369638347648314
30
0
40
0.12500000000000167
100
AcDbArc
50
135.00000000000173
51
315.0000000000046
0
LINE
5
336
100
AcDbEntity
8
0
100
AcDbLine
10
-22.360937499999981
20
11.458026695296631
30
0
11
-22.360937499999977
21
11.999999999999996
31
0
0
LINE
5
337
100
AcDbEntity
8
0
100
AcDbLine
10
-22.360937499999977
20
11.999999999999996
30
0
11
-23.960937499999975
21
11.999999999999996
31
0
0
LINE
5
338
100
AcDbEntity
8
0
100
AcDbLine
10
-23.960937499999975
20
11.999999999999996
30
0
11
-23.960937499999975
21
9.8181818181818166
31
0
0
LINE
5
339
100
AcDbEntity
8
0
100
AcDbLine
10
-23.960937499999975
20
9.8181818181818166
30
0
11
-23.418964195296606
21
9.8181818181818166
31
0
0
ARC
5
340
100
AcDbEntity
8
0
100
AcDbCircle
10
-23.330575847648298
20
9.7297934705334885
30
0
40
0.12500000000000069
100
AcDbArc
50
-45
51
134.99999999999366
0
LINE
5
341
100
AcDbEntity
8
0
100
AcDbLine
10
-23.242187499999979
20
9.6414051228851694
30
0
11
-23.242187499999979
21
7.8131403316602714
31
0
0
ARC
5
342
100
AcDbEntity
8
0
100
AcDbCircle
10
-23.330575847648298
20
7.7247519840119514
30
0
40
0.12500000000000069
100
AcDbArc
50
-135.00000000000287
51
45.000000000000291
0
LINE
5
343
100
AcDbEntity
8
0
100
AcDbLine
10
-23.418964195296621
20
7.6363636363636376
30
0
11
-23.960937499999975
21
7.6363636363636376
31
0
0
LINE
5
344
100
AcDbEntity
8
0
100
AcDbLine
10
-23.960937499999975
20
7.6363636363636376
30
0
11
-23.960937499999975
21
5.4545454545454577
31
0
0
LINE
5
345
100
AcDbEntity
8
0
100
AcDbLine
10
-23.960937499999975
20
5.4545454545454577
30
0
11
-23.41896419529661
21
5.4545454545454568
31
0
0
ARC
5
346
100
AcDbEntity
8
0
100
AcDbCircle
10
-23.330575847648298
20
5.3661571068971323
30
0
40
0.12500000000000069
100
AcDbArc
50
-44.999999999999694
51
134.99999999999596
0
LINE
5
347
100
AcDbEntity
8
0
100
AcDbLine
10
-23.242187499999979
20
5.2777687592488141
30
0
11
-23.242187499999979
21
3.4495039680239095
31
0
0
ARC
5
348
100
AcDbEntity
8
0
100
AcDbCircle
10
-23.330575847648301
20
3.3611156203755899
30
0
40
0.1249999999999987
100
AcDbArc
50
-135.00000000000188
51
44.999999999998991
0
LINE
5
349
100
AcDbEntity
8
0
100
AcDbLine
10
-23.418964195296621
20
3.2727272727272765
30
0
11
-23.960937499999975
21
3.2727272727272765
31
0
0
LINE
5
350
100
AcDbEntity
8
0
100
AcDbLine
10
-23.960937499999975
20
3.2727272727272765
30
0
11
-23.960937499999979
21
1.0909090909090953
31
0
0
LINE
5
351
100
AcDbEntity
8
0
100
AcDbLine
10
-23.960937499999979
20
1.0909090909090953
30
0
11
-23.41896419529661
21
1.0909090909090957
31
0
0
ARC
5
352
100
AcDbEntity
8
0
100
AcDbCircle
10
-23.330575847648298
20
1.002520743260775
30
0
40
0.12499999999999944
100
AcDbArc
50
-45.000000000001421
51
134.99999999999721
0
LINE
5
353
100
AcDbEntity
8
0
100
AcDbLine
10
-23.242187499999982
20
0.91413239561245496
30
0
11
-23.242187499999979
21
-0.91413239561244897
31
0
0
ARC
5
354
100
AcDbEntity
8
0
100
AcDbCircle
10
-23.330575847648298
20
-1.0025207432607677
30
0
40
0.12500000000000144
100
AcDbArc
50
-135.00000000000179
51
44.999999999999858
0
LINE
5
355
100
AcDbEntity
8
0
100
AcDbLine
10
-23.418964195296621
20
-1.0909090909090848
30
0
11
-23.960937499999979
21
-1.0909090909090846
31
0
0
LINE
5
356
100
AcDbEntity
8
0
100
AcDbLine
10
-23.960937499999979
20
-1.0909090909090846
30
0
11
-23.960937499999979
21
-3.2727272727272645
31
0
0
LINE
5
357
100
AcDbEntity
8
0
100
AcDbLine
10
-23.960937499999979
20
-3.2727272727272645
30
0
11
-23.418964195296613
21
-3.2727272727272654
31
0
0
ARC
5
358
100
AcDbEntity
8
0
100
AcDbCircle
10
-23.330575847648301
20
-3.3611156203755872
30
0
40
0.12500000000000167
100
AcDbArc
50
-44.999999999998273
51
134.99999999999685
0
LINE
5
359
100
AcDbEntity
8
0
100
AcDbLine
10
-23.242187499999979
20
-3.4495039680239046
30
0
11
-23.242187499999979
21
-5.2777687592488114
31
0
0
ARC
5
360
100
AcDbEntity
8
0
100
AcDbCircle
10
-23.330575847648298
20
-5.3661571068971288
30
0
40
0.12500000000000167
100
AcDbArc
50
-135.00000000000145
51
45.000001207416531
0
LINE
5
361
100
AcDbEntity
8
0
100
AcDbLine
10
-23.418964195296621
20
-5.454545454545447
30
0
11
-23.960937499999979
21
-5.454545454545447
31
0
0
LINE
5
362
100
AcDbEntity
8
0
100
AcDbLine
10
-23.960937499999979
20
-5.454545454545447
30
0
11
-23.960937499999979
21
-7.6363636363636278
31
0
0
LINE
5
363
100
AcDbEntity
8
0
100
AcDbLine
10
-23.960937499999979
20
-7.6363636363636278
30
0
11
-23.418964195296613
21
-7.6363636363636278
31
0
0
ARC
5
364
100
AcDbEntity
8
0
100
AcDbCircle
10
-23.330575847648301
20
-7.7247519840119487
30
0
40
0.12499999999999971
100
AcDbArc
50
-44.999999999999439
51
134.99999999999713
0
LINE
5
365
100
AcDbEntity
8
0
100
AcDbLine
10
-23.242187499999982
20
-7.8131403316602661
30
0
11
-23.242187499999982
21
-9.6414051228851729
31
0
0
ARC
5
366
100
AcDbEntity
8
0
100
AcDbCircle
10
-23.330575847648301
20
-9.7297934705334903
30
0
40
0.12500000000000069
100
AcDbArc
50
-135
51
44.999999999999424
0
LINE
5
367
100
AcDbEntity
8
0
100
AcDbLine
10
-23.418964195296621
20
-9.8181818181818095
30
0
11
-23.960937499999982
21
-9.8181818181818077
31
0
0
LINE
5
368
100
AcDbEntity
8
0
100
AcDbLine
10
-23.960937499999982
20
-9.8181818181818077
30
0
11
-23.960937499999979
21
-11.999999999999989
31
0
0
LINE
5
369
100
AcDbEntity
8
0
100
AcDbLine
10
-23.960937499999979
20
-11.999999999999989
30
0
11
-22.360937499999981
21
-11.999999999999991
31
0
0
LINE
5
370
100
AcDbEntity
8
0
100
AcDbLine
10
-22.360937499999981
20
-11.999999999999991
30
0
11
-22.360937499999981
21
-11.458026695296628
31
0
0
ARC
5
371
100
AcDbEntity
8
0
100
AcDbCircle
10
-22.272549152351662
20
-11.369638347648308
30
0
40
0.12500000000000069
100
AcDbArc
50
45.000000000001151
51
225
0
LINE
5
372
100
AcDbEntity
8
0
100
AcDbLine
10
-22.184160804703346
20
-11.281249999999989
30
0
11
-20.937714195296621
21
-11.281249999999989
31
0
0
ARC
5
373
100
AcDbEntity
8
0
100
AcDbCircle
10
-20.849325847648302
20
-11.369638347648307
30
0
40
0.12500000000000069
100
AcDbArc
50
-45
51
135.0000000000006
0
LINE
5
374
100
AcDbEntity
8
0
100
AcDbLine
10
-20.760937499999983
20
-11.458026695296626
30
0
11
-20.760937499999983
21
-11.999999999999991
31
0
0
LINE
5
375
100
AcDbEntity
8
0
100
AcDbLine
10
-20.760937499999983
20
-11.999999999999991
30
0
11
-19.160937499999982
21
-11.999999999999991
31
0
0
LINE
5
376
100
AcDbEntity
8
0
100
AcDbLine
10
-19.160937499999982
20
-11.999999999999991
30
0
11
-19.160937499999982
21
-11.458026695296631
31
0
0
ARC
5
377
100
AcDbEntity
8
0
100
AcDbCircle
10
-19.072549152351666
20
-11.369638347648308
30
0
40
0.12500000000000069
100
AcDbArc
50
45
51
225.00000000000227
0
LINE
5
378
100
AcDbEntity
8
0
100
AcDbLine
10
-18.984160804703347
20
-11.281249999999989
30
0
11
-17.737714195296622
21
-11.281249999999989
31
0
0
ARC
5
379
100
AcDbEntity
8
0
100
AcDbCircle
10
-17.649325847648303
20
-11.36963834764831
30
0
40
0.12499999999999968
100
AcDbArc
50
-44.999999999998273
51
134.99999999999943
0
LINE
5
380
100
AcDbEntity
8
0
100
AcDbLine
10
-17.560937499999984
20
-11.458026695296624
30
0
11
-17.560937499999984
21
-11.999999999999991
31
0
0
LINE
5
381
100
AcDbEntity
8
0
100
AcDbLine
10
-17.560937499999984
20
-11.999999999999991
30
0
11
-16.679687499999982
21
-11.999999999999991
31
0
0
LINE
5
382
100
AcDbEntity
8
0
100
AcDbLine
10
-16.679687499999982
20
-11.999999999999991
30
0
11
-16.679687499999982
21
12.000000000000002
31
0
0
LINE
5
383
100
AcDbEntity
8
0
100
AcDbLine
10
-16.679687499999982
20
12.000000000000002
30
0
11
-17.560937499999984
21
12.000000000000002
31
0
0
LINE
5
384
100
AcDbEntity
8
0
100
AcDbLine
10
-17.560937499999984
20
12.000000000000002
30
0
11
-17.56093749999998
21
11.458026695296628
31
0
0
ARC
5
385
100
AcDbEntity
8
0
100
AcDbCircle
10
-17.649325847648303
20
11.369638347648312
30
0
40
0.12499999999999968
100
AcDbArc
50
-135.00000000000463
51
44.999999999997691
0
LINE
5
386
100
AcDbEntity
8
0
100
AcDbLine
10
-17.737714195296629
20
11.28125
30
0
11
-18.984160804703336
21
11.281250000000002
31
0
0
ARC
5
387
100
AcDbEntity
8
0
100
AcDbCircle
10
-19.072549152351662
20
11.369638347648312
30
0
40
0.12500000000000069
100
AcDbArc
50
134.99999999999827
51
315.00000000000517
0
LINE
5
388
100
AcDbEntity
8
0
100
AcDbLine
10
-19.160937499999978
20
11.458026695296633
30
0
11
-19.160937499999978
21
12.000000000000002
31
0
0
LINE
5
389
100
AcDbEntity
8
0
100
AcDbLine
10
-19.160937499999978
20
12.000000000000002
30
0
11
-20.760937499999979
21
12.000000000000002
31
0
0
LINE
5
390
100
AcDbEntity
8
0
100
AcDbLine
10
-20.760937499999979
20
12.000000000000002
30
0
11
-20.760937499999976
21
11.458026695296631
31
0
0
CIRCLE
5
391
100
AcDbEntity
8
0
100
AcDbCircle
10
-21.583942434770677
20
1.6230049347707001
30
0
40
0.14763779527558979
0
CIRCLE
5
392
100
AcDbEntity
8
0
100
AcDbCircle
10
-18.337932565229284
20
1.6230049347706972
30
0
40
0.14763779527558979
0
CIRCLE
5
393
100
AcDbEntity
8
0
100
AcDbCircle
10
-21.58394243477068
20
-1.6230049347706945
30
0
40
0.14763779527558979
0
CIRCLE
5
394
100
AcDbEntity
8
0
100
AcDbCircle
10
-18.337932565229284
20
-1.6230049347706945
30
0
40
0.14763779527558979
0
CIRCLE
5
395
100
AcDbEntity
8
0
100
AcDbCircle
10
-19.960937499999982
20
2.7974123455122052e-15
30
0
40
2.0157480314960625
0
ARC
5
396
100
AcDbEntity
8
0
100
AcDbCircle
10
-13.049325847648308
20
3.361115620375589
30
0
40
0.12500000000000019
100
AcDbArc
50
-135.00000000000188
51
44.999999999998273
0
LINE
5
397
100
AcDbEntity
8
0
100
AcDbLine
10
-13.137714195296629
20
3.2727272727272738
30
0
11
-13.679687499999991
21
3.2727272727272738
31
0
0
LINE
5
398
100
AcDbEntity
8
0
100
AcDbLine
10
-13.679687499999991
20
3.2727272727272738
30
0
11
-13.679687499999991
21
1.0909090909090937
31
0
0
LINE
5
399
100
AcDbEntity
8
0
100
AcDbLine
10
-13.679687499999991
20
1.0909090909090937
30
0
11
-13.137714195296628
21
1.090909090909093
31
0
0
ARC
5
400
100
AcDbEntity
8
0
100
AcDbCircle
10
-13.049325847648312
20
1.0025207432607721
30
0
40
0.12499999999999957
100
AcDbArc
50
-44.99999999999735
51
134.99999999999827
0
LINE
5
401
100
AcDbEntity
8
0
100
AcDbLine
10
-12.960937499999989
20
0.91413239561245752
30
0
11
-12.960937499999989
21
-0.91413239561245874
31
0
0
ARC
5
402
100
AcDbEntity
8
0
100
AcDbCircle
10
-13.049325847648312
20
-1.0025207432607739
30
0
40
0.1250000000000008
100
AcDbArc
50
-135.00000000000361
51
44.999999999997549
0
LINE
5
403
100
AcDbEntity
8
0
100
AcDbLine
10
-13.137714195296637
20
-1.0909090909090873
30
0
11
-13.679687499999993
21
-1.0909090909090873
31
0
0
LINE
5
404
100
AcDbEntity
8
0
100
AcDbLine
10
-13.679687499999993
20
-1.0909090909090873
30
0
11
-13.679687499999991
21
-3.2727272727272689
31
0
0
LINE
5
405
100
AcDbEntity
8
0
100
AcDbLine
10
-13.679687499999991
20
-3.2727272727272689
30
0
11
-13.137714195296624
21
-3.272727272727268
31
0
0
ARC
5
406
100
AcDbEntity
8
0
100
AcDbCircle
10
-13.049325847648314
20
-3.3611156203755912
30
0
40
0.12499999999999968
100
AcDbArc
50
-44.999999999997968
51
134.99999999999582
0
LINE
5
407
100
AcDbEntity
8
0
100
AcDbLine
10
-12.960937499999993
20
-3.4495039680239059
30
0
11
-12.960937499999993
21
-5.2777687592488203
31
0
0
ARC
5
408
100
AcDbEntity
8
0
100
AcDbCircle
10
-13.049325847648314
20
-5.366157106897135
30
0
40
0.12500000000000019
100
AcDbArc
50
-135.0000000000023
51
44.999999999997982
0
LINE
5
409
100
AcDbEntity
8
0
100
AcDbLine
10
-13.137714195296637
20
-5.4545454545454506
30
0
11
-13.679687499999993
21
-5.4545454545454506
31
0
0
LINE
5
410
100
AcDbEntity
8
0
100
AcDbLine
10
-13.679687499999993
20
-5.4545454545454506
30
0
11
-13.679687499999991
21
-7.6363636363636305
31
0
0
LINE
5
411
100
AcDbEntity
8
0
100
AcDbLine
10
-13.679687499999991
20
-7.6363636363636305
30
0
11
-13.137714195296633
21
-7.6363636363636296
31
0
0
ARC
5
412
100
AcDbEntity
8
0
100
AcDbCircle
10
-13.049325847648314
20
-7.7247519840119496
30
0
40
0.1249999999999987
100
AcDbArc
50
-44.999999999997712
51
134.99999999999972
0
LINE
5
413
100
AcDbEntity
8
0
100
AcDbLine
10
-12.960937499999993
20
-7.8131403316602634
30
0
11
-12.960937499999995
21
-9.6414051228851783
31
0
0
ARC
5
414
100
AcDbEntity
8
0
100
AcDbCircle
10
-13.049325847648317
20
-9.7297934705334921
30
0
40
0.12499999999999971
100
AcDbArc
50
-135.0000000000006
51
44.999999999997115
0
LINE
5
415
100
AcDbEntity
8
0
100
AcDbLine
10
-13.137714195296637
20
-9.8181818181818095
30
0
11
-13.679687499999993
21
-9.8181818181818112
31
0
0
LINE
5
416
100
AcDbEntity
8
0
100
AcDbLine
10
-13.679687499999993
20
-9.8181818181818112
30
0
11
-13.679687499999993
21
-11.999999999999993
31
0
0
LINE
5
417
100
AcDbEntity
8
0
100
AcDbLine
10
-13.679687499999993
20
-11.999999999999993
30
0
11
13.679687499999993
21
-11.999999999999995
31
0
0
LINE
5
418
100
AcDbEntity
8
0
100
AcDbLine
10
13.679687499999993
20
-11.999999999999995
30
0
11
13.679687499999991
21
-8.9999999999999982
31
0
0
LINE
5
419
100
AcDbEntity
8
0
100
AcDbLine
10
13.679687499999991
20
-8.9999999999999982
30
0
11
13.137714195296605
21
-8.9999999999999982
31
0
0
ARC
5
420
100
AcDbEntity
8
0
100
AcDbCircle
10
13.049325847648289
20
-8.9116116523516808
30
0
40
0.1249999999999987
100
AcDbArc
50
134.99999999998792
51
314.99999999999943
0
LINE
5
421
100
AcDbEntity
8
0
100
AcDbLine
10
12.960937499999989
20
-8.8232233047033439
30
0
11
12.960937499999989
21
-6.1767766952966534
31
0
0
ARC
5
422
100
AcDbEntity
8
0
100
AcDbCircle
10
13.049325847648289
20
-6.0883883476483174
30
0
40
0.1249999999999987
100
AcDbArc
50
45.00000000000086
51
225.0000000000118
0
LINE
5
423
100
AcDbEntity
8
0
100
AcDbLine
10
13.137714195296605
20
-5.9999999999999991
30
0
11
13.679687499999991
21
-5.9999999999999973
31
0
0
LINE
5
424
100
AcDbEntity
8
0
100
AcDbLine
10
13.679687499999991
20
-5.9999999999999973
30
0
11
13.679687499999991
21
-3
31
0
0
LINE
5
425
100
AcDbEntity
8
0
100
AcDbLine
10
13.679687499999991
20
-3
30
0
11
13.13771419529661
21
-3
31
0
0
ARC
5
426
100
AcDbEntity
8
0
100
AcDbCircle
10
13.049325847648289
20
-2.911611652351684
30
0
40
0.12499999999999846
100
AcDbArc
50
134.99999999998991
51
315.00000000000159
0
LINE
5
427
100
AcDbEntity
8
0
100
AcDbLine
10
12.960937499999988
20
-2.8232233047033515
30
0
11
12.960937499999989
21
-0.17677669529665987
31
0
0
ARC
5
428
100
AcDbEntity
8
0
100
AcDbCircle
10
13.049325847648285
20
-0.088388347648325385
30
0
40
0.12500000000000003
100
AcDbArc
50
45.000000000003176
51
225.000001207422
0
LINE
5
429
100
AcDbEntity
8
0
100
AcDbLine
10
13.137714195296599
20
-1.7702374998944423e-15
30
0
11
13.679687499999991
21
-1.4889628589981862e-15
31
0
0
LINE
5
430
100
AcDbEntity
8
0
100
AcDbLine
10
13.679687499999991
20
-1.4889628589981862e-15
30
0
11
13.679687499999991
21
2.9999999999999978
31
0
0
LINE
5
431
100
AcDbEntity
8
0
100
AcDbLine
10
13.679687499999991
20
2.9999999999999978
30
0
11
13.13771419529661
21
2.9999999999999973
31
0
0
ARC
5
432
100
AcDbEntity
8
0
100
AcDbCircle
10
13.049325847648289
20
3.0883883476483103
30
0
40
0.12499999999999846
100
AcDbArc
50
134.99999999998835
51
315.00000000000256
0
LINE
5
433
100
AcDbEntity
8
0
100
AcDbLine
10
12.960937499999989
20
3.1767766952966459
30
0
11
12.960937499999989
21
5.8232233047033342
31
0
0
ARC
5
434
100
AcDbEntity
8
0
100
AcDbCircle
10
13.049325847648293
20
5.911611652351672
30
0
40
0.12500000000000019
100
AcDbArc
50
45.000000000003737
51
225.00000000001123
0
LINE
5
435
100
AcDbEntity
8
0
100
AcDbLine
10
13.137714195296605
20
5.9999999999999956
30
0
11
13.679687499999996
21
5.9999999999999964
31
0
0
LINE
5
436
100
AcDbEntity
8
0
100
AcDbLine
10
13.679687499999996
20
5.9999999999999964
30
0
11
13.679687499999996
21
8.9999999999999929
31
0
0
LINE
5
437
100
AcDbEntity
8
0
100
AcDbLine
10
13.679687499999996
20
8.9999999999999929
30
0
11
13.137714195296617
21
8.9999999999999929
31
0
0
ARC
5
438
100
AcDbEntity
8
0
100
AcDbCircle
10
13.049325847648294
20
9.0883883476483014
30
0
40
0.12499999999999772
100
AcDbArc
50
134.99999999998676
51
315.0000000000046
0
LINE
5
439
100
AcDbEntity
8
0
100
AcDbLine
10
12.960937499999998
20
9.1767766952966383
30
0
11
12.960937499999995
21
11.999999999999993
31
0
0
LINE
5
440
100
AcDbEntity
8
0
100
AcDbLine
10
12.960937499999995
20
11.999999999999993
30
0
11
-13.679687499999991
21
11.999999999999998
31
0
0
LINE
5
441
100
AcDbEntity
8
0
100
AcDbLine
10
-13.679687499999991
20
11.999999999999998
30
0
11
-13.679687499999991
21
9.8181818181818201
31
0
0
LINE
5
442
100
AcDbEntity
8
0
100
AcDbLine
10
-13.679687499999991
20
9.8181818181818201
30
0
11
-13.137714195296624
21
9.8181818181818183
31
0
0
ARC
5
443
100
AcDbEntity
8
0
100
AcDbCircle
10
-13.049325847648312
20
9.7297934705334939
30
0
40
0.1249999999999987
100
AcDbArc
50
-44.999999999997094
51
134.99999999999596
0
LINE
5
444
100
AcDbEntity
8
0
100
AcDbLine
10
-12.960937499999989
20
9.64140512288518
30
0
11
-12.960937499999989
21
7.8131403316602661
31
0
0
ARC
5
445
100
AcDbEntity
8
0
100
AcDbCircle
10
-13.049325847648308
20
7.7247519840119523
30
0
40
0.12499999999999968
100
AcDbArc
50
-135.00000000000205
51
44.999999999998273
0
LINE
5
446
100
AcDbEntity
8
0
100
AcDbLine
10
-13.137714195296629
20
7.6363636363636376
30
0
11
-13.679687499999991
21
7.6363636363636376
31
0
0
LINE
5
447
100
AcDbEntity
8
0
100
AcDbLine
10
-13.679687499999991
20
7.6363636363636376
30
0
11
-13.679687499999991
21
5.4545454545454577
31
0
0
LINE
5
448
100
AcDbEntity
8
0
100
AcDbLine
10
-13.679687499999991
20
5.4545454545454577
30
0
11
-13.137714195296628
21
5.4545454545454568
31
0
0
ARC
5
449
100
AcDbEntity
8
0
100
AcDbCircle
10
-13.049325847648312
20
5.3661571068971359
30
0
40
0.12499999999999968
100
AcDbArc
50
-44.999999999997407
51
134.99999999999827
0
LINE
5
450
100
AcDbEntity
8
0
100
AcDbLine
10
-12.960937499999989
20
5.2777687592488212
30
0
11
-12.960937499999988
21
3.4495039680239046
31
0
0
ARC
5
451
100
AcDbEntity
8
0
100
AcDbCircle
10
17.028101687250487
20
5.2396757600028074
30
0
40
0.12499999999999968
100
AcDbArc
50
-135.00000000000259
51
44.999999999997407
0
LINE
5
452
100
AcDbEntity
8
0
100
AcDbLine
10
16.939713339602164
20
5.1512874123544927
30
0
11
16.397740034898789
21
5.1512874123545043
31
0
0
LINE
5
453
100
AcDbEntity
8
0
100
AcDbLine
10
16.397740034898789
20
5.1512874123545043
30
0
11
16.397740034898753
21
3.5512874123545006
31
0
0
LINE
5
454
100
AcDbEntity
8
0
100
AcDbLine
10
16.397740034898753
20
3.5512874123545006
30
0
11
16.939713339602136
21
3.5512874123544922
31
0
0
ARC
5
455
100
AcDbEntity
8
0
100
AcDbCircle
10
17.028101687250441
20
3.4628990647061699
30
0
40
0.1249999999999982
100
AcDbArc
50
-45.000000000005898
51
134.9999999999944
0
LINE
5
456
100
AcDbEntity
8
0
100
AcDbLine
10
17.116490034898749
20
3.3745107170578432
30
0
11
17.116490034898721
21
1.9512874123544868
31
0
0
LINE
5
457
100
AcDbEntity
8
0
100
AcDbLine
10
17.116490034898721
20
1.9512874123544868
30
0
11
19.03662892378761
21
1.9512874123544481
31
0
0
LINE
5
458
100
AcDbEntity
8
0
100
AcDbLine
10
19.03662892378761
20
1.9512874123544481
30
0
11
19.036628923787621
21
2.4932607170578218
31
0
0
ARC
5
459
100
AcDbEntity
8
0
100
AcDbCircle
10
19.125017271435954
20
2.5816490647061276
30
0
40
0.12499999999999846
100
AcDbArc
50
44.999999999999858
51
224.99999999999105
0
LINE
5
460
100
AcDbEntity
8
0
100
AcDbLine
10
19.213405619084273
20
2.6700374123544464
30
0
11
20.779991117379886
21
2.6700374123544139
31
0
0
ARC
5
461
100
AcDbEntity
8
0
100
AcDbCircle
10
20.868379465028198
20
2.5816490647060926
30
0
40
0.12499999999999772
100
AcDbArc
50
-45.000000000007638
51
134.99999999999699
0
LINE
5
462
100
AcDbEntity
8
0
100
AcDbLine
10
20.956767812676503
20
2.4932607170577641
30
0
11
20.9567678126765
21
1.9512874123544097
31
0
0
LINE
5
463
100
AcDbEntity
8
0
100
AcDbLine
10
20.9567678126765
20
1.9512874123544097
30
0
11
22.876906701565385
21
1.9512874123543726
31
0
0
LINE
5
464
100
AcDbEntity
8
0
100
AcDbLine
10
22.876906701565385
20
1.9512874123543726
30
0
11
22.876906701565389
21
2.493260717057749
31
0
0
ARC
5
465
100
AcDbEntity
8
0
100
AcDbCircle
10
22.965295049213722
20
2.5816490647060526
30
0
40
0.12499999999999921
100
AcDbArc
50
44.999999999999275
51
224.99999999999037
0
LINE
5
466
100
AcDbEntity
8
0
100
AcDbLine
10
23.053683396862041
20
2.6700374123543695
30
0
11
24.620268895157654
21
2.6700374123543384
31
0
0
ARC
5
467
100
AcDbEntity
8
0
100
AcDbCircle
10
24.70865724280597
20
2.581649064706018
30
0
40
0.1249999999999982
100
AcDbArc
50
-45.000000000007077
51
134.99999999999841
0
LINE
5
468
100
AcDbEntity
8
0
100
AcDbLine
10
24.797045590454275
20
2.4932607170576913
30
0
11
24.797045590454267
21
1.9512874123543342
31
0
0
LINE
5
469
100
AcDbEntity
8
0
100
AcDbLine
10
24.797045590454267
20
1.9512874123543342
30
0
11
26.717184479343153
21
1.9512874123542971
31
0
0
LINE
5
470
100
AcDbEntity
8
0
100
AcDbLine
10
26.717184479343153
20
1.9512874123542971
30
0
11
26.717184479343167
21
2.4932607170576846
31
0
0
ARC
5
471
100
AcDbEntity
8
0
100
AcDbCircle
10
26.805572826991511
20
2.5816490647059749
30
0
40
0.12499999999999599
100
AcDbArc
50
45.000000000002736
51
224.99999999998255
0
LINE
5
472
100
AcDbEntity
8
0
100
AcDbLine
10
26.893961174639823
20
2.6700374123542954
30
0
11
28.460546672935426
21
2.670037412354263
31
0
0
ARC
5
473
100
AcDbEntity
8
0
100
AcDbCircle
10
28.548935020583748
20
2.5816490647059411
30
0
40
0.12499999999999971
100
AcDbArc
50
-45.000000000008498
51
135.00000000000031
0
LINE
5
474
100
AcDbEntity
8
0
100
AcDbLine
10
28.637323368232053
20
2.49326071705761
30
0
11
28.637323368232035
21
1.9512874123542594
31
0
0
LINE
5
475
100
AcDbEntity
8
0
100
AcDbLine
10
28.637323368232035
20
1.9512874123542594
30
0
11
30.557462257120921
21
1.9512874123542217
31
0
0
LINE
5
476
100
AcDbEntity
8
0
100
AcDbLine
10
30.557462257120921
20
1.9512874123542217
30
0
11
30.557462257120935
21
2.4932607170576042
31
0
0
ARC
5
477
100
AcDbEntity
8
0
100
AcDbCircle
10
30.645850604769276
20
2.5816490647059012
30
0
40
0.12499999999999424
100
AcDbArc
50
45.000000000003162
51
224.99999999998587
0
LINE
5
478
100
AcDbEntity
8
0
100
AcDbLine
10
30.734238952417584
20
2.6700374123542194
30
0
11
32.300824450713208
21
2.6700374123541875
31
0
0
ARC
5
479
100
AcDbEntity
8
0
100
AcDbCircle
10
32.389212798361513
20
2.5816490647058643
30
0
40
0.12500000000000042
100
AcDbArc
50
-45.000000000008903
51
134.99999999999412
0
LINE
5
480
100
AcDbEntity
8
0
100
AcDbLine
10
32.477601146009818
20
2.4932607170575318
30
0
11
32.477601146009803
21
1.9512874123541835
31
0
0
LINE
5
481
100
AcDbEntity
8
0
100
AcDbLine
10
32.477601146009803
20
1.9512874123541835
30
0
11
34.397740034898689
21
1.9512874123541433
31
0
0
LINE
5
482
100
AcDbEntity
8
0
100
AcDbLine
10
34.397740034898689
20
1.9512874123541433
30
0
11
34.39774003489886
21
9.951287412354155
31
0
0
LINE
5
483
100
AcDbEntity
8
0
100
AcDbLine
10
34.39774003489886
20
9.951287412354155
30
0
11
32.477601146009981
21
9.9512874123541906
31
0
0
LINE
5
484
100
AcDbEntity
8
0
100
AcDbLine
10
32.477601146009981
20
9.9512874123541906
30
0
11
32.47760114600996
21
9.4093141076508324
31
0
0
ARC
5
485
100
AcDbEntity
8
0
100
AcDbCircle
10
32.389212798361662
20
9.3209257600025008
30
0
40
0.12499999999999374
100
AcDbArc
50
-135.00000000000463
51
45.000001207414236
0
LINE
5
486
100
AcDbEntity
8
0
100
AcDbLine
10
32.300824450713343
20
9.2325374123541959
30
0
11
30.734238952417726
21
9.2325374123542279
31
0
0
ARC
5
487
100
AcDbEntity
8
0
100
AcDbCircle
10
30.645850604769414
20
9.3209257600025381
30
0
40
0.12499999999999772
100
AcDbArc
50
135.00000000001094
51
315.00000000000057
0
LINE
5
488
100
AcDbEntity
8
0
100
AcDbLine
10
30.557462257121081
20
9.4093141076508378
30
0
11
30.557462257121095
21
9.9512874123542261
31
0
0
LINE
5
489
100
AcDbEntity
8
0
100
AcDbLine
10
30.557462257121095
20
9.9512874123542261
30
0
11
28.637323368232209
21
9.9512874123542687
31
0
0
LINE
5
490
100
AcDbEntity
8
0
100
AcDbLine
10
28.637323368232209
20
9.9512874123542687
30
0
11
28.637323368232192
21
9.4093141076509088
31
0
0
ARC
5
491
100
AcDbEntity
8
0
100
AcDbCircle
10
28.548935020583876
20
9.3209257600025861
30
0
40
0.12499999999999573
100
AcDbArc
50
-135.0000000000006
51
45.000000000002302
0
LINE
5
492
100
AcDbEntity
8
0
100
AcDbLine
10
28.460546672935561
20
9.2325374123542723
30
0
11
26.893961174639951
21
9.2325374123543007
31
0
0
ARC
5
493
100
AcDbEntity
8
0
100
AcDbCircle
10
26.805572826991636
20
9.3209257600026181
30
0
40
0.1249999999999987
100
AcDbArc
50
135.00000000001037
51
314.99999999999943
0
LINE
5
494
100
AcDbEntity
8
0
100
AcDbLine
10
26.717184479343302
20
9.4093141076509195
30
0
11
26.717184479343313
21
9.9512874123543025
31
0
0
LINE
5
495
100
AcDbEntity
8
0
100
AcDbLine
10
26.717184479343313
20
9.9512874123543025
30
0
11
24.797045590454431
21
9.9512874123543416
31
0
0
LINE
5
496
100
AcDbEntity
8
0
100
AcDbLine
10
24.797045590454431
20
9.9512874123543416
30
0
11
24.797045590454424
21
9.4093141076509834
31
0
0
ARC
5
497
100
AcDbEntity
8
0
100
AcDbCircle
10
24.708657242806112
20
9.3209257600026572
30
0
40
0.1249999999999987
100
AcDbArc
50
-135.0000000000023
51
45.000000000004604
0
LINE
5
498
100
AcDbEntity
8
0
100
AcDbLine
10
24.620268895157793
20
9.2325374123543451
30
0
11
23.053683396862187
21
9.2325374123543789
31
0
0
ARC
5
499
100
AcDbEntity
8
0
100
AcDbCircle
10
22.965295049213868
20
9.3209257600026909
30
0
40
0.1249999999999987
100
AcDbArc
50
135.00000000001037
51
315.00000000000227
0
LINE
5
500
100
AcDbEntity
8
0
100
AcDbLine
10
22.876906701565535
20
9.4093141076509923
30
0
11
22.876906701565545
21
9.9512874123543806
31
0
0
LINE
5
501
100
AcDbEntity
8
0
100
AcDbLine
10
22.876906701565545
20
9.9512874123543806
30
0
11
20.956767812676659
21
9.9512874123544197
31
0
0
LINE
5
502
100
AcDbEntity
8
0
100
AcDbLine
10
20.956767812676659
20
9.9512874123544197
30
0
11
20.956767812676656
21
9.4093141076510705
31
0
0
ARC
5
503
100
AcDbEntity
8
0
100
AcDbCircle
10
20.868379465028347
20
9.3209257600027371
30
0
40
0.1249999999999987
100
AcDbArc
50
-135.00000000000117
51
45.000000000008065
0
LINE
5
504
100
AcDbEntity
8
0
100
AcDbLine
10
20.779991117380028
20
9.2325374123544215
30
0
11
19.213405619084419
21
9.2325374123544517
31
0
0
ARC
5
505
100
AcDbEntity
8
0
100
AcDbCircle
10
19.1250172714361
20
9.3209257600027708
30
0
40
0.12499999999999772
100
AcDbArc
50
135.00000000001268
51
315
0
LINE
5
506
100
AcDbEntity
8
0
100
AcDbLine
10
19.036628923787763
20
9.4093141076510687
30
0
11
19.036628923787777
21
9.9512874123544552
31
0
0
LINE
5
507
100
AcDbEntity
8
0
100
AcDbLine
10
19.036628923787777
20
9.9512874123544552
30
0
11
17.116490034898892
21
9.9512874123544943
31
0
0
LINE
5
508
100
AcDbEntity
8
0
100
AcDbLine
10
17.116490034898892
20
9.9512874123544943
30
0
11
17.116490034898856
21
8.5280641076511365
31
0
0
ARC
5
509
100
AcDbEntity
8
0
100
AcDbCircle
10
17.028101687250555
20
8.4396757600028103
30
0
40
0.12499999999999968
100
AcDbArc
50
-135.0000000000023
51
45.000000000008065
0
LINE
5
510
100
AcDbEntity
8
0
100
AcDbLine
10
16.939713339602232
20
8.3512874123544947
30
0
11
16.397740034898856
21
8.3512874123545071
31
0
0
LINE
5
511
100
AcDbEntity
8
0
100
AcDbLine
10
16.397740034898856
20
8.3512874123545071
30
0
11
16.39774003489882
21
6.7512874123545066
31
0
0
LINE
5
512
100
AcDbEntity
8
0
100
AcDbLine
10
16.39774003489882
20
6.7512874123545066
30
0
11
16.939713339602196
21
6.7512874123544941
31
0
0
ARC
5
513
100
AcDbEntity
8
0
100
AcDbCircle
10
17.028101687250508
20
6.6628990647061741
30
0
40
0.1249999999999987
100
AcDbArc
50
-45.00000000000631
51
134.99999999999741
0
LINE
5
514
100
AcDbEntity
8
0
100
AcDbLine
10
17.116490034898817
20
6.5745107170578461
30
0
11
17.11649003489881
21
5.3280641076511221
31
0
0
ARC
5
515
100
AcDbEntity
8
0
100
AcDbCircle
10
17.028101687250253
20
-5.7603242399972086
30
0
40
0.12499999999999968
100
AcDbArc
50
-135.00000000000259
51
44.999999999997407
0
LINE
5
516
100
AcDbEntity
8
0
100
AcDbLine
10
16.93971333960193
20
-5.8487125876455233
30
0
11
16.397740034898554
21
-5.8487125876455135
31
0
0
LINE
5
517
100
AcDbEntity
8
0
100
AcDbLine
10
16.397740034898554
20
-5.8487125876455135
30
0
11
16.397740034898519
21
-7.448712587645514
31
0
0
LINE
5
518
100
AcDbEntity
8
0
100
AcDbLine
10
16.397740034898519
20
-7.448712587645514
30
0
11
16.939713339601898
21
-7.4487125876455247
31
0
0
ARC
5
519
100
AcDbEntity
8
0
100
AcDbCircle
10
17.028101687250206
20
-7.5371009352938465
30
0
40
0.12499999999999772
100
AcDbArc
50
-45.000000000005748
51
134.99999999999571
0
LINE
5
520
100
AcDbEntity
8
0
100
AcDbLine
10
17.116490034898515
20
-7.6254892829421728
30
0
11
17.116490034898487
21
-9.0487125876455305
31
0
0
LINE
5
521
100
AcDbEntity
8
0
100
AcDbLine
10
17.116490034898487
20
-9.0487125876455305
30
0
11
19.036628923787376
21
-9.0487125876455679
31
0
0
LINE
5
522
100
AcDbEntity
8
0
100
AcDbLine
10
19.036628923787376
20
-9.0487125876455679
30
0
11
19.036628923787386
21
-8.5067392829421937
31
0
0
ARC
5
523
100
AcDbEntity
8
0
100
AcDbCircle
10
19.12501727143572
20
-8.4183509352938888
30
0
40
0.1249999999999987
100
AcDbArc
50
45.000000000001151
51
224.99999999999076
0
LINE
5
524
100
AcDbEntity
8
0
100
AcDbLine
10
19.213405619084035
20
-8.3299625876455696
30
0
11
20.779991117379652
21
-8.3299625876456016
31
0
0
ARC
5
525
100
AcDbEntity
8
0
100
AcDbCircle
10
20.868379465027967
20
-8.4183509352939208
30
0
40
0.12499999999999573
100
AcDbArc
50
-45.000000000009209
51
134.99999999999886
0
LINE
5
526
100
AcDbEntity
8
0
100
AcDbLine
10
20.956767812676269
20
-8.5067392829422506
30
0
11
20.956767812676265
21
-9.0487125876456069
31
0
0
LINE
5
527
100
AcDbEntity
8
0
100
AcDbLine
10
20.956767812676265
20
-9.0487125876456069
30
0
11
22.876906701565151
21
-9.0487125876456442
31
0
0
LINE
5
528
100
AcDbEntity
8
0
100
AcDbLine
10
22.876906701565151
20
-9.0487125876456442
30
0
11
22.876906701565154
21
-8.5067392829422666
31
0
0
ARC
5
529
100
AcDbEntity
8
0
100
AcDbCircle
10
22.965295049213488
20
-8.4183509352939652
30
0
40
0.12499999999999971
100
AcDbArc
50
44.999999999999424
51
224.9999999999896
0
LINE
5
530
100
AcDbEntity
8
0
100
AcDbLine
10
23.053683396861807
20
-8.3299625876456478
30
0
11
24.62026889515742
21
-8.329962587645678
31
0
0
ARC
5
531
100
AcDbEntity
8
0
100
AcDbCircle
10
24.708657242805735
20
-8.4183509352939989
30
0
40
0.12499999999999573
100
AcDbArc
50
-45.00000000000631
51
134.99999999999827
0
LINE
5
532
100
AcDbEntity
8
0
100
AcDbLine
10
24.79704559045404
20
-8.5067392829423234
30
0
11
24.797045590454033
21
-9.0487125876456833
31
0
0
LINE
5
533
100
AcDbEntity
8
0
100
AcDbLine
10
24.797045590454033
20
-9.0487125876456833
30
0
11
26.717184479342915
21
-9.0487125876457206
31
0
0
LINE
5
534
100
AcDbEntity
8
0
100
AcDbLine
10
26.717184479342915
20
-9.0487125876457206
30
0
11
26.717184479342922
21
-8.5067392829423305
31
0
0
ARC
5
535
100
AcDbEntity
8
0
100
AcDbCircle
10
26.805572826991277
20
-8.4183509352940433
30
0
40
0.12499999999999573
100
AcDbArc
50
45.000000000002878
51
224.99999999997812
0
LINE
5
536
100
AcDbEntity
8
0
100
AcDbLine
10
26.893961174639589
20
-8.3299625876457224
30
0
11
28.460546672935191
21
-8.3299625876457526
31
0
0
ARC
5
537
100
AcDbEntity
8
0
100
AcDbCircle
10
28.548935020583514
20
-8.4183509352940753
30
0
40
0.1249999999999987
100
AcDbArc
50
-45.000000000008043
51
135
0
LINE
5
538
100
AcDbEntity
8
0
100
AcDbLine
10
28.637323368231819
20
-8.5067392829424051
30
0
11
28.637323368231801
21
-9.0487125876457579
31
0
0
LINE
5
539
100
AcDbEntity
8
0
100
AcDbLine
10
28.637323368231801
20
-9.0487125876457579
30
0
11
30.557462257120687
21
-9.048712587645797
31
0
0
LINE
5
540
100
AcDbEntity
8
0
100
AcDbLine
10
30.557462257120687
20
-9.048712587645797
30
0
11
30.557462257120701
21
-8.5067392829424122
31
0
0
ARC
5
541
100
AcDbEntity
8
0
100
AcDbCircle
10
30.645850604769041
20
-8.4183509352941144
30
0
40
0.12499999999999474
100
AcDbArc
50
45.00000000000346
51
224.99999999998619
0
LINE
5
542
100
AcDbEntity
8
0
100
AcDbLine
10
30.73423895241735
20
-8.3299625876457952
30
0
11
32.300824450712973
21
-8.329962587645829
31
0
0
ARC
5
543
100
AcDbEntity
8
0
100
AcDbCircle
10
32.389212798361278
20
-8.4183509352941499
30
0
40
0.12500000000000069
100
AcDbArc
50
-45.000000000009209
51
134.99999999999483
0
LINE
5
544
100
AcDbEntity
8
0
100
AcDbLine
10
32.477601146009583
20
-8.5067392829424833
30
0
11
32.477601146009569
21
-9.0487125876458343
31
0
0
LINE
5
545
100
AcDbEntity
8
0
100
AcDbLine
10
32.477601146009569
20
-9.0487125876458343
30
0
11
34.397740034898455
21
-9.0487125876458716
31
0
0
LINE
5
546
100
AcDbEntity
8
0
100
AcDbLine
10
34.397740034898455
20
-9.0487125876458716
30
0
11
34.397740034898625
21
-1.0487125876458609
31
0
0
LINE
5
547
100
AcDbEntity
8
0
100
AcDbLine
10
34.397740034898625
20
-1.0487125876458609
30
0
11
32.477601146009739
21
-1.0487125876458245
31
0
0
LINE
5
548
100
AcDbEntity
8
0
100
AcDbLine
10
32.477601146009739
20
-1.0487125876458245
30
0
11
32.477601146009725
21
-1.5906858923491842
31
0
0
ARC
5
549
100
AcDbEntity
8
0
100
AcDbCircle
10
32.38921279836142
20
-1.6790742399975149
30
0
40
0.12499999999999796
100
AcDbArc
50
-135.00000000000634
51
45.000000000008342
0
LINE
5
550
100
AcDbEntity
8
0
100
AcDbLine
10
32.300824450713094
20
-1.7674625876458216
30
0
11
30.734238952417492
21
-1.7674625876457906
31
0
0
ARC
5
551
100
AcDbEntity
8
0
100
AcDbCircle
10
30.64585060476918
20
-1.6790742399974778
30
0
40
0.12499999999999796
100
AcDbArc
50
135.00000000001054
51
314.99999999999977
0
LINE
5
552
100
AcDbEntity
8
0
100
AcDbLine
10
30.557462257120847
20
-1.5906858923491769
30
0
11
30.557462257120857
21
-1.0487125876457877
31
0
0
LINE
5
553
100
AcDbEntity
8
0
100
AcDbLine
10
30.557462257120857
20
-1.0487125876457877
30
0
11
28.637323368231975
21
-1.048712587645749
31
0
0
LINE
5
554
100
AcDbEntity
8
0
100
AcDbLine
10
28.637323368231975
20
-1.048712587645749
30
0
11
28.637323368231957
21
-1.5906858923491087
31
0
0
ARC
5
555
100
AcDbEntity
8
0
100
AcDbCircle
10
28.548935020583642
20
-1.679074239997431
30
0
40
0.12499999999999549
100
AcDbArc
50
-135.00000000000037
51
45.000000000002153
0
LINE
5
556
100
AcDbEntity
8
0
100
AcDbLine
10
28.460546672935326
20
-1.7674625876457455
30
0
11
26.893961174639717
21
-1.7674625876457151
31
0
0
ARC
5
557
100
AcDbEntity
8
0
100
AcDbCircle
10
26.805572826991401
20
-1.6790742399973999
30
0
40
0.1249999999999987
100
AcDbArc
50
135.00000000001015
51
315.00000000000017
0
LINE
5
558
100
AcDbEntity
8
0
100
AcDbLine
10
26.717184479343068
20
-1.5906858923490979
30
0
11
26.717184479343079
21
-1.0487125876457122
31
0
0
LINE
5
559
100
AcDbEntity
8
0
100
AcDbLine
10
26.717184479343079
20
-1.0487125876457122
30
0
11
24.797045590454193
21
-1.0487125876456735
31
0
0
LINE
5
560
100
AcDbEntity
8
0
100
AcDbLine
10
24.797045590454193
20
-1.0487125876456735
30
0
11
24.797045590454189
21
-1.5906858923490304
31
0
0
ARC
5
561
100
AcDbEntity
8
0
100
AcDbCircle
10
24.708657242805881
20
-1.6790742399973577
30
0
40
0.12499999999999944
100
AcDbArc
50
-135.00000000000369
51
45.000000000006118
0
LINE
5
562
100
AcDbEntity
8
0
100
AcDbLine
10
24.620268895157558
20
-1.7674625876456691
30
0
11
23.053683396861953
21
-1.7674625876456396
31
0
0
ARC
5
563
100
AcDbEntity
8
0
100
AcDbCircle
10
22.965295049213633
20
-1.679074239997324
30
0
40
0.12499999999999845
100
AcDbArc
50
135.00000000001032
51
315.00000000000119
0
LINE
5
564
100
AcDbEntity
8
0
100
AcDbLine
10
22.8769067015653
20
-1.5906858923490224
30
0
11
22.876906701565311
21
-1.0487125876456351
31
0
0
LINE
5
565
100
AcDbEntity
8
0
100
AcDbLine
10
22.876906701565311
20
-1.0487125876456351
30
0
11
20.956767812676425
21
-1.0487125876455965
31
0
0
LINE
5
566
100
AcDbEntity
8
0
100
AcDbLine
10
20.956767812676425
20
-1.0487125876455965
30
0
11
20.956767812676421
21
-1.5906858923489477
31
0
0
ARC
5
567
100
AcDbEntity
8
0
100
AcDbCircle
10
20.868379465028113
20
-1.6790742399972813
30
0
40
0.12499999999999747
100
AcDbArc
50
-135.00000000000153
51
45.000000000008129
0
LINE
5
568
100
AcDbEntity
8
0
100
AcDbLine
10
20.779991117379794
20
-1.7674625876455958
30
0
11
19.213405619084185
21
-1.7674625876455639
31
0
0
ARC
5
569
100
AcDbEntity
8
0
100
AcDbCircle
10
19.125017271435862
20
-1.679074239997244
30
0
40
0.12499999999999721
100
AcDbArc
50
135.00000000001168
51
315.00000000000091
0
LINE
5
570
100
AcDbEntity
8
0
100
AcDbLine
10
19.036628923787529
20
-1.5906858923489466
30
0
11
19.036628923787543
21
-1.0487125876455596
31
0
0
LINE
5
571
100
AcDbEntity
8
0
100
AcDbLine
10
19.036628923787543
20
-1.0487125876455596
30
0
11
17.116490034898654
21
-1.048712587645521
31
0
0
LINE
5
572
100
AcDbEntity
8
0
100
AcDbLine
10
17.116490034898654
20
-1.048712587645521
30
0
11
17.116490034898622
21
-2.4719358923488777
31
0
0
ARC
5
573
100
AcDbEntity
8
0
100
AcDbCircle
10
17.02810168725032
20
-2.5603242399972048
30
0
40
0.12499999999999944
100
AcDbArc
50
-135.00000000000276
51
45.000000000008342
0
LINE
5
574
100
AcDbEntity
8
0
100
AcDbLine
10
16.939713339601997
20
-2.6487125876455191
30
0
11
16.397740034898622
21
-2.6487125876455075
31
0
0
LINE
5
575
100
AcDbEntity
8
0
100
AcDbLine
10
16.397740034898622
20
-2.6487125876455075
30
0
11
16.397740034898582
21
-4.2487125876455103
31
0
0
LINE
5
576
100
AcDbEntity
8
0
100
AcDbLine
10
16.397740034898582
20
-4.2487125876455103
30
0
11
16.939713339601962
21
-4.2487125876455201
31
0
0
ARC
5
577
100
AcDbEntity
8
0
100
AcDbCircle
10
17.028101687250274
20
-4.3371009352938428
30
0
40
0.1249999999999982
100
AcDbArc
50
-45.000000000005748
51
134.99999999999656
0
LINE
5
578
100
AcDbEntity
8
0
100
AcDbLine
10
17.116490034898582
20
-4.425489282942169
30
0
11
17.116490034898575
21
-5.6719358923488938
31
0
0
ENDSEC
0
SECTION
2
OBJECTS
0
DICTIONARY
5
C
100
AcDbDictionary
3
ACAD_GROUP
350
D
3
ACAD_MLINESTYLE
350
17
0
DICTIONARY
5
D
100
AcDbDictionary
0
DICTIONARY
5
1A
330
C
100
AcDbDictionary
0
DICTIONARY
5
17
100
AcDbDictionary
0
ENDSEC
0
EOF
