0
SECTION
2
HEADER
9
$INSUNITS
70
1
9
$ACADVER
1
AC1014
9
$HANDSEED
5
FFFF
0
ENDSEC
0
SECTION
2
TABLES
0
TABLE
2
VPORT
5
8
100
AcDbSymbolTable
0
ENDTAB
0
TABLE
2
LTYPE
5
5
100
AcDbSymbolTable
0
LTYPE
5
14
100
AcDbSymbolTableRecord
100
AcDbLinetypeTableRecord
2
BYBLOCK
70
0
0
LTYPE
5
15
100
AcDbSymbolTableRecord
100
AcDbLinetypeTableRecord
2
BYLAYER
70
0
0
ENDTAB
0
TABLE
2
LAYER
5
2
100
AcDbSymbolTable
70
2
0
LAYER
5
50
100
AcDbSymbolTableRecord
100
AcDbLayerTableRecord
2
0
70
0
6
CONTINUOUS
0
ENDTAB
0
TABLE
2
STYLE
5
3
100
AcDbSymbolTable
70
1
0
STYLE
5
11
100
AcDbSymbolTableRecord
100
AcDbTextStyleTableRecord
2
STANDARD
70
0
0
ENDTAB
0
TABLE
2
VIEW
5
6
100
AcDbSymbolTable
70
0
0
ENDTAB
0
TABLE
2
UCS
5
7
100
AcDbSymbolTable
70
0
0
ENDTAB
0
TABLE
2
APPID
5
9
100
AcDbSymbolTable
70
2
0
APPID
5
12
100
AcDbSymbolTableRecord
100
AcDbRegAppTableRecord
2
ACAD
70
0
0
ENDTAB
0
TABLE
2
DIMSTYLE
5
A
100
AcDbSymbolTable
70
1
0
ENDTAB
0
TABLE
2
BLOCK_RECORD
5
1
100
AcDbSymbolTable
70
1
0
BLOCK_RECORD
5
1F
100
AcDbSymbolTableRecord
100
AcDbBlockTableRecord
2
*MODEL_SPACE
0
BLOCK_RECORD
5
1B
100
AcDbSymbolTableRecord
100
AcDbBlockTableRecord
2
*PAPER_SPACE
0
ENDTAB
0
ENDSEC
0
SECTION
2
BLOCKS
0
BLOCK
5
20
100
AcDbEntity
100
AcDbBlockBegin
2
*MODEL_SPACE
0
ENDBLK
5
21
100
AcDbEntity
100
AcDbBlockEnd
0
BLOCK
5
1C
100
AcDbEntity
100
AcDbBlockBegin
2
*PAPER_SPACE
0
ENDBLK
5
1D
100
AcDbEntity
100
AcDbBlockEnd
0
ENDSEC
0
SECTION
2
ENTITIES
0
ARC
5
100
100
AcDbEntity
8
0
100
AcDbCircle
10
-14.300986652351678
20
2.941611652351682
30
0
40
0.12499999999999772
100
AcDbArc
50
45.000000000000568
51
225.00000000000057
0
LINE
5
101
100
AcDbEntity
8
0
100
AcDbLine
10
-14.212598304703363
20
3.0299999999999994
30
0
11
-13.640625
21
3.0299999999999994
31
0
0
LINE
5
102
100
AcDbEntity
8
0
100
AcDbLine
10
-13.640625
20
3.0299999999999994
30
0
11
-13.640625
21
4.9999999999999991
31
0
0
LINE
5
103
100
AcDbEntity
8
0
100
AcDbLine
10
-13.640625
20
4.9999999999999991
30
0
11
-16.359375
21
4.9999999999999991
31
0
0
LINE
5
104
100
AcDbEntity
8
0
100
AcDbLine
10
-16.359375
20
4.9999999999999991
30
0
11
-16.359375
21
-4.9999999999999991
31
0
0
LINE
5
105
100
AcDbEntity
8
0
100
AcDbLine
10
-16.359375
20
-4.9999999999999991
30
0
11
-13.640625
21
-4.9999999999999991
31
0
0
LINE
5
106
100
AcDbEntity
8
0
100
AcDbLine
10
-13.640625
20
-4.9999999999999991
30
0
11
-13.640625
21
-3.0300000000000002
31
0
0
LINE
5
107
100
AcDbEntity
8
0
100
AcDbLine
10
-13.640625
20
-3.0300000000000002
30
0
11
-14.212598304703363
21
-3.0300000000000002
31
0
0
ARC
5
108
100
AcDbEntity
8
0
100
AcDbCircle
10
-14.300986652351678
20
-2.9416116523516824
30
0
40
0.12499999999999944
100
AcDbArc
50
135.0000000000006
51
314.99999999999932
0
LINE
5
109
100
AcDbEntity
8
0
100
AcDbLine
10
-14.389374999999998
20
-2.853223304703365
30
0
11
-14.389374999999999
21
-1.1467766952966338
31
0
0
ARC
5
110
100
AcDbEntity
8
0
100
AcDbCircle
10
-14.300986652351678
20
-1.0583883476483167
30
0
40
0.12499999999999772
100
AcDbArc
50
45.000000000000604
51
224.99999999999878
0
LINE
5
111
100
AcDbEntity
8
0
100
AcDbLine
10
-14.212598304703363
20
-0.9699999999999992
30
0
11
-13.640625
21
-0.96999999999999953
31
0
0
LINE
5
112
100
AcDbEntity
8
0
100
AcDbLine
10
-13.640625
20
-0.96999999999999953
30
0
11
-13.640625
21
0.96999999999999953
31
0
0
LINE
5
113
100
AcDbEntity
8
0
100
AcDbLine
10
-13.640625
20
0.96999999999999953
30
0
11
-14.212598304703363
21
0.96999999999999953
31
0
0
ARC
5
114
100
AcDbEntity
8
0
100
AcDbCircle
10
-14.300986652351678
20
1.0583883476483189
30
0
40
0.12499999999999994
100
AcDbArc
50
135.00000000000196
51
314.99999999999881
0
LINE
5
115
100
AcDbEntity
8
0
100
AcDbLine
10
-14.389374999999999
20
1.1467766952966338
30
0
11
-14.389374999999994
21
2.8532233047033646
31
0
0
ARC
5
116
100
AcDbEntity
8
0
100
AcDbCircle
10
-9.2909866523516822
20
2.9316116523516809
30
0
40
0.12499999999999971
100
AcDbArc
50
44.999999999999858
51
225.00000000000057
0
LINE
5
117
100
AcDbEntity
8
0
100
AcDbLine
10
-9.202598304703363
20
3.0199999999999996
30
0
11
-8.640625
21
3.0199999999999991
31
0
0
LINE
5
118
100
AcDbEntity
8
0
100
AcDbLine
10
-8.640625
20
3.0199999999999991
30
0
11
-8.640625
21
4.9999999999999991
31
0
0
LINE
5
119
100
AcDbEntity
8
0
100
AcDbLine
10
-8.640625
20
4.9999999999999991
30
0
11
-11.359375
21
4.9999999999999991
31
0
0
LINE
5
120
100
AcDbEntity
8
0
100
AcDbLine
10
-11.359375
20
4.9999999999999991
30
0
11
-11.359375
21
-4.9999999999999991
31
0
0
LINE
5
121
100
AcDbEntity
8
0
100
AcDbLine
10
-11.359375
20
-4.9999999999999991
30
0
11
-8.640625
21
-4.9999999999999991
31
0
0
LINE
5
122
100
AcDbEntity
8
0
100
AcDbLine
10
-8.640625
20
-4.9999999999999991
30
0
11
-8.640625
21
-3.0199999999999996
31
0
0
LINE
5
123
100
AcDbEntity
8
0
100
AcDbLine
10
-8.640625
20
-3.0199999999999996
30
0
11
-9.2025983047033648
21
-3.0199999999999996
31
0
0
ARC
5
124
100
AcDbEntity
8
0
100
AcDbCircle
10
-9.2909866523516822
20
-2.93161165235168
30
0
40
0.12499999999999895
100
AcDbArc
50
134.99999999999943
51
314.99999999999932
0
LINE
5
125
100
AcDbEntity
8
0
100
AcDbLine
10
-9.3793749999999996
20
-2.8432233047033608
30
0
11
-9.3793749999999996
21
-1.1567766952966358
31
0
0
ARC
5
126
100
AcDbEntity
8
0
100
AcDbCircle
10
-9.2909866523516822
20
-1.0683883476483167
30
0
40
0.12499999999999921
100
AcDbArc
50
44.999999999999709
51
225.00000000000057
0
LINE
5
127
100
AcDbEntity
8
0
100
AcDbLine
10
-9.202598304703363
20
-0.97999999999999843
30
0
11
-8.640625
21
-0.97999999999999932
31
0
0
LINE
5
128
100
AcDbEntity
8
0
100
AcDbLine
10
-8.640625
20
-0.97999999999999932
30
0
11
-8.640625
21
0.97999999999999932
31
0
0
LINE
5
129
100
AcDbEntity
8
0
100
AcDbLine
10
-8.640625
20
0.97999999999999932
30
0
11
-9.202598304703363
21
0.97999999999999865
31
0
0
ARC
5
130
100
AcDbEntity
8
0
100
AcDbCircle
10
-9.2909866523516822
20
1.0683883476483176
30
0
40
0.12500000000000019
100
AcDbArc
50
134.99999999999972
51
315.00000000000006
0
LINE
5
131
100
AcDbEntity
8
0
100
AcDbLine
10
-9.3793749999999996
20
1.1567766952966358
30
0
11
-9.3793749999999996
21
2.8432233047033617
31
0
0
LWPOLYLINE
5
132
100
AcDbEntity
8
0
100
AcDbPolyline
90
16
70
1
43
0.0
10
-4.192598304703365
20
0.99000000000000055
42
-0.99999999999999989
10
-4.3693750000000016
20
1.1667766952966376
10
-4.3693750000000016
20
2.8332233047033628
42
-0.99999999999999989
10
-4.1925983047033633
20
3.0099999999999993
10
-3.6406250000000009
20
3.0099999999999993
10
-3.6406250000000009
20
4.9999999999999991
10
-6.3593750000000009
20
4.9999999999999991
10
-6.3593750000000009
20
-4.9999999999999991
10
-3.6406250000000009
20
-4.9999999999999991
10
-3.6406250000000009
20
-3.0100000000000007
10
-4.192598304703365
20
-3.0100000000000007
42
-0.99999999999999989
10
-4.3693750000000016
20
-2.8332233047033628
10
-4.3693750000000025
20
-1.1667766952966356
42
-0.99999999999999989
10
-4.1925983047033633
20
-0.99000000000000055
10
-3.6406250000000009
20
-0.98999999999999977
10
-3.6406250000000009
20
0.98999999999999977
0
ARC
5
133
100
AcDbEntity
8
0
100
AcDbCircle
10
0.72901334764831816
20
1.0883883476483178
30
0
40
0.12499999999999971
100
AcDbArc
50
135.00000000000043
51
315.00000000000045
0
LINE
5
134
100
AcDbEntity
8
0
100
AcDbLine
10
0.64062499999999922
20
1.1767766952966354
30
0
11
0.64062499999999911
21
2.8232233047033635
31
0
0
ARC
5
135
100
AcDbEntity
8
0
100
AcDbCircle
10
0.72901334764831827
20
2.9116116523516808
30
0
40
0.12499999999999971
100
AcDbArc
50
45.000000000000533
51
224.99999999999943
0
LINE
5
136
100
AcDbEntity
8
0
100
AcDbLine
10
0.81740169529663576
20
3
30
0
11
1.359375
21
2.9999999999999996
31
0
0
LINE
5
137
100
AcDbEntity
8
0
100
AcDbLine
10
1.359375
20
2.9999999999999996
30
0
11
1.359375
21
4.9999999999999991
31
0
0
LINE
5
138
100
AcDbEntity
8
0
100
AcDbLine
10
1.359375
20
4.9999999999999991
30
0
11
-1.3593750000000007
21
4.9999999999999991
31
0
0
LINE
5
139
100
AcDbEntity
8
0
100
AcDbLine
10
-1.3593750000000007
20
4.9999999999999991
30
0
11
-1.3593750000000007
21
-4.9999999999999991
31
0
0
LINE
5
140
100
AcDbEntity
8
0
100
AcDbLine
10
-1.3593750000000007
20
-4.9999999999999991
30
0
11
1.359375
21
-4.9999999999999991
31
0
0
LINE
5
141
100
AcDbEntity
8
0
100
AcDbLine
10
1.359375
20
-4.9999999999999991
30
0
11
1.359375
21
-3
31
0
0
LINE
5
142
100
AcDbEntity
8
0
100
AcDbLine
10
1.359375
20
-3
30
0
11
0.81740169529663564
21
-3
31
0
0
ARC
5
143
100
AcDbEntity
8
0
100
AcDbCircle
10
0.72901334764831804
20
-2.9116116523516813
30
0
40
0.12499999999999964
100
AcDbArc
50
135.00000000000048
51
314.99999999999966
0
LINE
5
144
100
AcDbEntity
8
0
100
AcDbLine
10
0.64062499999999922
20
-2.8232233047033639
30
0
11
0.64062499999999911
21
-1.1767766952966354
31
0
0
ARC
5
145
100
AcDbEntity
8
0
100
AcDbCircle
10
0.72901334764831804
20
-1.0883883476483178
30
0
40
0.12499999999999957
100
AcDbArc
50
45.000000000000291
51
224.99999999999957
0
LINE
5
146
100
AcDbEntity
8
0
100
AcDbLine
10
0.81740169529663576
20
-0.99999999999999922
30
0
11
1.359375
21
-0.99999999999999956
31
0
0
LINE
5
147
100
AcDbEntity
8
0
100
AcDbLine
10
1.359375
20
-0.99999999999999956
30
0
11
1.359375
21
0.99999999999999956
31
0
0
LINE
5
148
100
AcDbEntity
8
0
100
AcDbLine
10
1.359375
20
0.99999999999999956
30
0
11
0.8174016952966372
21
1.0000000000000002
31
0
0
ARC
5
149
100
AcDbEntity
8
0
100
AcDbCircle
10
4.052236539712978
20
3.0883883776853045
30
0
40
0.12500000000000117
100
AcDbArc
50
-135
51
44.999999999999709
0
LINE
5
150
100
AcDbEntity
8
0
100
AcDbLine
10
3.9638481920646589
20
3.0000000300369853
30
0
11
3.421874887361299
21
3.0000000300369858
31
0
0
LINE
5
151
100
AcDbEntity
8
0
100
AcDbLine
10
3.421874887361299
20
3.0000000300369858
30
0
11
3.421874887361299
21
1.000000030036986
31
0
0
LINE
5
152
100
AcDbEntity
8
0
100
AcDbLine
10
3.421874887361299
20
1.000000030036986
30
0
11
3.9638481920646593
21
1.000000030036986
31
0
0
ARC
5
153
100
AcDbEntity
8
0
100
AcDbCircle
10
4.052236539712978
20
0.91161168238866741
30
0
40
0.12500000000000105
100
AcDbArc
50
-45.000000000000099
51
135.00000000000006
0
LINE
5
154
100
AcDbEntity
8
0
100
AcDbLine
10
4.1406248873612972
20
0.82322333474034792
30
0
11
4.1406248873612972
21
-0.82322321459240333
31
0
0
ARC
5
155
100
AcDbEntity
8
0
100
AcDbCircle
10
4.052236539712978
20
-0.91161156224072293
30
0
40
0.12500000000000103
100
AcDbArc
50
-135.00000000000017
51
45.000000000000135
0
LINE
5
156
100
AcDbEntity
8
0
100
AcDbLine
10
3.9638481920646589
20
-0.99999990988904164
30
0
11
3.421874887361299
21
-0.99999990988904119
31
0
0
LINE
5
157
100
AcDbEntity
8
0
100
AcDbLine
10
3.421874887361299
20
-0.99999990988904119
30
0
11
3.421874887361299
21
-2.9999999098890404
31
0
0
LINE
5
158
100
AcDbEntity
8
0
100
AcDbLine
10
3.421874887361299
20
-2.9999999098890404
30
0
11
3.9638481920646593
21
-2.9999999098890404
31
0
0
ARC
5
159
100
AcDbEntity
8
0
100
AcDbCircle
10
4.052236539712978
20
-3.0883882575373591
30
0
40
0.12500000000000069
100
AcDbArc
50
-45
51
135
0
LINE
5
160
100
AcDbEntity
8
0
100
AcDbLine
10
4.1406248873612972
20
-3.1767766051856783
30
0
11
4.1406248873612972
21
-4.9999999999999991
31
0
0
LINE
5
161
100
AcDbEntity
8
0
100
AcDbLine
10
4.1406248873612972
20
-4.9999999999999991
30
0
11
6.140624887361299
21
-4.9999999999999991
31
0
0
LINE
5
162
100
AcDbEntity
8
0
100
AcDbLine
10
6.140624887361299
20
-4.9999999999999991
30
0
11
6.140624887361299
21
4.9999999999999991
31
0
0
LINE
5
163
100
AcDbEntity
8
0
100
AcDbLine
10
6.140624887361299
20
4.9999999999999991
30
0
11
4.1406248873612972
21
4.9999999999999991
31
0
0
LINE
5
164
100
AcDbEntity
8
0
100
AcDbLine
10
4.1406248873612972
20
4.9999999999999991
30
0
11
4.1406248873612981
21
3.1767767253336237
31
0
0
ARC
5
165
100
AcDbEntity
8
0
100
AcDbCircle
10
9.0522365397129807
20
3.0883883776853049
30
0
40
0.12500000000000094
100
AcDbArc
50
-134.99999999999986
51
44.999999999999858
0
LINE
5
166
100
AcDbEntity
8
0
100
AcDbLine
10
8.9638481920646615
20
3.0000000300369853
30
0
11
8.4218748873612981
21
3.0000000300369858
31
0
0
LINE
5
167
100
AcDbEntity
8
0
100
AcDbLine
10
8.4218748873612981
20
3.0000000300369858
30
0
11
8.4218748873612981
21
1.0200000300369862
31
0
0
LINE
5
168
100
AcDbEntity
8
0
100
AcDbLine
10
8.4218748873612981
20
1.0200000300369862
30
0
11
8.9638481920646615
21
1.0200000300369862
31
0
0
ARC
5
169
100
AcDbEntity
8
0
100
AcDbCircle
10
9.0522365397129807
20
0.93161168238866865
30
0
40
0.1250000000000008
100
AcDbArc
50
-45.000000000001016
51
135.00000000000051
0
LINE
5
170
100
AcDbEntity
8
0
100
AcDbLine
10
9.1406248873612981
20
0.84322333474034816
30
0
11
9.1406248873612999
21
-0.82322321459240333
31
0
0
ARC
5
171
100
AcDbEntity
8
0
100
AcDbCircle
10
9.0522365397129807
20
-0.91161156224072293
30
0
40
0.12500000000000155
100
AcDbArc
50
-135.00000000000074
51
45.000001207418123
0
LINE
5
172
100
AcDbEntity
8
0
100
AcDbLine
10
8.9638481920646598
20
-0.99999990988904164
30
0
11
8.4218748873612981
21
-0.99999990988904119
31
0
0
LINE
5
173
100
AcDbEntity
8
0
100
AcDbLine
10
8.4218748873612981
20
-0.99999990988904119
30
0
11
8.4218748873612981
21
-2.9799999098890395
31
0
0
LINE
5
174
100
AcDbEntity
8
0
100
AcDbLine
10
8.4218748873612981
20
-2.9799999098890395
30
0
11
8.9638481920646615
21
-2.9799999098890395
31
0
0
ARC
5
175
100
AcDbEntity
8
0
100
AcDbCircle
10
9.0522365397129807
20
-3.0683882575373582
30
0
40
0.12500000000000069
100
AcDbArc
50
-45
51
135.00000000000017
0
LINE
5
176
100
AcDbEntity
8
0
100
AcDbLine
10
9.1406248873612999
20
-3.1567766051856774
30
0
11
9.1406248873612999
21
-4.9999999999999991
31
0
0
LINE
5
177
100
AcDbEntity
8
0
100
AcDbLine
10
9.1406248873612999
20
-4.9999999999999991
30
0
11
11.140624887361298
21
-4.9999999999999991
31
0
0
LINE
5
178
100
AcDbEntity
8
0
100
AcDbLine
10
11.140624887361298
20
-4.9999999999999991
30
0
11
11.140624887361298
21
4.9999999999999991
31
0
0
LINE
5
179
100
AcDbEntity
8
0
100
AcDbLine
10
11.140624887361298
20
4.9999999999999991
30
0
11
9.1406248873612999
21
4.9999999999999991
31
0
0
LINE
5
180
100
AcDbEntity
8
0
100
AcDbLine
10
9.1406248873612999
20
4.9999999999999991
30
0
11
9.1406248873612999
21
3.1767767253336237
31
0
0
ENDSEC
0
SECTION
2
OBJECTS
0
DICTIONARY
5
C
100
AcDbDictionary
3
ACAD_GROUP
350
D
3
ACAD_MLINESTYLE
350
17
0
DICTIONARY
5
D
100
AcDbDictionary
0
DICTIONARY
5
1A
330
C
100
AcDbDictionary
0
DICTIONARY
5
17
100
AcDbDictionary
0
ENDSEC
0
EOF
