0
SECTION
2
HEADER
9
$INSUNITS
70
1
9
$ACADVER
1
AC1014
9
$HANDSEED
5
FFFF
0
ENDSEC
0
SECTION
2
TABLES
0
TABLE
2
VPORT
5
8
100
AcDbSymbolTable
0
ENDTAB
0
TABLE
2
LTYPE
5
5
100
AcDbSymbolTable
0
LTYPE
5
14
100
AcDbSymbolTableRecord
100
AcDbLinetypeTableRecord
2
BYBLOCK
70
0
0
LTYPE
5
15
100
AcDbSymbolTableRecord
100
AcDbLinetypeTableRecord
2
BYLAYER
70
0
0
ENDTAB
0
TABLE
2
LAYER
5
2
100
AcDbSymbolTable
70
2
0
LAYER
5
50
100
AcDbSymbolTableRecord
100
AcDbLayerTableRecord
2
0
70
0
6
CONTINUOUS
0
ENDTAB
0
TABLE
2
STYLE
5
3
100
AcDbSymbolTable
70
1
0
STYLE
5
11
100
AcDbSymbolTableRecord
100
AcDbTextStyleTableRecord
2
STANDARD
70
0
0
ENDTAB
0
TABLE
2
VIEW
5
6
100
AcDbSymbolTable
70
0
0
ENDTAB
0
TABLE
2
UCS
5
7
100
AcDbSymbolTable
70
0
0
ENDTAB
0
TABLE
2
APPID
5
9
100
AcDbSymbolTable
70
2
0
APPID
5
12
100
AcDbSymbolTableRecord
100
AcDbRegAppTableRecord
2
ACAD
70
0
0
ENDTAB
0
TABLE
2
DIMSTYLE
5
A
100
AcDbSymbolTable
70
1
0
ENDTAB
0
TABLE
2
BLOCK_RECORD
5
1
100
AcDbSymbolTable
70
1
0
BLOCK_RECORD
5
1F
100
AcDbSymbolTableRecord
100
AcDbBlockTableRecord
2
*MODEL_SPACE
0
BLOCK_RECORD
5
1B
100
AcDbSymbolTableRecord
100
AcDbBlockTableRecord
2
*PAPER_SPACE
0
ENDTAB
0
ENDSEC
0
SECTION
2
BLOCKS
0
BLOCK
5
20
100
AcDbEntity
100
AcDbBlockBegin
2
*MODEL_SPACE
0
ENDBLK
5
21
100
AcDbEntity
100
AcDbBlockEnd
0
BLOCK
5
1C
100
AcDbEntity
100
AcDbBlockBegin
2
*PAPER_SPACE
0
ENDBLK
5
1D
100
AcDbEntity
100
AcDbBlockEnd
0
ENDSEC
0
SECTION
2
ENTITIES
0
ARC
5
100
100
AcDbEntity
8
0
100
AcDbCircle
10
-3.2709866523516817
20
1.1083883476483185
30
0
40
0.12499999999999994
100
AcDbArc
50
135.00000000000031
51
315.00000000000034
0
LINE
5
101
100
AcDbEntity
8
0
100
AcDbLine
10
-3.3593750000000004
20
1.1967766952966363
30
0
11
-3.359375
21
2.8032233047033626
31
0
0
ARC
5
102
100
AcDbEntity
8
0
100
AcDbCircle
10
-3.2709866523516817
20
2.8916116523516808
30
0
40
0.12500000000000042
100
AcDbArc
50
44.999999999999709
51
225
0
LINE
5
103
100
AcDbEntity
8
0
100
AcDbLine
10
-3.1825983047033626
20
2.9799999999999991
30
0
11
-2.6406249999999996
21
2.9799999999999995
31
0
0
LINE
5
104
100
AcDbEntity
8
0
100
AcDbLine
10
-2.6406249999999996
20
2.9799999999999995
30
0
11
-2.6406249999999996
21
4.9999999999999991
31
0
0
LINE
5
105
100
AcDbEntity
8
0
100
AcDbLine
10
-2.6406249999999996
20
4.9999999999999991
30
0
11
-5.359375
21
4.9999999999999991
31
0
0
LINE
5
106
100
AcDbEntity
8
0
100
AcDbLine
10
-5.359375
20
4.9999999999999991
30
0
11
-5.359375
21
-4.9999999999999991
31
0
0
LINE
5
107
100
AcDbEntity
8
0
100
AcDbLine
10
-5.359375
20
-4.9999999999999991
30
0
11
-2.6406249999999996
21
-4.9999999999999991
31
0
0
LINE
5
108
100
AcDbEntity
8
0
100
AcDbLine
10
-2.6406249999999996
20
-4.9999999999999991
30
0
11
-2.6406249999999996
21
-2.9800000000000004
31
0
0
LINE
5
109
100
AcDbEntity
8
0
100
AcDbLine
10
-2.6406249999999996
20
-2.9800000000000004
30
0
11
-3.1825983047033635
21
-2.9800000000000004
31
0
0
ARC
5
110
100
AcDbEntity
8
0
100
AcDbCircle
10
-3.2709866523516808
20
-2.8916116523516813
30
0
40
0.12500000000000069
100
AcDbArc
50
135.00000000000043
51
314.99999999999943
0
LINE
5
111
100
AcDbEntity
8
0
100
AcDbLine
10
-3.3593750000000004
20
-2.803223304703363
30
0
11
-3.359375
21
-1.1967766952966363
31
0
0
ARC
5
112
100
AcDbEntity
8
0
100
AcDbCircle
10
-3.2709866523516808
20
-1.1083883476483185
30
0
40
0.12499999999999994
100
AcDbArc
50
44.999999999999787
51
224.99999999999957
0
LINE
5
113
100
AcDbEntity
8
0
100
AcDbLine
10
-3.1825983047033621
20
-1.0200000000000005
30
0
11
-2.6406249999999996
21
-1.0199999999999998
31
0
0
LINE
5
114
100
AcDbEntity
8
0
100
AcDbLine
10
-2.6406249999999996
20
-1.0199999999999998
30
0
11
-2.6406249999999996
21
1.0199999999999998
31
0
0
LINE
5
115
100
AcDbEntity
8
0
100
AcDbLine
10
-2.6406249999999996
20
1.0199999999999998
30
0
11
-3.1825983047033626
21
1.0200000000000005
31
0
0
ARC
5
116
100
AcDbEntity
8
0
100
AcDbCircle
10
0.72901334764831804
20
2.9016116523516806
30
0
40
0.12500000000000019
100
AcDbArc
50
45.000000000000291
51
225.00000000000017
0
LINE
5
117
100
AcDbEntity
8
0
100
AcDbLine
10
0.81740169529663631
20
2.9899999999999998
30
0
11
1.359375
21
2.9899999999999993
31
0
0
LINE
5
118
100
AcDbEntity
8
0
100
AcDbLine
10
1.359375
20
2.9899999999999993
30
0
11
1.359375
21
4.9999999999999991
31
0
0
LINE
5
119
100
AcDbEntity
8
0
100
AcDbLine
10
1.359375
20
4.9999999999999991
30
0
11
-1.359375
21
4.9999999999999991
31
0
0
LINE
5
120
100
AcDbEntity
8
0
100
AcDbLine
10
-1.359375
20
4.9999999999999991
30
0
11
-1.359375
21
-4.9999999999999991
31
0
0
LINE
5
121
100
AcDbEntity
8
0
100
AcDbLine
10
-1.359375
20
-4.9999999999999991
30
0
11
1.359375
21
-4.9999999999999991
31
0
0
LINE
5
122
100
AcDbEntity
8
0
100
AcDbLine
10
1.359375
20
-4.9999999999999991
30
0
11
1.359375
21
-2.9899999999999998
31
0
0
LINE
5
123
100
AcDbEntity
8
0
100
AcDbLine
10
1.359375
20
-2.9899999999999998
30
0
11
0.81740169529663631
21
-2.9899999999999998
31
0
0
ARC
5
124
100
AcDbEntity
8
0
100
AcDbCircle
10
0.72901334764831816
20
-2.9016116523516806
30
0
40
0.12500000000000031
100
AcDbArc
50
134.99999999999991
51
314.99999999999972
0
LINE
5
125
100
AcDbEntity
8
0
100
AcDbLine
10
0.64062499999999978
20
-2.8132233047033619
30
0
11
0.64062499999999989
21
-1.1867766952966365
31
0
0
ARC
5
126
100
AcDbEntity
8
0
100
AcDbCircle
10
0.72901334764831804
20
-1.0983883476483176
30
0
40
0.12500000000000031
100
AcDbArc
50
45.000000000000291
51
224.99999879258201
0
LINE
5
127
100
AcDbEntity
8
0
100
AcDbLine
10
0.81740169529663631
20
-1.0099999999999985
30
0
11
1.359375
21
-1.0099999999999993
31
0
0
LINE
5
128
100
AcDbEntity
8
0
100
AcDbLine
10
1.359375
20
-1.0099999999999993
30
0
11
1.359375
21
1.0099999999999993
31
0
0
LINE
5
129
100
AcDbEntity
8
0
100
AcDbLine
10
1.359375
20
1.0099999999999993
30
0
11
0.81740169529663631
21
1.0099999999999987
31
0
0
ARC
5
130
100
AcDbEntity
8
0
100
AcDbCircle
10
0.72901334764831804
20
1.0983883476483176
30
0
40
0.12500000000000025
100
AcDbArc
50
134.9999999999998
51
314.99999999999977
0
LINE
5
131
100
AcDbEntity
8
0
100
AcDbLine
10
0.64062499999999978
20
1.1867766952966365
30
0
11
0.64062499999999989
21
2.8132233047033619
31
0
0
ARC
5
132
100
AcDbEntity
8
0
100
AcDbCircle
10
4.7290133476483174
20
2.9116116523516808
30
0
40
0.12499999999999971
100
AcDbArc
50
45.000000000000291
51
224.99999879258218
0
LINE
5
133
100
AcDbEntity
8
0
100
AcDbLine
10
4.8174016952966356
20
3
30
0
11
5.359375
21
2.9999999999999996
31
0
0
LINE
5
134
100
AcDbEntity
8
0
100
AcDbLine
10
5.359375
20
2.9999999999999996
30
0
11
5.359375
21
4.9999999999999991
31
0
0
LINE
5
135
100
AcDbEntity
8
0
100
AcDbLine
10
5.359375
20
4.9999999999999991
30
0
11
2.6406249999999996
21
4.9999999999999991
31
0
0
LINE
5
136
100
AcDbEntity
8
0
100
AcDbLine
10
2.6406249999999996
20
4.9999999999999991
30
0
11
2.6406249999999996
21
-4.9999999999999991
31
0
0
LINE
5
137
100
AcDbEntity
8
0
100
AcDbLine
10
2.6406249999999996
20
-4.9999999999999991
30
0
11
5.359375
21
-4.9999999999999991
31
0
0
LINE
5
138
100
AcDbEntity
8
0
100
AcDbLine
10
5.359375
20
-4.9999999999999991
30
0
11
5.359375
21
-3
31
0
0
LINE
5
139
100
AcDbEntity
8
0
100
AcDbLine
10
5.359375
20
-3
30
0
11
4.8174016952966356
21
-3
31
0
0
ARC
5
140
100
AcDbEntity
8
0
100
AcDbCircle
10
4.7290133476483183
20
-2.9116116523516813
30
0
40
0.12500000000000019
100
AcDbArc
50
135.0000000000006
51
314.99999999999955
0
LINE
5
141
100
AcDbEntity
8
0
100
AcDbLine
10
4.6406249999999991
20
-2.8232233047033639
30
0
11
4.6406249999999991
21
-1.1767766952966354
31
0
0
ARC
5
142
100
AcDbEntity
8
0
100
AcDbCircle
10
4.7290133476483174
20
-1.0883883476483178
30
0
40
0.12499999999999944
100
AcDbArc
50
45.000000000000107
51
224.99999999999977
0
LINE
5
143
100
AcDbEntity
8
0
100
AcDbLine
10
4.8174016952966356
20
-0.99999999999999922
30
0
11
5.359375
21
-0.99999999999999956
31
0
0
LINE
5
144
100
AcDbEntity
8
0
100
AcDbLine
10
5.359375
20
-0.99999999999999956
30
0
11
5.359375
21
0.99999999999999956
31
0
0
LINE
5
145
100
AcDbEntity
8
0
100
AcDbLine
10
5.359375
20
0.99999999999999956
30
0
11
4.8174016952966356
21
0.99999999999999956
31
0
0
ARC
5
146
100
AcDbEntity
8
0
100
AcDbCircle
10
4.7290133476483174
20
1.0883883476483178
30
0
40
0.12499999999999971
100
AcDbArc
50
135.00000000000023
51
315
0
LINE
5
147
100
AcDbEntity
8
0
100
AcDbLine
10
4.6406249999999991
20
1.1767766952966354
30
0
11
4.6406249999999991
21
2.8232233047033635
31
0
0
ARC
5
148
100
AcDbEntity
8
0
100
AcDbCircle
10
7.0522365397129816
20
-3.0883882575373596
30
0
40
0.12499999999999944
100
AcDbArc
50
-44.999999999999694
51
135.00000000000074
0
LINE
5
149
100
AcDbEntity
8
0
100
AcDbLine
10
7.1406248873612999
20
-3.1767766051856769
30
0
11
7.1406248873612999
21
-4.9999999999999991
31
0
0
LINE
5
150
100
AcDbEntity
8
0
100
AcDbLine
10
7.1406248873612999
20
-4.9999999999999991
30
0
11
9.1406248873612999
21
-4.9999999999999991
31
0
0
LINE
5
151
100
AcDbEntity
8
0
100
AcDbLine
10
9.1406248873612999
20
-4.9999999999999991
30
0
11
9.1406248873612999
21
4.9999999999999991
31
0
0
LINE
5
152
100
AcDbEntity
8
0
100
AcDbLine
10
9.1406248873612999
20
4.9999999999999991
30
0
11
7.1406248873612999
21
4.9999999999999991
31
0
0
LINE
5
153
100
AcDbEntity
8
0
100
AcDbLine
10
7.1406248873612999
20
4.9999999999999991
30
0
11
7.1406248873612999
21
3.1767767253336223
31
0
0
ARC
5
154
100
AcDbEntity
8
0
100
AcDbCircle
10
7.0522365397129816
20
3.0883883776853049
30
0
40
0.12499999999999971
100
AcDbArc
50
-134.99999999999972
51
44.999999999999709
0
LINE
5
155
100
AcDbEntity
8
0
100
AcDbLine
10
6.9638481920646633
20
3.0000000300369858
30
0
11
6.4218748873613007
21
3.0000000300369858
31
0
0
LINE
5
156
100
AcDbEntity
8
0
100
AcDbLine
10
6.4218748873613007
20
3.0000000300369858
30
0
11
6.4218748873613007
21
1.000000030036986
31
0
0
LINE
5
157
100
AcDbEntity
8
0
100
AcDbLine
10
6.4218748873613007
20
1.000000030036986
30
0
11
6.9638481920646633
21
1.000000030036986
31
0
0
ARC
5
158
100
AcDbEntity
8
0
100
AcDbCircle
10
7.0522365397129816
20
0.91161168238866741
30
0
40
0.12499999999999944
100
AcDbArc
50
-44.999999999999652
51
134.99999999999991
0
LINE
5
159
100
AcDbEntity
8
0
100
AcDbLine
10
7.1406248873612999
20
0.82322333474035025
30
0
11
7.1406248873612999
21
-0.82322321459240544
31
0
0
ARC
5
160
100
AcDbEntity
8
0
100
AcDbCircle
10
7.0522365397129816
20
-0.91161156224072259
30
0
40
0.12499999999999971
100
AcDbArc
50
-134.9999999999998
51
44.999999999999638
0
LINE
5
161
100
AcDbEntity
8
0
100
AcDbLine
10
6.9638481920646633
20
-0.99999990988904153
30
0
11
6.4218748873613007
21
-0.99999990988904119
31
0
0
LINE
5
162
100
AcDbEntity
8
0
100
AcDbLine
10
6.4218748873613007
20
-0.99999990988904119
30
0
11
6.4218748873613007
21
-2.9999999098890404
31
0
0
LINE
5
163
100
AcDbEntity
8
0
100
AcDbLine
10
6.4218748873613007
20
-2.9999999098890404
30
0
11
6.9638481920646624
21
-2.9999999098890426
31
0
0
ENDSEC
0
SECTION
2
OBJECTS
0
DICTIONARY
5
C
100
AcDbDictionary
3
ACAD_GROUP
350
D
3
ACAD_MLINESTYLE
350
17
0
DICTIONARY
5
D
100
AcDbDictionary
0
DICTIONARY
5
1A
330
C
100
AcDbDictionary
0
DICTIONARY
5
17
100
AcDbDictionary
0
ENDSEC
0
EOF
