<?xml version="1.0" standalone="no"?>
 <!DOCTYPE svg PUBLIC "-//W3C//DTD SVG 1.1//EN" 
 "http://www.w3.org/Graphics/SVG/1.1/DTD/svg11.dtd"> 
<svg xmlns="http://www.w3.org/2000/svg" version="1.1" 
    width="4.01828cm" height="4.42722cm" viewBox="0 0 15820 17430 ">
<title>SVG Picture created as audio_board-brd.svg date 2017/12/09 13:23:27 </title>
  <desc>Picture generated by PCBNEW </desc>
<g style="fill:#000000; fill-opacity:1;stroke:#000000; stroke-opacity:1;
stroke-linecap:round; stroke-linejoin:round; "
 transform="translate(0 0) scale(1 1)">
</g>
<g style="fill:#000000; fill-opacity:0.0; 
stroke:#000000; stroke-width:-0.000393701; stroke-opacity:1; 
stroke-linecap:round; stroke-linejoin:round;">
</g>
<g style="fill:#000000; fill-opacity:0.0; 
stroke:#000000; stroke-width:75; stroke-opacity:1; 
stroke-linecap:round; stroke-linejoin:round;">
<path d="M3021 8065
L2878 8065
L2878 7765
" />
<path d="M3021 5865
L2921 5722
" />
<path d="M2850 5865
L2850 5565
L2964 5565
L2993 5579
L3007 5593
L3021 5622
L3021 5665
L3007 5693
L2993 5708
L2964 5722
L2850 5722
" />
<path d="M800 2179
L771 2165
L728 2165
L685 2179
L657 2208
L643 2236
L628 2293
L628 2336
L643 2393
L657 2422
L685 2450
L728 2465
L757 2465
L800 2450
L814 2436
L814 2336
L757 2336
" />
<path d="M943 2465
L943 2165
L1114 2465
L1114 2165
" />
<path d="M1257 2465
L1257 2165
L1328 2165
L1371 2179
L1400 2208
L1414 2236
L1428 2293
L1428 2336
L1414 2393
L1400 2422
L1371 2450
L1328 2465
L1257 2465
" />
<path d="M643 1350
L871 1350
" />
<path d="M757 1465
L757 1236
" />
<path d="M1157 1165
L1014 1165
L1000 1308
L1014 1293
L1043 1279
L1114 1279
L1143 1293
L1157 1308
L1171 1336
L1171 1408
L1157 1436
L1143 1450
L1114 1465
L1043 1465
L1014 1450
L1000 1436
" />
<path d="M1257 1165
L1357 1465
L1457 1165
" />
</g>
<g style="fill:#000000; fill-opacity:0.0; 
stroke:#000000; stroke-width:0; stroke-opacity:1; 
stroke-linecap:round; stroke-linejoin:round;">
</g>
<g style="fill:#000000; fill-opacity:1.0; 
stroke:#000000; stroke-width:0; stroke-opacity:1; 
stroke-linecap:round; stroke-linejoin:round;">
<polyline style="fill-rule:evenodd;"
points="5874,1064
6582,1064
6582,1693
5874,1693
5874,1064
" /> 
<polyline style="fill-rule:evenodd;"
points="5874,2166
6582,2166
6582,2795
5874,2795
5874,2166
" /> 
<polyline style="fill-rule:evenodd;"
points="9074,1064
9782,1064
9782,1693
9074,1693
9074,1064
" /> 
<polyline style="fill-rule:evenodd;"
points="9074,2166
9782,2166
9782,2795
9074,2795
9074,2166
" /> 
<polyline style="fill-rule:evenodd;"
points="10382,8595
9674,8595
9674,7966
10382,7966
10382,8595
" /> 
<polyline style="fill-rule:evenodd;"
points="10382,7493
9674,7493
9674,6864
10382,6864
10382,7493
" /> 
<polyline style="fill-rule:evenodd;"
points="6294,3575
6294,4283
5665,4283
5665,3575
6294,3575
" /> 
<polyline style="fill-rule:evenodd;"
points="5192,3575
5192,4283
4563,4283
4563,3575
5192,3575
" /> 
<polyline style="fill-rule:evenodd;"
points="11928,9279
11928,9779
10928,9779
10928,9279
11928,9279
" /> 
<polyline style="fill-rule:evenodd;"
points="11928,8279
11928,8779
10928,8779
10928,8279
11928,8279
" /> 
<polyline style="fill-rule:evenodd;"
points="11928,7279
11928,7779
10928,7779
10928,7279
11928,7279
" /> 
<polyline style="fill-rule:evenodd;"
points="11928,6279
11928,6779
10928,6779
10928,6279
11928,6279
" /> 
<polyline style="fill-rule:evenodd;"
points="11928,5279
11928,5779
10928,5779
10928,5279
11928,5279
" /> 
<polyline style="fill-rule:evenodd;"
points="11928,4279
11928,4779
10928,4779
10928,4279
11928,4279
" /> 
<polyline style="fill-rule:evenodd;"
points="5489,5597
5489,5457
5929,5457
5929,5597
5489,5597
" /> 
<polyline style="fill-rule:evenodd;"
points="5488,5912
5488,5772
5988,5772
5988,5912
5488,5912
" /> 
<polyline style="fill-rule:evenodd;"
points="5488,6227
5488,6087
5988,6087
5988,6227
5488,6227
" /> 
<polyline style="fill-rule:evenodd;"
points="5488,6542
5488,6402
5988,6402
5988,6542
5488,6542
" /> 
<polyline style="fill-rule:evenodd;"
points="5488,6856
5488,6716
5988,6716
5988,6856
5488,6856
" /> 
<polyline style="fill-rule:evenodd;"
points="5488,7171
5488,7031
5988,7031
5988,7171
5488,7171
" /> 
<polyline style="fill-rule:evenodd;"
points="5488,7486
5488,7346
5988,7346
5988,7486
5488,7486
" /> 
<polyline style="fill-rule:evenodd;"
points="5489,7801
5489,7661
5929,7661
5929,7801
5489,7801
" /> 
<polyline style="fill-rule:evenodd;"
points="6256,8568
6256,8128
6396,8128
6396,8568
6256,8568
" /> 
<polyline style="fill-rule:evenodd;"
points="6571,8569
6571,8069
6711,8069
6711,8569
6571,8569
" /> 
<polyline style="fill-rule:evenodd;"
points="6888,8569
6888,8069
7025,8069
7025,8569
6888,8569
" /> 
<polyline style="fill-rule:evenodd;"
points="7203,8569
7203,8069
7340,8069
7340,8569
7203,8569
" /> 
<polyline style="fill-rule:evenodd;"
points="7517,8569
7517,8069
7654,8069
7654,8569
7517,8569
" /> 
<polyline style="fill-rule:evenodd;"
points="7830,8569
7830,8069
7970,8069
7970,8569
7830,8569
" /> 
<polyline style="fill-rule:evenodd;"
points="8145,8569
8145,8069
8285,8069
8285,8569
8145,8569
" /> 
<polyline style="fill-rule:evenodd;"
points="8460,8568
8460,8128
8600,8128
8600,8568
8460,8568
" /> 
<polyline style="fill-rule:evenodd;"
points="8927,7801
8927,7661
9367,7661
9367,7801
8927,7801
" /> 
<polyline style="fill-rule:evenodd;"
points="8868,7486
8868,7346
9368,7346
9368,7486
8868,7486
" /> 
<polyline style="fill-rule:evenodd;"
points="8868,7171
8868,7031
9368,7031
9368,7171
8868,7171
" /> 
<polyline style="fill-rule:evenodd;"
points="8868,6856
8868,6716
9368,6716
9368,6856
8868,6856
" /> 
<polyline style="fill-rule:evenodd;"
points="8868,6542
8868,6402
9368,6402
9368,6542
8868,6542
" /> 
<polyline style="fill-rule:evenodd;"
points="8868,6227
8868,6087
9368,6087
9368,6227
8868,6227
" /> 
<polyline style="fill-rule:evenodd;"
points="8868,5912
8868,5772
9368,5772
9368,5912
8868,5912
" /> 
<polyline style="fill-rule:evenodd;"
points="8927,5597
8927,5457
9367,5457
9367,5597
8927,5597
" /> 
<polyline style="fill-rule:evenodd;"
points="8460,5130
8460,4690
8600,4690
8600,5130
8460,5130
" /> 
<polyline style="fill-rule:evenodd;"
points="8145,5189
8145,4689
8285,4689
8285,5189
8145,5189
" /> 
<polyline style="fill-rule:evenodd;"
points="7830,5189
7830,4689
7970,4689
7970,5189
7830,5189
" /> 
<polyline style="fill-rule:evenodd;"
points="7517,5189
7517,4689
7654,4689
7654,5189
7517,5189
" /> 
<polyline style="fill-rule:evenodd;"
points="7203,5189
7203,4689
7340,4689
7340,5189
7203,5189
" /> 
<polyline style="fill-rule:evenodd;"
points="6888,5189
6888,4689
7025,4689
7025,5189
6888,5189
" /> 
<polyline style="fill-rule:evenodd;"
points="6571,5189
6571,4689
6711,4689
6711,5189
6571,5189
" /> 
<polyline style="fill-rule:evenodd;"
points="6256,5130
6256,4690
6396,4690
6396,5130
6256,5130
" /> 
<polyline style="fill-rule:evenodd;"
points="8399,1321
8399,1872
8006,1872
8006,1321
8399,1321
" /> 
<polyline style="fill-rule:evenodd;"
points="7651,1321
7651,1872
7258,1872
7258,1321
7651,1321
" /> 
<polyline style="fill-rule:evenodd;"
points="8025,2187
8025,2738
7632,2738
7632,2187
8025,2187
" /> 
<polyline style="fill-rule:evenodd;"
points="1228,7679
1228,7179
2228,7179
2228,7679
1228,7679
" /> 
<polyline style="fill-rule:evenodd;"
points="3377,7679
3377,7179
4377,7179
4377,7679
3377,7679
" /> 
<polyline style="fill-rule:evenodd;"
points="1228,8679
1228,8179
2228,8179
2228,8679
1228,8679
" /> 
<polyline style="fill-rule:evenodd;"
points="3377,8679
3377,8179
4377,8179
4377,8679
3377,8679
" /> 
<polyline style="fill-rule:evenodd;"
points="1228,5479
1228,4979
2228,4979
2228,5479
1228,5479
" /> 
<polyline style="fill-rule:evenodd;"
points="3377,5479
3377,4979
4377,4979
4377,5479
3377,5479
" /> 
<polyline style="fill-rule:evenodd;"
points="1228,6479
1228,5979
2228,5979
2228,6479
1228,6479
" /> 
<polyline style="fill-rule:evenodd;"
points="3377,6479
3377,5979
4377,5979
4377,6479
3377,6479
" /> 
<polyline style="fill-rule:evenodd;"
points="1228,10379
1228,9879
2228,9879
2228,10379
1228,10379
" /> 
<polyline style="fill-rule:evenodd;"
points="3377,10379
3377,9879
4377,9879
4377,10379
3377,10379
" /> 
<polyline style="fill-rule:evenodd;"
points="1228,11379
1228,10879
2228,10879
2228,11379
1228,11379
" /> 
<polyline style="fill-rule:evenodd;"
points="3377,11379
3377,10879
4377,10879
4377,11379
3377,11379
" /> 
<polyline style="fill-rule:evenodd;"
points="1228,12379
1228,11879
2228,11879
2228,12379
1228,12379
" /> 
<polyline style="fill-rule:evenodd;"
points="3377,12379
3377,11879
4377,11879
4377,12379
3377,12379
" /> 
<polyline style="fill-rule:evenodd;"
points="3702,12875
3702,13584
3073,13584
3073,12875
3702,12875
" /> 
<polyline style="fill-rule:evenodd;"
points="2584,12875
2584,13584
1955,13584
1955,12875
2584,12875
" /> 
<polyline style="fill-rule:evenodd;"
points="5583,13603
4874,13603
4874,12974
5583,12974
5583,13603
" /> 
<polyline style="fill-rule:evenodd;"
points="5583,12485
4874,12485
4874,11856
5583,11856
5583,12485
" /> 
<polyline style="fill-rule:evenodd;"
points="4978,15829
4978,16429
4078,16429
4078,15829
4978,15829
" /> 
<polyline style="fill-rule:evenodd;"
points="2378,15829
2378,16429
1478,16429
1478,15829
2378,15829
" /> 
<polyline style="fill-rule:evenodd;"
points="4978,14029
4978,14629
4078,14629
4078,14029
4978,14029
" /> 
<polyline style="fill-rule:evenodd;"
points="2378,14029
2378,14629
1478,14629
1478,14029
2378,14029
" /> 
<polyline style="fill-rule:evenodd;"
points="5678,15679
5678,14679
6078,14679
6078,15679
5678,15679
" /> 
<polyline style="fill-rule:evenodd;"
points="11328,15679
11328,14679
11728,14679
11728,15679
11328,15679
" /> 
<polyline style="fill-rule:evenodd;"
points="6148,10219
6148,9619
6348,9619
6348,10219
6148,10219
" /> 
<polyline style="fill-rule:evenodd;"
points="6573,10219
6573,9619
6773,9619
6773,10219
6573,10219
" /> 
<polyline style="fill-rule:evenodd;"
points="6998,10219
6998,9619
7198,9619
7198,10219
6998,10219
" /> 
<polyline style="fill-rule:evenodd;"
points="7423,10219
7423,9619
7623,9619
7623,10219
7423,10219
" /> 
<polyline style="fill-rule:evenodd;"
points="7848,10219
7848,9619
8048,9619
8048,10219
7848,10219
" /> 
<polyline style="fill-rule:evenodd;"
points="8273,10219
8273,9619
8473,9619
8473,10219
8273,10219
" /> 
<polyline style="fill-rule:evenodd;"
points="8698,10219
8698,9619
8898,9619
8898,10219
8698,10219
" /> 
<polyline style="fill-rule:evenodd;"
points="9123,10219
9123,9619
9323,9619
9323,10219
9123,10219
" /> 
<polyline style="fill-rule:evenodd;"
points="9548,10219
9548,9619
9748,9619
9748,10219
9548,10219
" /> 
<polyline style="fill-rule:evenodd;"
points="11328,11929
11328,10929
11728,10929
11728,11929
11328,11929
" /> 
<polyline style="fill-rule:evenodd;"
points="1828,1579
1828,1079
2828,1079
2828,1579
1828,1579
" /> 
<polyline style="fill-rule:evenodd;"
points="3977,1579
3977,1079
4977,1079
4977,1579
3977,1579
" /> 
<polyline style="fill-rule:evenodd;"
points="1828,2579
1828,2079
2828,2079
2828,2579
1828,2579
" /> 
<polyline style="fill-rule:evenodd;"
points="3977,2579
3977,2079
4977,2079
4977,2579
3977,2579
" /> 
<polyline style="fill-rule:evenodd;"
points="5583,11403
4874,11403
4874,10774
5583,10774
5583,11403
" /> 
<polyline style="fill-rule:evenodd;"
points="5583,10285
4874,10285
4874,9656
5583,9656
5583,10285
" /> 
<polyline style="fill-rule:evenodd;"
points="10628,1679
10628,1179
11628,1179
11628,1679
10628,1679
" /> 
<polyline style="fill-rule:evenodd;"
points="12777,1679
12777,1179
13777,1179
13777,1679
12777,1679
" /> 
<polyline style="fill-rule:evenodd;"
points="10628,2679
10628,2179
11628,2179
11628,2679
10628,2679
" /> 
<polyline style="fill-rule:evenodd;"
points="12777,2679
12777,2179
13777,2179
13777,2679
12777,2679
" /> 
</g>
<g style="fill:#000000; fill-opacity:1.0; 
stroke:#000000; stroke-width:98.4252; stroke-opacity:1; 
stroke-linecap:round; stroke-linejoin:round;">
</g>
<g style="fill:#000000; fill-opacity:0.0; 
stroke:#000000; stroke-width:98.4252; stroke-opacity:1; 
stroke-linecap:round; stroke-linejoin:round;">
<path d="M6228 1378
L7236 1378
" />
<path d="M7236 1378
L7454 1596
" />
<path d="M4477 1329
L6179 1329
" />
<path d="M6179 1329
L6228 1378
" />
<path d="M2328 1329
L4477 1329
" />
<path d="M4477 1329
L4526 1378
" />
<path d="M5228 11088
L10669 11088
" />
<path d="M11428 10329
L11428 9529
" />
<path d="M10669 11088
L11428 10329
" />
<path d="M5228 9970
L5569 9970
" />
<path d="M5569 9970
L6028 10429
" />
<path d="M6028 10429
L7428 10429
" />
<path d="M7428 10429
L7523 10334
" />
<path d="M7523 10334
L7523 9919
" />
<path d="M5228 12170
L5228 11088
" />
<path d="M3877 12129
L5187 12129
" />
<path d="M5187 12129
L5228 12170
" />
<path d="M3877 12129
L3877 12478
" />
<path d="M928 9229
L1728 8429
" />
<path d="M928 14729
L928 9229
" />
<path d="M1428 15229
L928 14729
" />
<path d="M2428 15229
L1428 15229
" />
<path d="M4228 13429
L2428 15229
" />
<path d="M4228 12829
L4228 13429
" />
<path d="M3877 12478
L4228 12829
" />
<path d="M6228 2480
L7810 2480
" />
<path d="M7810 2480
L7828 2462
" />
<path d="M4477 2329
L6077 2329
" />
<path d="M6077 2329
L6228 2480
" />
<path d="M5709 5527
L6626 5527
" />
<path d="M8515 7416
L8528 7416
" />
<path d="M8528 7416
L9118 7416
" />
<path d="M6626 5527
L8515 7416
" />
<path d="M9118 7416
L9790 7416
" />
<path d="M9790 7416
L10028 7178
" />
<path d="M1728 7429
L1728 8429
" />
<path d="M1728 6229
L1728 7429
" />
<path d="M1728 5229
L1728 6229
" />
<path d="M2328 2329
L2328 4629
" />
<path d="M2328 4629
L1728 5229
" />
<path d="M4877 3929
L4877 4178
" />
<path d="M4877 4178
L5709 5010
" />
<path d="M5709 5010
L5709 5527
" />
<path d="M4477 2329
L4477 3529
" />
<path d="M4477 3529
L4877 3929
" />
<path d="M2328 2329
L4477 2329
" />
<path d="M4477 2329
L4628 2480
" />
<path d="M7810 2480
L9428 2480
" />
<path d="M11428 7529
L12028 7529
" />
<path d="M10077 729
L9428 1378
" />
<path d="M13828 729
L10077 729
" />
<path d="M14228 1129
L13828 729
" />
<path d="M14228 2829
L14228 1129
" />
<path d="M14028 3029
L14228 2829
" />
<path d="M13028 3029
L14028 3029
" />
<path d="M12528 3529
L13028 3029
" />
<path d="M12528 7029
L12528 3529
" />
<path d="M12028 7529
L12528 7029
" />
<path d="M9428 1378
L9877 1378
" />
<path d="M9877 1378
L10128 1629
" />
<path d="M10128 1629
L10128 2929
" />
<path d="M10128 2929
L9728 3329
" />
<path d="M9728 3329
L6579 3329
" />
<path d="M6579 3329
L5979 3929
" />
<path d="M3877 10129
L4028 10129
" />
<path d="M4028 10129
L4428 10529
" />
<path d="M8378 10479
L8373 10479
" />
<path d="M8028 10829
L8378 10479
" />
<path d="M6028 10829
L8028 10829
" />
<path d="M5728 10529
L6028 10829
" />
<path d="M4428 10529
L5728 10529
" />
<path d="M8373 9919
L8373 10479
" />
<path d="M8373 10479
L8373 10474
" />
<path d="M10528 8780
L10028 8280
" />
<path d="M10528 10329
L10528 8780
" />
<path d="M10028 10829
L10528 10329
" />
<path d="M8728 10829
L10028 10829
" />
<path d="M8373 10474
L8728 10829
" />
<path d="M3387 13229
L3387 12888
" />
<path d="M3387 12888
L2928 12429
" />
<path d="M2928 11078
L3877 10129
" />
<path d="M2928 12429
L2928 11078
" />
<path d="M5979 3929
L5979 4563
" />
<path d="M5979 4563
L6326 4910
" />
<path d="M10028 8280
L10377 8280
" />
<path d="M10377 8280
L11128 7529
" />
<path d="M11128 7529
L11428 7529
" />
<path d="M9147 7731
L9479 7731
" />
<path d="M9479 7731
L10028 8280
" />
<path d="M10028 8280
L10277 8280
" />
<path d="M11028 7529
L11428 7529
" />
<path d="M8202 1596
L9210 1596
" />
<path d="M9210 1596
L9428 1378
" />
<path d="M9118 6472
L11371 6472
" />
<path d="M11371 6472
L11428 6529
" />
<path d="M9118 6157
L10000 6157
" />
<path d="M10628 5529
L11428 5529
" />
<path d="M10000 6157
L10628 5529
" />
<path d="M3877 5229
L3877 6229
" />
<path d="M3877 6229
L3949 6157
" />
<path d="M3949 6157
L5738 6157
" />
<path d="M3877 8429
L3877 7429
" />
<path d="M3877 7429
L4834 6472
" />
<path d="M4834 6472
L5738 6472
" />
<path d="M1728 10129
L2728 9129
" />
<path d="M4941 7416
L5738 7416
" />
<path d="M4728 7629
L4941 7416
" />
<path d="M4728 8629
L4728 7629
" />
<path d="M4228 9129
L4728 8629
" />
<path d="M2728 9129
L4228 9129
" />
<path d="M2269 13229
L2269 13988
" />
<path d="M2269 13988
L1928 14329
" />
<path d="M1728 12129
L1728 12688
" />
<path d="M1728 12688
L2269 13229
" />
<path d="M5709 7731
L5226 7731
" />
<path d="M2528 11729
L2128 12129
" />
<path d="M2528 9829
L2528 11729
" />
<path d="M2828 9529
L2528 9829
" />
<path d="M4228 9529
L2828 9529
" />
<path d="M5028 8729
L4228 9529
" />
<path d="M5028 7929
L5028 8729
" />
<path d="M5226 7731
L5028 7929
" />
<path d="M2128 12129
L1728 12129
" />
<path d="M6326 8348
L6326 7931
" />
<path d="M8798 10299
L8798 9919
" />
<path d="M9028 10529
L8798 10299
" />
<path d="M9928 10529
L9028 10529
" />
<path d="M10028 10429
L9928 10529
" />
<path d="M10028 9629
L10028 10429
" />
<path d="M9828 9429
L10028 9629
" />
<path d="M9428 9029
L9828 9429
" />
<path d="M9428 8629
L9428 9029
" />
<path d="M8628 7829
L9428 8629
" />
<path d="M6428 7829
L8628 7829
" />
<path d="M6326 7931
L6428 7829
" />
<path d="M7098 9919
L7098 9599
" />
<path d="M6641 9142
L6641 8319
" />
<path d="M7098 9599
L6641 9142
" />
<path d="M7948 9919
L7948 9449
" />
<path d="M6956 8957
L6956 8319
" />
<path d="M7128 9129
L6956 8957
" />
<path d="M7628 9129
L7128 9129
" />
<path d="M7948 9449
L7628 9129
" />
<path d="M9223 9919
L9223 9424
" />
<path d="M7271 8772
L7271 8319
" />
<path d="M7328 8829
L7271 8772
" />
<path d="M8628 8829
L7328 8829
" />
<path d="M9223 9424
L8628 8829
" />
<path d="M4528 16129
L4528 15929
" />
<path d="M4528 15929
L5228 15229
" />
<path d="M5228 15229
L5228 13288
" />
<path d="M11128 1429
L13277 1429
" />
<path d="M8530 4910
L9247 4910
" />
<path d="M12028 1929
L11528 1429
" />
<path d="M12028 2629
L12028 1929
" />
<path d="M11528 3129
L12028 2629
" />
<path d="M11028 3129
L11528 3129
" />
<path d="M9247 4910
L11028 3129
" />
<path d="M11528 1429
L11128 1429
" />
</g>
<g style="fill:#FFFFFF; fill-opacity:0.0; 
stroke:#FFFFFF; stroke-width:98.4252; stroke-opacity:1; 
stroke-linecap:round; stroke-linejoin:round;">
</g>
<g style="fill:#000000; fill-opacity:0.0; 
stroke:#000000; stroke-width:98.4252; stroke-opacity:1; 
stroke-linecap:round; stroke-linejoin:round;">
</g>
<g style="fill:#000000; fill-opacity:0.0; 
stroke:#000000; stroke-width:59.0551; stroke-opacity:1; 
stroke-linecap:round; stroke-linejoin:round;">
<path d="M128 17229
L128 29
" />
<path d="M14728 17229
L128 17229
" />
<path d="M14728 29
L14728 17229
" />
<path d="M128 29
L14728 29
" />
</g> 
</svg>
