<?xml version="1.0" standalone="no"?>
 <!DOCTYPE svg PUBLIC "-//W3C//DTD SVG 1.1//EN" 
 "http://www.w3.org/Graphics/SVG/1.1/DTD/svg11.dtd"> 
<svg xmlns="http://www.w3.org/2000/svg" version="1.1" 
    width="4.2799cm" height="3.79984cm" viewBox="0 0 16850 14960 ">
<title>SVG Picture created as sit-sensor-brd.svg date 2017/12/09 13:12:13 </title>
  <desc>Picture generated by PCBNEW </desc>
<g style="fill:#000000; fill-opacity:1;stroke:#000000; stroke-opacity:1;
stroke-linecap:round; stroke-linejoin:round; "
 transform="translate(0 0) scale(1 1)">
</g>
<g style="fill:#000000; fill-opacity:0.0; 
stroke:#000000; stroke-width:-0.000393701; stroke-opacity:1; 
stroke-linecap:round; stroke-linejoin:round;">
</g>
<g style="fill:#000000; fill-opacity:0.0; 
stroke:#000000; stroke-width:80; stroke-opacity:1; 
stroke-linecap:round; stroke-linejoin:round;">
<path d="M596 13757
L615 13738
L653 13718
L748 13718
L786 13738
L805 13757
L824 13795
L824 13833
L805 13890
L577 14118
L824 14118
" />
<path d="M977 14004
L1167 14004
" />
<path d="M939 14118
L1072 13718
L1205 14118
" />
<path d="M1339 13966
L1643 13966
" />
<path d="M1491 14118
L1491 13814
" />
<path d="M596 12457
L615 12438
L653 12418
L748 12418
L786 12438
L805 12457
L824 12495
L824 12533
L805 12590
L577 12818
L824 12818
" />
<path d="M977 12704
L1167 12704
" />
<path d="M939 12818
L1072 12418
L1205 12818
" />
<path d="M1339 12666
L1643 12666
" />
<path d="M567 10857
L586 10838
L624 10818
L720 10818
L758 10838
L777 10857
L796 10895
L796 10933
L777 10990
L548 11218
L796 11218
" />
<path d="M1100 11009
L1158 11028
L1177 11047
L1196 11085
L1196 11142
L1177 11180
L1158 11199
L1120 11218
L967 11218
L967 10818
L1100 10818
L1139 10838
L1158 10857
L1177 10895
L1177 10933
L1158 10971
L1139 10990
L1100 11009
L967 11009
" />
<path d="M1367 11066
L1672 11066
" />
<path d="M1520 11218
L1520 10914
" />
<path d="M567 9557
L586 9538
L624 9518
L720 9518
L758 9538
L777 9557
L796 9595
L796 9633
L777 9690
L548 9918
L796 9918
" />
<path d="M1100 9709
L1158 9728
L1177 9747
L1196 9785
L1196 9842
L1177 9880
L1158 9899
L1120 9918
L967 9918
L967 9518
L1100 9518
L1139 9538
L1158 9557
L1177 9595
L1177 9633
L1158 9671
L1139 9690
L1100 9709
L967 9709
" />
<path d="M1367 9766
L1672 9766
" />
<path d="M724 7838
L686 7818
L629 7818
L572 7838
L534 7876
L515 7914
L496 7990
L496 8047
L515 8123
L534 8161
L572 8199
L629 8218
L667 8218
L724 8199
L743 8180
L743 8047
L667 8047
" />
<path d="M915 8218
L915 7818
L1143 8218
L1143 7818
" />
<path d="M1334 8218
L1334 7818
L1429 7818
L1486 7838
L1524 7876
L1543 7914
L1562 7990
L1562 8047
L1543 8123
L1524 8161
L1486 8199
L1429 8218
L1334 8218
" />
<path d="M496 6418
L629 6818
L762 6418
" />
<path d="M1124 6780
L1105 6799
L1048 6818
L1010 6818
L953 6799
L915 6761
L896 6723
L877 6647
L877 6590
L896 6514
L915 6476
L953 6438
L1010 6418
L1048 6418
L1105 6438
L1124 6457
" />
<path d="M1524 6780
L1505 6799
L1448 6818
L1410 6818
L1353 6799
L1315 6761
L1296 6723
L1277 6647
L1277 6590
L1296 6514
L1315 6476
L1353 6438
L1410 6418
L1448 6418
L1505 6438
L1524 6457
" />
<path d="M15496 14018
L15267 14018
" />
<path d="M15381 14018
L15381 13618
L15343 13676
L15305 13714
L15267 13733
" />
<path d="M15800 13809
L15858 13828
L15877 13847
L15896 13885
L15896 13942
L15877 13980
L15858 13999
L15820 14018
L15667 14018
L15667 13618
L15800 13618
L15839 13638
L15858 13657
L15877 13695
L15877 13733
L15858 13771
L15839 13790
L15800 13809
L15667 13809
" />
<path d="M16067 13866
L16372 13866
" />
<path d="M15496 12718
L15267 12718
" />
<path d="M15381 12718
L15381 12318
L15343 12376
L15305 12414
L15267 12433
" />
<path d="M15800 12509
L15858 12528
L15877 12547
L15896 12585
L15896 12642
L15877 12680
L15858 12699
L15820 12718
L15667 12718
L15667 12318
L15800 12318
L15839 12338
L15858 12357
L15877 12395
L15877 12433
L15858 12471
L15839 12490
L15800 12509
L15667 12509
" />
<path d="M16067 12566
L16372 12566
" />
<path d="M16220 12718
L16220 12414
" />
<path d="M15524 11118
L15296 11118
" />
<path d="M15410 11118
L15410 10718
L15372 10776
L15334 10814
L15296 10833
" />
<path d="M15677 11004
L15867 11004
" />
<path d="M15639 11118
L15772 10718
L15905 11118
" />
<path d="M16039 10966
L16343 10966
" />
<path d="M15524 9718
L15296 9718
" />
<path d="M15410 9718
L15410 9318
L15372 9376
L15334 9414
L15296 9433
" />
<path d="M15677 9604
L15867 9604
" />
<path d="M15639 9718
L15772 9318
L15905 9718
" />
<path d="M16039 9566
L16343 9566
" />
<path d="M16191 9718
L16191 9414
" />
<path d="M15296 7718
L15429 8118
L15562 7718
" />
<path d="M15924 8080
L15905 8099
L15848 8118
L15810 8118
L15753 8099
L15715 8061
L15696 8023
L15677 7947
L15677 7890
L15696 7814
L15715 7776
L15753 7738
L15810 7718
L15848 7718
L15905 7738
L15924 7757
" />
<path d="M16324 8080
L16305 8099
L16248 8118
L16210 8118
L16153 8099
L16115 8061
L16096 8023
L16077 7947
L16077 7890
L16096 7814
L16115 7776
L16153 7738
L16210 7718
L16248 7718
L16305 7738
L16324 7757
" />
<path d="M15524 6438
L15486 6418
L15429 6418
L15372 6438
L15334 6476
L15315 6514
L15296 6590
L15296 6647
L15315 6723
L15334 6761
L15372 6799
L15429 6818
L15467 6818
L15524 6799
L15543 6780
L15543 6647
L15467 6647
" />
<path d="M15715 6818
L15715 6418
L15943 6818
L15943 6418
" />
<path d="M16134 6818
L16134 6418
L16229 6418
L16286 6438
L16324 6476
L16343 6514
L16362 6590
L16362 6647
L16343 6723
L16324 6761
L16286 6799
L16229 6818
L16134 6818
" />
<path d="M15524 3738
L15486 3718
L15429 3718
L15372 3738
L15334 3776
L15315 3814
L15296 3890
L15296 3947
L15315 4023
L15334 4061
L15372 4099
L15429 4118
L15467 4118
L15524 4099
L15543 4080
L15543 3947
L15467 3947
" />
<path d="M15715 4118
L15715 3718
L15943 4118
L15943 3718
" />
<path d="M16134 4118
L16134 3718
L16229 3718
L16286 3738
L16324 3776
L16343 3814
L16362 3890
L16362 3947
L16343 4023
L16324 4061
L16286 4099
L16229 4118
L16134 4118
" />
<path d="M15315 4966
L15620 4966
" />
<path d="M15467 5118
L15467 4814
" />
<path d="M16000 4718
L15810 4718
L15791 4909
L15810 4890
L15848 4871
L15943 4871
L15981 4890
L16000 4909
L16020 4947
L16020 5042
L16000 5080
L15981 5099
L15943 5118
L15848 5118
L15810 5099
L15791 5080
" />
<path d="M16134 4718
L16267 5118
L16400 4718
" />
</g>
<g style="fill:#000000; fill-opacity:0.0; 
stroke:#000000; stroke-width:0; stroke-opacity:1; 
stroke-linecap:round; stroke-linejoin:round;">
</g>
<g style="fill:#000000; fill-opacity:1.0; 
stroke:#000000; stroke-width:0; stroke-opacity:1; 
stroke-linecap:round; stroke-linejoin:round;">
<polyline style="fill-rule:evenodd;"
points="11183,5303
10475,5303
10475,4674
11183,4674
11183,5303
" /> 
<polyline style="fill-rule:evenodd;"
points="11183,4201
10475,4201
10475,3572
11183,3572
11183,4201
" /> 
<polyline style="fill-rule:evenodd;"
points="3419,4893
2919,4893
2919,3893
3419,3893
3419,4893
" /> 
<polyline style="fill-rule:evenodd;"
points="4419,4893
3919,4893
3919,3893
4419,3893
4419,4893
" /> 
<polyline style="fill-rule:evenodd;"
points="5419,4893
4919,4893
4919,3893
5419,3893
5419,4893
" /> 
<polyline style="fill-rule:evenodd;"
points="6419,4893
5919,4893
5919,3893
6419,3893
6419,4893
" /> 
<polyline style="fill-rule:evenodd;"
points="7419,4893
6919,4893
6919,3893
7419,3893
7419,4893
" /> 
<polyline style="fill-rule:evenodd;"
points="8419,4893
7919,4893
7919,3893
8419,3893
8419,4893
" /> 
<polyline style="fill-rule:evenodd;"
points="7555,7223
8424,7223
8424,7463
7555,7463
7555,7223
" /> 
<polyline style="fill-rule:evenodd;"
points="7555,7723
8424,7723
8424,7963
7555,7963
7555,7723
" /> 
<polyline style="fill-rule:evenodd;"
points="7555,8223
8424,8223
8424,8463
7555,8463
7555,8223
" /> 
<polyline style="fill-rule:evenodd;"
points="7555,8723
8424,8723
8424,8963
7555,8963
7555,8723
" /> 
<polyline style="fill-rule:evenodd;"
points="7555,9223
8424,9223
8424,9463
7555,9463
7555,9223
" /> 
<polyline style="fill-rule:evenodd;"
points="7555,9723
8424,9723
8424,9963
7555,9963
7555,9723
" /> 
<polyline style="fill-rule:evenodd;"
points="7555,10223
8424,10223
8424,10463
7555,10463
7555,10223
" /> 
<polyline style="fill-rule:evenodd;"
points="9605,10223
10474,10223
10474,10463
9605,10463
9605,10223
" /> 
<polyline style="fill-rule:evenodd;"
points="9605,9723
10474,9723
10474,9963
9605,9963
9605,9723
" /> 
<polyline style="fill-rule:evenodd;"
points="9605,9223
10474,9223
10474,9463
9605,9463
9605,9223
" /> 
<polyline style="fill-rule:evenodd;"
points="9605,8723
10474,8723
10474,8963
9605,8963
9605,8723
" /> 
<polyline style="fill-rule:evenodd;"
points="9605,8223
10474,8223
10474,8463
9605,8463
9605,8223
" /> 
<polyline style="fill-rule:evenodd;"
points="9605,7723
10474,7723
10474,7963
9605,7963
9605,7723
" /> 
<polyline style="fill-rule:evenodd;"
points="9605,7223
10474,7223
10474,7463
9605,7463
9605,7223
" /> 
<circle cx="13634.5" cy="6605.03" r="429.5" /> 
</g>
<g style="fill:#000000; fill-opacity:1.0; 
stroke:#000000; stroke-width:39.3701; stroke-opacity:1; 
stroke-linecap:round; stroke-linejoin:round;">
</g>
<g style="fill:#000000; fill-opacity:1.0; 
stroke:#000000; stroke-width:0; stroke-opacity:1; 
stroke-linecap:round; stroke-linejoin:round;">
<circle cx="13634.5" cy="7982.03" r="429.5" /> 
</g>
<g style="fill:#000000; fill-opacity:1.0; 
stroke:#000000; stroke-width:39.3701; stroke-opacity:1; 
stroke-linecap:round; stroke-linejoin:round;">
</g>
<g style="fill:#000000; fill-opacity:1.0; 
stroke:#000000; stroke-width:0; stroke-opacity:1; 
stroke-linecap:round; stroke-linejoin:round;">
<circle cx="13639.5" cy="9535.03" r="429.5" /> 
</g>
<g style="fill:#000000; fill-opacity:1.0; 
stroke:#000000; stroke-width:39.3701; stroke-opacity:1; 
stroke-linecap:round; stroke-linejoin:round;">
</g>
<g style="fill:#000000; fill-opacity:1.0; 
stroke:#000000; stroke-width:0; stroke-opacity:1; 
stroke-linecap:round; stroke-linejoin:round;">
<circle cx="13639.5" cy="10912" r="429.5" /> 
</g>
<g style="fill:#000000; fill-opacity:1.0; 
stroke:#000000; stroke-width:39.3701; stroke-opacity:1; 
stroke-linecap:round; stroke-linejoin:round;">
</g>
<g style="fill:#000000; fill-opacity:1.0; 
stroke:#000000; stroke-width:0; stroke-opacity:1; 
stroke-linecap:round; stroke-linejoin:round;">
<circle cx="13639.5" cy="12505" r="429.5" /> 
</g>
<g style="fill:#000000; fill-opacity:1.0; 
stroke:#000000; stroke-width:39.3701; stroke-opacity:1; 
stroke-linecap:round; stroke-linejoin:round;">
</g>
<g style="fill:#000000; fill-opacity:1.0; 
stroke:#000000; stroke-width:0; stroke-opacity:1; 
stroke-linecap:round; stroke-linejoin:round;">
<circle cx="13639.5" cy="13882" r="429.5" /> 
</g>
<g style="fill:#000000; fill-opacity:1.0; 
stroke:#000000; stroke-width:39.3701; stroke-opacity:1; 
stroke-linecap:round; stroke-linejoin:round;">
</g>
<g style="fill:#000000; fill-opacity:1.0; 
stroke:#000000; stroke-width:0; stroke-opacity:1; 
stroke-linecap:round; stroke-linejoin:round;">
<circle cx="2829.53" cy="8046.03" r="429.5" /> 
</g>
<g style="fill:#000000; fill-opacity:1.0; 
stroke:#000000; stroke-width:39.3701; stroke-opacity:1; 
stroke-linecap:round; stroke-linejoin:round;">
</g>
<g style="fill:#000000; fill-opacity:1.0; 
stroke:#000000; stroke-width:0; stroke-opacity:1; 
stroke-linecap:round; stroke-linejoin:round;">
<circle cx="2829.53" cy="6669.03" r="429.5" /> 
</g>
<g style="fill:#000000; fill-opacity:1.0; 
stroke:#000000; stroke-width:39.3701; stroke-opacity:1; 
stroke-linecap:round; stroke-linejoin:round;">
</g>
<g style="fill:#000000; fill-opacity:1.0; 
stroke:#000000; stroke-width:0; stroke-opacity:1; 
stroke-linecap:round; stroke-linejoin:round;">
<circle cx="2829.53" cy="14046" r="429.5" /> 
</g>
<g style="fill:#000000; fill-opacity:1.0; 
stroke:#000000; stroke-width:39.3701; stroke-opacity:1; 
stroke-linecap:round; stroke-linejoin:round;">
</g>
<g style="fill:#000000; fill-opacity:1.0; 
stroke:#000000; stroke-width:0; stroke-opacity:1; 
stroke-linecap:round; stroke-linejoin:round;">
<circle cx="2829.53" cy="12669" r="429.5" /> 
</g>
<g style="fill:#000000; fill-opacity:1.0; 
stroke:#000000; stroke-width:39.3701; stroke-opacity:1; 
stroke-linecap:round; stroke-linejoin:round;">
</g>
<g style="fill:#000000; fill-opacity:1.0; 
stroke:#000000; stroke-width:0; stroke-opacity:1; 
stroke-linecap:round; stroke-linejoin:round;">
<circle cx="2829.53" cy="11046" r="429.5" /> 
</g>
<g style="fill:#000000; fill-opacity:1.0; 
stroke:#000000; stroke-width:39.3701; stroke-opacity:1; 
stroke-linecap:round; stroke-linejoin:round;">
</g>
<g style="fill:#000000; fill-opacity:1.0; 
stroke:#000000; stroke-width:0; stroke-opacity:1; 
stroke-linecap:round; stroke-linejoin:round;">
<circle cx="2829.53" cy="9669.03" r="429.5" /> 
</g>
<g style="fill:#000000; fill-opacity:1.0; 
stroke:#000000; stroke-width:39.3701; stroke-opacity:1; 
stroke-linecap:round; stroke-linejoin:round;">
</g>
<g style="fill:#000000; fill-opacity:1.0; 
stroke:#000000; stroke-width:0; stroke-opacity:1; 
stroke-linecap:round; stroke-linejoin:round;">
<polyline style="fill-rule:evenodd;"
points="7759,13948
7259,13948
7259,12948
7759,12948
7759,13948
" /> 
<polyline style="fill-rule:evenodd;"
points="7759,11799
7259,11799
7259,10799
7759,10799
7759,11799
" /> 
<polyline style="fill-rule:evenodd;"
points="8759,13948
8259,13948
8259,12948
8759,12948
8759,13948
" /> 
<polyline style="fill-rule:evenodd;"
points="8759,11799
8259,11799
8259,10799
8759,10799
8759,11799
" /> 
<polyline style="fill-rule:evenodd;"
points="9759,13948
9259,13948
9259,12948
9759,12948
9759,13948
" /> 
<polyline style="fill-rule:evenodd;"
points="9759,11799
9259,11799
9259,10799
9759,10799
9759,11799
" /> 
<polyline style="fill-rule:evenodd;"
points="14829,4688
14829,5188
13829,5188
13829,4688
14829,4688
" /> 
<polyline style="fill-rule:evenodd;"
points="12680,4688
12680,5188
11680,5188
11680,4688
12680,4688
" /> 
<polyline style="fill-rule:evenodd;"
points="14829,3688
14829,4188
13829,4188
13829,3688
14829,3688
" /> 
<polyline style="fill-rule:evenodd;"
points="12680,3688
12680,4188
11680,4188
11680,3688
12680,3688
" /> 
<polyline style="fill-rule:evenodd;"
points="5755,10674
6464,10674
6464,11303
5755,11303
5755,10674
" /> 
<polyline style="fill-rule:evenodd;"
points="5755,11792
6464,11792
6464,12421
5755,12421
5755,11792
" /> 
<polyline style="fill-rule:evenodd;"
points="8064,6492
8064,5784
8693,5784
8693,6492
8064,6492
" /> 
<polyline style="fill-rule:evenodd;"
points="9166,6492
9166,5784
9795,5784
9795,6492
9166,6492
" /> 
<polyline style="fill-rule:evenodd;"
points="8859,5346
8859,4795
9252,4795
9252,5346
8859,5346
" /> 
<polyline style="fill-rule:evenodd;"
points="9607,5346
9607,4795
10000,4795
10000,5346
9607,5346
" /> 
<polyline style="fill-rule:evenodd;"
points="9233,4480
9233,3929
9626,3929
9626,4480
9233,4480
" /> 
<polyline style="fill-rule:evenodd;"
points="3829,8588
3829,8088
4829,8088
4829,8588
3829,8588
" /> 
<polyline style="fill-rule:evenodd;"
points="5978,8588
5978,8088
6978,8088
6978,8588
5978,8588
" /> 
<polyline style="fill-rule:evenodd;"
points="3829,9588
3829,9088
4829,9088
4829,9588
3829,9588
" /> 
<polyline style="fill-rule:evenodd;"
points="5978,9588
5978,9088
6978,9088
6978,9588
5978,9588
" /> 
</g>
<g style="fill:#000000; fill-opacity:1.0; 
stroke:#000000; stroke-width:98.4252; stroke-opacity:1; 
stroke-linecap:round; stroke-linejoin:round;">
</g>
<g style="fill:#000000; fill-opacity:0.0; 
stroke:#000000; stroke-width:98.4252; stroke-opacity:1; 
stroke-linecap:round; stroke-linejoin:round;">
<path d="M2829 6669
L2829 6738
" />
<path d="M2829 6738
L3529 7438
" />
<path d="M5360 11738
L6109 10989
" />
<path d="M2229 11738
L5360 11738
" />
<path d="M1929 11438
L2229 11738
" />
<path d="M1929 9338
L1929 11438
" />
<path d="M2329 8938
L1929 9338
" />
<path d="M3129 8938
L2329 8938
" />
<path d="M3529 8538
L3129 8938
" />
<path d="M3529 7438
L3529 8538
" />
<path d="M2829 6669
L4098 6669
" />
<path d="M5169 5598
L5169 4393
" />
<path d="M4098 6669
L5169 5598
" />
<path d="M5169 4393
L5169 3798
" />
<path d="M9055 4264
L9055 5071
" />
<path d="M8329 3538
L9055 4264
" />
<path d="M5429 3538
L8329 3538
" />
<path d="M5169 3798
L5429 3538
" />
<path d="M9055 5071
L9055 5264
" />
<path d="M9055 5264
L9429 5638
" />
<path d="M11290 5638
L13634 7982
" />
<path d="M9429 5638
L11290 5638
" />
<path d="M9055 5071
L8996 5071
" />
<path d="M8996 5071
L8378 5689
" />
<path d="M8378 5689
L8378 6138
" />
<path d="M8378 6138
L8378 6189
" />
<path d="M8378 6189
L7989 6578
" />
<path d="M7989 6578
L7989 7343
" />
<path d="M6109 10989
L5758 10989
" />
<path d="M6109 10989
L7199 10989
" />
<path d="M7199 10989
L7509 11299
" />
<path d="M2829 8046
L2437 8046
" />
<path d="M2437 8046
L2129 7738
" />
<path d="M2129 7738
L2129 5433
" />
<path d="M2129 5433
L3169 4393
" />
<path d="M3169 4393
L3169 4198
" />
<path d="M3169 4198
L4129 3238
" />
<path d="M8462 3238
L9429 4205
" />
<path d="M4129 3238
L8462 3238
" />
<path d="M13634 6605
L14262 6605
" />
<path d="M14262 6605
L15029 5838
" />
<path d="M9480 6138
L10329 6138
" />
<path d="M10329 6138
L12929 8738
" />
<path d="M12929 8738
L14129 8738
" />
<path d="M14129 8738
L15029 7838
" />
<path d="M15029 7838
L15029 5838
" />
<path d="M14929 3938
L14329 3938
" />
<path d="M15029 5838
L15029 4038
" />
<path d="M15029 4038
L14929 3938
" />
<path d="M12180 3938
L14329 3938
" />
<path d="M10829 3887
L12129 3887
" />
<path d="M12129 3887
L12180 3938
" />
<path d="M9429 4205
L10511 4205
" />
<path d="M10511 4205
L10829 3887
" />
<path d="M9429 6087
L9480 6138
" />
<path d="M9480 6138
L9480 6189
" />
<path d="M9480 6189
L10039 6748
" />
<path d="M10039 6748
L10039 7343
" />
<path d="M9610 6123
L9610 6097
" />
<path d="M13634 6605
L13634 6793
" />
<path d="M9509 11299
L9509 10798
" />
<path d="M9569 7343
L10039 7343
" />
<path d="M9269 7643
L9569 7343
" />
<path d="M9269 10558
L9269 7643
" />
<path d="M9509 10798
L9269 10558
" />
<path d="M6169 4393
L6169 6878
" />
<path d="M7134 7843
L7989 7843
" />
<path d="M6169 6878
L7134 7843
" />
<path d="M6169 4393
L6169 3933
" />
<path d="M6109 12107
L8875 12107
" />
<path d="M8875 12107
L9029 11953
" />
<path d="M7989 8843
L8769 8843
" />
<path d="M9509 12433
L9509 13448
" />
<path d="M9029 11953
L9509 12433
" />
<path d="M9029 9103
L9029 11953
" />
<path d="M8769 8843
L9029 9103
" />
<path d="M7989 9843
L3003 9843
" />
<path d="M3003 9843
L2829 9669
" />
<path d="M7989 10343
L3532 10343
" />
<path d="M3532 10343
L2829 11046
" />
<path d="M8509 11299
L8509 10863
" />
<path d="M8509 10863
L7989 10343
" />
<path d="M7509 13448
L7509 12858
" />
<path d="M10429 10733
L10039 10343
" />
<path d="M10429 13638
L10429 10733
" />
<path d="M9729 14338
L10429 13638
" />
<path d="M9229 14338
L9729 14338
" />
<path d="M9029 14138
L9229 14338
" />
<path d="M9029 12838
L9029 14138
" />
<path d="M8729 12538
L9029 12838
" />
<path d="M7829 12538
L8729 12538
" />
<path d="M7509 12858
L7829 12538
" />
<path d="M2829 12669
L2829 12738
" />
<path d="M2829 12738
L3539 13448
" />
<path d="M3539 13448
L7509 13448
" />
<path d="M7509 13448
L7509 13848
" />
<path d="M10039 9843
L10534 9843
" />
<path d="M9089 14638
L8509 14058
" />
<path d="M10229 14638
L9089 14638
" />
<path d="M11029 13838
L10229 14638
" />
<path d="M11029 10338
L11029 13838
" />
<path d="M10534 9843
L11029 10338
" />
<path d="M2829 14046
L6437 14046
" />
<path d="M8509 14058
L8509 13448
" />
<path d="M8029 14538
L8509 14058
" />
<path d="M6929 14538
L8029 14538
" />
<path d="M6437 14046
L6929 14538
" />
<path d="M10039 9343
L10814 9343
" />
<path d="M12254 12497
L13639 13882
" />
<path d="M12254 10783
L12254 12497
" />
<path d="M10814 9343
L12254 10783
" />
<path d="M10039 8843
L10944 8843
" />
<path d="M12734 11600
L13639 12505
" />
<path d="M12734 10633
L12734 11600
" />
<path d="M10944 8843
L12734 10633
" />
<path d="M10039 8343
L11070 8343
" />
<path d="M11070 8343
L13639 10912
" />
<path d="M10039 7843
L11324 7843
" />
<path d="M13016 9535
L13639 9535
" />
<path d="M11324 7843
L13016 9535
" />
<path d="M12180 4938
L14329 4938
" />
<path d="M10829 4989
L12129 4989
" />
<path d="M12129 4989
L12180 4938
" />
<path d="M9803 5071
L10747 5071
" />
<path d="M10747 5071
L10829 4989
" />
<path d="M4329 8338
L6478 8338
" />
<path d="M6478 8338
L6483 8343
" />
<path d="M6483 8343
L7989 8343
" />
</g>
<g style="fill:#FFFFFF; fill-opacity:0.0; 
stroke:#FFFFFF; stroke-width:98.4252; stroke-opacity:1; 
stroke-linecap:round; stroke-linejoin:round;">
</g>
<g style="fill:#FFFFFF; fill-opacity:1.0; 
stroke:#FFFFFF; stroke-width:0; stroke-opacity:1; 
stroke-linecap:round; stroke-linejoin:round;">
<circle cx="13634.5" cy="6605.03" r="196.5" /> 
</g>
<g style="fill:#FFFFFF; fill-opacity:1.0; 
stroke:#FFFFFF; stroke-width:39.3701; stroke-opacity:1; 
stroke-linecap:round; stroke-linejoin:round;">
</g>
<g style="fill:#FFFFFF; fill-opacity:1.0; 
stroke:#FFFFFF; stroke-width:0; stroke-opacity:1; 
stroke-linecap:round; stroke-linejoin:round;">
<circle cx="13634.5" cy="7982.03" r="196.5" /> 
</g>
<g style="fill:#FFFFFF; fill-opacity:1.0; 
stroke:#FFFFFF; stroke-width:39.3701; stroke-opacity:1; 
stroke-linecap:round; stroke-linejoin:round;">
</g>
<g style="fill:#FFFFFF; fill-opacity:1.0; 
stroke:#FFFFFF; stroke-width:0; stroke-opacity:1; 
stroke-linecap:round; stroke-linejoin:round;">
<circle cx="13639.5" cy="9535.03" r="196.5" /> 
</g>
<g style="fill:#FFFFFF; fill-opacity:1.0; 
stroke:#FFFFFF; stroke-width:39.3701; stroke-opacity:1; 
stroke-linecap:round; stroke-linejoin:round;">
</g>
<g style="fill:#FFFFFF; fill-opacity:1.0; 
stroke:#FFFFFF; stroke-width:0; stroke-opacity:1; 
stroke-linecap:round; stroke-linejoin:round;">
<circle cx="13639.5" cy="10912" r="196.5" /> 
</g>
<g style="fill:#FFFFFF; fill-opacity:1.0; 
stroke:#FFFFFF; stroke-width:39.3701; stroke-opacity:1; 
stroke-linecap:round; stroke-linejoin:round;">
</g>
<g style="fill:#FFFFFF; fill-opacity:1.0; 
stroke:#FFFFFF; stroke-width:0; stroke-opacity:1; 
stroke-linecap:round; stroke-linejoin:round;">
<circle cx="13639.5" cy="12505" r="196.5" /> 
</g>
<g style="fill:#FFFFFF; fill-opacity:1.0; 
stroke:#FFFFFF; stroke-width:39.3701; stroke-opacity:1; 
stroke-linecap:round; stroke-linejoin:round;">
</g>
<g style="fill:#FFFFFF; fill-opacity:1.0; 
stroke:#FFFFFF; stroke-width:0; stroke-opacity:1; 
stroke-linecap:round; stroke-linejoin:round;">
<circle cx="13639.5" cy="13882" r="196.5" /> 
</g>
<g style="fill:#FFFFFF; fill-opacity:1.0; 
stroke:#FFFFFF; stroke-width:39.3701; stroke-opacity:1; 
stroke-linecap:round; stroke-linejoin:round;">
</g>
<g style="fill:#FFFFFF; fill-opacity:1.0; 
stroke:#FFFFFF; stroke-width:0; stroke-opacity:1; 
stroke-linecap:round; stroke-linejoin:round;">
<circle cx="2829.53" cy="8046.03" r="196.5" /> 
</g>
<g style="fill:#FFFFFF; fill-opacity:1.0; 
stroke:#FFFFFF; stroke-width:39.3701; stroke-opacity:1; 
stroke-linecap:round; stroke-linejoin:round;">
</g>
<g style="fill:#FFFFFF; fill-opacity:1.0; 
stroke:#FFFFFF; stroke-width:0; stroke-opacity:1; 
stroke-linecap:round; stroke-linejoin:round;">
<circle cx="2829.53" cy="6669.03" r="196.5" /> 
</g>
<g style="fill:#FFFFFF; fill-opacity:1.0; 
stroke:#FFFFFF; stroke-width:39.3701; stroke-opacity:1; 
stroke-linecap:round; stroke-linejoin:round;">
</g>
<g style="fill:#FFFFFF; fill-opacity:1.0; 
stroke:#FFFFFF; stroke-width:0; stroke-opacity:1; 
stroke-linecap:round; stroke-linejoin:round;">
<circle cx="2829.53" cy="14046" r="196.5" /> 
</g>
<g style="fill:#FFFFFF; fill-opacity:1.0; 
stroke:#FFFFFF; stroke-width:39.3701; stroke-opacity:1; 
stroke-linecap:round; stroke-linejoin:round;">
</g>
<g style="fill:#FFFFFF; fill-opacity:1.0; 
stroke:#FFFFFF; stroke-width:0; stroke-opacity:1; 
stroke-linecap:round; stroke-linejoin:round;">
<circle cx="2829.53" cy="12669" r="196.5" /> 
</g>
<g style="fill:#FFFFFF; fill-opacity:1.0; 
stroke:#FFFFFF; stroke-width:39.3701; stroke-opacity:1; 
stroke-linecap:round; stroke-linejoin:round;">
</g>
<g style="fill:#FFFFFF; fill-opacity:1.0; 
stroke:#FFFFFF; stroke-width:0; stroke-opacity:1; 
stroke-linecap:round; stroke-linejoin:round;">
<circle cx="2829.53" cy="11046" r="196.5" /> 
</g>
<g style="fill:#FFFFFF; fill-opacity:1.0; 
stroke:#FFFFFF; stroke-width:39.3701; stroke-opacity:1; 
stroke-linecap:round; stroke-linejoin:round;">
</g>
<g style="fill:#FFFFFF; fill-opacity:1.0; 
stroke:#FFFFFF; stroke-width:0; stroke-opacity:1; 
stroke-linecap:round; stroke-linejoin:round;">
<circle cx="2829.53" cy="9669.03" r="196.5" /> 
</g>
<g style="fill:#FFFFFF; fill-opacity:1.0; 
stroke:#FFFFFF; stroke-width:39.3701; stroke-opacity:1; 
stroke-linecap:round; stroke-linejoin:round;">
</g>
<g style="fill:#000000; fill-opacity:1.0; 
stroke:#000000; stroke-width:39.3701; stroke-opacity:1; 
stroke-linecap:round; stroke-linejoin:round;">
</g>
<g style="fill:#000000; fill-opacity:1.0; 
stroke:#000000; stroke-width:59.0551; stroke-opacity:1; 
stroke-linecap:round; stroke-linejoin:round;">
</g>
<g style="fill:#000000; fill-opacity:0.0; 
stroke:#000000; stroke-width:59.0551; stroke-opacity:1; 
stroke-linecap:round; stroke-linejoin:round;">
<path d="M16829 1638
L16829 14938
" />
<path d="M29 1638
L16829 1638
" />
<path d="M29 14938
L29 1638
" />
<path d="M16829 14938
L29 14938
" />
</g> 
</svg>
