<?xml version="1.0" standalone="no"?>
 <!DOCTYPE svg PUBLIC "-//W3C//DTD SVG 1.1//EN" 
 "http://www.w3.org/Graphics/SVG/1.1/DTD/svg11.dtd"> 
<svg xmlns="http://www.w3.org/2000/svg" version="1.1" 
    width="4.2799cm" height="3.79984cm" viewBox="0 0 16850 14960 ">
<title>SVG Picture created as sit-sensor-B.SilkS.svg date 2017/12/18 15:28:03 </title>
  <desc>Picture generated by PCBNEW </desc>
<g style="fill:#000000; fill-opacity:1;stroke:#000000; stroke-opacity:1;
stroke-linecap:round; stroke-linejoin:round; "
 transform="translate(0 0) scale(1 1)">
</g>
<g style="fill:#000000; fill-opacity:0.0; 
stroke:#000000; stroke-width:-0.000393701; stroke-opacity:1; 
stroke-linecap:round; stroke-linejoin:round;">
</g>
<g style="fill:#000000; fill-opacity:0.0; 
stroke:#000000; stroke-width:60; stroke-opacity:1; 
stroke-linecap:round; stroke-linejoin:round;">
<path d="M8309 10522
L9719 10522
" />
<path d="M9719 7164
L8309 7164
" />
</g>
<g style="fill:#000000; fill-opacity:0.0; 
stroke:#000000; stroke-width:30; stroke-opacity:1; 
stroke-linecap:round; stroke-linejoin:round;">
<circle cx="8709.53" cy="7463.03" r="148.493" /> 
</g>
<g style="fill:#000000; fill-opacity:0.0; 
stroke:#000000; stroke-width:50; stroke-opacity:1; 
stroke-linecap:round; stroke-linejoin:round;">
<path d="M12296 8651
L14500 8651
" />
<path d="M14500 8651
L15051 8651
" />
<path d="M15051 8651
L15051 5896
" />
<path d="M15051 5896
L14500 5896
" />
<path d="M14500 5896
L12296 5896
" />
<path d="M12296 5896
L12296 8651
" />
<path d="M14500 8651
L14500 5896
" />
<path d="M12301 11581
L14505 11581
" />
<path d="M14505 11581
L15056 11581
" />
<path d="M15056 11581
L15056 8826
" />
<path d="M15056 8826
L14505 8826
" />
<path d="M14505 8826
L12301 8826
" />
<path d="M12301 8826
L12301 11581
" />
<path d="M14505 11581
L14505 8826
" />
<path d="M12301 14551
L14505 14551
" />
<path d="M14505 14551
L15056 14551
" />
<path d="M15056 14551
L15056 11796
" />
<path d="M15056 11796
L14505 11796
" />
<path d="M14505 11796
L12301 11796
" />
<path d="M12301 11796
L12301 14551
" />
<path d="M14505 14551
L14505 11796
" />
<path d="M4167 6000
L1963 6000
" />
<path d="M1963 6000
L1412 6000
" />
<path d="M1412 6000
L1412 8755
" />
<path d="M1412 8755
L1963 8755
" />
<path d="M1963 8755
L4167 8755
" />
<path d="M4167 8755
L4167 6000
" />
<path d="M1963 6000
L1963 8755
" />
<path d="M4167 12000
L1963 12000
" />
<path d="M1963 12000
L1412 12000
" />
<path d="M1412 12000
L1412 14755
" />
<path d="M1412 14755
L1963 14755
" />
<path d="M1963 14755
L4167 14755
" />
<path d="M4167 14755
L4167 12000
" />
<path d="M1963 12000
L1963 14755
" />
<path d="M4167 9000
L1963 9000
" />
<path d="M1963 9000
L1412 9000
" />
<path d="M1412 9000
L1412 11755
" />
<path d="M1412 11755
L1963 11755
" />
<path d="M1963 11755
L4167 11755
" />
<path d="M4167 11755
L4167 9000
" />
<path d="M1963 9000
L1963 11755
" />
</g>
<g style="fill:#000000; fill-opacity:0.0; 
stroke:#000000; stroke-width:60; stroke-opacity:1; 
stroke-linecap:round; stroke-linejoin:round;">
<path d="M8869 4698
L8869 4378
" />
<path d="M8869 4378
L9089 4378
" />
<path d="M9989 4378
L9989 4698
" />
<path d="M9769 4378
L9989 4378
" />
</g> 
</svg>
