<?xml version="1.0" standalone="no"?>
 <!DOCTYPE svg PUBLIC "-//W3C//DTD SVG 1.1//EN" 
 "http://www.w3.org/Graphics/SVG/1.1/DTD/svg11.dtd"> 
<svg xmlns="http://www.w3.org/2000/svg" version="1.1" 
    width="5.56768cm" height="2.1971cm" viewBox="0 0 21920 8650 ">
<title>SVG Picture created as power_board-brd.svg date 2017/12/10 19:02:36 </title>
  <desc>Picture generated by PCBNEW </desc>
<g style="fill:#000000; fill-opacity:1;stroke:#000000; stroke-opacity:1;
stroke-linecap:round; stroke-linejoin:round; "
 transform="translate(0 0) scale(1 1)">
</g>
<g style="fill:#000000; fill-opacity:0.0; 
stroke:#000000; stroke-width:-0.000393701; stroke-opacity:1; 
stroke-linecap:round; stroke-linejoin:round;">
</g>
<g style="fill:#000000; fill-opacity:0.0; 
stroke:#000000; stroke-width:118.11; stroke-opacity:1; 
stroke-linecap:round; stroke-linejoin:round;">
<path d="M6548 7634
L6492 7606
L6408 7606
L6323 7634
L6267 7690
L6239 7746
L6211 7859
L6211 7943
L6239 8056
L6267 8112
L6323 8168
L6408 8196
L6464 8196
L6548 8168
L6576 8140
L6576 7943
L6464 7943
" />
<path d="M6830 8196
L6830 7606
L7167 8196
L7167 7606
" />
<path d="M7448 8196
L7448 7606
L7589 7606
L7673 7634
L7729 7690
L7758 7746
L7786 7859
L7786 7943
L7758 8056
L7729 8112
L7673 8168
L7589 8196
L7448 8196
" />
<path d="M7639 771
L8089 771
" />
<path d="M7864 996
L7864 546
" />
<path d="M8651 406
L8370 406
L8342 687
L8370 659
L8426 631
L8567 631
L8623 659
L8651 687
L8679 743
L8679 884
L8651 940
L8623 968
L8567 996
L8426 996
L8370 968
L8342 940
" />
<path d="M8848 406
L9045 996
L9242 406
" />
</g>
<g style="fill:#000000; fill-opacity:1.0; 
stroke:#000000; stroke-width:0; stroke-opacity:1; 
stroke-linecap:round; stroke-linejoin:round;">
<circle cx="3920.39" cy="4329.53" r="354.331" /> 
</g>
<g style="fill:#000000; fill-opacity:1.0; 
stroke:#000000; stroke-width:39.3701; stroke-opacity:1; 
stroke-linecap:round; stroke-linejoin:round;">
</g>
<g style="fill:#000000; fill-opacity:1.0; 
stroke:#000000; stroke-width:0; stroke-opacity:1; 
stroke-linecap:round; stroke-linejoin:round;">
<polyline style="fill-rule:evenodd;"
points="1598,6129
2698,6129
2698,7069
1598,7069
1598,6129
" /> 
<polyline style="fill-rule:evenodd;"
points="1598,1639
2698,1639
2698,2579
1598,2579
1598,1639
" /> 
<polyline style="fill-rule:evenodd;"
points="3998,1639
5098,1639
5098,2579
3998,2579
3998,1639
" /> 
<polyline style="fill-rule:evenodd;"
points="3998,6129
5098,6129
5098,7069
3998,7069
3998,6129
" /> 
<circle cx="2148.74" cy="4329.53" r="334.646" /> 
</g>
<g style="fill:#000000; fill-opacity:1.0; 
stroke:#000000; stroke-width:39.3701; stroke-opacity:1; 
stroke-linecap:round; stroke-linejoin:round;">
</g>
<g style="fill:#000000; fill-opacity:1.0; 
stroke:#000000; stroke-width:0; stroke-opacity:1; 
stroke-linecap:round; stroke-linejoin:round;">
<polyline style="fill-rule:evenodd;"
points="7954,2678
7954,2178
8954,2178
8954,2678
7954,2678
" /> 
<polyline style="fill-rule:evenodd;"
points="10103,2678
10103,2178
11103,2178
11103,2678
10103,2678
" /> 
<polyline style="fill-rule:evenodd;"
points="7954,3678
7954,3178
8954,3178
8954,3678
7954,3678
" /> 
<polyline style="fill-rule:evenodd;"
points="10103,3678
10103,3178
11103,3178
11103,3678
10103,3678
" /> 
<polyline style="fill-rule:evenodd;"
points="11054,6623
11054,7123
10054,7123
10054,6623
11054,6623
" /> 
<polyline style="fill-rule:evenodd;"
points="8905,6623
8905,7123
7905,7123
7905,6623
8905,6623
" /> 
<polyline style="fill-rule:evenodd;"
points="11054,5623
11054,6123
10054,6123
10054,5623
11054,5623
" /> 
<polyline style="fill-rule:evenodd;"
points="8905,5623
8905,6123
7905,6123
7905,5623
8905,5623
" /> 
<polyline style="fill-rule:evenodd;"
points="12490,2678
12490,2178
13490,2178
13490,2678
12490,2678
" /> 
<polyline style="fill-rule:evenodd;"
points="14639,2678
14639,2178
15639,2178
15639,2678
14639,2678
" /> 
<polyline style="fill-rule:evenodd;"
points="12490,3678
12490,3178
13490,3178
13490,3678
12490,3678
" /> 
<polyline style="fill-rule:evenodd;"
points="14639,3678
14639,3178
15639,3178
15639,3678
14639,3678
" /> 
<polyline style="fill-rule:evenodd;"
points="15590,6623
15590,7123
14590,7123
14590,6623
15590,6623
" /> 
<polyline style="fill-rule:evenodd;"
points="13441,6623
13441,7123
12441,7123
12441,6623
13441,6623
" /> 
<polyline style="fill-rule:evenodd;"
points="15590,5623
15590,6123
14590,6123
14590,5623
15590,5623
" /> 
<polyline style="fill-rule:evenodd;"
points="13441,5623
13441,6123
12441,6123
12441,5623
13441,5623
" /> 
<polyline style="fill-rule:evenodd;"
points="17125,2678
17125,2178
18125,2178
18125,2678
17125,2678
" /> 
<polyline style="fill-rule:evenodd;"
points="19274,2678
19274,2178
20274,2178
20274,2678
19274,2678
" /> 
<polyline style="fill-rule:evenodd;"
points="17125,3678
17125,3178
18125,3178
18125,3678
17125,3678
" /> 
<polyline style="fill-rule:evenodd;"
points="19274,3678
19274,3178
20274,3178
20274,3678
19274,3678
" /> 
<polyline style="fill-rule:evenodd;"
points="20225,6623
20225,7123
19225,7123
19225,6623
20225,6623
" /> 
<polyline style="fill-rule:evenodd;"
points="18076,6623
18076,7123
17076,7123
17076,6623
18076,6623
" /> 
<polyline style="fill-rule:evenodd;"
points="20225,5623
20225,6123
19225,6123
19225,5623
20225,5623
" /> 
<polyline style="fill-rule:evenodd;"
points="18076,5623
18076,6123
17076,6123
17076,5623
18076,5623
" /> 
</g>
<g style="fill:#000000; fill-opacity:1.0; 
stroke:#000000; stroke-width:500; stroke-opacity:1; 
stroke-linecap:round; stroke-linejoin:round;">
</g>
<g style="fill:#000000; fill-opacity:0.0; 
stroke:#000000; stroke-width:500; stroke-opacity:1; 
stroke-linecap:round; stroke-linejoin:round;">
<path d="M15090 5873
L17576 5873
" />
<path d="M10603 3428
L8454 3428
" />
<path d="M12990 3428
L10603 3428
" />
<path d="M15139 3428
L12990 3428
" />
<path d="M17625 3428
L15139 3428
" />
<path d="M19774 3428
L17625 3428
" />
<path d="M19725 5873
L19725 3477
" />
<path d="M19725 3477
L19774 3428
" />
<path d="M17576 5873
L19725 5873
" />
<path d="M12941 5873
L15090 5873
" />
<path d="M10554 5873
L12941 5873
" />
<path d="M8405 5873
L10554 5873
" />
<path d="M2148 6599
L2148 6679
" />
<path d="M2148 6679
L3198 7729
" />
<path d="M3198 7729
L5498 7729
" />
<path d="M5498 7729
L7355 5873
" />
<path d="M7355 5873
L8405 5873
" />
<path d="M10554 6873
L8405 6873
" />
<path d="M12941 6873
L10554 6873
" />
<path d="M17576 6873
L15090 6873
" />
<path d="M15090 6873
L12941 6873
" />
<path d="M19725 6873
L17576 6873
" />
<path d="M19774 2428
L20597 2428
" />
<path d="M20555 6873
L19725 6873
" />
<path d="M21098 6329
L20555 6873
" />
<path d="M21098 2929
L21098 6329
" />
<path d="M20597 2428
L21098 2929
" />
<path d="M15139 2428
L17625 2428
" />
<path d="M17625 2428
L19774 2428
" />
<path d="M12990 2428
L15139 2428
" />
<path d="M10603 2428
L12990 2428
" />
<path d="M8454 2428
L10603 2428
" />
<path d="M2148 2109
L2218 2109
" />
<path d="M2218 2109
L3498 829
" />
<path d="M3498 829
L6855 829
" />
<path d="M6855 829
L8454 2428
" />
</g>
<g style="fill:#FFFFFF; fill-opacity:0.0; 
stroke:#FFFFFF; stroke-width:500; stroke-opacity:1; 
stroke-linecap:round; stroke-linejoin:round;">
</g>
<g style="fill:#000000; fill-opacity:0.0; 
stroke:#000000; stroke-width:500; stroke-opacity:1; 
stroke-linecap:round; stroke-linejoin:round;">
</g>
<g style="fill:#000000; fill-opacity:0.0; 
stroke:#000000; stroke-width:59.0551; stroke-opacity:1; 
stroke-linecap:round; stroke-linejoin:round;">
<path d="M21898 29
L98 29
" />
<path d="M21898 8629
L21898 29
" />
<path d="M98 8629
L21898 8629
" />
<path d="M98 29
L98 8629
" />
</g> 
</svg>
